%TF.GenerationSoftware,KiCad,Pcbnew,8.0.4*%
%TF.CreationDate,2024-07-27T17:20:27+08:00*%
%TF.ProjectId,DapLink_STM32F103CBT6,4461704c-696e-46b5-9f53-544d33324631,rev?*%
%TF.SameCoordinates,Original*%
%TF.FileFunction,Legend,Top*%
%TF.FilePolarity,Positive*%
%FSLAX46Y46*%
G04 Gerber Fmt 4.6, Leading zero omitted, Abs format (unit mm)*
G04 Created by KiCad (PCBNEW 8.0.4) date 2024-07-27 17:20:27*
%MOMM*%
%LPD*%
G01*
G04 APERTURE LIST*
%ADD10C,0.100000*%
%ADD11C,0.150000*%
%ADD12C,0.300000*%
%ADD13C,0.120000*%
G04 APERTURE END LIST*
D10*
X89100000Y-97000000D02*
X92700000Y-97000000D01*
X92700000Y-93100000D02*
X92700000Y-95000000D01*
X88600000Y-97500000D02*
X89100000Y-97000000D01*
X91950000Y-92600000D02*
X92700000Y-94050000D01*
X38400000Y-100100000D02*
X42400000Y-100100000D01*
X88200000Y-103700000D02*
X88600000Y-102100000D01*
X100600000Y-95700000D02*
X100600000Y-97500000D01*
X100800000Y-93100000D02*
X103300000Y-93100000D01*
X83400000Y-77900000D02*
X84500000Y-77900000D01*
X91400000Y-92600000D02*
X92500000Y-92600000D01*
X81000000Y-91300000D02*
X81000000Y-93100000D01*
X81000000Y-91700000D02*
X81000000Y-91300000D01*
X100600000Y-93100000D02*
X100600000Y-94900000D01*
X100600000Y-95900000D02*
X101800000Y-95200000D01*
X88600000Y-97700000D02*
X88600000Y-97500000D01*
X82600000Y-77900000D02*
X80100000Y-79315000D01*
X92500000Y-92600000D02*
X91950000Y-92600000D01*
X100800000Y-95200000D02*
X103400000Y-95200000D01*
X92700000Y-95900000D02*
X92700000Y-97400000D01*
X79900000Y-90700000D02*
X81000000Y-91700000D01*
X83950000Y-77900000D02*
X82200000Y-79315000D01*
X38400000Y-100550000D02*
X38400000Y-98050000D01*
X88600000Y-98000000D02*
X88600000Y-97700000D01*
X100600000Y-93700000D02*
X102050000Y-93100000D01*
X88600000Y-102100000D02*
X88600000Y-98000000D01*
X77400000Y-90700000D02*
X79900000Y-90700000D01*
X42400000Y-100500000D02*
X42400000Y-98800000D01*
X92700000Y-97000000D02*
X92700000Y-95900000D01*
X83100000Y-77900000D02*
X82100000Y-77900000D01*
X88200000Y-105000000D02*
X88200000Y-102400000D01*
D11*
X90242475Y-68629887D02*
X90242475Y-69010839D01*
X90242475Y-69010839D02*
X89442475Y-69010839D01*
X90242475Y-68363220D02*
X89442475Y-68363220D01*
X89442475Y-68363220D02*
X89442475Y-68172744D01*
X89442475Y-68172744D02*
X89480570Y-68058458D01*
X89480570Y-68058458D02*
X89556760Y-67982268D01*
X89556760Y-67982268D02*
X89632951Y-67944173D01*
X89632951Y-67944173D02*
X89785332Y-67906077D01*
X89785332Y-67906077D02*
X89899618Y-67906077D01*
X89899618Y-67906077D02*
X90051999Y-67944173D01*
X90051999Y-67944173D02*
X90128189Y-67982268D01*
X90128189Y-67982268D02*
X90204380Y-68058458D01*
X90204380Y-68058458D02*
X90242475Y-68172744D01*
X90242475Y-68172744D02*
X90242475Y-68363220D01*
X89442475Y-67410839D02*
X89442475Y-67258458D01*
X89442475Y-67258458D02*
X89480570Y-67182268D01*
X89480570Y-67182268D02*
X89556760Y-67106077D01*
X89556760Y-67106077D02*
X89709141Y-67067982D01*
X89709141Y-67067982D02*
X89975808Y-67067982D01*
X89975808Y-67067982D02*
X90128189Y-67106077D01*
X90128189Y-67106077D02*
X90204380Y-67182268D01*
X90204380Y-67182268D02*
X90242475Y-67258458D01*
X90242475Y-67258458D02*
X90242475Y-67410839D01*
X90242475Y-67410839D02*
X90204380Y-67487030D01*
X90204380Y-67487030D02*
X90128189Y-67563220D01*
X90128189Y-67563220D02*
X89975808Y-67601316D01*
X89975808Y-67601316D02*
X89709141Y-67601316D01*
X89709141Y-67601316D02*
X89556760Y-67563220D01*
X89556760Y-67563220D02*
X89480570Y-67487030D01*
X89480570Y-67487030D02*
X89442475Y-67410839D01*
X92818385Y-68591792D02*
X92818385Y-69048935D01*
X92818385Y-68820363D02*
X92018385Y-68820363D01*
X92018385Y-68820363D02*
X92132670Y-68896554D01*
X92132670Y-68896554D02*
X92208861Y-68972744D01*
X92208861Y-68972744D02*
X92246956Y-69048935D01*
X92742194Y-68248934D02*
X92780290Y-68210839D01*
X92780290Y-68210839D02*
X92818385Y-68248934D01*
X92818385Y-68248934D02*
X92780290Y-68287030D01*
X92780290Y-68287030D02*
X92742194Y-68248934D01*
X92742194Y-68248934D02*
X92818385Y-68248934D01*
X92361242Y-67753697D02*
X92323147Y-67829887D01*
X92323147Y-67829887D02*
X92285051Y-67867982D01*
X92285051Y-67867982D02*
X92208861Y-67906078D01*
X92208861Y-67906078D02*
X92170766Y-67906078D01*
X92170766Y-67906078D02*
X92094575Y-67867982D01*
X92094575Y-67867982D02*
X92056480Y-67829887D01*
X92056480Y-67829887D02*
X92018385Y-67753697D01*
X92018385Y-67753697D02*
X92018385Y-67601316D01*
X92018385Y-67601316D02*
X92056480Y-67525125D01*
X92056480Y-67525125D02*
X92094575Y-67487030D01*
X92094575Y-67487030D02*
X92170766Y-67448935D01*
X92170766Y-67448935D02*
X92208861Y-67448935D01*
X92208861Y-67448935D02*
X92285051Y-67487030D01*
X92285051Y-67487030D02*
X92323147Y-67525125D01*
X92323147Y-67525125D02*
X92361242Y-67601316D01*
X92361242Y-67601316D02*
X92361242Y-67753697D01*
X92361242Y-67753697D02*
X92399337Y-67829887D01*
X92399337Y-67829887D02*
X92437432Y-67867982D01*
X92437432Y-67867982D02*
X92513623Y-67906078D01*
X92513623Y-67906078D02*
X92666004Y-67906078D01*
X92666004Y-67906078D02*
X92742194Y-67867982D01*
X92742194Y-67867982D02*
X92780290Y-67829887D01*
X92780290Y-67829887D02*
X92818385Y-67753697D01*
X92818385Y-67753697D02*
X92818385Y-67601316D01*
X92818385Y-67601316D02*
X92780290Y-67525125D01*
X92780290Y-67525125D02*
X92742194Y-67487030D01*
X92742194Y-67487030D02*
X92666004Y-67448935D01*
X92666004Y-67448935D02*
X92513623Y-67448935D01*
X92513623Y-67448935D02*
X92437432Y-67487030D01*
X92437432Y-67487030D02*
X92399337Y-67525125D01*
X92399337Y-67525125D02*
X92361242Y-67601316D01*
X92018385Y-67220363D02*
X92818385Y-66953696D01*
X92818385Y-66953696D02*
X92018385Y-66687030D01*
X94594295Y-69125125D02*
X94594295Y-68667982D01*
X95394295Y-68896554D02*
X94594295Y-68896554D01*
X95165723Y-68439411D02*
X95165723Y-68058458D01*
X95394295Y-68515601D02*
X94594295Y-68248934D01*
X94594295Y-68248934D02*
X95394295Y-67982268D01*
X95394295Y-67258458D02*
X95013342Y-67525125D01*
X95394295Y-67715601D02*
X94594295Y-67715601D01*
X94594295Y-67715601D02*
X94594295Y-67410839D01*
X94594295Y-67410839D02*
X94632390Y-67334649D01*
X94632390Y-67334649D02*
X94670485Y-67296554D01*
X94670485Y-67296554D02*
X94746676Y-67258458D01*
X94746676Y-67258458D02*
X94860961Y-67258458D01*
X94860961Y-67258458D02*
X94937152Y-67296554D01*
X94937152Y-67296554D02*
X94975247Y-67334649D01*
X94975247Y-67334649D02*
X95013342Y-67410839D01*
X95013342Y-67410839D02*
X95013342Y-67715601D01*
X94632390Y-66496554D02*
X94594295Y-66572744D01*
X94594295Y-66572744D02*
X94594295Y-66687030D01*
X94594295Y-66687030D02*
X94632390Y-66801316D01*
X94632390Y-66801316D02*
X94708580Y-66877506D01*
X94708580Y-66877506D02*
X94784771Y-66915601D01*
X94784771Y-66915601D02*
X94937152Y-66953697D01*
X94937152Y-66953697D02*
X95051438Y-66953697D01*
X95051438Y-66953697D02*
X95203819Y-66915601D01*
X95203819Y-66915601D02*
X95280009Y-66877506D01*
X95280009Y-66877506D02*
X95356200Y-66801316D01*
X95356200Y-66801316D02*
X95394295Y-66687030D01*
X95394295Y-66687030D02*
X95394295Y-66610839D01*
X95394295Y-66610839D02*
X95356200Y-66496554D01*
X95356200Y-66496554D02*
X95318104Y-66458458D01*
X95318104Y-66458458D02*
X95051438Y-66458458D01*
X95051438Y-66458458D02*
X95051438Y-66610839D01*
X94975247Y-66115601D02*
X94975247Y-65848935D01*
X95394295Y-65734649D02*
X95394295Y-66115601D01*
X95394295Y-66115601D02*
X94594295Y-66115601D01*
X94594295Y-66115601D02*
X94594295Y-65734649D01*
X94594295Y-65506077D02*
X94594295Y-65048934D01*
X95394295Y-65277506D02*
X94594295Y-65277506D01*
X69757524Y-109970112D02*
X69757524Y-109589160D01*
X69757524Y-109589160D02*
X70557524Y-109589160D01*
X67600662Y-109855826D02*
X67562567Y-109970112D01*
X67562567Y-109970112D02*
X67524471Y-110008207D01*
X67524471Y-110008207D02*
X67448281Y-110046303D01*
X67448281Y-110046303D02*
X67333995Y-110046303D01*
X67333995Y-110046303D02*
X67257805Y-110008207D01*
X67257805Y-110008207D02*
X67219710Y-109970112D01*
X67219710Y-109970112D02*
X67181614Y-109893922D01*
X67181614Y-109893922D02*
X67181614Y-109589160D01*
X67181614Y-109589160D02*
X67981614Y-109589160D01*
X67981614Y-109589160D02*
X67981614Y-109855826D01*
X67981614Y-109855826D02*
X67943519Y-109932017D01*
X67943519Y-109932017D02*
X67905424Y-109970112D01*
X67905424Y-109970112D02*
X67829233Y-110008207D01*
X67829233Y-110008207D02*
X67753043Y-110008207D01*
X67753043Y-110008207D02*
X67676852Y-109970112D01*
X67676852Y-109970112D02*
X67638757Y-109932017D01*
X67638757Y-109932017D02*
X67600662Y-109855826D01*
X67600662Y-109855826D02*
X67600662Y-109589160D01*
X67181614Y-110503445D02*
X67219710Y-110427255D01*
X67219710Y-110427255D02*
X67257805Y-110389160D01*
X67257805Y-110389160D02*
X67333995Y-110351064D01*
X67333995Y-110351064D02*
X67562567Y-110351064D01*
X67562567Y-110351064D02*
X67638757Y-110389160D01*
X67638757Y-110389160D02*
X67676852Y-110427255D01*
X67676852Y-110427255D02*
X67714948Y-110503445D01*
X67714948Y-110503445D02*
X67714948Y-110617731D01*
X67714948Y-110617731D02*
X67676852Y-110693922D01*
X67676852Y-110693922D02*
X67638757Y-110732017D01*
X67638757Y-110732017D02*
X67562567Y-110770112D01*
X67562567Y-110770112D02*
X67333995Y-110770112D01*
X67333995Y-110770112D02*
X67257805Y-110732017D01*
X67257805Y-110732017D02*
X67219710Y-110693922D01*
X67219710Y-110693922D02*
X67181614Y-110617731D01*
X67181614Y-110617731D02*
X67181614Y-110503445D01*
X67181614Y-111227255D02*
X67219710Y-111151065D01*
X67219710Y-111151065D02*
X67257805Y-111112970D01*
X67257805Y-111112970D02*
X67333995Y-111074874D01*
X67333995Y-111074874D02*
X67562567Y-111074874D01*
X67562567Y-111074874D02*
X67638757Y-111112970D01*
X67638757Y-111112970D02*
X67676852Y-111151065D01*
X67676852Y-111151065D02*
X67714948Y-111227255D01*
X67714948Y-111227255D02*
X67714948Y-111341541D01*
X67714948Y-111341541D02*
X67676852Y-111417732D01*
X67676852Y-111417732D02*
X67638757Y-111455827D01*
X67638757Y-111455827D02*
X67562567Y-111493922D01*
X67562567Y-111493922D02*
X67333995Y-111493922D01*
X67333995Y-111493922D02*
X67257805Y-111455827D01*
X67257805Y-111455827D02*
X67219710Y-111417732D01*
X67219710Y-111417732D02*
X67181614Y-111341541D01*
X67181614Y-111341541D02*
X67181614Y-111227255D01*
X67714948Y-111722494D02*
X67714948Y-112027256D01*
X67981614Y-111836780D02*
X67295900Y-111836780D01*
X67295900Y-111836780D02*
X67219710Y-111874875D01*
X67219710Y-111874875D02*
X67181614Y-111951065D01*
X67181614Y-111951065D02*
X67181614Y-112027256D01*
X67181614Y-112712970D02*
X67181614Y-112255827D01*
X67181614Y-112484399D02*
X67981614Y-112484399D01*
X67981614Y-112484399D02*
X67867329Y-112408208D01*
X67867329Y-112408208D02*
X67791138Y-112332018D01*
X67791138Y-112332018D02*
X67753043Y-112255827D01*
X64605704Y-109589160D02*
X65405704Y-109589160D01*
X65024752Y-109589160D02*
X65024752Y-110046303D01*
X64605704Y-110046303D02*
X65405704Y-110046303D01*
D12*
X90454510Y-79485912D02*
X90454510Y-77985912D01*
X90454510Y-77985912D02*
X90811653Y-77985912D01*
X90811653Y-77985912D02*
X91025939Y-78057341D01*
X91025939Y-78057341D02*
X91168796Y-78200198D01*
X91168796Y-78200198D02*
X91240225Y-78343055D01*
X91240225Y-78343055D02*
X91311653Y-78628769D01*
X91311653Y-78628769D02*
X91311653Y-78843055D01*
X91311653Y-78843055D02*
X91240225Y-79128769D01*
X91240225Y-79128769D02*
X91168796Y-79271626D01*
X91168796Y-79271626D02*
X91025939Y-79414484D01*
X91025939Y-79414484D02*
X90811653Y-79485912D01*
X90811653Y-79485912D02*
X90454510Y-79485912D01*
X91883082Y-79057341D02*
X92597368Y-79057341D01*
X91740225Y-79485912D02*
X92240225Y-77985912D01*
X92240225Y-77985912D02*
X92740225Y-79485912D01*
X93240224Y-79485912D02*
X93240224Y-77985912D01*
X93240224Y-77985912D02*
X93811653Y-77985912D01*
X93811653Y-77985912D02*
X93954510Y-78057341D01*
X93954510Y-78057341D02*
X94025939Y-78128769D01*
X94025939Y-78128769D02*
X94097367Y-78271626D01*
X94097367Y-78271626D02*
X94097367Y-78485912D01*
X94097367Y-78485912D02*
X94025939Y-78628769D01*
X94025939Y-78628769D02*
X93954510Y-78700198D01*
X93954510Y-78700198D02*
X93811653Y-78771626D01*
X93811653Y-78771626D02*
X93240224Y-78771626D01*
X95454510Y-79485912D02*
X94740224Y-79485912D01*
X94740224Y-79485912D02*
X94740224Y-77985912D01*
X95954510Y-79485912D02*
X95954510Y-77985912D01*
X96668796Y-79485912D02*
X96668796Y-77985912D01*
X96668796Y-77985912D02*
X97525939Y-79485912D01*
X97525939Y-79485912D02*
X97525939Y-77985912D01*
X98240225Y-79485912D02*
X98240225Y-77985912D01*
X99097368Y-79485912D02*
X98454511Y-78628769D01*
X99097368Y-77985912D02*
X98240225Y-78843055D01*
X90454510Y-81900828D02*
X90454510Y-80900828D01*
X90454510Y-81186542D02*
X90525939Y-81043685D01*
X90525939Y-81043685D02*
X90597368Y-80972257D01*
X90597368Y-80972257D02*
X90740225Y-80900828D01*
X90740225Y-80900828D02*
X90883082Y-80900828D01*
X91597367Y-81900828D02*
X91454510Y-81829400D01*
X91454510Y-81829400D02*
X91383081Y-81757971D01*
X91383081Y-81757971D02*
X91311653Y-81615114D01*
X91311653Y-81615114D02*
X91311653Y-81186542D01*
X91311653Y-81186542D02*
X91383081Y-81043685D01*
X91383081Y-81043685D02*
X91454510Y-80972257D01*
X91454510Y-80972257D02*
X91597367Y-80900828D01*
X91597367Y-80900828D02*
X91811653Y-80900828D01*
X91811653Y-80900828D02*
X91954510Y-80972257D01*
X91954510Y-80972257D02*
X92025939Y-81043685D01*
X92025939Y-81043685D02*
X92097367Y-81186542D01*
X92097367Y-81186542D02*
X92097367Y-81615114D01*
X92097367Y-81615114D02*
X92025939Y-81757971D01*
X92025939Y-81757971D02*
X91954510Y-81829400D01*
X91954510Y-81829400D02*
X91811653Y-81900828D01*
X91811653Y-81900828D02*
X91597367Y-81900828D01*
X93383082Y-80900828D02*
X93383082Y-82115114D01*
X93383082Y-82115114D02*
X93311653Y-82257971D01*
X93311653Y-82257971D02*
X93240224Y-82329400D01*
X93240224Y-82329400D02*
X93097367Y-82400828D01*
X93097367Y-82400828D02*
X92883082Y-82400828D01*
X92883082Y-82400828D02*
X92740224Y-82329400D01*
X93383082Y-81829400D02*
X93240224Y-81900828D01*
X93240224Y-81900828D02*
X92954510Y-81900828D01*
X92954510Y-81900828D02*
X92811653Y-81829400D01*
X92811653Y-81829400D02*
X92740224Y-81757971D01*
X92740224Y-81757971D02*
X92668796Y-81615114D01*
X92668796Y-81615114D02*
X92668796Y-81186542D01*
X92668796Y-81186542D02*
X92740224Y-81043685D01*
X92740224Y-81043685D02*
X92811653Y-80972257D01*
X92811653Y-80972257D02*
X92954510Y-80900828D01*
X92954510Y-80900828D02*
X93240224Y-80900828D01*
X93240224Y-80900828D02*
X93383082Y-80972257D01*
X94668796Y-81829400D02*
X94525939Y-81900828D01*
X94525939Y-81900828D02*
X94240225Y-81900828D01*
X94240225Y-81900828D02*
X94097367Y-81829400D01*
X94097367Y-81829400D02*
X94025939Y-81686542D01*
X94025939Y-81686542D02*
X94025939Y-81115114D01*
X94025939Y-81115114D02*
X94097367Y-80972257D01*
X94097367Y-80972257D02*
X94240225Y-80900828D01*
X94240225Y-80900828D02*
X94525939Y-80900828D01*
X94525939Y-80900828D02*
X94668796Y-80972257D01*
X94668796Y-80972257D02*
X94740225Y-81115114D01*
X94740225Y-81115114D02*
X94740225Y-81257971D01*
X94740225Y-81257971D02*
X94025939Y-81400828D01*
X95383081Y-81900828D02*
X95383081Y-80900828D01*
X95383081Y-81186542D02*
X95454510Y-81043685D01*
X95454510Y-81043685D02*
X95525939Y-80972257D01*
X95525939Y-80972257D02*
X95668796Y-80900828D01*
X95668796Y-80900828D02*
X95811653Y-80900828D01*
X96240224Y-80543685D02*
X96311652Y-80472257D01*
X96311652Y-80472257D02*
X96454510Y-80400828D01*
X96454510Y-80400828D02*
X96811652Y-80400828D01*
X96811652Y-80400828D02*
X96954510Y-80472257D01*
X96954510Y-80472257D02*
X97025938Y-80543685D01*
X97025938Y-80543685D02*
X97097367Y-80686542D01*
X97097367Y-80686542D02*
X97097367Y-80829400D01*
X97097367Y-80829400D02*
X97025938Y-81043685D01*
X97025938Y-81043685D02*
X96168795Y-81900828D01*
X96168795Y-81900828D02*
X97097367Y-81900828D01*
X97668795Y-80543685D02*
X97740223Y-80472257D01*
X97740223Y-80472257D02*
X97883081Y-80400828D01*
X97883081Y-80400828D02*
X98240223Y-80400828D01*
X98240223Y-80400828D02*
X98383081Y-80472257D01*
X98383081Y-80472257D02*
X98454509Y-80543685D01*
X98454509Y-80543685D02*
X98525938Y-80686542D01*
X98525938Y-80686542D02*
X98525938Y-80829400D01*
X98525938Y-80829400D02*
X98454509Y-81043685D01*
X98454509Y-81043685D02*
X97597366Y-81900828D01*
X97597366Y-81900828D02*
X98525938Y-81900828D01*
X99883080Y-80400828D02*
X99168794Y-80400828D01*
X99168794Y-80400828D02*
X99097366Y-81115114D01*
X99097366Y-81115114D02*
X99168794Y-81043685D01*
X99168794Y-81043685D02*
X99311652Y-80972257D01*
X99311652Y-80972257D02*
X99668794Y-80972257D01*
X99668794Y-80972257D02*
X99811652Y-81043685D01*
X99811652Y-81043685D02*
X99883080Y-81115114D01*
X99883080Y-81115114D02*
X99954509Y-81257971D01*
X99954509Y-81257971D02*
X99954509Y-81615114D01*
X99954509Y-81615114D02*
X99883080Y-81757971D01*
X99883080Y-81757971D02*
X99811652Y-81829400D01*
X99811652Y-81829400D02*
X99668794Y-81900828D01*
X99668794Y-81900828D02*
X99311652Y-81900828D01*
X99311652Y-81900828D02*
X99168794Y-81829400D01*
X99168794Y-81829400D02*
X99097366Y-81757971D01*
D11*
X57657524Y-109589160D02*
X58457524Y-109589160D01*
X58076572Y-109589160D02*
X58076572Y-110046303D01*
X57657524Y-110046303D02*
X58457524Y-110046303D01*
X55500662Y-109855826D02*
X55462567Y-109970112D01*
X55462567Y-109970112D02*
X55424471Y-110008207D01*
X55424471Y-110008207D02*
X55348281Y-110046303D01*
X55348281Y-110046303D02*
X55233995Y-110046303D01*
X55233995Y-110046303D02*
X55157805Y-110008207D01*
X55157805Y-110008207D02*
X55119710Y-109970112D01*
X55119710Y-109970112D02*
X55081614Y-109893922D01*
X55081614Y-109893922D02*
X55081614Y-109589160D01*
X55081614Y-109589160D02*
X55881614Y-109589160D01*
X55881614Y-109589160D02*
X55881614Y-109855826D01*
X55881614Y-109855826D02*
X55843519Y-109932017D01*
X55843519Y-109932017D02*
X55805424Y-109970112D01*
X55805424Y-109970112D02*
X55729233Y-110008207D01*
X55729233Y-110008207D02*
X55653043Y-110008207D01*
X55653043Y-110008207D02*
X55576852Y-109970112D01*
X55576852Y-109970112D02*
X55538757Y-109932017D01*
X55538757Y-109932017D02*
X55500662Y-109855826D01*
X55500662Y-109855826D02*
X55500662Y-109589160D01*
X55081614Y-110503445D02*
X55119710Y-110427255D01*
X55119710Y-110427255D02*
X55157805Y-110389160D01*
X55157805Y-110389160D02*
X55233995Y-110351064D01*
X55233995Y-110351064D02*
X55462567Y-110351064D01*
X55462567Y-110351064D02*
X55538757Y-110389160D01*
X55538757Y-110389160D02*
X55576852Y-110427255D01*
X55576852Y-110427255D02*
X55614948Y-110503445D01*
X55614948Y-110503445D02*
X55614948Y-110617731D01*
X55614948Y-110617731D02*
X55576852Y-110693922D01*
X55576852Y-110693922D02*
X55538757Y-110732017D01*
X55538757Y-110732017D02*
X55462567Y-110770112D01*
X55462567Y-110770112D02*
X55233995Y-110770112D01*
X55233995Y-110770112D02*
X55157805Y-110732017D01*
X55157805Y-110732017D02*
X55119710Y-110693922D01*
X55119710Y-110693922D02*
X55081614Y-110617731D01*
X55081614Y-110617731D02*
X55081614Y-110503445D01*
X55081614Y-111227255D02*
X55119710Y-111151065D01*
X55119710Y-111151065D02*
X55157805Y-111112970D01*
X55157805Y-111112970D02*
X55233995Y-111074874D01*
X55233995Y-111074874D02*
X55462567Y-111074874D01*
X55462567Y-111074874D02*
X55538757Y-111112970D01*
X55538757Y-111112970D02*
X55576852Y-111151065D01*
X55576852Y-111151065D02*
X55614948Y-111227255D01*
X55614948Y-111227255D02*
X55614948Y-111341541D01*
X55614948Y-111341541D02*
X55576852Y-111417732D01*
X55576852Y-111417732D02*
X55538757Y-111455827D01*
X55538757Y-111455827D02*
X55462567Y-111493922D01*
X55462567Y-111493922D02*
X55233995Y-111493922D01*
X55233995Y-111493922D02*
X55157805Y-111455827D01*
X55157805Y-111455827D02*
X55119710Y-111417732D01*
X55119710Y-111417732D02*
X55081614Y-111341541D01*
X55081614Y-111341541D02*
X55081614Y-111227255D01*
X55614948Y-111722494D02*
X55614948Y-112027256D01*
X55881614Y-111836780D02*
X55195900Y-111836780D01*
X55195900Y-111836780D02*
X55119710Y-111874875D01*
X55119710Y-111874875D02*
X55081614Y-111951065D01*
X55081614Y-111951065D02*
X55081614Y-112027256D01*
X55881614Y-112446304D02*
X55881614Y-112522494D01*
X55881614Y-112522494D02*
X55843519Y-112598685D01*
X55843519Y-112598685D02*
X55805424Y-112636780D01*
X55805424Y-112636780D02*
X55729233Y-112674875D01*
X55729233Y-112674875D02*
X55576852Y-112712970D01*
X55576852Y-112712970D02*
X55386376Y-112712970D01*
X55386376Y-112712970D02*
X55233995Y-112674875D01*
X55233995Y-112674875D02*
X55157805Y-112636780D01*
X55157805Y-112636780D02*
X55119710Y-112598685D01*
X55119710Y-112598685D02*
X55081614Y-112522494D01*
X55081614Y-112522494D02*
X55081614Y-112446304D01*
X55081614Y-112446304D02*
X55119710Y-112370113D01*
X55119710Y-112370113D02*
X55157805Y-112332018D01*
X55157805Y-112332018D02*
X55233995Y-112293923D01*
X55233995Y-112293923D02*
X55386376Y-112255827D01*
X55386376Y-112255827D02*
X55576852Y-112255827D01*
X55576852Y-112255827D02*
X55729233Y-112293923D01*
X55729233Y-112293923D02*
X55805424Y-112332018D01*
X55805424Y-112332018D02*
X55843519Y-112370113D01*
X55843519Y-112370113D02*
X55881614Y-112446304D01*
X52505704Y-109970112D02*
X52505704Y-109589160D01*
X52505704Y-109589160D02*
X53305704Y-109589160D01*
X87954819Y-104342857D02*
X87478628Y-104676190D01*
X87954819Y-104914285D02*
X86954819Y-104914285D01*
X86954819Y-104914285D02*
X86954819Y-104533333D01*
X86954819Y-104533333D02*
X87002438Y-104438095D01*
X87002438Y-104438095D02*
X87050057Y-104390476D01*
X87050057Y-104390476D02*
X87145295Y-104342857D01*
X87145295Y-104342857D02*
X87288152Y-104342857D01*
X87288152Y-104342857D02*
X87383390Y-104390476D01*
X87383390Y-104390476D02*
X87431009Y-104438095D01*
X87431009Y-104438095D02*
X87478628Y-104533333D01*
X87478628Y-104533333D02*
X87478628Y-104914285D01*
X86954819Y-104009523D02*
X86954819Y-103390476D01*
X86954819Y-103390476D02*
X87335771Y-103723809D01*
X87335771Y-103723809D02*
X87335771Y-103580952D01*
X87335771Y-103580952D02*
X87383390Y-103485714D01*
X87383390Y-103485714D02*
X87431009Y-103438095D01*
X87431009Y-103438095D02*
X87526247Y-103390476D01*
X87526247Y-103390476D02*
X87764342Y-103390476D01*
X87764342Y-103390476D02*
X87859580Y-103438095D01*
X87859580Y-103438095D02*
X87907200Y-103485714D01*
X87907200Y-103485714D02*
X87954819Y-103580952D01*
X87954819Y-103580952D02*
X87954819Y-103866666D01*
X87954819Y-103866666D02*
X87907200Y-103961904D01*
X87907200Y-103961904D02*
X87859580Y-104009523D01*
X87954819Y-102914285D02*
X87954819Y-102723809D01*
X87954819Y-102723809D02*
X87907200Y-102628571D01*
X87907200Y-102628571D02*
X87859580Y-102580952D01*
X87859580Y-102580952D02*
X87716723Y-102485714D01*
X87716723Y-102485714D02*
X87526247Y-102438095D01*
X87526247Y-102438095D02*
X87145295Y-102438095D01*
X87145295Y-102438095D02*
X87050057Y-102485714D01*
X87050057Y-102485714D02*
X87002438Y-102533333D01*
X87002438Y-102533333D02*
X86954819Y-102628571D01*
X86954819Y-102628571D02*
X86954819Y-102819047D01*
X86954819Y-102819047D02*
X87002438Y-102914285D01*
X87002438Y-102914285D02*
X87050057Y-102961904D01*
X87050057Y-102961904D02*
X87145295Y-103009523D01*
X87145295Y-103009523D02*
X87383390Y-103009523D01*
X87383390Y-103009523D02*
X87478628Y-102961904D01*
X87478628Y-102961904D02*
X87526247Y-102914285D01*
X87526247Y-102914285D02*
X87573866Y-102819047D01*
X87573866Y-102819047D02*
X87573866Y-102628571D01*
X87573866Y-102628571D02*
X87526247Y-102533333D01*
X87526247Y-102533333D02*
X87478628Y-102485714D01*
X87478628Y-102485714D02*
X87383390Y-102438095D01*
X69866666Y-68354819D02*
X69866666Y-69069104D01*
X69866666Y-69069104D02*
X69819047Y-69211961D01*
X69819047Y-69211961D02*
X69723809Y-69307200D01*
X69723809Y-69307200D02*
X69580952Y-69354819D01*
X69580952Y-69354819D02*
X69485714Y-69354819D01*
X70247619Y-68354819D02*
X70866666Y-68354819D01*
X70866666Y-68354819D02*
X70533333Y-68735771D01*
X70533333Y-68735771D02*
X70676190Y-68735771D01*
X70676190Y-68735771D02*
X70771428Y-68783390D01*
X70771428Y-68783390D02*
X70819047Y-68831009D01*
X70819047Y-68831009D02*
X70866666Y-68926247D01*
X70866666Y-68926247D02*
X70866666Y-69164342D01*
X70866666Y-69164342D02*
X70819047Y-69259580D01*
X70819047Y-69259580D02*
X70771428Y-69307200D01*
X70771428Y-69307200D02*
X70676190Y-69354819D01*
X70676190Y-69354819D02*
X70390476Y-69354819D01*
X70390476Y-69354819D02*
X70295238Y-69307200D01*
X70295238Y-69307200D02*
X70247619Y-69259580D01*
X77233333Y-86559580D02*
X77185714Y-86607200D01*
X77185714Y-86607200D02*
X77042857Y-86654819D01*
X77042857Y-86654819D02*
X76947619Y-86654819D01*
X76947619Y-86654819D02*
X76804762Y-86607200D01*
X76804762Y-86607200D02*
X76709524Y-86511961D01*
X76709524Y-86511961D02*
X76661905Y-86416723D01*
X76661905Y-86416723D02*
X76614286Y-86226247D01*
X76614286Y-86226247D02*
X76614286Y-86083390D01*
X76614286Y-86083390D02*
X76661905Y-85892914D01*
X76661905Y-85892914D02*
X76709524Y-85797676D01*
X76709524Y-85797676D02*
X76804762Y-85702438D01*
X76804762Y-85702438D02*
X76947619Y-85654819D01*
X76947619Y-85654819D02*
X77042857Y-85654819D01*
X77042857Y-85654819D02*
X77185714Y-85702438D01*
X77185714Y-85702438D02*
X77233333Y-85750057D01*
X77804762Y-86083390D02*
X77709524Y-86035771D01*
X77709524Y-86035771D02*
X77661905Y-85988152D01*
X77661905Y-85988152D02*
X77614286Y-85892914D01*
X77614286Y-85892914D02*
X77614286Y-85845295D01*
X77614286Y-85845295D02*
X77661905Y-85750057D01*
X77661905Y-85750057D02*
X77709524Y-85702438D01*
X77709524Y-85702438D02*
X77804762Y-85654819D01*
X77804762Y-85654819D02*
X77995238Y-85654819D01*
X77995238Y-85654819D02*
X78090476Y-85702438D01*
X78090476Y-85702438D02*
X78138095Y-85750057D01*
X78138095Y-85750057D02*
X78185714Y-85845295D01*
X78185714Y-85845295D02*
X78185714Y-85892914D01*
X78185714Y-85892914D02*
X78138095Y-85988152D01*
X78138095Y-85988152D02*
X78090476Y-86035771D01*
X78090476Y-86035771D02*
X77995238Y-86083390D01*
X77995238Y-86083390D02*
X77804762Y-86083390D01*
X77804762Y-86083390D02*
X77709524Y-86131009D01*
X77709524Y-86131009D02*
X77661905Y-86178628D01*
X77661905Y-86178628D02*
X77614286Y-86273866D01*
X77614286Y-86273866D02*
X77614286Y-86464342D01*
X77614286Y-86464342D02*
X77661905Y-86559580D01*
X77661905Y-86559580D02*
X77709524Y-86607200D01*
X77709524Y-86607200D02*
X77804762Y-86654819D01*
X77804762Y-86654819D02*
X77995238Y-86654819D01*
X77995238Y-86654819D02*
X78090476Y-86607200D01*
X78090476Y-86607200D02*
X78138095Y-86559580D01*
X78138095Y-86559580D02*
X78185714Y-86464342D01*
X78185714Y-86464342D02*
X78185714Y-86273866D01*
X78185714Y-86273866D02*
X78138095Y-86178628D01*
X78138095Y-86178628D02*
X78090476Y-86131009D01*
X78090476Y-86131009D02*
X77995238Y-86083390D01*
X101457142Y-92759580D02*
X101409523Y-92807200D01*
X101409523Y-92807200D02*
X101266666Y-92854819D01*
X101266666Y-92854819D02*
X101171428Y-92854819D01*
X101171428Y-92854819D02*
X101028571Y-92807200D01*
X101028571Y-92807200D02*
X100933333Y-92711961D01*
X100933333Y-92711961D02*
X100885714Y-92616723D01*
X100885714Y-92616723D02*
X100838095Y-92426247D01*
X100838095Y-92426247D02*
X100838095Y-92283390D01*
X100838095Y-92283390D02*
X100885714Y-92092914D01*
X100885714Y-92092914D02*
X100933333Y-91997676D01*
X100933333Y-91997676D02*
X101028571Y-91902438D01*
X101028571Y-91902438D02*
X101171428Y-91854819D01*
X101171428Y-91854819D02*
X101266666Y-91854819D01*
X101266666Y-91854819D02*
X101409523Y-91902438D01*
X101409523Y-91902438D02*
X101457142Y-91950057D01*
X101838095Y-91950057D02*
X101885714Y-91902438D01*
X101885714Y-91902438D02*
X101980952Y-91854819D01*
X101980952Y-91854819D02*
X102219047Y-91854819D01*
X102219047Y-91854819D02*
X102314285Y-91902438D01*
X102314285Y-91902438D02*
X102361904Y-91950057D01*
X102361904Y-91950057D02*
X102409523Y-92045295D01*
X102409523Y-92045295D02*
X102409523Y-92140533D01*
X102409523Y-92140533D02*
X102361904Y-92283390D01*
X102361904Y-92283390D02*
X101790476Y-92854819D01*
X101790476Y-92854819D02*
X102409523Y-92854819D01*
X102790476Y-91950057D02*
X102838095Y-91902438D01*
X102838095Y-91902438D02*
X102933333Y-91854819D01*
X102933333Y-91854819D02*
X103171428Y-91854819D01*
X103171428Y-91854819D02*
X103266666Y-91902438D01*
X103266666Y-91902438D02*
X103314285Y-91950057D01*
X103314285Y-91950057D02*
X103361904Y-92045295D01*
X103361904Y-92045295D02*
X103361904Y-92140533D01*
X103361904Y-92140533D02*
X103314285Y-92283390D01*
X103314285Y-92283390D02*
X102742857Y-92854819D01*
X102742857Y-92854819D02*
X103361904Y-92854819D01*
X77957142Y-92454819D02*
X77623809Y-91978628D01*
X77385714Y-92454819D02*
X77385714Y-91454819D01*
X77385714Y-91454819D02*
X77766666Y-91454819D01*
X77766666Y-91454819D02*
X77861904Y-91502438D01*
X77861904Y-91502438D02*
X77909523Y-91550057D01*
X77909523Y-91550057D02*
X77957142Y-91645295D01*
X77957142Y-91645295D02*
X77957142Y-91788152D01*
X77957142Y-91788152D02*
X77909523Y-91883390D01*
X77909523Y-91883390D02*
X77861904Y-91931009D01*
X77861904Y-91931009D02*
X77766666Y-91978628D01*
X77766666Y-91978628D02*
X77385714Y-91978628D01*
X78909523Y-92454819D02*
X78338095Y-92454819D01*
X78623809Y-92454819D02*
X78623809Y-91454819D01*
X78623809Y-91454819D02*
X78528571Y-91597676D01*
X78528571Y-91597676D02*
X78433333Y-91692914D01*
X78433333Y-91692914D02*
X78338095Y-91740533D01*
X79290476Y-91550057D02*
X79338095Y-91502438D01*
X79338095Y-91502438D02*
X79433333Y-91454819D01*
X79433333Y-91454819D02*
X79671428Y-91454819D01*
X79671428Y-91454819D02*
X79766666Y-91502438D01*
X79766666Y-91502438D02*
X79814285Y-91550057D01*
X79814285Y-91550057D02*
X79861904Y-91645295D01*
X79861904Y-91645295D02*
X79861904Y-91740533D01*
X79861904Y-91740533D02*
X79814285Y-91883390D01*
X79814285Y-91883390D02*
X79242857Y-92454819D01*
X79242857Y-92454819D02*
X79861904Y-92454819D01*
X101745180Y-89238095D02*
X100935657Y-89238095D01*
X100935657Y-89238095D02*
X100840419Y-89285714D01*
X100840419Y-89285714D02*
X100792800Y-89333333D01*
X100792800Y-89333333D02*
X100745180Y-89428571D01*
X100745180Y-89428571D02*
X100745180Y-89619047D01*
X100745180Y-89619047D02*
X100792800Y-89714285D01*
X100792800Y-89714285D02*
X100840419Y-89761904D01*
X100840419Y-89761904D02*
X100935657Y-89809523D01*
X100935657Y-89809523D02*
X101745180Y-89809523D01*
X101745180Y-90714285D02*
X101745180Y-90523809D01*
X101745180Y-90523809D02*
X101697561Y-90428571D01*
X101697561Y-90428571D02*
X101649942Y-90380952D01*
X101649942Y-90380952D02*
X101507085Y-90285714D01*
X101507085Y-90285714D02*
X101316609Y-90238095D01*
X101316609Y-90238095D02*
X100935657Y-90238095D01*
X100935657Y-90238095D02*
X100840419Y-90285714D01*
X100840419Y-90285714D02*
X100792800Y-90333333D01*
X100792800Y-90333333D02*
X100745180Y-90428571D01*
X100745180Y-90428571D02*
X100745180Y-90619047D01*
X100745180Y-90619047D02*
X100792800Y-90714285D01*
X100792800Y-90714285D02*
X100840419Y-90761904D01*
X100840419Y-90761904D02*
X100935657Y-90809523D01*
X100935657Y-90809523D02*
X101173752Y-90809523D01*
X101173752Y-90809523D02*
X101268990Y-90761904D01*
X101268990Y-90761904D02*
X101316609Y-90714285D01*
X101316609Y-90714285D02*
X101364228Y-90619047D01*
X101364228Y-90619047D02*
X101364228Y-90428571D01*
X101364228Y-90428571D02*
X101316609Y-90333333D01*
X101316609Y-90333333D02*
X101268990Y-90285714D01*
X101268990Y-90285714D02*
X101173752Y-90238095D01*
D10*
X48564895Y-79809523D02*
X49212514Y-79809523D01*
X49212514Y-79809523D02*
X49288704Y-79771428D01*
X49288704Y-79771428D02*
X49326800Y-79733333D01*
X49326800Y-79733333D02*
X49364895Y-79657142D01*
X49364895Y-79657142D02*
X49364895Y-79504761D01*
X49364895Y-79504761D02*
X49326800Y-79428571D01*
X49326800Y-79428571D02*
X49288704Y-79390476D01*
X49288704Y-79390476D02*
X49212514Y-79352380D01*
X49212514Y-79352380D02*
X48564895Y-79352380D01*
X48831561Y-78628571D02*
X49364895Y-78628571D01*
X48526800Y-78819047D02*
X49098228Y-79009524D01*
X49098228Y-79009524D02*
X49098228Y-78514285D01*
D11*
X56557142Y-75859580D02*
X56509523Y-75907200D01*
X56509523Y-75907200D02*
X56366666Y-75954819D01*
X56366666Y-75954819D02*
X56271428Y-75954819D01*
X56271428Y-75954819D02*
X56128571Y-75907200D01*
X56128571Y-75907200D02*
X56033333Y-75811961D01*
X56033333Y-75811961D02*
X55985714Y-75716723D01*
X55985714Y-75716723D02*
X55938095Y-75526247D01*
X55938095Y-75526247D02*
X55938095Y-75383390D01*
X55938095Y-75383390D02*
X55985714Y-75192914D01*
X55985714Y-75192914D02*
X56033333Y-75097676D01*
X56033333Y-75097676D02*
X56128571Y-75002438D01*
X56128571Y-75002438D02*
X56271428Y-74954819D01*
X56271428Y-74954819D02*
X56366666Y-74954819D01*
X56366666Y-74954819D02*
X56509523Y-75002438D01*
X56509523Y-75002438D02*
X56557142Y-75050057D01*
X57509523Y-75954819D02*
X56938095Y-75954819D01*
X57223809Y-75954819D02*
X57223809Y-74954819D01*
X57223809Y-74954819D02*
X57128571Y-75097676D01*
X57128571Y-75097676D02*
X57033333Y-75192914D01*
X57033333Y-75192914D02*
X56938095Y-75240533D01*
X58080952Y-75383390D02*
X57985714Y-75335771D01*
X57985714Y-75335771D02*
X57938095Y-75288152D01*
X57938095Y-75288152D02*
X57890476Y-75192914D01*
X57890476Y-75192914D02*
X57890476Y-75145295D01*
X57890476Y-75145295D02*
X57938095Y-75050057D01*
X57938095Y-75050057D02*
X57985714Y-75002438D01*
X57985714Y-75002438D02*
X58080952Y-74954819D01*
X58080952Y-74954819D02*
X58271428Y-74954819D01*
X58271428Y-74954819D02*
X58366666Y-75002438D01*
X58366666Y-75002438D02*
X58414285Y-75050057D01*
X58414285Y-75050057D02*
X58461904Y-75145295D01*
X58461904Y-75145295D02*
X58461904Y-75192914D01*
X58461904Y-75192914D02*
X58414285Y-75288152D01*
X58414285Y-75288152D02*
X58366666Y-75335771D01*
X58366666Y-75335771D02*
X58271428Y-75383390D01*
X58271428Y-75383390D02*
X58080952Y-75383390D01*
X58080952Y-75383390D02*
X57985714Y-75431009D01*
X57985714Y-75431009D02*
X57938095Y-75478628D01*
X57938095Y-75478628D02*
X57890476Y-75573866D01*
X57890476Y-75573866D02*
X57890476Y-75764342D01*
X57890476Y-75764342D02*
X57938095Y-75859580D01*
X57938095Y-75859580D02*
X57985714Y-75907200D01*
X57985714Y-75907200D02*
X58080952Y-75954819D01*
X58080952Y-75954819D02*
X58271428Y-75954819D01*
X58271428Y-75954819D02*
X58366666Y-75907200D01*
X58366666Y-75907200D02*
X58414285Y-75859580D01*
X58414285Y-75859580D02*
X58461904Y-75764342D01*
X58461904Y-75764342D02*
X58461904Y-75573866D01*
X58461904Y-75573866D02*
X58414285Y-75478628D01*
X58414285Y-75478628D02*
X58366666Y-75431009D01*
X58366666Y-75431009D02*
X58271428Y-75383390D01*
X49866666Y-107154819D02*
X49866666Y-107869104D01*
X49866666Y-107869104D02*
X49819047Y-108011961D01*
X49819047Y-108011961D02*
X49723809Y-108107200D01*
X49723809Y-108107200D02*
X49580952Y-108154819D01*
X49580952Y-108154819D02*
X49485714Y-108154819D01*
X50295238Y-107250057D02*
X50342857Y-107202438D01*
X50342857Y-107202438D02*
X50438095Y-107154819D01*
X50438095Y-107154819D02*
X50676190Y-107154819D01*
X50676190Y-107154819D02*
X50771428Y-107202438D01*
X50771428Y-107202438D02*
X50819047Y-107250057D01*
X50819047Y-107250057D02*
X50866666Y-107345295D01*
X50866666Y-107345295D02*
X50866666Y-107440533D01*
X50866666Y-107440533D02*
X50819047Y-107583390D01*
X50819047Y-107583390D02*
X50247619Y-108154819D01*
X50247619Y-108154819D02*
X50866666Y-108154819D01*
X43532142Y-96254819D02*
X43198809Y-95778628D01*
X42960714Y-96254819D02*
X42960714Y-95254819D01*
X42960714Y-95254819D02*
X43341666Y-95254819D01*
X43341666Y-95254819D02*
X43436904Y-95302438D01*
X43436904Y-95302438D02*
X43484523Y-95350057D01*
X43484523Y-95350057D02*
X43532142Y-95445295D01*
X43532142Y-95445295D02*
X43532142Y-95588152D01*
X43532142Y-95588152D02*
X43484523Y-95683390D01*
X43484523Y-95683390D02*
X43436904Y-95731009D01*
X43436904Y-95731009D02*
X43341666Y-95778628D01*
X43341666Y-95778628D02*
X42960714Y-95778628D01*
X43913095Y-95350057D02*
X43960714Y-95302438D01*
X43960714Y-95302438D02*
X44055952Y-95254819D01*
X44055952Y-95254819D02*
X44294047Y-95254819D01*
X44294047Y-95254819D02*
X44389285Y-95302438D01*
X44389285Y-95302438D02*
X44436904Y-95350057D01*
X44436904Y-95350057D02*
X44484523Y-95445295D01*
X44484523Y-95445295D02*
X44484523Y-95540533D01*
X44484523Y-95540533D02*
X44436904Y-95683390D01*
X44436904Y-95683390D02*
X43865476Y-96254819D01*
X43865476Y-96254819D02*
X44484523Y-96254819D01*
X45055952Y-95683390D02*
X44960714Y-95635771D01*
X44960714Y-95635771D02*
X44913095Y-95588152D01*
X44913095Y-95588152D02*
X44865476Y-95492914D01*
X44865476Y-95492914D02*
X44865476Y-95445295D01*
X44865476Y-95445295D02*
X44913095Y-95350057D01*
X44913095Y-95350057D02*
X44960714Y-95302438D01*
X44960714Y-95302438D02*
X45055952Y-95254819D01*
X45055952Y-95254819D02*
X45246428Y-95254819D01*
X45246428Y-95254819D02*
X45341666Y-95302438D01*
X45341666Y-95302438D02*
X45389285Y-95350057D01*
X45389285Y-95350057D02*
X45436904Y-95445295D01*
X45436904Y-95445295D02*
X45436904Y-95492914D01*
X45436904Y-95492914D02*
X45389285Y-95588152D01*
X45389285Y-95588152D02*
X45341666Y-95635771D01*
X45341666Y-95635771D02*
X45246428Y-95683390D01*
X45246428Y-95683390D02*
X45055952Y-95683390D01*
X45055952Y-95683390D02*
X44960714Y-95731009D01*
X44960714Y-95731009D02*
X44913095Y-95778628D01*
X44913095Y-95778628D02*
X44865476Y-95873866D01*
X44865476Y-95873866D02*
X44865476Y-96064342D01*
X44865476Y-96064342D02*
X44913095Y-96159580D01*
X44913095Y-96159580D02*
X44960714Y-96207200D01*
X44960714Y-96207200D02*
X45055952Y-96254819D01*
X45055952Y-96254819D02*
X45246428Y-96254819D01*
X45246428Y-96254819D02*
X45341666Y-96207200D01*
X45341666Y-96207200D02*
X45389285Y-96159580D01*
X45389285Y-96159580D02*
X45436904Y-96064342D01*
X45436904Y-96064342D02*
X45436904Y-95873866D01*
X45436904Y-95873866D02*
X45389285Y-95778628D01*
X45389285Y-95778628D02*
X45341666Y-95731009D01*
X45341666Y-95731009D02*
X45246428Y-95683390D01*
X82390476Y-104754819D02*
X82390476Y-103754819D01*
X82390476Y-103754819D02*
X82723809Y-104469104D01*
X82723809Y-104469104D02*
X83057142Y-103754819D01*
X83057142Y-103754819D02*
X83057142Y-104754819D01*
X83485714Y-104707200D02*
X83628571Y-104754819D01*
X83628571Y-104754819D02*
X83866666Y-104754819D01*
X83866666Y-104754819D02*
X83961904Y-104707200D01*
X83961904Y-104707200D02*
X84009523Y-104659580D01*
X84009523Y-104659580D02*
X84057142Y-104564342D01*
X84057142Y-104564342D02*
X84057142Y-104469104D01*
X84057142Y-104469104D02*
X84009523Y-104373866D01*
X84009523Y-104373866D02*
X83961904Y-104326247D01*
X83961904Y-104326247D02*
X83866666Y-104278628D01*
X83866666Y-104278628D02*
X83676190Y-104231009D01*
X83676190Y-104231009D02*
X83580952Y-104183390D01*
X83580952Y-104183390D02*
X83533333Y-104135771D01*
X83533333Y-104135771D02*
X83485714Y-104040533D01*
X83485714Y-104040533D02*
X83485714Y-103945295D01*
X83485714Y-103945295D02*
X83533333Y-103850057D01*
X83533333Y-103850057D02*
X83580952Y-103802438D01*
X83580952Y-103802438D02*
X83676190Y-103754819D01*
X83676190Y-103754819D02*
X83914285Y-103754819D01*
X83914285Y-103754819D02*
X84057142Y-103802438D01*
X85057142Y-104659580D02*
X85009523Y-104707200D01*
X85009523Y-104707200D02*
X84866666Y-104754819D01*
X84866666Y-104754819D02*
X84771428Y-104754819D01*
X84771428Y-104754819D02*
X84628571Y-104707200D01*
X84628571Y-104707200D02*
X84533333Y-104611961D01*
X84533333Y-104611961D02*
X84485714Y-104516723D01*
X84485714Y-104516723D02*
X84438095Y-104326247D01*
X84438095Y-104326247D02*
X84438095Y-104183390D01*
X84438095Y-104183390D02*
X84485714Y-103992914D01*
X84485714Y-103992914D02*
X84533333Y-103897676D01*
X84533333Y-103897676D02*
X84628571Y-103802438D01*
X84628571Y-103802438D02*
X84771428Y-103754819D01*
X84771428Y-103754819D02*
X84866666Y-103754819D01*
X84866666Y-103754819D02*
X85009523Y-103802438D01*
X85009523Y-103802438D02*
X85057142Y-103850057D01*
X39354819Y-90333333D02*
X40069104Y-90333333D01*
X40069104Y-90333333D02*
X40211961Y-90380952D01*
X40211961Y-90380952D02*
X40307200Y-90476190D01*
X40307200Y-90476190D02*
X40354819Y-90619047D01*
X40354819Y-90619047D02*
X40354819Y-90714285D01*
X39688152Y-89428571D02*
X40354819Y-89428571D01*
X39307200Y-89666666D02*
X40021485Y-89904761D01*
X40021485Y-89904761D02*
X40021485Y-89285714D01*
X62166666Y-101340419D02*
X62214285Y-101292800D01*
X62214285Y-101292800D02*
X62357142Y-101245180D01*
X62357142Y-101245180D02*
X62452380Y-101245180D01*
X62452380Y-101245180D02*
X62595237Y-101292800D01*
X62595237Y-101292800D02*
X62690475Y-101388038D01*
X62690475Y-101388038D02*
X62738094Y-101483276D01*
X62738094Y-101483276D02*
X62785713Y-101673752D01*
X62785713Y-101673752D02*
X62785713Y-101816609D01*
X62785713Y-101816609D02*
X62738094Y-102007085D01*
X62738094Y-102007085D02*
X62690475Y-102102323D01*
X62690475Y-102102323D02*
X62595237Y-102197561D01*
X62595237Y-102197561D02*
X62452380Y-102245180D01*
X62452380Y-102245180D02*
X62357142Y-102245180D01*
X62357142Y-102245180D02*
X62214285Y-102197561D01*
X62214285Y-102197561D02*
X62166666Y-102149942D01*
X61214285Y-101245180D02*
X61785713Y-101245180D01*
X61499999Y-101245180D02*
X61499999Y-102245180D01*
X61499999Y-102245180D02*
X61595237Y-102102323D01*
X61595237Y-102102323D02*
X61690475Y-102007085D01*
X61690475Y-102007085D02*
X61785713Y-101959466D01*
X61966666Y-107154819D02*
X61966666Y-107869104D01*
X61966666Y-107869104D02*
X61919047Y-108011961D01*
X61919047Y-108011961D02*
X61823809Y-108107200D01*
X61823809Y-108107200D02*
X61680952Y-108154819D01*
X61680952Y-108154819D02*
X61585714Y-108154819D01*
X62966666Y-108154819D02*
X62395238Y-108154819D01*
X62680952Y-108154819D02*
X62680952Y-107154819D01*
X62680952Y-107154819D02*
X62585714Y-107297676D01*
X62585714Y-107297676D02*
X62490476Y-107392914D01*
X62490476Y-107392914D02*
X62395238Y-107440533D01*
X103245180Y-102857142D02*
X103721371Y-102523809D01*
X103245180Y-102285714D02*
X104245180Y-102285714D01*
X104245180Y-102285714D02*
X104245180Y-102666666D01*
X104245180Y-102666666D02*
X104197561Y-102761904D01*
X104197561Y-102761904D02*
X104149942Y-102809523D01*
X104149942Y-102809523D02*
X104054704Y-102857142D01*
X104054704Y-102857142D02*
X103911847Y-102857142D01*
X103911847Y-102857142D02*
X103816609Y-102809523D01*
X103816609Y-102809523D02*
X103768990Y-102761904D01*
X103768990Y-102761904D02*
X103721371Y-102666666D01*
X103721371Y-102666666D02*
X103721371Y-102285714D01*
X103911847Y-103714285D02*
X103245180Y-103714285D01*
X104292800Y-103476190D02*
X103578514Y-103238095D01*
X103578514Y-103238095D02*
X103578514Y-103857142D01*
X104245180Y-104714285D02*
X104245180Y-104238095D01*
X104245180Y-104238095D02*
X103768990Y-104190476D01*
X103768990Y-104190476D02*
X103816609Y-104238095D01*
X103816609Y-104238095D02*
X103864228Y-104333333D01*
X103864228Y-104333333D02*
X103864228Y-104571428D01*
X103864228Y-104571428D02*
X103816609Y-104666666D01*
X103816609Y-104666666D02*
X103768990Y-104714285D01*
X103768990Y-104714285D02*
X103673752Y-104761904D01*
X103673752Y-104761904D02*
X103435657Y-104761904D01*
X103435657Y-104761904D02*
X103340419Y-104714285D01*
X103340419Y-104714285D02*
X103292800Y-104666666D01*
X103292800Y-104666666D02*
X103245180Y-104571428D01*
X103245180Y-104571428D02*
X103245180Y-104333333D01*
X103245180Y-104333333D02*
X103292800Y-104238095D01*
X103292800Y-104238095D02*
X103340419Y-104190476D01*
X45295238Y-104449942D02*
X45390476Y-104497561D01*
X45390476Y-104497561D02*
X45485714Y-104592800D01*
X45485714Y-104592800D02*
X45628571Y-104735657D01*
X45628571Y-104735657D02*
X45723809Y-104783276D01*
X45723809Y-104783276D02*
X45819047Y-104783276D01*
X45771428Y-104545180D02*
X45866666Y-104592800D01*
X45866666Y-104592800D02*
X45961904Y-104688038D01*
X45961904Y-104688038D02*
X46009523Y-104878514D01*
X46009523Y-104878514D02*
X46009523Y-105211847D01*
X46009523Y-105211847D02*
X45961904Y-105402323D01*
X45961904Y-105402323D02*
X45866666Y-105497561D01*
X45866666Y-105497561D02*
X45771428Y-105545180D01*
X45771428Y-105545180D02*
X45580952Y-105545180D01*
X45580952Y-105545180D02*
X45485714Y-105497561D01*
X45485714Y-105497561D02*
X45390476Y-105402323D01*
X45390476Y-105402323D02*
X45342857Y-105211847D01*
X45342857Y-105211847D02*
X45342857Y-104878514D01*
X45342857Y-104878514D02*
X45390476Y-104688038D01*
X45390476Y-104688038D02*
X45485714Y-104592800D01*
X45485714Y-104592800D02*
X45580952Y-104545180D01*
X45580952Y-104545180D02*
X45771428Y-104545180D01*
X45009523Y-105545180D02*
X44390476Y-105545180D01*
X44390476Y-105545180D02*
X44723809Y-105164228D01*
X44723809Y-105164228D02*
X44580952Y-105164228D01*
X44580952Y-105164228D02*
X44485714Y-105116609D01*
X44485714Y-105116609D02*
X44438095Y-105068990D01*
X44438095Y-105068990D02*
X44390476Y-104973752D01*
X44390476Y-104973752D02*
X44390476Y-104735657D01*
X44390476Y-104735657D02*
X44438095Y-104640419D01*
X44438095Y-104640419D02*
X44485714Y-104592800D01*
X44485714Y-104592800D02*
X44580952Y-104545180D01*
X44580952Y-104545180D02*
X44866666Y-104545180D01*
X44866666Y-104545180D02*
X44961904Y-104592800D01*
X44961904Y-104592800D02*
X45009523Y-104640419D01*
X54354819Y-104866666D02*
X53878628Y-105199999D01*
X54354819Y-105438094D02*
X53354819Y-105438094D01*
X53354819Y-105438094D02*
X53354819Y-105057142D01*
X53354819Y-105057142D02*
X53402438Y-104961904D01*
X53402438Y-104961904D02*
X53450057Y-104914285D01*
X53450057Y-104914285D02*
X53545295Y-104866666D01*
X53545295Y-104866666D02*
X53688152Y-104866666D01*
X53688152Y-104866666D02*
X53783390Y-104914285D01*
X53783390Y-104914285D02*
X53831009Y-104961904D01*
X53831009Y-104961904D02*
X53878628Y-105057142D01*
X53878628Y-105057142D02*
X53878628Y-105438094D01*
X53354819Y-104533332D02*
X53354819Y-103866666D01*
X53354819Y-103866666D02*
X54354819Y-104295237D01*
X84254819Y-84966666D02*
X83778628Y-85299999D01*
X84254819Y-85538094D02*
X83254819Y-85538094D01*
X83254819Y-85538094D02*
X83254819Y-85157142D01*
X83254819Y-85157142D02*
X83302438Y-85061904D01*
X83302438Y-85061904D02*
X83350057Y-85014285D01*
X83350057Y-85014285D02*
X83445295Y-84966666D01*
X83445295Y-84966666D02*
X83588152Y-84966666D01*
X83588152Y-84966666D02*
X83683390Y-85014285D01*
X83683390Y-85014285D02*
X83731009Y-85061904D01*
X83731009Y-85061904D02*
X83778628Y-85157142D01*
X83778628Y-85157142D02*
X83778628Y-85538094D01*
X83254819Y-84109523D02*
X83254819Y-84299999D01*
X83254819Y-84299999D02*
X83302438Y-84395237D01*
X83302438Y-84395237D02*
X83350057Y-84442856D01*
X83350057Y-84442856D02*
X83492914Y-84538094D01*
X83492914Y-84538094D02*
X83683390Y-84585713D01*
X83683390Y-84585713D02*
X84064342Y-84585713D01*
X84064342Y-84585713D02*
X84159580Y-84538094D01*
X84159580Y-84538094D02*
X84207200Y-84490475D01*
X84207200Y-84490475D02*
X84254819Y-84395237D01*
X84254819Y-84395237D02*
X84254819Y-84204761D01*
X84254819Y-84204761D02*
X84207200Y-84109523D01*
X84207200Y-84109523D02*
X84159580Y-84061904D01*
X84159580Y-84061904D02*
X84064342Y-84014285D01*
X84064342Y-84014285D02*
X83826247Y-84014285D01*
X83826247Y-84014285D02*
X83731009Y-84061904D01*
X83731009Y-84061904D02*
X83683390Y-84109523D01*
X83683390Y-84109523D02*
X83635771Y-84204761D01*
X83635771Y-84204761D02*
X83635771Y-84395237D01*
X83635771Y-84395237D02*
X83683390Y-84490475D01*
X83683390Y-84490475D02*
X83731009Y-84538094D01*
X83731009Y-84538094D02*
X83826247Y-84585713D01*
X49542857Y-104445180D02*
X49876190Y-104921371D01*
X50114285Y-104445180D02*
X50114285Y-105445180D01*
X50114285Y-105445180D02*
X49733333Y-105445180D01*
X49733333Y-105445180D02*
X49638095Y-105397561D01*
X49638095Y-105397561D02*
X49590476Y-105349942D01*
X49590476Y-105349942D02*
X49542857Y-105254704D01*
X49542857Y-105254704D02*
X49542857Y-105111847D01*
X49542857Y-105111847D02*
X49590476Y-105016609D01*
X49590476Y-105016609D02*
X49638095Y-104968990D01*
X49638095Y-104968990D02*
X49733333Y-104921371D01*
X49733333Y-104921371D02*
X50114285Y-104921371D01*
X49209523Y-105445180D02*
X48590476Y-105445180D01*
X48590476Y-105445180D02*
X48923809Y-105064228D01*
X48923809Y-105064228D02*
X48780952Y-105064228D01*
X48780952Y-105064228D02*
X48685714Y-105016609D01*
X48685714Y-105016609D02*
X48638095Y-104968990D01*
X48638095Y-104968990D02*
X48590476Y-104873752D01*
X48590476Y-104873752D02*
X48590476Y-104635657D01*
X48590476Y-104635657D02*
X48638095Y-104540419D01*
X48638095Y-104540419D02*
X48685714Y-104492800D01*
X48685714Y-104492800D02*
X48780952Y-104445180D01*
X48780952Y-104445180D02*
X49066666Y-104445180D01*
X49066666Y-104445180D02*
X49161904Y-104492800D01*
X49161904Y-104492800D02*
X49209523Y-104540419D01*
X47971428Y-105445180D02*
X47876190Y-105445180D01*
X47876190Y-105445180D02*
X47780952Y-105397561D01*
X47780952Y-105397561D02*
X47733333Y-105349942D01*
X47733333Y-105349942D02*
X47685714Y-105254704D01*
X47685714Y-105254704D02*
X47638095Y-105064228D01*
X47638095Y-105064228D02*
X47638095Y-104826133D01*
X47638095Y-104826133D02*
X47685714Y-104635657D01*
X47685714Y-104635657D02*
X47733333Y-104540419D01*
X47733333Y-104540419D02*
X47780952Y-104492800D01*
X47780952Y-104492800D02*
X47876190Y-104445180D01*
X47876190Y-104445180D02*
X47971428Y-104445180D01*
X47971428Y-104445180D02*
X48066666Y-104492800D01*
X48066666Y-104492800D02*
X48114285Y-104540419D01*
X48114285Y-104540419D02*
X48161904Y-104635657D01*
X48161904Y-104635657D02*
X48209523Y-104826133D01*
X48209523Y-104826133D02*
X48209523Y-105064228D01*
X48209523Y-105064228D02*
X48161904Y-105254704D01*
X48161904Y-105254704D02*
X48114285Y-105349942D01*
X48114285Y-105349942D02*
X48066666Y-105397561D01*
X48066666Y-105397561D02*
X47971428Y-105445180D01*
X74559580Y-96766666D02*
X74607200Y-96814285D01*
X74607200Y-96814285D02*
X74654819Y-96957142D01*
X74654819Y-96957142D02*
X74654819Y-97052380D01*
X74654819Y-97052380D02*
X74607200Y-97195237D01*
X74607200Y-97195237D02*
X74511961Y-97290475D01*
X74511961Y-97290475D02*
X74416723Y-97338094D01*
X74416723Y-97338094D02*
X74226247Y-97385713D01*
X74226247Y-97385713D02*
X74083390Y-97385713D01*
X74083390Y-97385713D02*
X73892914Y-97338094D01*
X73892914Y-97338094D02*
X73797676Y-97290475D01*
X73797676Y-97290475D02*
X73702438Y-97195237D01*
X73702438Y-97195237D02*
X73654819Y-97052380D01*
X73654819Y-97052380D02*
X73654819Y-96957142D01*
X73654819Y-96957142D02*
X73702438Y-96814285D01*
X73702438Y-96814285D02*
X73750057Y-96766666D01*
X73654819Y-95861904D02*
X73654819Y-96338094D01*
X73654819Y-96338094D02*
X74131009Y-96385713D01*
X74131009Y-96385713D02*
X74083390Y-96338094D01*
X74083390Y-96338094D02*
X74035771Y-96242856D01*
X74035771Y-96242856D02*
X74035771Y-96004761D01*
X74035771Y-96004761D02*
X74083390Y-95909523D01*
X74083390Y-95909523D02*
X74131009Y-95861904D01*
X74131009Y-95861904D02*
X74226247Y-95814285D01*
X74226247Y-95814285D02*
X74464342Y-95814285D01*
X74464342Y-95814285D02*
X74559580Y-95861904D01*
X74559580Y-95861904D02*
X74607200Y-95909523D01*
X74607200Y-95909523D02*
X74654819Y-96004761D01*
X74654819Y-96004761D02*
X74654819Y-96242856D01*
X74654819Y-96242856D02*
X74607200Y-96338094D01*
X74607200Y-96338094D02*
X74559580Y-96385713D01*
X61204819Y-75767857D02*
X60728628Y-76101190D01*
X61204819Y-76339285D02*
X60204819Y-76339285D01*
X60204819Y-76339285D02*
X60204819Y-75958333D01*
X60204819Y-75958333D02*
X60252438Y-75863095D01*
X60252438Y-75863095D02*
X60300057Y-75815476D01*
X60300057Y-75815476D02*
X60395295Y-75767857D01*
X60395295Y-75767857D02*
X60538152Y-75767857D01*
X60538152Y-75767857D02*
X60633390Y-75815476D01*
X60633390Y-75815476D02*
X60681009Y-75863095D01*
X60681009Y-75863095D02*
X60728628Y-75958333D01*
X60728628Y-75958333D02*
X60728628Y-76339285D01*
X60300057Y-75386904D02*
X60252438Y-75339285D01*
X60252438Y-75339285D02*
X60204819Y-75244047D01*
X60204819Y-75244047D02*
X60204819Y-75005952D01*
X60204819Y-75005952D02*
X60252438Y-74910714D01*
X60252438Y-74910714D02*
X60300057Y-74863095D01*
X60300057Y-74863095D02*
X60395295Y-74815476D01*
X60395295Y-74815476D02*
X60490533Y-74815476D01*
X60490533Y-74815476D02*
X60633390Y-74863095D01*
X60633390Y-74863095D02*
X61204819Y-75434523D01*
X61204819Y-75434523D02*
X61204819Y-74815476D01*
X61204819Y-73863095D02*
X61204819Y-74434523D01*
X61204819Y-74148809D02*
X60204819Y-74148809D01*
X60204819Y-74148809D02*
X60347676Y-74244047D01*
X60347676Y-74244047D02*
X60442914Y-74339285D01*
X60442914Y-74339285D02*
X60490533Y-74434523D01*
X60954819Y-94566666D02*
X60478628Y-94899999D01*
X60954819Y-95138094D02*
X59954819Y-95138094D01*
X59954819Y-95138094D02*
X59954819Y-94757142D01*
X59954819Y-94757142D02*
X60002438Y-94661904D01*
X60002438Y-94661904D02*
X60050057Y-94614285D01*
X60050057Y-94614285D02*
X60145295Y-94566666D01*
X60145295Y-94566666D02*
X60288152Y-94566666D01*
X60288152Y-94566666D02*
X60383390Y-94614285D01*
X60383390Y-94614285D02*
X60431009Y-94661904D01*
X60431009Y-94661904D02*
X60478628Y-94757142D01*
X60478628Y-94757142D02*
X60478628Y-95138094D01*
X60288152Y-93709523D02*
X60954819Y-93709523D01*
X59907200Y-93947618D02*
X60621485Y-94185713D01*
X60621485Y-94185713D02*
X60621485Y-93566666D01*
X64957142Y-80354819D02*
X64623809Y-79878628D01*
X64385714Y-80354819D02*
X64385714Y-79354819D01*
X64385714Y-79354819D02*
X64766666Y-79354819D01*
X64766666Y-79354819D02*
X64861904Y-79402438D01*
X64861904Y-79402438D02*
X64909523Y-79450057D01*
X64909523Y-79450057D02*
X64957142Y-79545295D01*
X64957142Y-79545295D02*
X64957142Y-79688152D01*
X64957142Y-79688152D02*
X64909523Y-79783390D01*
X64909523Y-79783390D02*
X64861904Y-79831009D01*
X64861904Y-79831009D02*
X64766666Y-79878628D01*
X64766666Y-79878628D02*
X64385714Y-79878628D01*
X65338095Y-79450057D02*
X65385714Y-79402438D01*
X65385714Y-79402438D02*
X65480952Y-79354819D01*
X65480952Y-79354819D02*
X65719047Y-79354819D01*
X65719047Y-79354819D02*
X65814285Y-79402438D01*
X65814285Y-79402438D02*
X65861904Y-79450057D01*
X65861904Y-79450057D02*
X65909523Y-79545295D01*
X65909523Y-79545295D02*
X65909523Y-79640533D01*
X65909523Y-79640533D02*
X65861904Y-79783390D01*
X65861904Y-79783390D02*
X65290476Y-80354819D01*
X65290476Y-80354819D02*
X65909523Y-80354819D01*
X66242857Y-79354819D02*
X66861904Y-79354819D01*
X66861904Y-79354819D02*
X66528571Y-79735771D01*
X66528571Y-79735771D02*
X66671428Y-79735771D01*
X66671428Y-79735771D02*
X66766666Y-79783390D01*
X66766666Y-79783390D02*
X66814285Y-79831009D01*
X66814285Y-79831009D02*
X66861904Y-79926247D01*
X66861904Y-79926247D02*
X66861904Y-80164342D01*
X66861904Y-80164342D02*
X66814285Y-80259580D01*
X66814285Y-80259580D02*
X66766666Y-80307200D01*
X66766666Y-80307200D02*
X66671428Y-80354819D01*
X66671428Y-80354819D02*
X66385714Y-80354819D01*
X66385714Y-80354819D02*
X66290476Y-80307200D01*
X66290476Y-80307200D02*
X66242857Y-80259580D01*
X54866667Y-95107200D02*
X55009524Y-95154819D01*
X55009524Y-95154819D02*
X55247619Y-95154819D01*
X55247619Y-95154819D02*
X55342857Y-95107200D01*
X55342857Y-95107200D02*
X55390476Y-95059580D01*
X55390476Y-95059580D02*
X55438095Y-94964342D01*
X55438095Y-94964342D02*
X55438095Y-94869104D01*
X55438095Y-94869104D02*
X55390476Y-94773866D01*
X55390476Y-94773866D02*
X55342857Y-94726247D01*
X55342857Y-94726247D02*
X55247619Y-94678628D01*
X55247619Y-94678628D02*
X55057143Y-94631009D01*
X55057143Y-94631009D02*
X54961905Y-94583390D01*
X54961905Y-94583390D02*
X54914286Y-94535771D01*
X54914286Y-94535771D02*
X54866667Y-94440533D01*
X54866667Y-94440533D02*
X54866667Y-94345295D01*
X54866667Y-94345295D02*
X54914286Y-94250057D01*
X54914286Y-94250057D02*
X54961905Y-94202438D01*
X54961905Y-94202438D02*
X55057143Y-94154819D01*
X55057143Y-94154819D02*
X55295238Y-94154819D01*
X55295238Y-94154819D02*
X55438095Y-94202438D01*
X55771429Y-94154819D02*
X56009524Y-95154819D01*
X56009524Y-95154819D02*
X56200000Y-94440533D01*
X56200000Y-94440533D02*
X56390476Y-95154819D01*
X56390476Y-95154819D02*
X56628572Y-94154819D01*
X57533333Y-95154819D02*
X56961905Y-95154819D01*
X57247619Y-95154819D02*
X57247619Y-94154819D01*
X57247619Y-94154819D02*
X57152381Y-94297676D01*
X57152381Y-94297676D02*
X57057143Y-94392914D01*
X57057143Y-94392914D02*
X56961905Y-94440533D01*
X89757142Y-94304819D02*
X89423809Y-93828628D01*
X89185714Y-94304819D02*
X89185714Y-93304819D01*
X89185714Y-93304819D02*
X89566666Y-93304819D01*
X89566666Y-93304819D02*
X89661904Y-93352438D01*
X89661904Y-93352438D02*
X89709523Y-93400057D01*
X89709523Y-93400057D02*
X89757142Y-93495295D01*
X89757142Y-93495295D02*
X89757142Y-93638152D01*
X89757142Y-93638152D02*
X89709523Y-93733390D01*
X89709523Y-93733390D02*
X89661904Y-93781009D01*
X89661904Y-93781009D02*
X89566666Y-93828628D01*
X89566666Y-93828628D02*
X89185714Y-93828628D01*
X90614285Y-93638152D02*
X90614285Y-94304819D01*
X90376190Y-93257200D02*
X90138095Y-93971485D01*
X90138095Y-93971485D02*
X90757142Y-93971485D01*
X91328571Y-93304819D02*
X91423809Y-93304819D01*
X91423809Y-93304819D02*
X91519047Y-93352438D01*
X91519047Y-93352438D02*
X91566666Y-93400057D01*
X91566666Y-93400057D02*
X91614285Y-93495295D01*
X91614285Y-93495295D02*
X91661904Y-93685771D01*
X91661904Y-93685771D02*
X91661904Y-93923866D01*
X91661904Y-93923866D02*
X91614285Y-94114342D01*
X91614285Y-94114342D02*
X91566666Y-94209580D01*
X91566666Y-94209580D02*
X91519047Y-94257200D01*
X91519047Y-94257200D02*
X91423809Y-94304819D01*
X91423809Y-94304819D02*
X91328571Y-94304819D01*
X91328571Y-94304819D02*
X91233333Y-94257200D01*
X91233333Y-94257200D02*
X91185714Y-94209580D01*
X91185714Y-94209580D02*
X91138095Y-94114342D01*
X91138095Y-94114342D02*
X91090476Y-93923866D01*
X91090476Y-93923866D02*
X91090476Y-93685771D01*
X91090476Y-93685771D02*
X91138095Y-93495295D01*
X91138095Y-93495295D02*
X91185714Y-93400057D01*
X91185714Y-93400057D02*
X91233333Y-93352438D01*
X91233333Y-93352438D02*
X91328571Y-93304819D01*
X39754819Y-103142857D02*
X39278628Y-103476190D01*
X39754819Y-103714285D02*
X38754819Y-103714285D01*
X38754819Y-103714285D02*
X38754819Y-103333333D01*
X38754819Y-103333333D02*
X38802438Y-103238095D01*
X38802438Y-103238095D02*
X38850057Y-103190476D01*
X38850057Y-103190476D02*
X38945295Y-103142857D01*
X38945295Y-103142857D02*
X39088152Y-103142857D01*
X39088152Y-103142857D02*
X39183390Y-103190476D01*
X39183390Y-103190476D02*
X39231009Y-103238095D01*
X39231009Y-103238095D02*
X39278628Y-103333333D01*
X39278628Y-103333333D02*
X39278628Y-103714285D01*
X38850057Y-102761904D02*
X38802438Y-102714285D01*
X38802438Y-102714285D02*
X38754819Y-102619047D01*
X38754819Y-102619047D02*
X38754819Y-102380952D01*
X38754819Y-102380952D02*
X38802438Y-102285714D01*
X38802438Y-102285714D02*
X38850057Y-102238095D01*
X38850057Y-102238095D02*
X38945295Y-102190476D01*
X38945295Y-102190476D02*
X39040533Y-102190476D01*
X39040533Y-102190476D02*
X39183390Y-102238095D01*
X39183390Y-102238095D02*
X39754819Y-102809523D01*
X39754819Y-102809523D02*
X39754819Y-102190476D01*
X39754819Y-101714285D02*
X39754819Y-101523809D01*
X39754819Y-101523809D02*
X39707200Y-101428571D01*
X39707200Y-101428571D02*
X39659580Y-101380952D01*
X39659580Y-101380952D02*
X39516723Y-101285714D01*
X39516723Y-101285714D02*
X39326247Y-101238095D01*
X39326247Y-101238095D02*
X38945295Y-101238095D01*
X38945295Y-101238095D02*
X38850057Y-101285714D01*
X38850057Y-101285714D02*
X38802438Y-101333333D01*
X38802438Y-101333333D02*
X38754819Y-101428571D01*
X38754819Y-101428571D02*
X38754819Y-101619047D01*
X38754819Y-101619047D02*
X38802438Y-101714285D01*
X38802438Y-101714285D02*
X38850057Y-101761904D01*
X38850057Y-101761904D02*
X38945295Y-101809523D01*
X38945295Y-101809523D02*
X39183390Y-101809523D01*
X39183390Y-101809523D02*
X39278628Y-101761904D01*
X39278628Y-101761904D02*
X39326247Y-101714285D01*
X39326247Y-101714285D02*
X39373866Y-101619047D01*
X39373866Y-101619047D02*
X39373866Y-101428571D01*
X39373866Y-101428571D02*
X39326247Y-101333333D01*
X39326247Y-101333333D02*
X39278628Y-101285714D01*
X39278628Y-101285714D02*
X39183390Y-101238095D01*
X50345180Y-100557142D02*
X50821371Y-100223809D01*
X50345180Y-99985714D02*
X51345180Y-99985714D01*
X51345180Y-99985714D02*
X51345180Y-100366666D01*
X51345180Y-100366666D02*
X51297561Y-100461904D01*
X51297561Y-100461904D02*
X51249942Y-100509523D01*
X51249942Y-100509523D02*
X51154704Y-100557142D01*
X51154704Y-100557142D02*
X51011847Y-100557142D01*
X51011847Y-100557142D02*
X50916609Y-100509523D01*
X50916609Y-100509523D02*
X50868990Y-100461904D01*
X50868990Y-100461904D02*
X50821371Y-100366666D01*
X50821371Y-100366666D02*
X50821371Y-99985714D01*
X51345180Y-100890476D02*
X51345180Y-101509523D01*
X51345180Y-101509523D02*
X50964228Y-101176190D01*
X50964228Y-101176190D02*
X50964228Y-101319047D01*
X50964228Y-101319047D02*
X50916609Y-101414285D01*
X50916609Y-101414285D02*
X50868990Y-101461904D01*
X50868990Y-101461904D02*
X50773752Y-101509523D01*
X50773752Y-101509523D02*
X50535657Y-101509523D01*
X50535657Y-101509523D02*
X50440419Y-101461904D01*
X50440419Y-101461904D02*
X50392800Y-101414285D01*
X50392800Y-101414285D02*
X50345180Y-101319047D01*
X50345180Y-101319047D02*
X50345180Y-101033333D01*
X50345180Y-101033333D02*
X50392800Y-100938095D01*
X50392800Y-100938095D02*
X50440419Y-100890476D01*
X50345180Y-102461904D02*
X50345180Y-101890476D01*
X50345180Y-102176190D02*
X51345180Y-102176190D01*
X51345180Y-102176190D02*
X51202323Y-102080952D01*
X51202323Y-102080952D02*
X51107085Y-101985714D01*
X51107085Y-101985714D02*
X51059466Y-101890476D01*
X69495238Y-77449942D02*
X69590476Y-77497561D01*
X69590476Y-77497561D02*
X69685714Y-77592800D01*
X69685714Y-77592800D02*
X69828571Y-77735657D01*
X69828571Y-77735657D02*
X69923809Y-77783276D01*
X69923809Y-77783276D02*
X70019047Y-77783276D01*
X69971428Y-77545180D02*
X70066666Y-77592800D01*
X70066666Y-77592800D02*
X70161904Y-77688038D01*
X70161904Y-77688038D02*
X70209523Y-77878514D01*
X70209523Y-77878514D02*
X70209523Y-78211847D01*
X70209523Y-78211847D02*
X70161904Y-78402323D01*
X70161904Y-78402323D02*
X70066666Y-78497561D01*
X70066666Y-78497561D02*
X69971428Y-78545180D01*
X69971428Y-78545180D02*
X69780952Y-78545180D01*
X69780952Y-78545180D02*
X69685714Y-78497561D01*
X69685714Y-78497561D02*
X69590476Y-78402323D01*
X69590476Y-78402323D02*
X69542857Y-78211847D01*
X69542857Y-78211847D02*
X69542857Y-77878514D01*
X69542857Y-77878514D02*
X69590476Y-77688038D01*
X69590476Y-77688038D02*
X69685714Y-77592800D01*
X69685714Y-77592800D02*
X69780952Y-77545180D01*
X69780952Y-77545180D02*
X69971428Y-77545180D01*
X69161904Y-78449942D02*
X69114285Y-78497561D01*
X69114285Y-78497561D02*
X69019047Y-78545180D01*
X69019047Y-78545180D02*
X68780952Y-78545180D01*
X68780952Y-78545180D02*
X68685714Y-78497561D01*
X68685714Y-78497561D02*
X68638095Y-78449942D01*
X68638095Y-78449942D02*
X68590476Y-78354704D01*
X68590476Y-78354704D02*
X68590476Y-78259466D01*
X68590476Y-78259466D02*
X68638095Y-78116609D01*
X68638095Y-78116609D02*
X69209523Y-77545180D01*
X69209523Y-77545180D02*
X68590476Y-77545180D01*
X97704761Y-107650057D02*
X97609523Y-107602438D01*
X97609523Y-107602438D02*
X97514285Y-107507200D01*
X97514285Y-107507200D02*
X97371428Y-107364342D01*
X97371428Y-107364342D02*
X97276190Y-107316723D01*
X97276190Y-107316723D02*
X97180952Y-107316723D01*
X97228571Y-107554819D02*
X97133333Y-107507200D01*
X97133333Y-107507200D02*
X97038095Y-107411961D01*
X97038095Y-107411961D02*
X96990476Y-107221485D01*
X96990476Y-107221485D02*
X96990476Y-106888152D01*
X96990476Y-106888152D02*
X97038095Y-106697676D01*
X97038095Y-106697676D02*
X97133333Y-106602438D01*
X97133333Y-106602438D02*
X97228571Y-106554819D01*
X97228571Y-106554819D02*
X97419047Y-106554819D01*
X97419047Y-106554819D02*
X97514285Y-106602438D01*
X97514285Y-106602438D02*
X97609523Y-106697676D01*
X97609523Y-106697676D02*
X97657142Y-106888152D01*
X97657142Y-106888152D02*
X97657142Y-107221485D01*
X97657142Y-107221485D02*
X97609523Y-107411961D01*
X97609523Y-107411961D02*
X97514285Y-107507200D01*
X97514285Y-107507200D02*
X97419047Y-107554819D01*
X97419047Y-107554819D02*
X97228571Y-107554819D01*
X98228571Y-106983390D02*
X98133333Y-106935771D01*
X98133333Y-106935771D02*
X98085714Y-106888152D01*
X98085714Y-106888152D02*
X98038095Y-106792914D01*
X98038095Y-106792914D02*
X98038095Y-106745295D01*
X98038095Y-106745295D02*
X98085714Y-106650057D01*
X98085714Y-106650057D02*
X98133333Y-106602438D01*
X98133333Y-106602438D02*
X98228571Y-106554819D01*
X98228571Y-106554819D02*
X98419047Y-106554819D01*
X98419047Y-106554819D02*
X98514285Y-106602438D01*
X98514285Y-106602438D02*
X98561904Y-106650057D01*
X98561904Y-106650057D02*
X98609523Y-106745295D01*
X98609523Y-106745295D02*
X98609523Y-106792914D01*
X98609523Y-106792914D02*
X98561904Y-106888152D01*
X98561904Y-106888152D02*
X98514285Y-106935771D01*
X98514285Y-106935771D02*
X98419047Y-106983390D01*
X98419047Y-106983390D02*
X98228571Y-106983390D01*
X98228571Y-106983390D02*
X98133333Y-107031009D01*
X98133333Y-107031009D02*
X98085714Y-107078628D01*
X98085714Y-107078628D02*
X98038095Y-107173866D01*
X98038095Y-107173866D02*
X98038095Y-107364342D01*
X98038095Y-107364342D02*
X98085714Y-107459580D01*
X98085714Y-107459580D02*
X98133333Y-107507200D01*
X98133333Y-107507200D02*
X98228571Y-107554819D01*
X98228571Y-107554819D02*
X98419047Y-107554819D01*
X98419047Y-107554819D02*
X98514285Y-107507200D01*
X98514285Y-107507200D02*
X98561904Y-107459580D01*
X98561904Y-107459580D02*
X98609523Y-107364342D01*
X98609523Y-107364342D02*
X98609523Y-107173866D01*
X98609523Y-107173866D02*
X98561904Y-107078628D01*
X98561904Y-107078628D02*
X98514285Y-107031009D01*
X98514285Y-107031009D02*
X98419047Y-106983390D01*
X102642857Y-99145180D02*
X102976190Y-99621371D01*
X103214285Y-99145180D02*
X103214285Y-100145180D01*
X103214285Y-100145180D02*
X102833333Y-100145180D01*
X102833333Y-100145180D02*
X102738095Y-100097561D01*
X102738095Y-100097561D02*
X102690476Y-100049942D01*
X102690476Y-100049942D02*
X102642857Y-99954704D01*
X102642857Y-99954704D02*
X102642857Y-99811847D01*
X102642857Y-99811847D02*
X102690476Y-99716609D01*
X102690476Y-99716609D02*
X102738095Y-99668990D01*
X102738095Y-99668990D02*
X102833333Y-99621371D01*
X102833333Y-99621371D02*
X103214285Y-99621371D01*
X102309523Y-100145180D02*
X101690476Y-100145180D01*
X101690476Y-100145180D02*
X102023809Y-99764228D01*
X102023809Y-99764228D02*
X101880952Y-99764228D01*
X101880952Y-99764228D02*
X101785714Y-99716609D01*
X101785714Y-99716609D02*
X101738095Y-99668990D01*
X101738095Y-99668990D02*
X101690476Y-99573752D01*
X101690476Y-99573752D02*
X101690476Y-99335657D01*
X101690476Y-99335657D02*
X101738095Y-99240419D01*
X101738095Y-99240419D02*
X101785714Y-99192800D01*
X101785714Y-99192800D02*
X101880952Y-99145180D01*
X101880952Y-99145180D02*
X102166666Y-99145180D01*
X102166666Y-99145180D02*
X102261904Y-99192800D01*
X102261904Y-99192800D02*
X102309523Y-99240419D01*
X101119047Y-99716609D02*
X101214285Y-99764228D01*
X101214285Y-99764228D02*
X101261904Y-99811847D01*
X101261904Y-99811847D02*
X101309523Y-99907085D01*
X101309523Y-99907085D02*
X101309523Y-99954704D01*
X101309523Y-99954704D02*
X101261904Y-100049942D01*
X101261904Y-100049942D02*
X101214285Y-100097561D01*
X101214285Y-100097561D02*
X101119047Y-100145180D01*
X101119047Y-100145180D02*
X100928571Y-100145180D01*
X100928571Y-100145180D02*
X100833333Y-100097561D01*
X100833333Y-100097561D02*
X100785714Y-100049942D01*
X100785714Y-100049942D02*
X100738095Y-99954704D01*
X100738095Y-99954704D02*
X100738095Y-99907085D01*
X100738095Y-99907085D02*
X100785714Y-99811847D01*
X100785714Y-99811847D02*
X100833333Y-99764228D01*
X100833333Y-99764228D02*
X100928571Y-99716609D01*
X100928571Y-99716609D02*
X101119047Y-99716609D01*
X101119047Y-99716609D02*
X101214285Y-99668990D01*
X101214285Y-99668990D02*
X101261904Y-99621371D01*
X101261904Y-99621371D02*
X101309523Y-99526133D01*
X101309523Y-99526133D02*
X101309523Y-99335657D01*
X101309523Y-99335657D02*
X101261904Y-99240419D01*
X101261904Y-99240419D02*
X101214285Y-99192800D01*
X101214285Y-99192800D02*
X101119047Y-99145180D01*
X101119047Y-99145180D02*
X100928571Y-99145180D01*
X100928571Y-99145180D02*
X100833333Y-99192800D01*
X100833333Y-99192800D02*
X100785714Y-99240419D01*
X100785714Y-99240419D02*
X100738095Y-99335657D01*
X100738095Y-99335657D02*
X100738095Y-99526133D01*
X100738095Y-99526133D02*
X100785714Y-99621371D01*
X100785714Y-99621371D02*
X100833333Y-99668990D01*
X100833333Y-99668990D02*
X100928571Y-99716609D01*
X39954819Y-78461904D02*
X40764342Y-78461904D01*
X40764342Y-78461904D02*
X40859580Y-78414285D01*
X40859580Y-78414285D02*
X40907200Y-78366666D01*
X40907200Y-78366666D02*
X40954819Y-78271428D01*
X40954819Y-78271428D02*
X40954819Y-78080952D01*
X40954819Y-78080952D02*
X40907200Y-77985714D01*
X40907200Y-77985714D02*
X40859580Y-77938095D01*
X40859580Y-77938095D02*
X40764342Y-77890476D01*
X40764342Y-77890476D02*
X39954819Y-77890476D01*
X39954819Y-76938095D02*
X39954819Y-77414285D01*
X39954819Y-77414285D02*
X40431009Y-77461904D01*
X40431009Y-77461904D02*
X40383390Y-77414285D01*
X40383390Y-77414285D02*
X40335771Y-77319047D01*
X40335771Y-77319047D02*
X40335771Y-77080952D01*
X40335771Y-77080952D02*
X40383390Y-76985714D01*
X40383390Y-76985714D02*
X40431009Y-76938095D01*
X40431009Y-76938095D02*
X40526247Y-76890476D01*
X40526247Y-76890476D02*
X40764342Y-76890476D01*
X40764342Y-76890476D02*
X40859580Y-76938095D01*
X40859580Y-76938095D02*
X40907200Y-76985714D01*
X40907200Y-76985714D02*
X40954819Y-77080952D01*
X40954819Y-77080952D02*
X40954819Y-77319047D01*
X40954819Y-77319047D02*
X40907200Y-77414285D01*
X40907200Y-77414285D02*
X40859580Y-77461904D01*
X95782857Y-75645180D02*
X96116190Y-76121371D01*
X96354285Y-75645180D02*
X96354285Y-76645180D01*
X96354285Y-76645180D02*
X95973333Y-76645180D01*
X95973333Y-76645180D02*
X95878095Y-76597561D01*
X95878095Y-76597561D02*
X95830476Y-76549942D01*
X95830476Y-76549942D02*
X95782857Y-76454704D01*
X95782857Y-76454704D02*
X95782857Y-76311847D01*
X95782857Y-76311847D02*
X95830476Y-76216609D01*
X95830476Y-76216609D02*
X95878095Y-76168990D01*
X95878095Y-76168990D02*
X95973333Y-76121371D01*
X95973333Y-76121371D02*
X96354285Y-76121371D01*
X94925714Y-76311847D02*
X94925714Y-75645180D01*
X95163809Y-76692800D02*
X95401904Y-75978514D01*
X95401904Y-75978514D02*
X94782857Y-75978514D01*
X94449523Y-76549942D02*
X94401904Y-76597561D01*
X94401904Y-76597561D02*
X94306666Y-76645180D01*
X94306666Y-76645180D02*
X94068571Y-76645180D01*
X94068571Y-76645180D02*
X93973333Y-76597561D01*
X93973333Y-76597561D02*
X93925714Y-76549942D01*
X93925714Y-76549942D02*
X93878095Y-76454704D01*
X93878095Y-76454704D02*
X93878095Y-76359466D01*
X93878095Y-76359466D02*
X93925714Y-76216609D01*
X93925714Y-76216609D02*
X94497142Y-75645180D01*
X94497142Y-75645180D02*
X93878095Y-75645180D01*
X77957142Y-90454819D02*
X77623809Y-89978628D01*
X77385714Y-90454819D02*
X77385714Y-89454819D01*
X77385714Y-89454819D02*
X77766666Y-89454819D01*
X77766666Y-89454819D02*
X77861904Y-89502438D01*
X77861904Y-89502438D02*
X77909523Y-89550057D01*
X77909523Y-89550057D02*
X77957142Y-89645295D01*
X77957142Y-89645295D02*
X77957142Y-89788152D01*
X77957142Y-89788152D02*
X77909523Y-89883390D01*
X77909523Y-89883390D02*
X77861904Y-89931009D01*
X77861904Y-89931009D02*
X77766666Y-89978628D01*
X77766666Y-89978628D02*
X77385714Y-89978628D01*
X78909523Y-90454819D02*
X78338095Y-90454819D01*
X78623809Y-90454819D02*
X78623809Y-89454819D01*
X78623809Y-89454819D02*
X78528571Y-89597676D01*
X78528571Y-89597676D02*
X78433333Y-89692914D01*
X78433333Y-89692914D02*
X78338095Y-89740533D01*
X79528571Y-89454819D02*
X79623809Y-89454819D01*
X79623809Y-89454819D02*
X79719047Y-89502438D01*
X79719047Y-89502438D02*
X79766666Y-89550057D01*
X79766666Y-89550057D02*
X79814285Y-89645295D01*
X79814285Y-89645295D02*
X79861904Y-89835771D01*
X79861904Y-89835771D02*
X79861904Y-90073866D01*
X79861904Y-90073866D02*
X79814285Y-90264342D01*
X79814285Y-90264342D02*
X79766666Y-90359580D01*
X79766666Y-90359580D02*
X79719047Y-90407200D01*
X79719047Y-90407200D02*
X79623809Y-90454819D01*
X79623809Y-90454819D02*
X79528571Y-90454819D01*
X79528571Y-90454819D02*
X79433333Y-90407200D01*
X79433333Y-90407200D02*
X79385714Y-90359580D01*
X79385714Y-90359580D02*
X79338095Y-90264342D01*
X79338095Y-90264342D02*
X79290476Y-90073866D01*
X79290476Y-90073866D02*
X79290476Y-89835771D01*
X79290476Y-89835771D02*
X79338095Y-89645295D01*
X79338095Y-89645295D02*
X79385714Y-89550057D01*
X79385714Y-89550057D02*
X79433333Y-89502438D01*
X79433333Y-89502438D02*
X79528571Y-89454819D01*
X79261905Y-83954819D02*
X79261905Y-82954819D01*
X79261905Y-82954819D02*
X79500000Y-82954819D01*
X79500000Y-82954819D02*
X79642857Y-83002438D01*
X79642857Y-83002438D02*
X79738095Y-83097676D01*
X79738095Y-83097676D02*
X79785714Y-83192914D01*
X79785714Y-83192914D02*
X79833333Y-83383390D01*
X79833333Y-83383390D02*
X79833333Y-83526247D01*
X79833333Y-83526247D02*
X79785714Y-83716723D01*
X79785714Y-83716723D02*
X79738095Y-83811961D01*
X79738095Y-83811961D02*
X79642857Y-83907200D01*
X79642857Y-83907200D02*
X79500000Y-83954819D01*
X79500000Y-83954819D02*
X79261905Y-83954819D01*
X80690476Y-83288152D02*
X80690476Y-83954819D01*
X80452381Y-82907200D02*
X80214286Y-83621485D01*
X80214286Y-83621485D02*
X80833333Y-83621485D01*
X82959580Y-76847619D02*
X83007200Y-76895238D01*
X83007200Y-76895238D02*
X83054819Y-77038095D01*
X83054819Y-77038095D02*
X83054819Y-77133333D01*
X83054819Y-77133333D02*
X83007200Y-77276190D01*
X83007200Y-77276190D02*
X82911961Y-77371428D01*
X82911961Y-77371428D02*
X82816723Y-77419047D01*
X82816723Y-77419047D02*
X82626247Y-77466666D01*
X82626247Y-77466666D02*
X82483390Y-77466666D01*
X82483390Y-77466666D02*
X82292914Y-77419047D01*
X82292914Y-77419047D02*
X82197676Y-77371428D01*
X82197676Y-77371428D02*
X82102438Y-77276190D01*
X82102438Y-77276190D02*
X82054819Y-77133333D01*
X82054819Y-77133333D02*
X82054819Y-77038095D01*
X82054819Y-77038095D02*
X82102438Y-76895238D01*
X82102438Y-76895238D02*
X82150057Y-76847619D01*
X82054819Y-76228571D02*
X82054819Y-76038095D01*
X82054819Y-76038095D02*
X82102438Y-75942857D01*
X82102438Y-75942857D02*
X82197676Y-75847619D01*
X82197676Y-75847619D02*
X82388152Y-75800000D01*
X82388152Y-75800000D02*
X82721485Y-75800000D01*
X82721485Y-75800000D02*
X82911961Y-75847619D01*
X82911961Y-75847619D02*
X83007200Y-75942857D01*
X83007200Y-75942857D02*
X83054819Y-76038095D01*
X83054819Y-76038095D02*
X83054819Y-76228571D01*
X83054819Y-76228571D02*
X83007200Y-76323809D01*
X83007200Y-76323809D02*
X82911961Y-76419047D01*
X82911961Y-76419047D02*
X82721485Y-76466666D01*
X82721485Y-76466666D02*
X82388152Y-76466666D01*
X82388152Y-76466666D02*
X82197676Y-76419047D01*
X82197676Y-76419047D02*
X82102438Y-76323809D01*
X82102438Y-76323809D02*
X82054819Y-76228571D01*
X83054819Y-75371428D02*
X82054819Y-75371428D01*
X82054819Y-75371428D02*
X83054819Y-74800000D01*
X83054819Y-74800000D02*
X82054819Y-74800000D01*
X83054819Y-74323809D02*
X82054819Y-74323809D01*
X82054819Y-74323809D02*
X83054819Y-73752381D01*
X83054819Y-73752381D02*
X82054819Y-73752381D01*
X82531009Y-73276190D02*
X82531009Y-72942857D01*
X83054819Y-72800000D02*
X83054819Y-73276190D01*
X83054819Y-73276190D02*
X82054819Y-73276190D01*
X82054819Y-73276190D02*
X82054819Y-72800000D01*
X82959580Y-71800000D02*
X83007200Y-71847619D01*
X83007200Y-71847619D02*
X83054819Y-71990476D01*
X83054819Y-71990476D02*
X83054819Y-72085714D01*
X83054819Y-72085714D02*
X83007200Y-72228571D01*
X83007200Y-72228571D02*
X82911961Y-72323809D01*
X82911961Y-72323809D02*
X82816723Y-72371428D01*
X82816723Y-72371428D02*
X82626247Y-72419047D01*
X82626247Y-72419047D02*
X82483390Y-72419047D01*
X82483390Y-72419047D02*
X82292914Y-72371428D01*
X82292914Y-72371428D02*
X82197676Y-72323809D01*
X82197676Y-72323809D02*
X82102438Y-72228571D01*
X82102438Y-72228571D02*
X82054819Y-72085714D01*
X82054819Y-72085714D02*
X82054819Y-71990476D01*
X82054819Y-71990476D02*
X82102438Y-71847619D01*
X82102438Y-71847619D02*
X82150057Y-71800000D01*
X82054819Y-71514285D02*
X82054819Y-70942857D01*
X83054819Y-71228571D02*
X82054819Y-71228571D01*
X82531009Y-70609523D02*
X82531009Y-70276190D01*
X83054819Y-70133333D02*
X83054819Y-70609523D01*
X83054819Y-70609523D02*
X82054819Y-70609523D01*
X82054819Y-70609523D02*
X82054819Y-70133333D01*
X83054819Y-69704761D02*
X82054819Y-69704761D01*
X82054819Y-69704761D02*
X82054819Y-69466666D01*
X82054819Y-69466666D02*
X82102438Y-69323809D01*
X82102438Y-69323809D02*
X82197676Y-69228571D01*
X82197676Y-69228571D02*
X82292914Y-69180952D01*
X82292914Y-69180952D02*
X82483390Y-69133333D01*
X82483390Y-69133333D02*
X82626247Y-69133333D01*
X82626247Y-69133333D02*
X82816723Y-69180952D01*
X82816723Y-69180952D02*
X82911961Y-69228571D01*
X82911961Y-69228571D02*
X83007200Y-69323809D01*
X83007200Y-69323809D02*
X83054819Y-69466666D01*
X83054819Y-69466666D02*
X83054819Y-69704761D01*
X73438095Y-72554819D02*
X74009523Y-72554819D01*
X73723809Y-73554819D02*
X73723809Y-72554819D01*
X74247619Y-72554819D02*
X74914285Y-73554819D01*
X74914285Y-72554819D02*
X74247619Y-73554819D01*
X46654819Y-90338094D02*
X45654819Y-90338094D01*
X45654819Y-90338094D02*
X45654819Y-90099999D01*
X45654819Y-90099999D02*
X45702438Y-89957142D01*
X45702438Y-89957142D02*
X45797676Y-89861904D01*
X45797676Y-89861904D02*
X45892914Y-89814285D01*
X45892914Y-89814285D02*
X46083390Y-89766666D01*
X46083390Y-89766666D02*
X46226247Y-89766666D01*
X46226247Y-89766666D02*
X46416723Y-89814285D01*
X46416723Y-89814285D02*
X46511961Y-89861904D01*
X46511961Y-89861904D02*
X46607200Y-89957142D01*
X46607200Y-89957142D02*
X46654819Y-90099999D01*
X46654819Y-90099999D02*
X46654819Y-90338094D01*
X46083390Y-89195237D02*
X46035771Y-89290475D01*
X46035771Y-89290475D02*
X45988152Y-89338094D01*
X45988152Y-89338094D02*
X45892914Y-89385713D01*
X45892914Y-89385713D02*
X45845295Y-89385713D01*
X45845295Y-89385713D02*
X45750057Y-89338094D01*
X45750057Y-89338094D02*
X45702438Y-89290475D01*
X45702438Y-89290475D02*
X45654819Y-89195237D01*
X45654819Y-89195237D02*
X45654819Y-89004761D01*
X45654819Y-89004761D02*
X45702438Y-88909523D01*
X45702438Y-88909523D02*
X45750057Y-88861904D01*
X45750057Y-88861904D02*
X45845295Y-88814285D01*
X45845295Y-88814285D02*
X45892914Y-88814285D01*
X45892914Y-88814285D02*
X45988152Y-88861904D01*
X45988152Y-88861904D02*
X46035771Y-88909523D01*
X46035771Y-88909523D02*
X46083390Y-89004761D01*
X46083390Y-89004761D02*
X46083390Y-89195237D01*
X46083390Y-89195237D02*
X46131009Y-89290475D01*
X46131009Y-89290475D02*
X46178628Y-89338094D01*
X46178628Y-89338094D02*
X46273866Y-89385713D01*
X46273866Y-89385713D02*
X46464342Y-89385713D01*
X46464342Y-89385713D02*
X46559580Y-89338094D01*
X46559580Y-89338094D02*
X46607200Y-89290475D01*
X46607200Y-89290475D02*
X46654819Y-89195237D01*
X46654819Y-89195237D02*
X46654819Y-89004761D01*
X46654819Y-89004761D02*
X46607200Y-88909523D01*
X46607200Y-88909523D02*
X46559580Y-88861904D01*
X46559580Y-88861904D02*
X46464342Y-88814285D01*
X46464342Y-88814285D02*
X46273866Y-88814285D01*
X46273866Y-88814285D02*
X46178628Y-88861904D01*
X46178628Y-88861904D02*
X46131009Y-88909523D01*
X46131009Y-88909523D02*
X46083390Y-89004761D01*
X46559580Y-94042857D02*
X46607200Y-94090476D01*
X46607200Y-94090476D02*
X46654819Y-94233333D01*
X46654819Y-94233333D02*
X46654819Y-94328571D01*
X46654819Y-94328571D02*
X46607200Y-94471428D01*
X46607200Y-94471428D02*
X46511961Y-94566666D01*
X46511961Y-94566666D02*
X46416723Y-94614285D01*
X46416723Y-94614285D02*
X46226247Y-94661904D01*
X46226247Y-94661904D02*
X46083390Y-94661904D01*
X46083390Y-94661904D02*
X45892914Y-94614285D01*
X45892914Y-94614285D02*
X45797676Y-94566666D01*
X45797676Y-94566666D02*
X45702438Y-94471428D01*
X45702438Y-94471428D02*
X45654819Y-94328571D01*
X45654819Y-94328571D02*
X45654819Y-94233333D01*
X45654819Y-94233333D02*
X45702438Y-94090476D01*
X45702438Y-94090476D02*
X45750057Y-94042857D01*
X46654819Y-93090476D02*
X46654819Y-93661904D01*
X46654819Y-93376190D02*
X45654819Y-93376190D01*
X45654819Y-93376190D02*
X45797676Y-93471428D01*
X45797676Y-93471428D02*
X45892914Y-93566666D01*
X45892914Y-93566666D02*
X45940533Y-93661904D01*
X46654819Y-92138095D02*
X46654819Y-92709523D01*
X46654819Y-92423809D02*
X45654819Y-92423809D01*
X45654819Y-92423809D02*
X45797676Y-92519047D01*
X45797676Y-92519047D02*
X45892914Y-92614285D01*
X45892914Y-92614285D02*
X45940533Y-92709523D01*
X46759580Y-73742857D02*
X46807200Y-73790476D01*
X46807200Y-73790476D02*
X46854819Y-73933333D01*
X46854819Y-73933333D02*
X46854819Y-74028571D01*
X46854819Y-74028571D02*
X46807200Y-74171428D01*
X46807200Y-74171428D02*
X46711961Y-74266666D01*
X46711961Y-74266666D02*
X46616723Y-74314285D01*
X46616723Y-74314285D02*
X46426247Y-74361904D01*
X46426247Y-74361904D02*
X46283390Y-74361904D01*
X46283390Y-74361904D02*
X46092914Y-74314285D01*
X46092914Y-74314285D02*
X45997676Y-74266666D01*
X45997676Y-74266666D02*
X45902438Y-74171428D01*
X45902438Y-74171428D02*
X45854819Y-74028571D01*
X45854819Y-74028571D02*
X45854819Y-73933333D01*
X45854819Y-73933333D02*
X45902438Y-73790476D01*
X45902438Y-73790476D02*
X45950057Y-73742857D01*
X46854819Y-72790476D02*
X46854819Y-73361904D01*
X46854819Y-73076190D02*
X45854819Y-73076190D01*
X45854819Y-73076190D02*
X45997676Y-73171428D01*
X45997676Y-73171428D02*
X46092914Y-73266666D01*
X46092914Y-73266666D02*
X46140533Y-73361904D01*
X45950057Y-72409523D02*
X45902438Y-72361904D01*
X45902438Y-72361904D02*
X45854819Y-72266666D01*
X45854819Y-72266666D02*
X45854819Y-72028571D01*
X45854819Y-72028571D02*
X45902438Y-71933333D01*
X45902438Y-71933333D02*
X45950057Y-71885714D01*
X45950057Y-71885714D02*
X46045295Y-71838095D01*
X46045295Y-71838095D02*
X46140533Y-71838095D01*
X46140533Y-71838095D02*
X46283390Y-71885714D01*
X46283390Y-71885714D02*
X46854819Y-72457142D01*
X46854819Y-72457142D02*
X46854819Y-71838095D01*
X53542857Y-92345180D02*
X53876190Y-92821371D01*
X54114285Y-92345180D02*
X54114285Y-93345180D01*
X54114285Y-93345180D02*
X53733333Y-93345180D01*
X53733333Y-93345180D02*
X53638095Y-93297561D01*
X53638095Y-93297561D02*
X53590476Y-93249942D01*
X53590476Y-93249942D02*
X53542857Y-93154704D01*
X53542857Y-93154704D02*
X53542857Y-93011847D01*
X53542857Y-93011847D02*
X53590476Y-92916609D01*
X53590476Y-92916609D02*
X53638095Y-92868990D01*
X53638095Y-92868990D02*
X53733333Y-92821371D01*
X53733333Y-92821371D02*
X54114285Y-92821371D01*
X52590476Y-92345180D02*
X53161904Y-92345180D01*
X52876190Y-92345180D02*
X52876190Y-93345180D01*
X52876190Y-93345180D02*
X52971428Y-93202323D01*
X52971428Y-93202323D02*
X53066666Y-93107085D01*
X53066666Y-93107085D02*
X53161904Y-93059466D01*
X52257142Y-93345180D02*
X51590476Y-93345180D01*
X51590476Y-93345180D02*
X52019047Y-92345180D01*
X57442772Y-92801044D02*
X57509092Y-92789350D01*
X57509092Y-92789350D02*
X57653427Y-92832282D01*
X57653427Y-92832282D02*
X57731441Y-92886908D01*
X57731441Y-92886908D02*
X57821150Y-93007855D01*
X57821150Y-93007855D02*
X57844538Y-93140496D01*
X57844538Y-93140496D02*
X57828919Y-93245824D01*
X57828919Y-93245824D02*
X57758674Y-93429166D01*
X57758674Y-93429166D02*
X57676734Y-93546187D01*
X57676734Y-93546187D02*
X57528474Y-93674903D01*
X57528474Y-93674903D02*
X57434841Y-93725604D01*
X57434841Y-93725604D02*
X57302200Y-93748993D01*
X57302200Y-93748993D02*
X57157865Y-93706060D01*
X57157865Y-93706060D02*
X57079850Y-93651434D01*
X57079850Y-93651434D02*
X56990142Y-93530487D01*
X56990142Y-93530487D02*
X56978448Y-93464167D01*
X56650771Y-93350989D02*
X56143677Y-92995918D01*
X56143677Y-92995918D02*
X56635233Y-92875052D01*
X56635233Y-92875052D02*
X56518211Y-92793113D01*
X56518211Y-92793113D02*
X56467510Y-92699479D01*
X56467510Y-92699479D02*
X56455816Y-92633159D01*
X56455816Y-92633159D02*
X56471435Y-92527831D01*
X56471435Y-92527831D02*
X56608000Y-92332795D01*
X56608000Y-92332795D02*
X56701634Y-92282094D01*
X56701634Y-92282094D02*
X56767954Y-92270400D01*
X56767954Y-92270400D02*
X56873282Y-92286019D01*
X56873282Y-92286019D02*
X57107326Y-92449898D01*
X57107326Y-92449898D02*
X57158027Y-92543531D01*
X57158027Y-92543531D02*
X57169721Y-92609852D01*
X94804761Y-106250057D02*
X94709523Y-106202438D01*
X94709523Y-106202438D02*
X94614285Y-106107200D01*
X94614285Y-106107200D02*
X94471428Y-105964342D01*
X94471428Y-105964342D02*
X94376190Y-105916723D01*
X94376190Y-105916723D02*
X94280952Y-105916723D01*
X94328571Y-106154819D02*
X94233333Y-106107200D01*
X94233333Y-106107200D02*
X94138095Y-106011961D01*
X94138095Y-106011961D02*
X94090476Y-105821485D01*
X94090476Y-105821485D02*
X94090476Y-105488152D01*
X94090476Y-105488152D02*
X94138095Y-105297676D01*
X94138095Y-105297676D02*
X94233333Y-105202438D01*
X94233333Y-105202438D02*
X94328571Y-105154819D01*
X94328571Y-105154819D02*
X94519047Y-105154819D01*
X94519047Y-105154819D02*
X94614285Y-105202438D01*
X94614285Y-105202438D02*
X94709523Y-105297676D01*
X94709523Y-105297676D02*
X94757142Y-105488152D01*
X94757142Y-105488152D02*
X94757142Y-105821485D01*
X94757142Y-105821485D02*
X94709523Y-106011961D01*
X94709523Y-106011961D02*
X94614285Y-106107200D01*
X94614285Y-106107200D02*
X94519047Y-106154819D01*
X94519047Y-106154819D02*
X94328571Y-106154819D01*
X95614285Y-105154819D02*
X95423809Y-105154819D01*
X95423809Y-105154819D02*
X95328571Y-105202438D01*
X95328571Y-105202438D02*
X95280952Y-105250057D01*
X95280952Y-105250057D02*
X95185714Y-105392914D01*
X95185714Y-105392914D02*
X95138095Y-105583390D01*
X95138095Y-105583390D02*
X95138095Y-105964342D01*
X95138095Y-105964342D02*
X95185714Y-106059580D01*
X95185714Y-106059580D02*
X95233333Y-106107200D01*
X95233333Y-106107200D02*
X95328571Y-106154819D01*
X95328571Y-106154819D02*
X95519047Y-106154819D01*
X95519047Y-106154819D02*
X95614285Y-106107200D01*
X95614285Y-106107200D02*
X95661904Y-106059580D01*
X95661904Y-106059580D02*
X95709523Y-105964342D01*
X95709523Y-105964342D02*
X95709523Y-105726247D01*
X95709523Y-105726247D02*
X95661904Y-105631009D01*
X95661904Y-105631009D02*
X95614285Y-105583390D01*
X95614285Y-105583390D02*
X95519047Y-105535771D01*
X95519047Y-105535771D02*
X95328571Y-105535771D01*
X95328571Y-105535771D02*
X95233333Y-105583390D01*
X95233333Y-105583390D02*
X95185714Y-105631009D01*
X95185714Y-105631009D02*
X95138095Y-105726247D01*
X84354819Y-81738094D02*
X83354819Y-81738094D01*
X83354819Y-81738094D02*
X83354819Y-81499999D01*
X83354819Y-81499999D02*
X83402438Y-81357142D01*
X83402438Y-81357142D02*
X83497676Y-81261904D01*
X83497676Y-81261904D02*
X83592914Y-81214285D01*
X83592914Y-81214285D02*
X83783390Y-81166666D01*
X83783390Y-81166666D02*
X83926247Y-81166666D01*
X83926247Y-81166666D02*
X84116723Y-81214285D01*
X84116723Y-81214285D02*
X84211961Y-81261904D01*
X84211961Y-81261904D02*
X84307200Y-81357142D01*
X84307200Y-81357142D02*
X84354819Y-81499999D01*
X84354819Y-81499999D02*
X84354819Y-81738094D01*
X83354819Y-80261904D02*
X83354819Y-80738094D01*
X83354819Y-80738094D02*
X83831009Y-80785713D01*
X83831009Y-80785713D02*
X83783390Y-80738094D01*
X83783390Y-80738094D02*
X83735771Y-80642856D01*
X83735771Y-80642856D02*
X83735771Y-80404761D01*
X83735771Y-80404761D02*
X83783390Y-80309523D01*
X83783390Y-80309523D02*
X83831009Y-80261904D01*
X83831009Y-80261904D02*
X83926247Y-80214285D01*
X83926247Y-80214285D02*
X84164342Y-80214285D01*
X84164342Y-80214285D02*
X84259580Y-80261904D01*
X84259580Y-80261904D02*
X84307200Y-80309523D01*
X84307200Y-80309523D02*
X84354819Y-80404761D01*
X84354819Y-80404761D02*
X84354819Y-80642856D01*
X84354819Y-80642856D02*
X84307200Y-80738094D01*
X84307200Y-80738094D02*
X84259580Y-80785713D01*
X84454819Y-76823809D02*
X83978628Y-77157142D01*
X84454819Y-77395237D02*
X83454819Y-77395237D01*
X83454819Y-77395237D02*
X83454819Y-77014285D01*
X83454819Y-77014285D02*
X83502438Y-76919047D01*
X83502438Y-76919047D02*
X83550057Y-76871428D01*
X83550057Y-76871428D02*
X83645295Y-76823809D01*
X83645295Y-76823809D02*
X83788152Y-76823809D01*
X83788152Y-76823809D02*
X83883390Y-76871428D01*
X83883390Y-76871428D02*
X83931009Y-76919047D01*
X83931009Y-76919047D02*
X83978628Y-77014285D01*
X83978628Y-77014285D02*
X83978628Y-77395237D01*
X83454819Y-76395237D02*
X84264342Y-76395237D01*
X84264342Y-76395237D02*
X84359580Y-76347618D01*
X84359580Y-76347618D02*
X84407200Y-76299999D01*
X84407200Y-76299999D02*
X84454819Y-76204761D01*
X84454819Y-76204761D02*
X84454819Y-76014285D01*
X84454819Y-76014285D02*
X84407200Y-75919047D01*
X84407200Y-75919047D02*
X84359580Y-75871428D01*
X84359580Y-75871428D02*
X84264342Y-75823809D01*
X84264342Y-75823809D02*
X83454819Y-75823809D01*
X84454819Y-75347618D02*
X83454819Y-75347618D01*
X83454819Y-75347618D02*
X84454819Y-74776190D01*
X84454819Y-74776190D02*
X83454819Y-74776190D01*
X84454819Y-74299999D02*
X83454819Y-74299999D01*
X83454819Y-74299999D02*
X84454819Y-73728571D01*
X84454819Y-73728571D02*
X83454819Y-73728571D01*
X84454819Y-73252380D02*
X83454819Y-73252380D01*
X84454819Y-72776190D02*
X83454819Y-72776190D01*
X83454819Y-72776190D02*
X84454819Y-72204762D01*
X84454819Y-72204762D02*
X83454819Y-72204762D01*
X83502438Y-71204762D02*
X83454819Y-71300000D01*
X83454819Y-71300000D02*
X83454819Y-71442857D01*
X83454819Y-71442857D02*
X83502438Y-71585714D01*
X83502438Y-71585714D02*
X83597676Y-71680952D01*
X83597676Y-71680952D02*
X83692914Y-71728571D01*
X83692914Y-71728571D02*
X83883390Y-71776190D01*
X83883390Y-71776190D02*
X84026247Y-71776190D01*
X84026247Y-71776190D02*
X84216723Y-71728571D01*
X84216723Y-71728571D02*
X84311961Y-71680952D01*
X84311961Y-71680952D02*
X84407200Y-71585714D01*
X84407200Y-71585714D02*
X84454819Y-71442857D01*
X84454819Y-71442857D02*
X84454819Y-71347619D01*
X84454819Y-71347619D02*
X84407200Y-71204762D01*
X84407200Y-71204762D02*
X84359580Y-71157143D01*
X84359580Y-71157143D02*
X84026247Y-71157143D01*
X84026247Y-71157143D02*
X84026247Y-71347619D01*
X73633333Y-106754819D02*
X73300000Y-106278628D01*
X73061905Y-106754819D02*
X73061905Y-105754819D01*
X73061905Y-105754819D02*
X73442857Y-105754819D01*
X73442857Y-105754819D02*
X73538095Y-105802438D01*
X73538095Y-105802438D02*
X73585714Y-105850057D01*
X73585714Y-105850057D02*
X73633333Y-105945295D01*
X73633333Y-105945295D02*
X73633333Y-106088152D01*
X73633333Y-106088152D02*
X73585714Y-106183390D01*
X73585714Y-106183390D02*
X73538095Y-106231009D01*
X73538095Y-106231009D02*
X73442857Y-106278628D01*
X73442857Y-106278628D02*
X73061905Y-106278628D01*
X74014286Y-105850057D02*
X74061905Y-105802438D01*
X74061905Y-105802438D02*
X74157143Y-105754819D01*
X74157143Y-105754819D02*
X74395238Y-105754819D01*
X74395238Y-105754819D02*
X74490476Y-105802438D01*
X74490476Y-105802438D02*
X74538095Y-105850057D01*
X74538095Y-105850057D02*
X74585714Y-105945295D01*
X74585714Y-105945295D02*
X74585714Y-106040533D01*
X74585714Y-106040533D02*
X74538095Y-106183390D01*
X74538095Y-106183390D02*
X73966667Y-106754819D01*
X73966667Y-106754819D02*
X74585714Y-106754819D01*
X97566666Y-70454819D02*
X97566666Y-71169104D01*
X97566666Y-71169104D02*
X97519047Y-71311961D01*
X97519047Y-71311961D02*
X97423809Y-71407200D01*
X97423809Y-71407200D02*
X97280952Y-71454819D01*
X97280952Y-71454819D02*
X97185714Y-71454819D01*
X97947619Y-70454819D02*
X98614285Y-70454819D01*
X98614285Y-70454819D02*
X98185714Y-71454819D01*
X64840419Y-91933333D02*
X64792800Y-91885714D01*
X64792800Y-91885714D02*
X64745180Y-91742857D01*
X64745180Y-91742857D02*
X64745180Y-91647619D01*
X64745180Y-91647619D02*
X64792800Y-91504762D01*
X64792800Y-91504762D02*
X64888038Y-91409524D01*
X64888038Y-91409524D02*
X64983276Y-91361905D01*
X64983276Y-91361905D02*
X65173752Y-91314286D01*
X65173752Y-91314286D02*
X65316609Y-91314286D01*
X65316609Y-91314286D02*
X65507085Y-91361905D01*
X65507085Y-91361905D02*
X65602323Y-91409524D01*
X65602323Y-91409524D02*
X65697561Y-91504762D01*
X65697561Y-91504762D02*
X65745180Y-91647619D01*
X65745180Y-91647619D02*
X65745180Y-91742857D01*
X65745180Y-91742857D02*
X65697561Y-91885714D01*
X65697561Y-91885714D02*
X65649942Y-91933333D01*
X65745180Y-92266667D02*
X65745180Y-92933333D01*
X65745180Y-92933333D02*
X64745180Y-92504762D01*
X65245180Y-94957142D02*
X65721371Y-94623809D01*
X65245180Y-94385714D02*
X66245180Y-94385714D01*
X66245180Y-94385714D02*
X66245180Y-94766666D01*
X66245180Y-94766666D02*
X66197561Y-94861904D01*
X66197561Y-94861904D02*
X66149942Y-94909523D01*
X66149942Y-94909523D02*
X66054704Y-94957142D01*
X66054704Y-94957142D02*
X65911847Y-94957142D01*
X65911847Y-94957142D02*
X65816609Y-94909523D01*
X65816609Y-94909523D02*
X65768990Y-94861904D01*
X65768990Y-94861904D02*
X65721371Y-94766666D01*
X65721371Y-94766666D02*
X65721371Y-94385714D01*
X65245180Y-95909523D02*
X65245180Y-95338095D01*
X65245180Y-95623809D02*
X66245180Y-95623809D01*
X66245180Y-95623809D02*
X66102323Y-95528571D01*
X66102323Y-95528571D02*
X66007085Y-95433333D01*
X66007085Y-95433333D02*
X65959466Y-95338095D01*
X65816609Y-96480952D02*
X65864228Y-96385714D01*
X65864228Y-96385714D02*
X65911847Y-96338095D01*
X65911847Y-96338095D02*
X66007085Y-96290476D01*
X66007085Y-96290476D02*
X66054704Y-96290476D01*
X66054704Y-96290476D02*
X66149942Y-96338095D01*
X66149942Y-96338095D02*
X66197561Y-96385714D01*
X66197561Y-96385714D02*
X66245180Y-96480952D01*
X66245180Y-96480952D02*
X66245180Y-96671428D01*
X66245180Y-96671428D02*
X66197561Y-96766666D01*
X66197561Y-96766666D02*
X66149942Y-96814285D01*
X66149942Y-96814285D02*
X66054704Y-96861904D01*
X66054704Y-96861904D02*
X66007085Y-96861904D01*
X66007085Y-96861904D02*
X65911847Y-96814285D01*
X65911847Y-96814285D02*
X65864228Y-96766666D01*
X65864228Y-96766666D02*
X65816609Y-96671428D01*
X65816609Y-96671428D02*
X65816609Y-96480952D01*
X65816609Y-96480952D02*
X65768990Y-96385714D01*
X65768990Y-96385714D02*
X65721371Y-96338095D01*
X65721371Y-96338095D02*
X65626133Y-96290476D01*
X65626133Y-96290476D02*
X65435657Y-96290476D01*
X65435657Y-96290476D02*
X65340419Y-96338095D01*
X65340419Y-96338095D02*
X65292800Y-96385714D01*
X65292800Y-96385714D02*
X65245180Y-96480952D01*
X65245180Y-96480952D02*
X65245180Y-96671428D01*
X65245180Y-96671428D02*
X65292800Y-96766666D01*
X65292800Y-96766666D02*
X65340419Y-96814285D01*
X65340419Y-96814285D02*
X65435657Y-96861904D01*
X65435657Y-96861904D02*
X65626133Y-96861904D01*
X65626133Y-96861904D02*
X65721371Y-96814285D01*
X65721371Y-96814285D02*
X65768990Y-96766666D01*
X65768990Y-96766666D02*
X65816609Y-96671428D01*
X92359580Y-91742857D02*
X92407200Y-91790476D01*
X92407200Y-91790476D02*
X92454819Y-91933333D01*
X92454819Y-91933333D02*
X92454819Y-92028571D01*
X92454819Y-92028571D02*
X92407200Y-92171428D01*
X92407200Y-92171428D02*
X92311961Y-92266666D01*
X92311961Y-92266666D02*
X92216723Y-92314285D01*
X92216723Y-92314285D02*
X92026247Y-92361904D01*
X92026247Y-92361904D02*
X91883390Y-92361904D01*
X91883390Y-92361904D02*
X91692914Y-92314285D01*
X91692914Y-92314285D02*
X91597676Y-92266666D01*
X91597676Y-92266666D02*
X91502438Y-92171428D01*
X91502438Y-92171428D02*
X91454819Y-92028571D01*
X91454819Y-92028571D02*
X91454819Y-91933333D01*
X91454819Y-91933333D02*
X91502438Y-91790476D01*
X91502438Y-91790476D02*
X91550057Y-91742857D01*
X91550057Y-91361904D02*
X91502438Y-91314285D01*
X91502438Y-91314285D02*
X91454819Y-91219047D01*
X91454819Y-91219047D02*
X91454819Y-90980952D01*
X91454819Y-90980952D02*
X91502438Y-90885714D01*
X91502438Y-90885714D02*
X91550057Y-90838095D01*
X91550057Y-90838095D02*
X91645295Y-90790476D01*
X91645295Y-90790476D02*
X91740533Y-90790476D01*
X91740533Y-90790476D02*
X91883390Y-90838095D01*
X91883390Y-90838095D02*
X92454819Y-91409523D01*
X92454819Y-91409523D02*
X92454819Y-90790476D01*
X91454819Y-90457142D02*
X91454819Y-89838095D01*
X91454819Y-89838095D02*
X91835771Y-90171428D01*
X91835771Y-90171428D02*
X91835771Y-90028571D01*
X91835771Y-90028571D02*
X91883390Y-89933333D01*
X91883390Y-89933333D02*
X91931009Y-89885714D01*
X91931009Y-89885714D02*
X92026247Y-89838095D01*
X92026247Y-89838095D02*
X92264342Y-89838095D01*
X92264342Y-89838095D02*
X92359580Y-89885714D01*
X92359580Y-89885714D02*
X92407200Y-89933333D01*
X92407200Y-89933333D02*
X92454819Y-90028571D01*
X92454819Y-90028571D02*
X92454819Y-90314285D01*
X92454819Y-90314285D02*
X92407200Y-90409523D01*
X92407200Y-90409523D02*
X92359580Y-90457142D01*
X46231009Y-87533333D02*
X46231009Y-87866666D01*
X46754819Y-87866666D02*
X45754819Y-87866666D01*
X45754819Y-87866666D02*
X45754819Y-87390476D01*
X46231009Y-86676190D02*
X46278628Y-86533333D01*
X46278628Y-86533333D02*
X46326247Y-86485714D01*
X46326247Y-86485714D02*
X46421485Y-86438095D01*
X46421485Y-86438095D02*
X46564342Y-86438095D01*
X46564342Y-86438095D02*
X46659580Y-86485714D01*
X46659580Y-86485714D02*
X46707200Y-86533333D01*
X46707200Y-86533333D02*
X46754819Y-86628571D01*
X46754819Y-86628571D02*
X46754819Y-87009523D01*
X46754819Y-87009523D02*
X45754819Y-87009523D01*
X45754819Y-87009523D02*
X45754819Y-86676190D01*
X45754819Y-86676190D02*
X45802438Y-86580952D01*
X45802438Y-86580952D02*
X45850057Y-86533333D01*
X45850057Y-86533333D02*
X45945295Y-86485714D01*
X45945295Y-86485714D02*
X46040533Y-86485714D01*
X46040533Y-86485714D02*
X46135771Y-86533333D01*
X46135771Y-86533333D02*
X46183390Y-86580952D01*
X46183390Y-86580952D02*
X46231009Y-86676190D01*
X46231009Y-86676190D02*
X46231009Y-87009523D01*
X46754819Y-85485714D02*
X46754819Y-86057142D01*
X46754819Y-85771428D02*
X45754819Y-85771428D01*
X45754819Y-85771428D02*
X45897676Y-85866666D01*
X45897676Y-85866666D02*
X45992914Y-85961904D01*
X45992914Y-85961904D02*
X46040533Y-86057142D01*
X90582857Y-75595180D02*
X90916190Y-76071371D01*
X91154285Y-75595180D02*
X91154285Y-76595180D01*
X91154285Y-76595180D02*
X90773333Y-76595180D01*
X90773333Y-76595180D02*
X90678095Y-76547561D01*
X90678095Y-76547561D02*
X90630476Y-76499942D01*
X90630476Y-76499942D02*
X90582857Y-76404704D01*
X90582857Y-76404704D02*
X90582857Y-76261847D01*
X90582857Y-76261847D02*
X90630476Y-76166609D01*
X90630476Y-76166609D02*
X90678095Y-76118990D01*
X90678095Y-76118990D02*
X90773333Y-76071371D01*
X90773333Y-76071371D02*
X91154285Y-76071371D01*
X89725714Y-76261847D02*
X89725714Y-75595180D01*
X89963809Y-76642800D02*
X90201904Y-75928514D01*
X90201904Y-75928514D02*
X89582857Y-75928514D01*
X88678095Y-75595180D02*
X89249523Y-75595180D01*
X88963809Y-75595180D02*
X88963809Y-76595180D01*
X88963809Y-76595180D02*
X89059047Y-76452323D01*
X89059047Y-76452323D02*
X89154285Y-76357085D01*
X89154285Y-76357085D02*
X89249523Y-76309466D01*
X61759580Y-86466666D02*
X61807200Y-86514285D01*
X61807200Y-86514285D02*
X61854819Y-86657142D01*
X61854819Y-86657142D02*
X61854819Y-86752380D01*
X61854819Y-86752380D02*
X61807200Y-86895237D01*
X61807200Y-86895237D02*
X61711961Y-86990475D01*
X61711961Y-86990475D02*
X61616723Y-87038094D01*
X61616723Y-87038094D02*
X61426247Y-87085713D01*
X61426247Y-87085713D02*
X61283390Y-87085713D01*
X61283390Y-87085713D02*
X61092914Y-87038094D01*
X61092914Y-87038094D02*
X60997676Y-86990475D01*
X60997676Y-86990475D02*
X60902438Y-86895237D01*
X60902438Y-86895237D02*
X60854819Y-86752380D01*
X60854819Y-86752380D02*
X60854819Y-86657142D01*
X60854819Y-86657142D02*
X60902438Y-86514285D01*
X60902438Y-86514285D02*
X60950057Y-86466666D01*
X61854819Y-85990475D02*
X61854819Y-85799999D01*
X61854819Y-85799999D02*
X61807200Y-85704761D01*
X61807200Y-85704761D02*
X61759580Y-85657142D01*
X61759580Y-85657142D02*
X61616723Y-85561904D01*
X61616723Y-85561904D02*
X61426247Y-85514285D01*
X61426247Y-85514285D02*
X61045295Y-85514285D01*
X61045295Y-85514285D02*
X60950057Y-85561904D01*
X60950057Y-85561904D02*
X60902438Y-85609523D01*
X60902438Y-85609523D02*
X60854819Y-85704761D01*
X60854819Y-85704761D02*
X60854819Y-85895237D01*
X60854819Y-85895237D02*
X60902438Y-85990475D01*
X60902438Y-85990475D02*
X60950057Y-86038094D01*
X60950057Y-86038094D02*
X61045295Y-86085713D01*
X61045295Y-86085713D02*
X61283390Y-86085713D01*
X61283390Y-86085713D02*
X61378628Y-86038094D01*
X61378628Y-86038094D02*
X61426247Y-85990475D01*
X61426247Y-85990475D02*
X61473866Y-85895237D01*
X61473866Y-85895237D02*
X61473866Y-85704761D01*
X61473866Y-85704761D02*
X61426247Y-85609523D01*
X61426247Y-85609523D02*
X61378628Y-85561904D01*
X61378628Y-85561904D02*
X61283390Y-85514285D01*
X40057142Y-96254819D02*
X39723809Y-95778628D01*
X39485714Y-96254819D02*
X39485714Y-95254819D01*
X39485714Y-95254819D02*
X39866666Y-95254819D01*
X39866666Y-95254819D02*
X39961904Y-95302438D01*
X39961904Y-95302438D02*
X40009523Y-95350057D01*
X40009523Y-95350057D02*
X40057142Y-95445295D01*
X40057142Y-95445295D02*
X40057142Y-95588152D01*
X40057142Y-95588152D02*
X40009523Y-95683390D01*
X40009523Y-95683390D02*
X39961904Y-95731009D01*
X39961904Y-95731009D02*
X39866666Y-95778628D01*
X39866666Y-95778628D02*
X39485714Y-95778628D01*
X40438095Y-95350057D02*
X40485714Y-95302438D01*
X40485714Y-95302438D02*
X40580952Y-95254819D01*
X40580952Y-95254819D02*
X40819047Y-95254819D01*
X40819047Y-95254819D02*
X40914285Y-95302438D01*
X40914285Y-95302438D02*
X40961904Y-95350057D01*
X40961904Y-95350057D02*
X41009523Y-95445295D01*
X41009523Y-95445295D02*
X41009523Y-95540533D01*
X41009523Y-95540533D02*
X40961904Y-95683390D01*
X40961904Y-95683390D02*
X40390476Y-96254819D01*
X40390476Y-96254819D02*
X41009523Y-96254819D01*
X41342857Y-95254819D02*
X42009523Y-95254819D01*
X42009523Y-95254819D02*
X41580952Y-96254819D01*
D10*
X54864895Y-79709523D02*
X55512514Y-79709523D01*
X55512514Y-79709523D02*
X55588704Y-79671428D01*
X55588704Y-79671428D02*
X55626800Y-79633333D01*
X55626800Y-79633333D02*
X55664895Y-79557142D01*
X55664895Y-79557142D02*
X55664895Y-79404761D01*
X55664895Y-79404761D02*
X55626800Y-79328571D01*
X55626800Y-79328571D02*
X55588704Y-79290476D01*
X55588704Y-79290476D02*
X55512514Y-79252380D01*
X55512514Y-79252380D02*
X54864895Y-79252380D01*
X54864895Y-78947619D02*
X54864895Y-78452381D01*
X54864895Y-78452381D02*
X55169657Y-78719047D01*
X55169657Y-78719047D02*
X55169657Y-78604762D01*
X55169657Y-78604762D02*
X55207752Y-78528571D01*
X55207752Y-78528571D02*
X55245847Y-78490476D01*
X55245847Y-78490476D02*
X55322038Y-78452381D01*
X55322038Y-78452381D02*
X55512514Y-78452381D01*
X55512514Y-78452381D02*
X55588704Y-78490476D01*
X55588704Y-78490476D02*
X55626800Y-78528571D01*
X55626800Y-78528571D02*
X55664895Y-78604762D01*
X55664895Y-78604762D02*
X55664895Y-78833333D01*
X55664895Y-78833333D02*
X55626800Y-78909524D01*
X55626800Y-78909524D02*
X55588704Y-78947619D01*
D11*
X38054819Y-99992857D02*
X37578628Y-100326190D01*
X38054819Y-100564285D02*
X37054819Y-100564285D01*
X37054819Y-100564285D02*
X37054819Y-100183333D01*
X37054819Y-100183333D02*
X37102438Y-100088095D01*
X37102438Y-100088095D02*
X37150057Y-100040476D01*
X37150057Y-100040476D02*
X37245295Y-99992857D01*
X37245295Y-99992857D02*
X37388152Y-99992857D01*
X37388152Y-99992857D02*
X37483390Y-100040476D01*
X37483390Y-100040476D02*
X37531009Y-100088095D01*
X37531009Y-100088095D02*
X37578628Y-100183333D01*
X37578628Y-100183333D02*
X37578628Y-100564285D01*
X37054819Y-99659523D02*
X37054819Y-99040476D01*
X37054819Y-99040476D02*
X37435771Y-99373809D01*
X37435771Y-99373809D02*
X37435771Y-99230952D01*
X37435771Y-99230952D02*
X37483390Y-99135714D01*
X37483390Y-99135714D02*
X37531009Y-99088095D01*
X37531009Y-99088095D02*
X37626247Y-99040476D01*
X37626247Y-99040476D02*
X37864342Y-99040476D01*
X37864342Y-99040476D02*
X37959580Y-99088095D01*
X37959580Y-99088095D02*
X38007200Y-99135714D01*
X38007200Y-99135714D02*
X38054819Y-99230952D01*
X38054819Y-99230952D02*
X38054819Y-99516666D01*
X38054819Y-99516666D02*
X38007200Y-99611904D01*
X38007200Y-99611904D02*
X37959580Y-99659523D01*
X37150057Y-98659523D02*
X37102438Y-98611904D01*
X37102438Y-98611904D02*
X37054819Y-98516666D01*
X37054819Y-98516666D02*
X37054819Y-98278571D01*
X37054819Y-98278571D02*
X37102438Y-98183333D01*
X37102438Y-98183333D02*
X37150057Y-98135714D01*
X37150057Y-98135714D02*
X37245295Y-98088095D01*
X37245295Y-98088095D02*
X37340533Y-98088095D01*
X37340533Y-98088095D02*
X37483390Y-98135714D01*
X37483390Y-98135714D02*
X38054819Y-98707142D01*
X38054819Y-98707142D02*
X38054819Y-98088095D01*
X88992319Y-87692857D02*
X88516128Y-88026190D01*
X88992319Y-88264285D02*
X87992319Y-88264285D01*
X87992319Y-88264285D02*
X87992319Y-87883333D01*
X87992319Y-87883333D02*
X88039938Y-87788095D01*
X88039938Y-87788095D02*
X88087557Y-87740476D01*
X88087557Y-87740476D02*
X88182795Y-87692857D01*
X88182795Y-87692857D02*
X88325652Y-87692857D01*
X88325652Y-87692857D02*
X88420890Y-87740476D01*
X88420890Y-87740476D02*
X88468509Y-87788095D01*
X88468509Y-87788095D02*
X88516128Y-87883333D01*
X88516128Y-87883333D02*
X88516128Y-88264285D01*
X87992319Y-87359523D02*
X87992319Y-86740476D01*
X87992319Y-86740476D02*
X88373271Y-87073809D01*
X88373271Y-87073809D02*
X88373271Y-86930952D01*
X88373271Y-86930952D02*
X88420890Y-86835714D01*
X88420890Y-86835714D02*
X88468509Y-86788095D01*
X88468509Y-86788095D02*
X88563747Y-86740476D01*
X88563747Y-86740476D02*
X88801842Y-86740476D01*
X88801842Y-86740476D02*
X88897080Y-86788095D01*
X88897080Y-86788095D02*
X88944700Y-86835714D01*
X88944700Y-86835714D02*
X88992319Y-86930952D01*
X88992319Y-86930952D02*
X88992319Y-87216666D01*
X88992319Y-87216666D02*
X88944700Y-87311904D01*
X88944700Y-87311904D02*
X88897080Y-87359523D01*
X87992319Y-85883333D02*
X87992319Y-86073809D01*
X87992319Y-86073809D02*
X88039938Y-86169047D01*
X88039938Y-86169047D02*
X88087557Y-86216666D01*
X88087557Y-86216666D02*
X88230414Y-86311904D01*
X88230414Y-86311904D02*
X88420890Y-86359523D01*
X88420890Y-86359523D02*
X88801842Y-86359523D01*
X88801842Y-86359523D02*
X88897080Y-86311904D01*
X88897080Y-86311904D02*
X88944700Y-86264285D01*
X88944700Y-86264285D02*
X88992319Y-86169047D01*
X88992319Y-86169047D02*
X88992319Y-85978571D01*
X88992319Y-85978571D02*
X88944700Y-85883333D01*
X88944700Y-85883333D02*
X88897080Y-85835714D01*
X88897080Y-85835714D02*
X88801842Y-85788095D01*
X88801842Y-85788095D02*
X88563747Y-85788095D01*
X88563747Y-85788095D02*
X88468509Y-85835714D01*
X88468509Y-85835714D02*
X88420890Y-85883333D01*
X88420890Y-85883333D02*
X88373271Y-85978571D01*
X88373271Y-85978571D02*
X88373271Y-86169047D01*
X88373271Y-86169047D02*
X88420890Y-86264285D01*
X88420890Y-86264285D02*
X88468509Y-86311904D01*
X88468509Y-86311904D02*
X88563747Y-86359523D01*
X94804761Y-107650057D02*
X94709523Y-107602438D01*
X94709523Y-107602438D02*
X94614285Y-107507200D01*
X94614285Y-107507200D02*
X94471428Y-107364342D01*
X94471428Y-107364342D02*
X94376190Y-107316723D01*
X94376190Y-107316723D02*
X94280952Y-107316723D01*
X94328571Y-107554819D02*
X94233333Y-107507200D01*
X94233333Y-107507200D02*
X94138095Y-107411961D01*
X94138095Y-107411961D02*
X94090476Y-107221485D01*
X94090476Y-107221485D02*
X94090476Y-106888152D01*
X94090476Y-106888152D02*
X94138095Y-106697676D01*
X94138095Y-106697676D02*
X94233333Y-106602438D01*
X94233333Y-106602438D02*
X94328571Y-106554819D01*
X94328571Y-106554819D02*
X94519047Y-106554819D01*
X94519047Y-106554819D02*
X94614285Y-106602438D01*
X94614285Y-106602438D02*
X94709523Y-106697676D01*
X94709523Y-106697676D02*
X94757142Y-106888152D01*
X94757142Y-106888152D02*
X94757142Y-107221485D01*
X94757142Y-107221485D02*
X94709523Y-107411961D01*
X94709523Y-107411961D02*
X94614285Y-107507200D01*
X94614285Y-107507200D02*
X94519047Y-107554819D01*
X94519047Y-107554819D02*
X94328571Y-107554819D01*
X95090476Y-106554819D02*
X95757142Y-106554819D01*
X95757142Y-106554819D02*
X95328571Y-107554819D01*
X73633333Y-108854819D02*
X73300000Y-108378628D01*
X73061905Y-108854819D02*
X73061905Y-107854819D01*
X73061905Y-107854819D02*
X73442857Y-107854819D01*
X73442857Y-107854819D02*
X73538095Y-107902438D01*
X73538095Y-107902438D02*
X73585714Y-107950057D01*
X73585714Y-107950057D02*
X73633333Y-108045295D01*
X73633333Y-108045295D02*
X73633333Y-108188152D01*
X73633333Y-108188152D02*
X73585714Y-108283390D01*
X73585714Y-108283390D02*
X73538095Y-108331009D01*
X73538095Y-108331009D02*
X73442857Y-108378628D01*
X73442857Y-108378628D02*
X73061905Y-108378628D01*
X74585714Y-108854819D02*
X74014286Y-108854819D01*
X74300000Y-108854819D02*
X74300000Y-107854819D01*
X74300000Y-107854819D02*
X74204762Y-107997676D01*
X74204762Y-107997676D02*
X74109524Y-108092914D01*
X74109524Y-108092914D02*
X74014286Y-108140533D01*
X98194642Y-84804819D02*
X97861309Y-84328628D01*
X97623214Y-84804819D02*
X97623214Y-83804819D01*
X97623214Y-83804819D02*
X98004166Y-83804819D01*
X98004166Y-83804819D02*
X98099404Y-83852438D01*
X98099404Y-83852438D02*
X98147023Y-83900057D01*
X98147023Y-83900057D02*
X98194642Y-83995295D01*
X98194642Y-83995295D02*
X98194642Y-84138152D01*
X98194642Y-84138152D02*
X98147023Y-84233390D01*
X98147023Y-84233390D02*
X98099404Y-84281009D01*
X98099404Y-84281009D02*
X98004166Y-84328628D01*
X98004166Y-84328628D02*
X97623214Y-84328628D01*
X98527976Y-83804819D02*
X99147023Y-83804819D01*
X99147023Y-83804819D02*
X98813690Y-84185771D01*
X98813690Y-84185771D02*
X98956547Y-84185771D01*
X98956547Y-84185771D02*
X99051785Y-84233390D01*
X99051785Y-84233390D02*
X99099404Y-84281009D01*
X99099404Y-84281009D02*
X99147023Y-84376247D01*
X99147023Y-84376247D02*
X99147023Y-84614342D01*
X99147023Y-84614342D02*
X99099404Y-84709580D01*
X99099404Y-84709580D02*
X99051785Y-84757200D01*
X99051785Y-84757200D02*
X98956547Y-84804819D01*
X98956547Y-84804819D02*
X98670833Y-84804819D01*
X98670833Y-84804819D02*
X98575595Y-84757200D01*
X98575595Y-84757200D02*
X98527976Y-84709580D01*
X99480357Y-83804819D02*
X100099404Y-83804819D01*
X100099404Y-83804819D02*
X99766071Y-84185771D01*
X99766071Y-84185771D02*
X99908928Y-84185771D01*
X99908928Y-84185771D02*
X100004166Y-84233390D01*
X100004166Y-84233390D02*
X100051785Y-84281009D01*
X100051785Y-84281009D02*
X100099404Y-84376247D01*
X100099404Y-84376247D02*
X100099404Y-84614342D01*
X100099404Y-84614342D02*
X100051785Y-84709580D01*
X100051785Y-84709580D02*
X100004166Y-84757200D01*
X100004166Y-84757200D02*
X99908928Y-84804819D01*
X99908928Y-84804819D02*
X99623214Y-84804819D01*
X99623214Y-84804819D02*
X99527976Y-84757200D01*
X99527976Y-84757200D02*
X99480357Y-84709580D01*
X59540419Y-80157142D02*
X59492800Y-80109523D01*
X59492800Y-80109523D02*
X59445180Y-79966666D01*
X59445180Y-79966666D02*
X59445180Y-79871428D01*
X59445180Y-79871428D02*
X59492800Y-79728571D01*
X59492800Y-79728571D02*
X59588038Y-79633333D01*
X59588038Y-79633333D02*
X59683276Y-79585714D01*
X59683276Y-79585714D02*
X59873752Y-79538095D01*
X59873752Y-79538095D02*
X60016609Y-79538095D01*
X60016609Y-79538095D02*
X60207085Y-79585714D01*
X60207085Y-79585714D02*
X60302323Y-79633333D01*
X60302323Y-79633333D02*
X60397561Y-79728571D01*
X60397561Y-79728571D02*
X60445180Y-79871428D01*
X60445180Y-79871428D02*
X60445180Y-79966666D01*
X60445180Y-79966666D02*
X60397561Y-80109523D01*
X60397561Y-80109523D02*
X60349942Y-80157142D01*
X59445180Y-81109523D02*
X59445180Y-80538095D01*
X59445180Y-80823809D02*
X60445180Y-80823809D01*
X60445180Y-80823809D02*
X60302323Y-80728571D01*
X60302323Y-80728571D02*
X60207085Y-80633333D01*
X60207085Y-80633333D02*
X60159466Y-80538095D01*
X60445180Y-81966666D02*
X60445180Y-81776190D01*
X60445180Y-81776190D02*
X60397561Y-81680952D01*
X60397561Y-81680952D02*
X60349942Y-81633333D01*
X60349942Y-81633333D02*
X60207085Y-81538095D01*
X60207085Y-81538095D02*
X60016609Y-81490476D01*
X60016609Y-81490476D02*
X59635657Y-81490476D01*
X59635657Y-81490476D02*
X59540419Y-81538095D01*
X59540419Y-81538095D02*
X59492800Y-81585714D01*
X59492800Y-81585714D02*
X59445180Y-81680952D01*
X59445180Y-81680952D02*
X59445180Y-81871428D01*
X59445180Y-81871428D02*
X59492800Y-81966666D01*
X59492800Y-81966666D02*
X59540419Y-82014285D01*
X59540419Y-82014285D02*
X59635657Y-82061904D01*
X59635657Y-82061904D02*
X59873752Y-82061904D01*
X59873752Y-82061904D02*
X59968990Y-82014285D01*
X59968990Y-82014285D02*
X60016609Y-81966666D01*
X60016609Y-81966666D02*
X60064228Y-81871428D01*
X60064228Y-81871428D02*
X60064228Y-81680952D01*
X60064228Y-81680952D02*
X60016609Y-81585714D01*
X60016609Y-81585714D02*
X59968990Y-81538095D01*
X59968990Y-81538095D02*
X59873752Y-81490476D01*
X83009523Y-106659580D02*
X82961904Y-106707200D01*
X82961904Y-106707200D02*
X82819047Y-106754819D01*
X82819047Y-106754819D02*
X82723809Y-106754819D01*
X82723809Y-106754819D02*
X82580952Y-106707200D01*
X82580952Y-106707200D02*
X82485714Y-106611961D01*
X82485714Y-106611961D02*
X82438095Y-106516723D01*
X82438095Y-106516723D02*
X82390476Y-106326247D01*
X82390476Y-106326247D02*
X82390476Y-106183390D01*
X82390476Y-106183390D02*
X82438095Y-105992914D01*
X82438095Y-105992914D02*
X82485714Y-105897676D01*
X82485714Y-105897676D02*
X82580952Y-105802438D01*
X82580952Y-105802438D02*
X82723809Y-105754819D01*
X82723809Y-105754819D02*
X82819047Y-105754819D01*
X82819047Y-105754819D02*
X82961904Y-105802438D01*
X82961904Y-105802438D02*
X83009523Y-105850057D01*
X83438095Y-106754819D02*
X83438095Y-105754819D01*
X83438095Y-105754819D02*
X83676190Y-105754819D01*
X83676190Y-105754819D02*
X83819047Y-105802438D01*
X83819047Y-105802438D02*
X83914285Y-105897676D01*
X83914285Y-105897676D02*
X83961904Y-105992914D01*
X83961904Y-105992914D02*
X84009523Y-106183390D01*
X84009523Y-106183390D02*
X84009523Y-106326247D01*
X84009523Y-106326247D02*
X83961904Y-106516723D01*
X83961904Y-106516723D02*
X83914285Y-106611961D01*
X83914285Y-106611961D02*
X83819047Y-106707200D01*
X83819047Y-106707200D02*
X83676190Y-106754819D01*
X83676190Y-106754819D02*
X83438095Y-106754819D01*
X85009523Y-106659580D02*
X84961904Y-106707200D01*
X84961904Y-106707200D02*
X84819047Y-106754819D01*
X84819047Y-106754819D02*
X84723809Y-106754819D01*
X84723809Y-106754819D02*
X84580952Y-106707200D01*
X84580952Y-106707200D02*
X84485714Y-106611961D01*
X84485714Y-106611961D02*
X84438095Y-106516723D01*
X84438095Y-106516723D02*
X84390476Y-106326247D01*
X84390476Y-106326247D02*
X84390476Y-106183390D01*
X84390476Y-106183390D02*
X84438095Y-105992914D01*
X84438095Y-105992914D02*
X84485714Y-105897676D01*
X84485714Y-105897676D02*
X84580952Y-105802438D01*
X84580952Y-105802438D02*
X84723809Y-105754819D01*
X84723809Y-105754819D02*
X84819047Y-105754819D01*
X84819047Y-105754819D02*
X84961904Y-105802438D01*
X84961904Y-105802438D02*
X85009523Y-105850057D01*
X73633333Y-104754819D02*
X73300000Y-104278628D01*
X73061905Y-104754819D02*
X73061905Y-103754819D01*
X73061905Y-103754819D02*
X73442857Y-103754819D01*
X73442857Y-103754819D02*
X73538095Y-103802438D01*
X73538095Y-103802438D02*
X73585714Y-103850057D01*
X73585714Y-103850057D02*
X73633333Y-103945295D01*
X73633333Y-103945295D02*
X73633333Y-104088152D01*
X73633333Y-104088152D02*
X73585714Y-104183390D01*
X73585714Y-104183390D02*
X73538095Y-104231009D01*
X73538095Y-104231009D02*
X73442857Y-104278628D01*
X73442857Y-104278628D02*
X73061905Y-104278628D01*
X73966667Y-103754819D02*
X74585714Y-103754819D01*
X74585714Y-103754819D02*
X74252381Y-104135771D01*
X74252381Y-104135771D02*
X74395238Y-104135771D01*
X74395238Y-104135771D02*
X74490476Y-104183390D01*
X74490476Y-104183390D02*
X74538095Y-104231009D01*
X74538095Y-104231009D02*
X74585714Y-104326247D01*
X74585714Y-104326247D02*
X74585714Y-104564342D01*
X74585714Y-104564342D02*
X74538095Y-104659580D01*
X74538095Y-104659580D02*
X74490476Y-104707200D01*
X74490476Y-104707200D02*
X74395238Y-104754819D01*
X74395238Y-104754819D02*
X74109524Y-104754819D01*
X74109524Y-104754819D02*
X74014286Y-104707200D01*
X74014286Y-104707200D02*
X73966667Y-104659580D01*
X72133333Y-98454819D02*
X71800000Y-97978628D01*
X71561905Y-98454819D02*
X71561905Y-97454819D01*
X71561905Y-97454819D02*
X71942857Y-97454819D01*
X71942857Y-97454819D02*
X72038095Y-97502438D01*
X72038095Y-97502438D02*
X72085714Y-97550057D01*
X72085714Y-97550057D02*
X72133333Y-97645295D01*
X72133333Y-97645295D02*
X72133333Y-97788152D01*
X72133333Y-97788152D02*
X72085714Y-97883390D01*
X72085714Y-97883390D02*
X72038095Y-97931009D01*
X72038095Y-97931009D02*
X71942857Y-97978628D01*
X71942857Y-97978628D02*
X71561905Y-97978628D01*
X72609524Y-98454819D02*
X72800000Y-98454819D01*
X72800000Y-98454819D02*
X72895238Y-98407200D01*
X72895238Y-98407200D02*
X72942857Y-98359580D01*
X72942857Y-98359580D02*
X73038095Y-98216723D01*
X73038095Y-98216723D02*
X73085714Y-98026247D01*
X73085714Y-98026247D02*
X73085714Y-97645295D01*
X73085714Y-97645295D02*
X73038095Y-97550057D01*
X73038095Y-97550057D02*
X72990476Y-97502438D01*
X72990476Y-97502438D02*
X72895238Y-97454819D01*
X72895238Y-97454819D02*
X72704762Y-97454819D01*
X72704762Y-97454819D02*
X72609524Y-97502438D01*
X72609524Y-97502438D02*
X72561905Y-97550057D01*
X72561905Y-97550057D02*
X72514286Y-97645295D01*
X72514286Y-97645295D02*
X72514286Y-97883390D01*
X72514286Y-97883390D02*
X72561905Y-97978628D01*
X72561905Y-97978628D02*
X72609524Y-98026247D01*
X72609524Y-98026247D02*
X72704762Y-98073866D01*
X72704762Y-98073866D02*
X72895238Y-98073866D01*
X72895238Y-98073866D02*
X72990476Y-98026247D01*
X72990476Y-98026247D02*
X73038095Y-97978628D01*
X73038095Y-97978628D02*
X73085714Y-97883390D01*
X82476191Y-108754819D02*
X82476191Y-107754819D01*
X82476191Y-108231009D02*
X83047619Y-108231009D01*
X83047619Y-108754819D02*
X83047619Y-107754819D01*
X83523810Y-108754819D02*
X83523810Y-107754819D01*
X84000000Y-108754819D02*
X84000000Y-107754819D01*
X84000000Y-107754819D02*
X84238095Y-107754819D01*
X84238095Y-107754819D02*
X84380952Y-107802438D01*
X84380952Y-107802438D02*
X84476190Y-107897676D01*
X84476190Y-107897676D02*
X84523809Y-107992914D01*
X84523809Y-107992914D02*
X84571428Y-108183390D01*
X84571428Y-108183390D02*
X84571428Y-108326247D01*
X84571428Y-108326247D02*
X84523809Y-108516723D01*
X84523809Y-108516723D02*
X84476190Y-108611961D01*
X84476190Y-108611961D02*
X84380952Y-108707200D01*
X84380952Y-108707200D02*
X84238095Y-108754819D01*
X84238095Y-108754819D02*
X84000000Y-108754819D01*
X46759580Y-70342857D02*
X46807200Y-70390476D01*
X46807200Y-70390476D02*
X46854819Y-70533333D01*
X46854819Y-70533333D02*
X46854819Y-70628571D01*
X46854819Y-70628571D02*
X46807200Y-70771428D01*
X46807200Y-70771428D02*
X46711961Y-70866666D01*
X46711961Y-70866666D02*
X46616723Y-70914285D01*
X46616723Y-70914285D02*
X46426247Y-70961904D01*
X46426247Y-70961904D02*
X46283390Y-70961904D01*
X46283390Y-70961904D02*
X46092914Y-70914285D01*
X46092914Y-70914285D02*
X45997676Y-70866666D01*
X45997676Y-70866666D02*
X45902438Y-70771428D01*
X45902438Y-70771428D02*
X45854819Y-70628571D01*
X45854819Y-70628571D02*
X45854819Y-70533333D01*
X45854819Y-70533333D02*
X45902438Y-70390476D01*
X45902438Y-70390476D02*
X45950057Y-70342857D01*
X46854819Y-69390476D02*
X46854819Y-69961904D01*
X46854819Y-69676190D02*
X45854819Y-69676190D01*
X45854819Y-69676190D02*
X45997676Y-69771428D01*
X45997676Y-69771428D02*
X46092914Y-69866666D01*
X46092914Y-69866666D02*
X46140533Y-69961904D01*
X45854819Y-68485714D02*
X45854819Y-68961904D01*
X45854819Y-68961904D02*
X46331009Y-69009523D01*
X46331009Y-69009523D02*
X46283390Y-68961904D01*
X46283390Y-68961904D02*
X46235771Y-68866666D01*
X46235771Y-68866666D02*
X46235771Y-68628571D01*
X46235771Y-68628571D02*
X46283390Y-68533333D01*
X46283390Y-68533333D02*
X46331009Y-68485714D01*
X46331009Y-68485714D02*
X46426247Y-68438095D01*
X46426247Y-68438095D02*
X46664342Y-68438095D01*
X46664342Y-68438095D02*
X46759580Y-68485714D01*
X46759580Y-68485714D02*
X46807200Y-68533333D01*
X46807200Y-68533333D02*
X46854819Y-68628571D01*
X46854819Y-68628571D02*
X46854819Y-68866666D01*
X46854819Y-68866666D02*
X46807200Y-68961904D01*
X46807200Y-68961904D02*
X46759580Y-69009523D01*
X39357142Y-73659580D02*
X39309523Y-73707200D01*
X39309523Y-73707200D02*
X39166666Y-73754819D01*
X39166666Y-73754819D02*
X39071428Y-73754819D01*
X39071428Y-73754819D02*
X38928571Y-73707200D01*
X38928571Y-73707200D02*
X38833333Y-73611961D01*
X38833333Y-73611961D02*
X38785714Y-73516723D01*
X38785714Y-73516723D02*
X38738095Y-73326247D01*
X38738095Y-73326247D02*
X38738095Y-73183390D01*
X38738095Y-73183390D02*
X38785714Y-72992914D01*
X38785714Y-72992914D02*
X38833333Y-72897676D01*
X38833333Y-72897676D02*
X38928571Y-72802438D01*
X38928571Y-72802438D02*
X39071428Y-72754819D01*
X39071428Y-72754819D02*
X39166666Y-72754819D01*
X39166666Y-72754819D02*
X39309523Y-72802438D01*
X39309523Y-72802438D02*
X39357142Y-72850057D01*
X39738095Y-72850057D02*
X39785714Y-72802438D01*
X39785714Y-72802438D02*
X39880952Y-72754819D01*
X39880952Y-72754819D02*
X40119047Y-72754819D01*
X40119047Y-72754819D02*
X40214285Y-72802438D01*
X40214285Y-72802438D02*
X40261904Y-72850057D01*
X40261904Y-72850057D02*
X40309523Y-72945295D01*
X40309523Y-72945295D02*
X40309523Y-73040533D01*
X40309523Y-73040533D02*
X40261904Y-73183390D01*
X40261904Y-73183390D02*
X39690476Y-73754819D01*
X39690476Y-73754819D02*
X40309523Y-73754819D01*
X41261904Y-73754819D02*
X40690476Y-73754819D01*
X40976190Y-73754819D02*
X40976190Y-72754819D01*
X40976190Y-72754819D02*
X40880952Y-72897676D01*
X40880952Y-72897676D02*
X40785714Y-72992914D01*
X40785714Y-72992914D02*
X40690476Y-73040533D01*
X78957142Y-99754819D02*
X78623809Y-99278628D01*
X78385714Y-99754819D02*
X78385714Y-98754819D01*
X78385714Y-98754819D02*
X78766666Y-98754819D01*
X78766666Y-98754819D02*
X78861904Y-98802438D01*
X78861904Y-98802438D02*
X78909523Y-98850057D01*
X78909523Y-98850057D02*
X78957142Y-98945295D01*
X78957142Y-98945295D02*
X78957142Y-99088152D01*
X78957142Y-99088152D02*
X78909523Y-99183390D01*
X78909523Y-99183390D02*
X78861904Y-99231009D01*
X78861904Y-99231009D02*
X78766666Y-99278628D01*
X78766666Y-99278628D02*
X78385714Y-99278628D01*
X79909523Y-99754819D02*
X79338095Y-99754819D01*
X79623809Y-99754819D02*
X79623809Y-98754819D01*
X79623809Y-98754819D02*
X79528571Y-98897676D01*
X79528571Y-98897676D02*
X79433333Y-98992914D01*
X79433333Y-98992914D02*
X79338095Y-99040533D01*
X80766666Y-99088152D02*
X80766666Y-99754819D01*
X80528571Y-98707200D02*
X80290476Y-99421485D01*
X80290476Y-99421485D02*
X80909523Y-99421485D01*
X68933333Y-97354819D02*
X68600000Y-96878628D01*
X68361905Y-97354819D02*
X68361905Y-96354819D01*
X68361905Y-96354819D02*
X68742857Y-96354819D01*
X68742857Y-96354819D02*
X68838095Y-96402438D01*
X68838095Y-96402438D02*
X68885714Y-96450057D01*
X68885714Y-96450057D02*
X68933333Y-96545295D01*
X68933333Y-96545295D02*
X68933333Y-96688152D01*
X68933333Y-96688152D02*
X68885714Y-96783390D01*
X68885714Y-96783390D02*
X68838095Y-96831009D01*
X68838095Y-96831009D02*
X68742857Y-96878628D01*
X68742857Y-96878628D02*
X68361905Y-96878628D01*
X69504762Y-96783390D02*
X69409524Y-96735771D01*
X69409524Y-96735771D02*
X69361905Y-96688152D01*
X69361905Y-96688152D02*
X69314286Y-96592914D01*
X69314286Y-96592914D02*
X69314286Y-96545295D01*
X69314286Y-96545295D02*
X69361905Y-96450057D01*
X69361905Y-96450057D02*
X69409524Y-96402438D01*
X69409524Y-96402438D02*
X69504762Y-96354819D01*
X69504762Y-96354819D02*
X69695238Y-96354819D01*
X69695238Y-96354819D02*
X69790476Y-96402438D01*
X69790476Y-96402438D02*
X69838095Y-96450057D01*
X69838095Y-96450057D02*
X69885714Y-96545295D01*
X69885714Y-96545295D02*
X69885714Y-96592914D01*
X69885714Y-96592914D02*
X69838095Y-96688152D01*
X69838095Y-96688152D02*
X69790476Y-96735771D01*
X69790476Y-96735771D02*
X69695238Y-96783390D01*
X69695238Y-96783390D02*
X69504762Y-96783390D01*
X69504762Y-96783390D02*
X69409524Y-96831009D01*
X69409524Y-96831009D02*
X69361905Y-96878628D01*
X69361905Y-96878628D02*
X69314286Y-96973866D01*
X69314286Y-96973866D02*
X69314286Y-97164342D01*
X69314286Y-97164342D02*
X69361905Y-97259580D01*
X69361905Y-97259580D02*
X69409524Y-97307200D01*
X69409524Y-97307200D02*
X69504762Y-97354819D01*
X69504762Y-97354819D02*
X69695238Y-97354819D01*
X69695238Y-97354819D02*
X69790476Y-97307200D01*
X69790476Y-97307200D02*
X69838095Y-97259580D01*
X69838095Y-97259580D02*
X69885714Y-97164342D01*
X69885714Y-97164342D02*
X69885714Y-96973866D01*
X69885714Y-96973866D02*
X69838095Y-96878628D01*
X69838095Y-96878628D02*
X69790476Y-96831009D01*
X69790476Y-96831009D02*
X69695238Y-96783390D01*
X62909361Y-89877814D02*
X63299434Y-90150945D01*
X62289090Y-89850420D02*
X62909361Y-89877814D01*
X62909361Y-89877814D02*
X62671474Y-89304318D01*
X63982263Y-89175764D02*
X63654505Y-89643851D01*
X63818384Y-89409808D02*
X62999232Y-88836231D01*
X62999232Y-88836231D02*
X63061627Y-88996185D01*
X63061627Y-88996185D02*
X63085015Y-89128826D01*
X63085015Y-89128826D02*
X63069396Y-89234154D01*
X70238095Y-83604819D02*
X70238095Y-84414342D01*
X70238095Y-84414342D02*
X70285714Y-84509580D01*
X70285714Y-84509580D02*
X70333333Y-84557200D01*
X70333333Y-84557200D02*
X70428571Y-84604819D01*
X70428571Y-84604819D02*
X70619047Y-84604819D01*
X70619047Y-84604819D02*
X70714285Y-84557200D01*
X70714285Y-84557200D02*
X70761904Y-84509580D01*
X70761904Y-84509580D02*
X70809523Y-84414342D01*
X70809523Y-84414342D02*
X70809523Y-83604819D01*
X71809523Y-84604819D02*
X71238095Y-84604819D01*
X71523809Y-84604819D02*
X71523809Y-83604819D01*
X71523809Y-83604819D02*
X71428571Y-83747676D01*
X71428571Y-83747676D02*
X71333333Y-83842914D01*
X71333333Y-83842914D02*
X71238095Y-83890533D01*
X61457142Y-80259580D02*
X61409523Y-80307200D01*
X61409523Y-80307200D02*
X61266666Y-80354819D01*
X61266666Y-80354819D02*
X61171428Y-80354819D01*
X61171428Y-80354819D02*
X61028571Y-80307200D01*
X61028571Y-80307200D02*
X60933333Y-80211961D01*
X60933333Y-80211961D02*
X60885714Y-80116723D01*
X60885714Y-80116723D02*
X60838095Y-79926247D01*
X60838095Y-79926247D02*
X60838095Y-79783390D01*
X60838095Y-79783390D02*
X60885714Y-79592914D01*
X60885714Y-79592914D02*
X60933333Y-79497676D01*
X60933333Y-79497676D02*
X61028571Y-79402438D01*
X61028571Y-79402438D02*
X61171428Y-79354819D01*
X61171428Y-79354819D02*
X61266666Y-79354819D01*
X61266666Y-79354819D02*
X61409523Y-79402438D01*
X61409523Y-79402438D02*
X61457142Y-79450057D01*
X62409523Y-80354819D02*
X61838095Y-80354819D01*
X62123809Y-80354819D02*
X62123809Y-79354819D01*
X62123809Y-79354819D02*
X62028571Y-79497676D01*
X62028571Y-79497676D02*
X61933333Y-79592914D01*
X61933333Y-79592914D02*
X61838095Y-79640533D01*
X63028571Y-79354819D02*
X63123809Y-79354819D01*
X63123809Y-79354819D02*
X63219047Y-79402438D01*
X63219047Y-79402438D02*
X63266666Y-79450057D01*
X63266666Y-79450057D02*
X63314285Y-79545295D01*
X63314285Y-79545295D02*
X63361904Y-79735771D01*
X63361904Y-79735771D02*
X63361904Y-79973866D01*
X63361904Y-79973866D02*
X63314285Y-80164342D01*
X63314285Y-80164342D02*
X63266666Y-80259580D01*
X63266666Y-80259580D02*
X63219047Y-80307200D01*
X63219047Y-80307200D02*
X63123809Y-80354819D01*
X63123809Y-80354819D02*
X63028571Y-80354819D01*
X63028571Y-80354819D02*
X62933333Y-80307200D01*
X62933333Y-80307200D02*
X62885714Y-80259580D01*
X62885714Y-80259580D02*
X62838095Y-80164342D01*
X62838095Y-80164342D02*
X62790476Y-79973866D01*
X62790476Y-79973866D02*
X62790476Y-79735771D01*
X62790476Y-79735771D02*
X62838095Y-79545295D01*
X62838095Y-79545295D02*
X62885714Y-79450057D01*
X62885714Y-79450057D02*
X62933333Y-79402438D01*
X62933333Y-79402438D02*
X63028571Y-79354819D01*
X90004819Y-100142857D02*
X89528628Y-100476190D01*
X90004819Y-100714285D02*
X89004819Y-100714285D01*
X89004819Y-100714285D02*
X89004819Y-100333333D01*
X89004819Y-100333333D02*
X89052438Y-100238095D01*
X89052438Y-100238095D02*
X89100057Y-100190476D01*
X89100057Y-100190476D02*
X89195295Y-100142857D01*
X89195295Y-100142857D02*
X89338152Y-100142857D01*
X89338152Y-100142857D02*
X89433390Y-100190476D01*
X89433390Y-100190476D02*
X89481009Y-100238095D01*
X89481009Y-100238095D02*
X89528628Y-100333333D01*
X89528628Y-100333333D02*
X89528628Y-100714285D01*
X89338152Y-99285714D02*
X90004819Y-99285714D01*
X88957200Y-99523809D02*
X89671485Y-99761904D01*
X89671485Y-99761904D02*
X89671485Y-99142857D01*
X89338152Y-98333333D02*
X90004819Y-98333333D01*
X88957200Y-98571428D02*
X89671485Y-98809523D01*
X89671485Y-98809523D02*
X89671485Y-98190476D01*
X65245180Y-98657142D02*
X65721371Y-98323809D01*
X65245180Y-98085714D02*
X66245180Y-98085714D01*
X66245180Y-98085714D02*
X66245180Y-98466666D01*
X66245180Y-98466666D02*
X66197561Y-98561904D01*
X66197561Y-98561904D02*
X66149942Y-98609523D01*
X66149942Y-98609523D02*
X66054704Y-98657142D01*
X66054704Y-98657142D02*
X65911847Y-98657142D01*
X65911847Y-98657142D02*
X65816609Y-98609523D01*
X65816609Y-98609523D02*
X65768990Y-98561904D01*
X65768990Y-98561904D02*
X65721371Y-98466666D01*
X65721371Y-98466666D02*
X65721371Y-98085714D01*
X65245180Y-99609523D02*
X65245180Y-99038095D01*
X65245180Y-99323809D02*
X66245180Y-99323809D01*
X66245180Y-99323809D02*
X66102323Y-99228571D01*
X66102323Y-99228571D02*
X66007085Y-99133333D01*
X66007085Y-99133333D02*
X65959466Y-99038095D01*
X65245180Y-100085714D02*
X65245180Y-100276190D01*
X65245180Y-100276190D02*
X65292800Y-100371428D01*
X65292800Y-100371428D02*
X65340419Y-100419047D01*
X65340419Y-100419047D02*
X65483276Y-100514285D01*
X65483276Y-100514285D02*
X65673752Y-100561904D01*
X65673752Y-100561904D02*
X66054704Y-100561904D01*
X66054704Y-100561904D02*
X66149942Y-100514285D01*
X66149942Y-100514285D02*
X66197561Y-100466666D01*
X66197561Y-100466666D02*
X66245180Y-100371428D01*
X66245180Y-100371428D02*
X66245180Y-100180952D01*
X66245180Y-100180952D02*
X66197561Y-100085714D01*
X66197561Y-100085714D02*
X66149942Y-100038095D01*
X66149942Y-100038095D02*
X66054704Y-99990476D01*
X66054704Y-99990476D02*
X65816609Y-99990476D01*
X65816609Y-99990476D02*
X65721371Y-100038095D01*
X65721371Y-100038095D02*
X65673752Y-100085714D01*
X65673752Y-100085714D02*
X65626133Y-100180952D01*
X65626133Y-100180952D02*
X65626133Y-100371428D01*
X65626133Y-100371428D02*
X65673752Y-100466666D01*
X65673752Y-100466666D02*
X65721371Y-100514285D01*
X65721371Y-100514285D02*
X65816609Y-100561904D01*
X97704761Y-106250057D02*
X97609523Y-106202438D01*
X97609523Y-106202438D02*
X97514285Y-106107200D01*
X97514285Y-106107200D02*
X97371428Y-105964342D01*
X97371428Y-105964342D02*
X97276190Y-105916723D01*
X97276190Y-105916723D02*
X97180952Y-105916723D01*
X97228571Y-106154819D02*
X97133333Y-106107200D01*
X97133333Y-106107200D02*
X97038095Y-106011961D01*
X97038095Y-106011961D02*
X96990476Y-105821485D01*
X96990476Y-105821485D02*
X96990476Y-105488152D01*
X96990476Y-105488152D02*
X97038095Y-105297676D01*
X97038095Y-105297676D02*
X97133333Y-105202438D01*
X97133333Y-105202438D02*
X97228571Y-105154819D01*
X97228571Y-105154819D02*
X97419047Y-105154819D01*
X97419047Y-105154819D02*
X97514285Y-105202438D01*
X97514285Y-105202438D02*
X97609523Y-105297676D01*
X97609523Y-105297676D02*
X97657142Y-105488152D01*
X97657142Y-105488152D02*
X97657142Y-105821485D01*
X97657142Y-105821485D02*
X97609523Y-106011961D01*
X97609523Y-106011961D02*
X97514285Y-106107200D01*
X97514285Y-106107200D02*
X97419047Y-106154819D01*
X97419047Y-106154819D02*
X97228571Y-106154819D01*
X98561904Y-105154819D02*
X98085714Y-105154819D01*
X98085714Y-105154819D02*
X98038095Y-105631009D01*
X98038095Y-105631009D02*
X98085714Y-105583390D01*
X98085714Y-105583390D02*
X98180952Y-105535771D01*
X98180952Y-105535771D02*
X98419047Y-105535771D01*
X98419047Y-105535771D02*
X98514285Y-105583390D01*
X98514285Y-105583390D02*
X98561904Y-105631009D01*
X98561904Y-105631009D02*
X98609523Y-105726247D01*
X98609523Y-105726247D02*
X98609523Y-105964342D01*
X98609523Y-105964342D02*
X98561904Y-106059580D01*
X98561904Y-106059580D02*
X98514285Y-106107200D01*
X98514285Y-106107200D02*
X98419047Y-106154819D01*
X98419047Y-106154819D02*
X98180952Y-106154819D01*
X98180952Y-106154819D02*
X98085714Y-106107200D01*
X98085714Y-106107200D02*
X98038095Y-106059580D01*
X78957142Y-98354819D02*
X78623809Y-97878628D01*
X78385714Y-98354819D02*
X78385714Y-97354819D01*
X78385714Y-97354819D02*
X78766666Y-97354819D01*
X78766666Y-97354819D02*
X78861904Y-97402438D01*
X78861904Y-97402438D02*
X78909523Y-97450057D01*
X78909523Y-97450057D02*
X78957142Y-97545295D01*
X78957142Y-97545295D02*
X78957142Y-97688152D01*
X78957142Y-97688152D02*
X78909523Y-97783390D01*
X78909523Y-97783390D02*
X78861904Y-97831009D01*
X78861904Y-97831009D02*
X78766666Y-97878628D01*
X78766666Y-97878628D02*
X78385714Y-97878628D01*
X79909523Y-98354819D02*
X79338095Y-98354819D01*
X79623809Y-98354819D02*
X79623809Y-97354819D01*
X79623809Y-97354819D02*
X79528571Y-97497676D01*
X79528571Y-97497676D02*
X79433333Y-97592914D01*
X79433333Y-97592914D02*
X79338095Y-97640533D01*
X80814285Y-97354819D02*
X80338095Y-97354819D01*
X80338095Y-97354819D02*
X80290476Y-97831009D01*
X80290476Y-97831009D02*
X80338095Y-97783390D01*
X80338095Y-97783390D02*
X80433333Y-97735771D01*
X80433333Y-97735771D02*
X80671428Y-97735771D01*
X80671428Y-97735771D02*
X80766666Y-97783390D01*
X80766666Y-97783390D02*
X80814285Y-97831009D01*
X80814285Y-97831009D02*
X80861904Y-97926247D01*
X80861904Y-97926247D02*
X80861904Y-98164342D01*
X80861904Y-98164342D02*
X80814285Y-98259580D01*
X80814285Y-98259580D02*
X80766666Y-98307200D01*
X80766666Y-98307200D02*
X80671428Y-98354819D01*
X80671428Y-98354819D02*
X80433333Y-98354819D01*
X80433333Y-98354819D02*
X80338095Y-98307200D01*
X80338095Y-98307200D02*
X80290476Y-98259580D01*
X72557142Y-80354819D02*
X72223809Y-79878628D01*
X71985714Y-80354819D02*
X71985714Y-79354819D01*
X71985714Y-79354819D02*
X72366666Y-79354819D01*
X72366666Y-79354819D02*
X72461904Y-79402438D01*
X72461904Y-79402438D02*
X72509523Y-79450057D01*
X72509523Y-79450057D02*
X72557142Y-79545295D01*
X72557142Y-79545295D02*
X72557142Y-79688152D01*
X72557142Y-79688152D02*
X72509523Y-79783390D01*
X72509523Y-79783390D02*
X72461904Y-79831009D01*
X72461904Y-79831009D02*
X72366666Y-79878628D01*
X72366666Y-79878628D02*
X71985714Y-79878628D01*
X72938095Y-79450057D02*
X72985714Y-79402438D01*
X72985714Y-79402438D02*
X73080952Y-79354819D01*
X73080952Y-79354819D02*
X73319047Y-79354819D01*
X73319047Y-79354819D02*
X73414285Y-79402438D01*
X73414285Y-79402438D02*
X73461904Y-79450057D01*
X73461904Y-79450057D02*
X73509523Y-79545295D01*
X73509523Y-79545295D02*
X73509523Y-79640533D01*
X73509523Y-79640533D02*
X73461904Y-79783390D01*
X73461904Y-79783390D02*
X72890476Y-80354819D01*
X72890476Y-80354819D02*
X73509523Y-80354819D01*
X74128571Y-79354819D02*
X74223809Y-79354819D01*
X74223809Y-79354819D02*
X74319047Y-79402438D01*
X74319047Y-79402438D02*
X74366666Y-79450057D01*
X74366666Y-79450057D02*
X74414285Y-79545295D01*
X74414285Y-79545295D02*
X74461904Y-79735771D01*
X74461904Y-79735771D02*
X74461904Y-79973866D01*
X74461904Y-79973866D02*
X74414285Y-80164342D01*
X74414285Y-80164342D02*
X74366666Y-80259580D01*
X74366666Y-80259580D02*
X74319047Y-80307200D01*
X74319047Y-80307200D02*
X74223809Y-80354819D01*
X74223809Y-80354819D02*
X74128571Y-80354819D01*
X74128571Y-80354819D02*
X74033333Y-80307200D01*
X74033333Y-80307200D02*
X73985714Y-80259580D01*
X73985714Y-80259580D02*
X73938095Y-80164342D01*
X73938095Y-80164342D02*
X73890476Y-79973866D01*
X73890476Y-79973866D02*
X73890476Y-79735771D01*
X73890476Y-79735771D02*
X73938095Y-79545295D01*
X73938095Y-79545295D02*
X73985714Y-79450057D01*
X73985714Y-79450057D02*
X74033333Y-79402438D01*
X74033333Y-79402438D02*
X74128571Y-79354819D01*
X49657142Y-75959580D02*
X49609523Y-76007200D01*
X49609523Y-76007200D02*
X49466666Y-76054819D01*
X49466666Y-76054819D02*
X49371428Y-76054819D01*
X49371428Y-76054819D02*
X49228571Y-76007200D01*
X49228571Y-76007200D02*
X49133333Y-75911961D01*
X49133333Y-75911961D02*
X49085714Y-75816723D01*
X49085714Y-75816723D02*
X49038095Y-75626247D01*
X49038095Y-75626247D02*
X49038095Y-75483390D01*
X49038095Y-75483390D02*
X49085714Y-75292914D01*
X49085714Y-75292914D02*
X49133333Y-75197676D01*
X49133333Y-75197676D02*
X49228571Y-75102438D01*
X49228571Y-75102438D02*
X49371428Y-75054819D01*
X49371428Y-75054819D02*
X49466666Y-75054819D01*
X49466666Y-75054819D02*
X49609523Y-75102438D01*
X49609523Y-75102438D02*
X49657142Y-75150057D01*
X50609523Y-76054819D02*
X50038095Y-76054819D01*
X50323809Y-76054819D02*
X50323809Y-75054819D01*
X50323809Y-75054819D02*
X50228571Y-75197676D01*
X50228571Y-75197676D02*
X50133333Y-75292914D01*
X50133333Y-75292914D02*
X50038095Y-75340533D01*
X51085714Y-76054819D02*
X51276190Y-76054819D01*
X51276190Y-76054819D02*
X51371428Y-76007200D01*
X51371428Y-76007200D02*
X51419047Y-75959580D01*
X51419047Y-75959580D02*
X51514285Y-75816723D01*
X51514285Y-75816723D02*
X51561904Y-75626247D01*
X51561904Y-75626247D02*
X51561904Y-75245295D01*
X51561904Y-75245295D02*
X51514285Y-75150057D01*
X51514285Y-75150057D02*
X51466666Y-75102438D01*
X51466666Y-75102438D02*
X51371428Y-75054819D01*
X51371428Y-75054819D02*
X51180952Y-75054819D01*
X51180952Y-75054819D02*
X51085714Y-75102438D01*
X51085714Y-75102438D02*
X51038095Y-75150057D01*
X51038095Y-75150057D02*
X50990476Y-75245295D01*
X50990476Y-75245295D02*
X50990476Y-75483390D01*
X50990476Y-75483390D02*
X51038095Y-75578628D01*
X51038095Y-75578628D02*
X51085714Y-75626247D01*
X51085714Y-75626247D02*
X51180952Y-75673866D01*
X51180952Y-75673866D02*
X51371428Y-75673866D01*
X51371428Y-75673866D02*
X51466666Y-75626247D01*
X51466666Y-75626247D02*
X51514285Y-75578628D01*
X51514285Y-75578628D02*
X51561904Y-75483390D01*
X93894642Y-84804819D02*
X93561309Y-84328628D01*
X93323214Y-84804819D02*
X93323214Y-83804819D01*
X93323214Y-83804819D02*
X93704166Y-83804819D01*
X93704166Y-83804819D02*
X93799404Y-83852438D01*
X93799404Y-83852438D02*
X93847023Y-83900057D01*
X93847023Y-83900057D02*
X93894642Y-83995295D01*
X93894642Y-83995295D02*
X93894642Y-84138152D01*
X93894642Y-84138152D02*
X93847023Y-84233390D01*
X93847023Y-84233390D02*
X93799404Y-84281009D01*
X93799404Y-84281009D02*
X93704166Y-84328628D01*
X93704166Y-84328628D02*
X93323214Y-84328628D01*
X94227976Y-83804819D02*
X94847023Y-83804819D01*
X94847023Y-83804819D02*
X94513690Y-84185771D01*
X94513690Y-84185771D02*
X94656547Y-84185771D01*
X94656547Y-84185771D02*
X94751785Y-84233390D01*
X94751785Y-84233390D02*
X94799404Y-84281009D01*
X94799404Y-84281009D02*
X94847023Y-84376247D01*
X94847023Y-84376247D02*
X94847023Y-84614342D01*
X94847023Y-84614342D02*
X94799404Y-84709580D01*
X94799404Y-84709580D02*
X94751785Y-84757200D01*
X94751785Y-84757200D02*
X94656547Y-84804819D01*
X94656547Y-84804819D02*
X94370833Y-84804819D01*
X94370833Y-84804819D02*
X94275595Y-84757200D01*
X94275595Y-84757200D02*
X94227976Y-84709580D01*
X95704166Y-84138152D02*
X95704166Y-84804819D01*
X95466071Y-83757200D02*
X95227976Y-84471485D01*
X95227976Y-84471485D02*
X95847023Y-84471485D01*
X64333333Y-82659580D02*
X64285714Y-82707200D01*
X64285714Y-82707200D02*
X64142857Y-82754819D01*
X64142857Y-82754819D02*
X64047619Y-82754819D01*
X64047619Y-82754819D02*
X63904762Y-82707200D01*
X63904762Y-82707200D02*
X63809524Y-82611961D01*
X63809524Y-82611961D02*
X63761905Y-82516723D01*
X63761905Y-82516723D02*
X63714286Y-82326247D01*
X63714286Y-82326247D02*
X63714286Y-82183390D01*
X63714286Y-82183390D02*
X63761905Y-81992914D01*
X63761905Y-81992914D02*
X63809524Y-81897676D01*
X63809524Y-81897676D02*
X63904762Y-81802438D01*
X63904762Y-81802438D02*
X64047619Y-81754819D01*
X64047619Y-81754819D02*
X64142857Y-81754819D01*
X64142857Y-81754819D02*
X64285714Y-81802438D01*
X64285714Y-81802438D02*
X64333333Y-81850057D01*
X65190476Y-81754819D02*
X65000000Y-81754819D01*
X65000000Y-81754819D02*
X64904762Y-81802438D01*
X64904762Y-81802438D02*
X64857143Y-81850057D01*
X64857143Y-81850057D02*
X64761905Y-81992914D01*
X64761905Y-81992914D02*
X64714286Y-82183390D01*
X64714286Y-82183390D02*
X64714286Y-82564342D01*
X64714286Y-82564342D02*
X64761905Y-82659580D01*
X64761905Y-82659580D02*
X64809524Y-82707200D01*
X64809524Y-82707200D02*
X64904762Y-82754819D01*
X64904762Y-82754819D02*
X65095238Y-82754819D01*
X65095238Y-82754819D02*
X65190476Y-82707200D01*
X65190476Y-82707200D02*
X65238095Y-82659580D01*
X65238095Y-82659580D02*
X65285714Y-82564342D01*
X65285714Y-82564342D02*
X65285714Y-82326247D01*
X65285714Y-82326247D02*
X65238095Y-82231009D01*
X65238095Y-82231009D02*
X65190476Y-82183390D01*
X65190476Y-82183390D02*
X65095238Y-82135771D01*
X65095238Y-82135771D02*
X64904762Y-82135771D01*
X64904762Y-82135771D02*
X64809524Y-82183390D01*
X64809524Y-82183390D02*
X64761905Y-82231009D01*
X64761905Y-82231009D02*
X64714286Y-82326247D01*
X90054819Y-103842857D02*
X89578628Y-104176190D01*
X90054819Y-104414285D02*
X89054819Y-104414285D01*
X89054819Y-104414285D02*
X89054819Y-104033333D01*
X89054819Y-104033333D02*
X89102438Y-103938095D01*
X89102438Y-103938095D02*
X89150057Y-103890476D01*
X89150057Y-103890476D02*
X89245295Y-103842857D01*
X89245295Y-103842857D02*
X89388152Y-103842857D01*
X89388152Y-103842857D02*
X89483390Y-103890476D01*
X89483390Y-103890476D02*
X89531009Y-103938095D01*
X89531009Y-103938095D02*
X89578628Y-104033333D01*
X89578628Y-104033333D02*
X89578628Y-104414285D01*
X89388152Y-102985714D02*
X90054819Y-102985714D01*
X89007200Y-103223809D02*
X89721485Y-103461904D01*
X89721485Y-103461904D02*
X89721485Y-102842857D01*
X89054819Y-102557142D02*
X89054819Y-101938095D01*
X89054819Y-101938095D02*
X89435771Y-102271428D01*
X89435771Y-102271428D02*
X89435771Y-102128571D01*
X89435771Y-102128571D02*
X89483390Y-102033333D01*
X89483390Y-102033333D02*
X89531009Y-101985714D01*
X89531009Y-101985714D02*
X89626247Y-101938095D01*
X89626247Y-101938095D02*
X89864342Y-101938095D01*
X89864342Y-101938095D02*
X89959580Y-101985714D01*
X89959580Y-101985714D02*
X90007200Y-102033333D01*
X90007200Y-102033333D02*
X90054819Y-102128571D01*
X90054819Y-102128571D02*
X90054819Y-102414285D01*
X90054819Y-102414285D02*
X90007200Y-102509523D01*
X90007200Y-102509523D02*
X89959580Y-102557142D01*
X77095238Y-77449942D02*
X77190476Y-77497561D01*
X77190476Y-77497561D02*
X77285714Y-77592800D01*
X77285714Y-77592800D02*
X77428571Y-77735657D01*
X77428571Y-77735657D02*
X77523809Y-77783276D01*
X77523809Y-77783276D02*
X77619047Y-77783276D01*
X77571428Y-77545180D02*
X77666666Y-77592800D01*
X77666666Y-77592800D02*
X77761904Y-77688038D01*
X77761904Y-77688038D02*
X77809523Y-77878514D01*
X77809523Y-77878514D02*
X77809523Y-78211847D01*
X77809523Y-78211847D02*
X77761904Y-78402323D01*
X77761904Y-78402323D02*
X77666666Y-78497561D01*
X77666666Y-78497561D02*
X77571428Y-78545180D01*
X77571428Y-78545180D02*
X77380952Y-78545180D01*
X77380952Y-78545180D02*
X77285714Y-78497561D01*
X77285714Y-78497561D02*
X77190476Y-78402323D01*
X77190476Y-78402323D02*
X77142857Y-78211847D01*
X77142857Y-78211847D02*
X77142857Y-77878514D01*
X77142857Y-77878514D02*
X77190476Y-77688038D01*
X77190476Y-77688038D02*
X77285714Y-77592800D01*
X77285714Y-77592800D02*
X77380952Y-77545180D01*
X77380952Y-77545180D02*
X77571428Y-77545180D01*
X76190476Y-77545180D02*
X76761904Y-77545180D01*
X76476190Y-77545180D02*
X76476190Y-78545180D01*
X76476190Y-78545180D02*
X76571428Y-78402323D01*
X76571428Y-78402323D02*
X76666666Y-78307085D01*
X76666666Y-78307085D02*
X76761904Y-78259466D01*
X56598955Y-87642772D02*
X56610649Y-87709092D01*
X56610649Y-87709092D02*
X56567717Y-87853427D01*
X56567717Y-87853427D02*
X56513091Y-87931441D01*
X56513091Y-87931441D02*
X56392144Y-88021150D01*
X56392144Y-88021150D02*
X56259503Y-88044538D01*
X56259503Y-88044538D02*
X56154175Y-88028919D01*
X56154175Y-88028919D02*
X55970833Y-87958674D01*
X55970833Y-87958674D02*
X55853812Y-87876734D01*
X55853812Y-87876734D02*
X55725096Y-87728474D01*
X55725096Y-87728474D02*
X55674395Y-87634841D01*
X55674395Y-87634841D02*
X55651006Y-87502200D01*
X55651006Y-87502200D02*
X55693939Y-87357865D01*
X55693939Y-87357865D02*
X55748565Y-87279850D01*
X55748565Y-87279850D02*
X55869512Y-87190142D01*
X55869512Y-87190142D02*
X55935832Y-87178448D01*
X56154337Y-86866390D02*
X56142643Y-86800070D01*
X56142643Y-86800070D02*
X56158262Y-86694742D01*
X56158262Y-86694742D02*
X56294828Y-86499706D01*
X56294828Y-86499706D02*
X56388462Y-86449004D01*
X56388462Y-86449004D02*
X56454782Y-86437310D01*
X56454782Y-86437310D02*
X56560110Y-86452929D01*
X56560110Y-86452929D02*
X56638124Y-86507556D01*
X56638124Y-86507556D02*
X56727833Y-86628502D01*
X56727833Y-86628502D02*
X56868162Y-87424347D01*
X56868162Y-87424347D02*
X57223233Y-86917253D01*
X78957142Y-96854819D02*
X78623809Y-96378628D01*
X78385714Y-96854819D02*
X78385714Y-95854819D01*
X78385714Y-95854819D02*
X78766666Y-95854819D01*
X78766666Y-95854819D02*
X78861904Y-95902438D01*
X78861904Y-95902438D02*
X78909523Y-95950057D01*
X78909523Y-95950057D02*
X78957142Y-96045295D01*
X78957142Y-96045295D02*
X78957142Y-96188152D01*
X78957142Y-96188152D02*
X78909523Y-96283390D01*
X78909523Y-96283390D02*
X78861904Y-96331009D01*
X78861904Y-96331009D02*
X78766666Y-96378628D01*
X78766666Y-96378628D02*
X78385714Y-96378628D01*
X79909523Y-96854819D02*
X79338095Y-96854819D01*
X79623809Y-96854819D02*
X79623809Y-95854819D01*
X79623809Y-95854819D02*
X79528571Y-95997676D01*
X79528571Y-95997676D02*
X79433333Y-96092914D01*
X79433333Y-96092914D02*
X79338095Y-96140533D01*
X80861904Y-96854819D02*
X80290476Y-96854819D01*
X80576190Y-96854819D02*
X80576190Y-95854819D01*
X80576190Y-95854819D02*
X80480952Y-95997676D01*
X80480952Y-95997676D02*
X80385714Y-96092914D01*
X80385714Y-96092914D02*
X80290476Y-96140533D01*
X104866666Y-79549819D02*
X104866666Y-80264104D01*
X104866666Y-80264104D02*
X104819047Y-80406961D01*
X104819047Y-80406961D02*
X104723809Y-80502200D01*
X104723809Y-80502200D02*
X104580952Y-80549819D01*
X104580952Y-80549819D02*
X104485714Y-80549819D01*
X105771428Y-79549819D02*
X105580952Y-79549819D01*
X105580952Y-79549819D02*
X105485714Y-79597438D01*
X105485714Y-79597438D02*
X105438095Y-79645057D01*
X105438095Y-79645057D02*
X105342857Y-79787914D01*
X105342857Y-79787914D02*
X105295238Y-79978390D01*
X105295238Y-79978390D02*
X105295238Y-80359342D01*
X105295238Y-80359342D02*
X105342857Y-80454580D01*
X105342857Y-80454580D02*
X105390476Y-80502200D01*
X105390476Y-80502200D02*
X105485714Y-80549819D01*
X105485714Y-80549819D02*
X105676190Y-80549819D01*
X105676190Y-80549819D02*
X105771428Y-80502200D01*
X105771428Y-80502200D02*
X105819047Y-80454580D01*
X105819047Y-80454580D02*
X105866666Y-80359342D01*
X105866666Y-80359342D02*
X105866666Y-80121247D01*
X105866666Y-80121247D02*
X105819047Y-80026009D01*
X105819047Y-80026009D02*
X105771428Y-79978390D01*
X105771428Y-79978390D02*
X105676190Y-79930771D01*
X105676190Y-79930771D02*
X105485714Y-79930771D01*
X105485714Y-79930771D02*
X105390476Y-79978390D01*
X105390476Y-79978390D02*
X105342857Y-80026009D01*
X105342857Y-80026009D02*
X105295238Y-80121247D01*
X44857142Y-84654819D02*
X44523809Y-84178628D01*
X44285714Y-84654819D02*
X44285714Y-83654819D01*
X44285714Y-83654819D02*
X44666666Y-83654819D01*
X44666666Y-83654819D02*
X44761904Y-83702438D01*
X44761904Y-83702438D02*
X44809523Y-83750057D01*
X44809523Y-83750057D02*
X44857142Y-83845295D01*
X44857142Y-83845295D02*
X44857142Y-83988152D01*
X44857142Y-83988152D02*
X44809523Y-84083390D01*
X44809523Y-84083390D02*
X44761904Y-84131009D01*
X44761904Y-84131009D02*
X44666666Y-84178628D01*
X44666666Y-84178628D02*
X44285714Y-84178628D01*
X45238095Y-83750057D02*
X45285714Y-83702438D01*
X45285714Y-83702438D02*
X45380952Y-83654819D01*
X45380952Y-83654819D02*
X45619047Y-83654819D01*
X45619047Y-83654819D02*
X45714285Y-83702438D01*
X45714285Y-83702438D02*
X45761904Y-83750057D01*
X45761904Y-83750057D02*
X45809523Y-83845295D01*
X45809523Y-83845295D02*
X45809523Y-83940533D01*
X45809523Y-83940533D02*
X45761904Y-84083390D01*
X45761904Y-84083390D02*
X45190476Y-84654819D01*
X45190476Y-84654819D02*
X45809523Y-84654819D01*
X46666666Y-83654819D02*
X46476190Y-83654819D01*
X46476190Y-83654819D02*
X46380952Y-83702438D01*
X46380952Y-83702438D02*
X46333333Y-83750057D01*
X46333333Y-83750057D02*
X46238095Y-83892914D01*
X46238095Y-83892914D02*
X46190476Y-84083390D01*
X46190476Y-84083390D02*
X46190476Y-84464342D01*
X46190476Y-84464342D02*
X46238095Y-84559580D01*
X46238095Y-84559580D02*
X46285714Y-84607200D01*
X46285714Y-84607200D02*
X46380952Y-84654819D01*
X46380952Y-84654819D02*
X46571428Y-84654819D01*
X46571428Y-84654819D02*
X46666666Y-84607200D01*
X46666666Y-84607200D02*
X46714285Y-84559580D01*
X46714285Y-84559580D02*
X46761904Y-84464342D01*
X46761904Y-84464342D02*
X46761904Y-84226247D01*
X46761904Y-84226247D02*
X46714285Y-84131009D01*
X46714285Y-84131009D02*
X46666666Y-84083390D01*
X46666666Y-84083390D02*
X46571428Y-84035771D01*
X46571428Y-84035771D02*
X46380952Y-84035771D01*
X46380952Y-84035771D02*
X46285714Y-84083390D01*
X46285714Y-84083390D02*
X46238095Y-84131009D01*
X46238095Y-84131009D02*
X46190476Y-84226247D01*
X39659580Y-82442857D02*
X39707200Y-82490476D01*
X39707200Y-82490476D02*
X39754819Y-82633333D01*
X39754819Y-82633333D02*
X39754819Y-82728571D01*
X39754819Y-82728571D02*
X39707200Y-82871428D01*
X39707200Y-82871428D02*
X39611961Y-82966666D01*
X39611961Y-82966666D02*
X39516723Y-83014285D01*
X39516723Y-83014285D02*
X39326247Y-83061904D01*
X39326247Y-83061904D02*
X39183390Y-83061904D01*
X39183390Y-83061904D02*
X38992914Y-83014285D01*
X38992914Y-83014285D02*
X38897676Y-82966666D01*
X38897676Y-82966666D02*
X38802438Y-82871428D01*
X38802438Y-82871428D02*
X38754819Y-82728571D01*
X38754819Y-82728571D02*
X38754819Y-82633333D01*
X38754819Y-82633333D02*
X38802438Y-82490476D01*
X38802438Y-82490476D02*
X38850057Y-82442857D01*
X38850057Y-82061904D02*
X38802438Y-82014285D01*
X38802438Y-82014285D02*
X38754819Y-81919047D01*
X38754819Y-81919047D02*
X38754819Y-81680952D01*
X38754819Y-81680952D02*
X38802438Y-81585714D01*
X38802438Y-81585714D02*
X38850057Y-81538095D01*
X38850057Y-81538095D02*
X38945295Y-81490476D01*
X38945295Y-81490476D02*
X39040533Y-81490476D01*
X39040533Y-81490476D02*
X39183390Y-81538095D01*
X39183390Y-81538095D02*
X39754819Y-82109523D01*
X39754819Y-82109523D02*
X39754819Y-81490476D01*
X38754819Y-80871428D02*
X38754819Y-80776190D01*
X38754819Y-80776190D02*
X38802438Y-80680952D01*
X38802438Y-80680952D02*
X38850057Y-80633333D01*
X38850057Y-80633333D02*
X38945295Y-80585714D01*
X38945295Y-80585714D02*
X39135771Y-80538095D01*
X39135771Y-80538095D02*
X39373866Y-80538095D01*
X39373866Y-80538095D02*
X39564342Y-80585714D01*
X39564342Y-80585714D02*
X39659580Y-80633333D01*
X39659580Y-80633333D02*
X39707200Y-80680952D01*
X39707200Y-80680952D02*
X39754819Y-80776190D01*
X39754819Y-80776190D02*
X39754819Y-80871428D01*
X39754819Y-80871428D02*
X39707200Y-80966666D01*
X39707200Y-80966666D02*
X39659580Y-81014285D01*
X39659580Y-81014285D02*
X39564342Y-81061904D01*
X39564342Y-81061904D02*
X39373866Y-81109523D01*
X39373866Y-81109523D02*
X39135771Y-81109523D01*
X39135771Y-81109523D02*
X38945295Y-81061904D01*
X38945295Y-81061904D02*
X38850057Y-81014285D01*
X38850057Y-81014285D02*
X38802438Y-80966666D01*
X38802438Y-80966666D02*
X38754819Y-80871428D01*
X86166666Y-79649819D02*
X86166666Y-80364104D01*
X86166666Y-80364104D02*
X86119047Y-80506961D01*
X86119047Y-80506961D02*
X86023809Y-80602200D01*
X86023809Y-80602200D02*
X85880952Y-80649819D01*
X85880952Y-80649819D02*
X85785714Y-80649819D01*
X87119047Y-79649819D02*
X86642857Y-79649819D01*
X86642857Y-79649819D02*
X86595238Y-80126009D01*
X86595238Y-80126009D02*
X86642857Y-80078390D01*
X86642857Y-80078390D02*
X86738095Y-80030771D01*
X86738095Y-80030771D02*
X86976190Y-80030771D01*
X86976190Y-80030771D02*
X87071428Y-80078390D01*
X87071428Y-80078390D02*
X87119047Y-80126009D01*
X87119047Y-80126009D02*
X87166666Y-80221247D01*
X87166666Y-80221247D02*
X87166666Y-80459342D01*
X87166666Y-80459342D02*
X87119047Y-80554580D01*
X87119047Y-80554580D02*
X87071428Y-80602200D01*
X87071428Y-80602200D02*
X86976190Y-80649819D01*
X86976190Y-80649819D02*
X86738095Y-80649819D01*
X86738095Y-80649819D02*
X86642857Y-80602200D01*
X86642857Y-80602200D02*
X86595238Y-80554580D01*
X52040419Y-83657142D02*
X51992800Y-83609523D01*
X51992800Y-83609523D02*
X51945180Y-83466666D01*
X51945180Y-83466666D02*
X51945180Y-83371428D01*
X51945180Y-83371428D02*
X51992800Y-83228571D01*
X51992800Y-83228571D02*
X52088038Y-83133333D01*
X52088038Y-83133333D02*
X52183276Y-83085714D01*
X52183276Y-83085714D02*
X52373752Y-83038095D01*
X52373752Y-83038095D02*
X52516609Y-83038095D01*
X52516609Y-83038095D02*
X52707085Y-83085714D01*
X52707085Y-83085714D02*
X52802323Y-83133333D01*
X52802323Y-83133333D02*
X52897561Y-83228571D01*
X52897561Y-83228571D02*
X52945180Y-83371428D01*
X52945180Y-83371428D02*
X52945180Y-83466666D01*
X52945180Y-83466666D02*
X52897561Y-83609523D01*
X52897561Y-83609523D02*
X52849942Y-83657142D01*
X51945180Y-84609523D02*
X51945180Y-84038095D01*
X51945180Y-84323809D02*
X52945180Y-84323809D01*
X52945180Y-84323809D02*
X52802323Y-84228571D01*
X52802323Y-84228571D02*
X52707085Y-84133333D01*
X52707085Y-84133333D02*
X52659466Y-84038095D01*
X52611847Y-85466666D02*
X51945180Y-85466666D01*
X52992800Y-85228571D02*
X52278514Y-84990476D01*
X52278514Y-84990476D02*
X52278514Y-85609523D01*
X58340419Y-83557142D02*
X58292800Y-83509523D01*
X58292800Y-83509523D02*
X58245180Y-83366666D01*
X58245180Y-83366666D02*
X58245180Y-83271428D01*
X58245180Y-83271428D02*
X58292800Y-83128571D01*
X58292800Y-83128571D02*
X58388038Y-83033333D01*
X58388038Y-83033333D02*
X58483276Y-82985714D01*
X58483276Y-82985714D02*
X58673752Y-82938095D01*
X58673752Y-82938095D02*
X58816609Y-82938095D01*
X58816609Y-82938095D02*
X59007085Y-82985714D01*
X59007085Y-82985714D02*
X59102323Y-83033333D01*
X59102323Y-83033333D02*
X59197561Y-83128571D01*
X59197561Y-83128571D02*
X59245180Y-83271428D01*
X59245180Y-83271428D02*
X59245180Y-83366666D01*
X59245180Y-83366666D02*
X59197561Y-83509523D01*
X59197561Y-83509523D02*
X59149942Y-83557142D01*
X58245180Y-84509523D02*
X58245180Y-83938095D01*
X58245180Y-84223809D02*
X59245180Y-84223809D01*
X59245180Y-84223809D02*
X59102323Y-84128571D01*
X59102323Y-84128571D02*
X59007085Y-84033333D01*
X59007085Y-84033333D02*
X58959466Y-83938095D01*
X59245180Y-84842857D02*
X59245180Y-85461904D01*
X59245180Y-85461904D02*
X58864228Y-85128571D01*
X58864228Y-85128571D02*
X58864228Y-85271428D01*
X58864228Y-85271428D02*
X58816609Y-85366666D01*
X58816609Y-85366666D02*
X58768990Y-85414285D01*
X58768990Y-85414285D02*
X58673752Y-85461904D01*
X58673752Y-85461904D02*
X58435657Y-85461904D01*
X58435657Y-85461904D02*
X58340419Y-85414285D01*
X58340419Y-85414285D02*
X58292800Y-85366666D01*
X58292800Y-85366666D02*
X58245180Y-85271428D01*
X58245180Y-85271428D02*
X58245180Y-84985714D01*
X58245180Y-84985714D02*
X58292800Y-84890476D01*
X58292800Y-84890476D02*
X58340419Y-84842857D01*
X50004761Y-96150057D02*
X49909523Y-96102438D01*
X49909523Y-96102438D02*
X49814285Y-96007200D01*
X49814285Y-96007200D02*
X49671428Y-95864342D01*
X49671428Y-95864342D02*
X49576190Y-95816723D01*
X49576190Y-95816723D02*
X49480952Y-95816723D01*
X49528571Y-96054819D02*
X49433333Y-96007200D01*
X49433333Y-96007200D02*
X49338095Y-95911961D01*
X49338095Y-95911961D02*
X49290476Y-95721485D01*
X49290476Y-95721485D02*
X49290476Y-95388152D01*
X49290476Y-95388152D02*
X49338095Y-95197676D01*
X49338095Y-95197676D02*
X49433333Y-95102438D01*
X49433333Y-95102438D02*
X49528571Y-95054819D01*
X49528571Y-95054819D02*
X49719047Y-95054819D01*
X49719047Y-95054819D02*
X49814285Y-95102438D01*
X49814285Y-95102438D02*
X49909523Y-95197676D01*
X49909523Y-95197676D02*
X49957142Y-95388152D01*
X49957142Y-95388152D02*
X49957142Y-95721485D01*
X49957142Y-95721485D02*
X49909523Y-95911961D01*
X49909523Y-95911961D02*
X49814285Y-96007200D01*
X49814285Y-96007200D02*
X49719047Y-96054819D01*
X49719047Y-96054819D02*
X49528571Y-96054819D01*
X50814285Y-95388152D02*
X50814285Y-96054819D01*
X50576190Y-95007200D02*
X50338095Y-95721485D01*
X50338095Y-95721485D02*
X50957142Y-95721485D01*
X38454819Y-82442857D02*
X37978628Y-82776190D01*
X38454819Y-83014285D02*
X37454819Y-83014285D01*
X37454819Y-83014285D02*
X37454819Y-82633333D01*
X37454819Y-82633333D02*
X37502438Y-82538095D01*
X37502438Y-82538095D02*
X37550057Y-82490476D01*
X37550057Y-82490476D02*
X37645295Y-82442857D01*
X37645295Y-82442857D02*
X37788152Y-82442857D01*
X37788152Y-82442857D02*
X37883390Y-82490476D01*
X37883390Y-82490476D02*
X37931009Y-82538095D01*
X37931009Y-82538095D02*
X37978628Y-82633333D01*
X37978628Y-82633333D02*
X37978628Y-83014285D01*
X37550057Y-82061904D02*
X37502438Y-82014285D01*
X37502438Y-82014285D02*
X37454819Y-81919047D01*
X37454819Y-81919047D02*
X37454819Y-81680952D01*
X37454819Y-81680952D02*
X37502438Y-81585714D01*
X37502438Y-81585714D02*
X37550057Y-81538095D01*
X37550057Y-81538095D02*
X37645295Y-81490476D01*
X37645295Y-81490476D02*
X37740533Y-81490476D01*
X37740533Y-81490476D02*
X37883390Y-81538095D01*
X37883390Y-81538095D02*
X38454819Y-82109523D01*
X38454819Y-82109523D02*
X38454819Y-81490476D01*
X37454819Y-80585714D02*
X37454819Y-81061904D01*
X37454819Y-81061904D02*
X37931009Y-81109523D01*
X37931009Y-81109523D02*
X37883390Y-81061904D01*
X37883390Y-81061904D02*
X37835771Y-80966666D01*
X37835771Y-80966666D02*
X37835771Y-80728571D01*
X37835771Y-80728571D02*
X37883390Y-80633333D01*
X37883390Y-80633333D02*
X37931009Y-80585714D01*
X37931009Y-80585714D02*
X38026247Y-80538095D01*
X38026247Y-80538095D02*
X38264342Y-80538095D01*
X38264342Y-80538095D02*
X38359580Y-80585714D01*
X38359580Y-80585714D02*
X38407200Y-80633333D01*
X38407200Y-80633333D02*
X38454819Y-80728571D01*
X38454819Y-80728571D02*
X38454819Y-80966666D01*
X38454819Y-80966666D02*
X38407200Y-81061904D01*
X38407200Y-81061904D02*
X38359580Y-81109523D01*
X66433333Y-73554819D02*
X66100000Y-73078628D01*
X65861905Y-73554819D02*
X65861905Y-72554819D01*
X65861905Y-72554819D02*
X66242857Y-72554819D01*
X66242857Y-72554819D02*
X66338095Y-72602438D01*
X66338095Y-72602438D02*
X66385714Y-72650057D01*
X66385714Y-72650057D02*
X66433333Y-72745295D01*
X66433333Y-72745295D02*
X66433333Y-72888152D01*
X66433333Y-72888152D02*
X66385714Y-72983390D01*
X66385714Y-72983390D02*
X66338095Y-73031009D01*
X66338095Y-73031009D02*
X66242857Y-73078628D01*
X66242857Y-73078628D02*
X65861905Y-73078628D01*
X66766667Y-72554819D02*
X67433333Y-73554819D01*
X67433333Y-72554819D02*
X66766667Y-73554819D01*
X82357142Y-89154819D02*
X82023809Y-88678628D01*
X81785714Y-89154819D02*
X81785714Y-88154819D01*
X81785714Y-88154819D02*
X82166666Y-88154819D01*
X82166666Y-88154819D02*
X82261904Y-88202438D01*
X82261904Y-88202438D02*
X82309523Y-88250057D01*
X82309523Y-88250057D02*
X82357142Y-88345295D01*
X82357142Y-88345295D02*
X82357142Y-88488152D01*
X82357142Y-88488152D02*
X82309523Y-88583390D01*
X82309523Y-88583390D02*
X82261904Y-88631009D01*
X82261904Y-88631009D02*
X82166666Y-88678628D01*
X82166666Y-88678628D02*
X81785714Y-88678628D01*
X83309523Y-89154819D02*
X82738095Y-89154819D01*
X83023809Y-89154819D02*
X83023809Y-88154819D01*
X83023809Y-88154819D02*
X82928571Y-88297676D01*
X82928571Y-88297676D02*
X82833333Y-88392914D01*
X82833333Y-88392914D02*
X82738095Y-88440533D01*
X83642857Y-88154819D02*
X84261904Y-88154819D01*
X84261904Y-88154819D02*
X83928571Y-88535771D01*
X83928571Y-88535771D02*
X84071428Y-88535771D01*
X84071428Y-88535771D02*
X84166666Y-88583390D01*
X84166666Y-88583390D02*
X84214285Y-88631009D01*
X84214285Y-88631009D02*
X84261904Y-88726247D01*
X84261904Y-88726247D02*
X84261904Y-88964342D01*
X84261904Y-88964342D02*
X84214285Y-89059580D01*
X84214285Y-89059580D02*
X84166666Y-89107200D01*
X84166666Y-89107200D02*
X84071428Y-89154819D01*
X84071428Y-89154819D02*
X83785714Y-89154819D01*
X83785714Y-89154819D02*
X83690476Y-89107200D01*
X83690476Y-89107200D02*
X83642857Y-89059580D01*
X76333333Y-80554819D02*
X76000000Y-80078628D01*
X75761905Y-80554819D02*
X75761905Y-79554819D01*
X75761905Y-79554819D02*
X76142857Y-79554819D01*
X76142857Y-79554819D02*
X76238095Y-79602438D01*
X76238095Y-79602438D02*
X76285714Y-79650057D01*
X76285714Y-79650057D02*
X76333333Y-79745295D01*
X76333333Y-79745295D02*
X76333333Y-79888152D01*
X76333333Y-79888152D02*
X76285714Y-79983390D01*
X76285714Y-79983390D02*
X76238095Y-80031009D01*
X76238095Y-80031009D02*
X76142857Y-80078628D01*
X76142857Y-80078628D02*
X75761905Y-80078628D01*
X77238095Y-79554819D02*
X76761905Y-79554819D01*
X76761905Y-79554819D02*
X76714286Y-80031009D01*
X76714286Y-80031009D02*
X76761905Y-79983390D01*
X76761905Y-79983390D02*
X76857143Y-79935771D01*
X76857143Y-79935771D02*
X77095238Y-79935771D01*
X77095238Y-79935771D02*
X77190476Y-79983390D01*
X77190476Y-79983390D02*
X77238095Y-80031009D01*
X77238095Y-80031009D02*
X77285714Y-80126247D01*
X77285714Y-80126247D02*
X77285714Y-80364342D01*
X77285714Y-80364342D02*
X77238095Y-80459580D01*
X77238095Y-80459580D02*
X77190476Y-80507200D01*
X77190476Y-80507200D02*
X77095238Y-80554819D01*
X77095238Y-80554819D02*
X76857143Y-80554819D01*
X76857143Y-80554819D02*
X76761905Y-80507200D01*
X76761905Y-80507200D02*
X76714286Y-80459580D01*
X101457142Y-94954819D02*
X101123809Y-94478628D01*
X100885714Y-94954819D02*
X100885714Y-93954819D01*
X100885714Y-93954819D02*
X101266666Y-93954819D01*
X101266666Y-93954819D02*
X101361904Y-94002438D01*
X101361904Y-94002438D02*
X101409523Y-94050057D01*
X101409523Y-94050057D02*
X101457142Y-94145295D01*
X101457142Y-94145295D02*
X101457142Y-94288152D01*
X101457142Y-94288152D02*
X101409523Y-94383390D01*
X101409523Y-94383390D02*
X101361904Y-94431009D01*
X101361904Y-94431009D02*
X101266666Y-94478628D01*
X101266666Y-94478628D02*
X100885714Y-94478628D01*
X101790476Y-93954819D02*
X102409523Y-93954819D01*
X102409523Y-93954819D02*
X102076190Y-94335771D01*
X102076190Y-94335771D02*
X102219047Y-94335771D01*
X102219047Y-94335771D02*
X102314285Y-94383390D01*
X102314285Y-94383390D02*
X102361904Y-94431009D01*
X102361904Y-94431009D02*
X102409523Y-94526247D01*
X102409523Y-94526247D02*
X102409523Y-94764342D01*
X102409523Y-94764342D02*
X102361904Y-94859580D01*
X102361904Y-94859580D02*
X102314285Y-94907200D01*
X102314285Y-94907200D02*
X102219047Y-94954819D01*
X102219047Y-94954819D02*
X101933333Y-94954819D01*
X101933333Y-94954819D02*
X101838095Y-94907200D01*
X101838095Y-94907200D02*
X101790476Y-94859580D01*
X102742857Y-93954819D02*
X103409523Y-93954819D01*
X103409523Y-93954819D02*
X102980952Y-94954819D01*
X52959580Y-78142857D02*
X53007200Y-78190476D01*
X53007200Y-78190476D02*
X53054819Y-78333333D01*
X53054819Y-78333333D02*
X53054819Y-78428571D01*
X53054819Y-78428571D02*
X53007200Y-78571428D01*
X53007200Y-78571428D02*
X52911961Y-78666666D01*
X52911961Y-78666666D02*
X52816723Y-78714285D01*
X52816723Y-78714285D02*
X52626247Y-78761904D01*
X52626247Y-78761904D02*
X52483390Y-78761904D01*
X52483390Y-78761904D02*
X52292914Y-78714285D01*
X52292914Y-78714285D02*
X52197676Y-78666666D01*
X52197676Y-78666666D02*
X52102438Y-78571428D01*
X52102438Y-78571428D02*
X52054819Y-78428571D01*
X52054819Y-78428571D02*
X52054819Y-78333333D01*
X52054819Y-78333333D02*
X52102438Y-78190476D01*
X52102438Y-78190476D02*
X52150057Y-78142857D01*
X53054819Y-77190476D02*
X53054819Y-77761904D01*
X53054819Y-77476190D02*
X52054819Y-77476190D01*
X52054819Y-77476190D02*
X52197676Y-77571428D01*
X52197676Y-77571428D02*
X52292914Y-77666666D01*
X52292914Y-77666666D02*
X52340533Y-77761904D01*
X52054819Y-76857142D02*
X52054819Y-76190476D01*
X52054819Y-76190476D02*
X53054819Y-76619047D01*
X56438095Y-68154819D02*
X56438095Y-68964342D01*
X56438095Y-68964342D02*
X56485714Y-69059580D01*
X56485714Y-69059580D02*
X56533333Y-69107200D01*
X56533333Y-69107200D02*
X56628571Y-69154819D01*
X56628571Y-69154819D02*
X56819047Y-69154819D01*
X56819047Y-69154819D02*
X56914285Y-69107200D01*
X56914285Y-69107200D02*
X56961904Y-69059580D01*
X56961904Y-69059580D02*
X57009523Y-68964342D01*
X57009523Y-68964342D02*
X57009523Y-68154819D01*
X57438095Y-68250057D02*
X57485714Y-68202438D01*
X57485714Y-68202438D02*
X57580952Y-68154819D01*
X57580952Y-68154819D02*
X57819047Y-68154819D01*
X57819047Y-68154819D02*
X57914285Y-68202438D01*
X57914285Y-68202438D02*
X57961904Y-68250057D01*
X57961904Y-68250057D02*
X58009523Y-68345295D01*
X58009523Y-68345295D02*
X58009523Y-68440533D01*
X58009523Y-68440533D02*
X57961904Y-68583390D01*
X57961904Y-68583390D02*
X57390476Y-69154819D01*
X57390476Y-69154819D02*
X58009523Y-69154819D01*
X52157142Y-87904819D02*
X51823809Y-87428628D01*
X51585714Y-87904819D02*
X51585714Y-86904819D01*
X51585714Y-86904819D02*
X51966666Y-86904819D01*
X51966666Y-86904819D02*
X52061904Y-86952438D01*
X52061904Y-86952438D02*
X52109523Y-87000057D01*
X52109523Y-87000057D02*
X52157142Y-87095295D01*
X52157142Y-87095295D02*
X52157142Y-87238152D01*
X52157142Y-87238152D02*
X52109523Y-87333390D01*
X52109523Y-87333390D02*
X52061904Y-87381009D01*
X52061904Y-87381009D02*
X51966666Y-87428628D01*
X51966666Y-87428628D02*
X51585714Y-87428628D01*
X53109523Y-87904819D02*
X52538095Y-87904819D01*
X52823809Y-87904819D02*
X52823809Y-86904819D01*
X52823809Y-86904819D02*
X52728571Y-87047676D01*
X52728571Y-87047676D02*
X52633333Y-87142914D01*
X52633333Y-87142914D02*
X52538095Y-87190533D01*
X53966666Y-86904819D02*
X53776190Y-86904819D01*
X53776190Y-86904819D02*
X53680952Y-86952438D01*
X53680952Y-86952438D02*
X53633333Y-87000057D01*
X53633333Y-87000057D02*
X53538095Y-87142914D01*
X53538095Y-87142914D02*
X53490476Y-87333390D01*
X53490476Y-87333390D02*
X53490476Y-87714342D01*
X53490476Y-87714342D02*
X53538095Y-87809580D01*
X53538095Y-87809580D02*
X53585714Y-87857200D01*
X53585714Y-87857200D02*
X53680952Y-87904819D01*
X53680952Y-87904819D02*
X53871428Y-87904819D01*
X53871428Y-87904819D02*
X53966666Y-87857200D01*
X53966666Y-87857200D02*
X54014285Y-87809580D01*
X54014285Y-87809580D02*
X54061904Y-87714342D01*
X54061904Y-87714342D02*
X54061904Y-87476247D01*
X54061904Y-87476247D02*
X54014285Y-87381009D01*
X54014285Y-87381009D02*
X53966666Y-87333390D01*
X53966666Y-87333390D02*
X53871428Y-87285771D01*
X53871428Y-87285771D02*
X53680952Y-87285771D01*
X53680952Y-87285771D02*
X53585714Y-87333390D01*
X53585714Y-87333390D02*
X53538095Y-87381009D01*
X53538095Y-87381009D02*
X53490476Y-87476247D01*
X88992319Y-91692857D02*
X88516128Y-92026190D01*
X88992319Y-92264285D02*
X87992319Y-92264285D01*
X87992319Y-92264285D02*
X87992319Y-91883333D01*
X87992319Y-91883333D02*
X88039938Y-91788095D01*
X88039938Y-91788095D02*
X88087557Y-91740476D01*
X88087557Y-91740476D02*
X88182795Y-91692857D01*
X88182795Y-91692857D02*
X88325652Y-91692857D01*
X88325652Y-91692857D02*
X88420890Y-91740476D01*
X88420890Y-91740476D02*
X88468509Y-91788095D01*
X88468509Y-91788095D02*
X88516128Y-91883333D01*
X88516128Y-91883333D02*
X88516128Y-92264285D01*
X87992319Y-91359523D02*
X87992319Y-90740476D01*
X87992319Y-90740476D02*
X88373271Y-91073809D01*
X88373271Y-91073809D02*
X88373271Y-90930952D01*
X88373271Y-90930952D02*
X88420890Y-90835714D01*
X88420890Y-90835714D02*
X88468509Y-90788095D01*
X88468509Y-90788095D02*
X88563747Y-90740476D01*
X88563747Y-90740476D02*
X88801842Y-90740476D01*
X88801842Y-90740476D02*
X88897080Y-90788095D01*
X88897080Y-90788095D02*
X88944700Y-90835714D01*
X88944700Y-90835714D02*
X88992319Y-90930952D01*
X88992319Y-90930952D02*
X88992319Y-91216666D01*
X88992319Y-91216666D02*
X88944700Y-91311904D01*
X88944700Y-91311904D02*
X88897080Y-91359523D01*
X87992319Y-89835714D02*
X87992319Y-90311904D01*
X87992319Y-90311904D02*
X88468509Y-90359523D01*
X88468509Y-90359523D02*
X88420890Y-90311904D01*
X88420890Y-90311904D02*
X88373271Y-90216666D01*
X88373271Y-90216666D02*
X88373271Y-89978571D01*
X88373271Y-89978571D02*
X88420890Y-89883333D01*
X88420890Y-89883333D02*
X88468509Y-89835714D01*
X88468509Y-89835714D02*
X88563747Y-89788095D01*
X88563747Y-89788095D02*
X88801842Y-89788095D01*
X88801842Y-89788095D02*
X88897080Y-89835714D01*
X88897080Y-89835714D02*
X88944700Y-89883333D01*
X88944700Y-89883333D02*
X88992319Y-89978571D01*
X88992319Y-89978571D02*
X88992319Y-90216666D01*
X88992319Y-90216666D02*
X88944700Y-90311904D01*
X88944700Y-90311904D02*
X88897080Y-90359523D01*
D13*
%TO.C,R39*%
X94727064Y-95865000D02*
X94272936Y-95865000D01*
X94727064Y-97335000D02*
X94272936Y-97335000D01*
%TO.C,R22*%
X71465000Y-74897936D02*
X71465000Y-75352064D01*
X72935000Y-74897936D02*
X72935000Y-75352064D01*
%TO.C,J3*%
X60490000Y-69670000D02*
X60490000Y-72330000D01*
X78330000Y-69670000D02*
X60490000Y-69670000D01*
X78330000Y-69670000D02*
X78330000Y-72330000D01*
X78330000Y-72330000D02*
X60490000Y-72330000D01*
X79600000Y-69670000D02*
X80930000Y-69670000D01*
X80930000Y-69670000D02*
X80930000Y-71000000D01*
%TO.C,C8*%
X76238748Y-83765000D02*
X76761252Y-83765000D01*
X76238748Y-85235000D02*
X76761252Y-85235000D01*
%TO.C,C22*%
X99098752Y-93315000D02*
X98576248Y-93315000D01*
X99098752Y-94785000D02*
X98576248Y-94785000D01*
%TO.C,R12*%
X78747936Y-92815000D02*
X79202064Y-92815000D01*
X78747936Y-94285000D02*
X79202064Y-94285000D01*
%TO.C,U6*%
X96700000Y-87490000D02*
X94500000Y-87490000D01*
X96700000Y-87490000D02*
X98900000Y-87490000D01*
X96700000Y-92710000D02*
X94500000Y-92710000D01*
X96700000Y-92710000D02*
X98900000Y-92710000D01*
X99840000Y-92840000D02*
X99360000Y-92840000D01*
X99600000Y-92510000D01*
X99840000Y-92840000D01*
G36*
X99840000Y-92840000D02*
G01*
X99360000Y-92840000D01*
X99600000Y-92510000D01*
X99840000Y-92840000D01*
G37*
%TO.C,U4*%
X47402500Y-80912500D02*
X47402500Y-80112500D01*
X47402500Y-80912500D02*
X47402500Y-81712500D01*
X50522500Y-80912500D02*
X50522500Y-80112500D01*
X50522500Y-80912500D02*
X50522500Y-81712500D01*
X47452500Y-82212500D02*
X47122500Y-82452500D01*
X47122500Y-81972500D01*
X47452500Y-82212500D01*
G36*
X47452500Y-82212500D02*
G01*
X47122500Y-82452500D01*
X47122500Y-81972500D01*
X47452500Y-82212500D01*
G37*
%TO.C,C18*%
X55088748Y-76390000D02*
X56511252Y-76390000D01*
X55088748Y-78210000D02*
X56511252Y-78210000D01*
%TO.C,J2*%
X51590000Y-106370000D02*
X51590000Y-109030000D01*
X56730000Y-106370000D02*
X51590000Y-106370000D01*
X56730000Y-106370000D02*
X56730000Y-109030000D01*
X56730000Y-109030000D02*
X51590000Y-109030000D01*
X58000000Y-106370000D02*
X59330000Y-106370000D01*
X59330000Y-106370000D02*
X59330000Y-107700000D01*
%TO.C,R28*%
X43947936Y-96665000D02*
X44402064Y-96665000D01*
X43947936Y-98135000D02*
X44402064Y-98135000D01*
%TO.C,D3*%
X78702500Y-103340000D02*
X78702500Y-105260000D01*
X78702500Y-105260000D02*
X81387500Y-105260000D01*
X81387500Y-103340000D02*
X78702500Y-103340000D01*
%TO.C,J4*%
X36215000Y-85420000D02*
X37920000Y-85420000D01*
X36215000Y-94580000D02*
X36215000Y-85420000D01*
X37920000Y-94580000D02*
X36215000Y-94580000D01*
X39930000Y-94580000D02*
X41850000Y-94580000D01*
X41850000Y-85420000D02*
X39930000Y-85420000D01*
%TO.C,C1*%
X61265000Y-99038748D02*
X61265000Y-99561252D01*
X62735000Y-99038748D02*
X62735000Y-99561252D01*
%TO.C,J1*%
X63730000Y-109030000D02*
X63730000Y-107700000D01*
X65060000Y-109030000D02*
X63730000Y-109030000D01*
X66330000Y-106370000D02*
X71470000Y-106370000D01*
X66330000Y-109030000D02*
X66330000Y-106370000D01*
X66330000Y-109030000D02*
X71470000Y-109030000D01*
X71470000Y-109030000D02*
X71470000Y-106370000D01*
%TO.C,R45*%
X101365000Y-102527064D02*
X101365000Y-102072936D01*
X102835000Y-102527064D02*
X102835000Y-102072936D01*
%TO.C,Q3*%
X44187500Y-101040000D02*
X43537500Y-101040000D01*
X44187500Y-101040000D02*
X44837500Y-101040000D01*
X44187500Y-104160000D02*
X43537500Y-104160000D01*
X44187500Y-104160000D02*
X44837500Y-104160000D01*
X43025000Y-101090000D02*
X42785000Y-100760000D01*
X43265000Y-100760000D01*
X43025000Y-101090000D01*
G36*
X43025000Y-101090000D02*
G01*
X42785000Y-100760000D01*
X43265000Y-100760000D01*
X43025000Y-101090000D01*
G37*
%TO.C,R7*%
X56627064Y-103965000D02*
X56172936Y-103965000D01*
X56627064Y-105435000D02*
X56172936Y-105435000D01*
%TO.C,R6*%
X81465000Y-84572936D02*
X81465000Y-85027064D01*
X82935000Y-84572936D02*
X82935000Y-85027064D01*
%TO.C,R30*%
X48272936Y-102565000D02*
X48727064Y-102565000D01*
X48272936Y-104035000D02*
X48727064Y-104035000D01*
%TO.C,C5*%
X75065000Y-95438748D02*
X75065000Y-95961252D01*
X76535000Y-95438748D02*
X76535000Y-95961252D01*
%TO.C,R21*%
X61665000Y-75352064D02*
X61665000Y-74897936D01*
X63135000Y-75352064D02*
X63135000Y-74897936D01*
%TO.C,R4*%
X61265000Y-95827064D02*
X61265000Y-95372936D01*
X62735000Y-95827064D02*
X62735000Y-95372936D01*
%TO.C,R23*%
X65372936Y-77490000D02*
X65827064Y-77490000D01*
X65372936Y-78960000D02*
X65827064Y-78960000D01*
%TO.C,SW1*%
X53480000Y-97160000D02*
X53480000Y-99240000D01*
X54750000Y-95480000D02*
X54260000Y-95970000D01*
X54750000Y-100920000D02*
X54260000Y-100430000D01*
X57650000Y-95480000D02*
X54750000Y-95480000D01*
X57650000Y-95480000D02*
X58140000Y-95970000D01*
X57650000Y-100920000D02*
X54750000Y-100920000D01*
X57650000Y-100920000D02*
X58140000Y-100430000D01*
X58920000Y-97160000D02*
X58920000Y-99240000D01*
%TO.C,R40*%
X90572936Y-94765000D02*
X91027064Y-94765000D01*
X90572936Y-96235000D02*
X91027064Y-96235000D01*
%TO.C,R29*%
X40252500Y-102327064D02*
X40252500Y-101872936D01*
X41722500Y-102327064D02*
X41722500Y-101872936D01*
%TO.C,R31*%
X48714564Y-100365000D02*
X48260436Y-100365000D01*
X48714564Y-101835000D02*
X48260436Y-101835000D01*
%TO.C,Q2*%
X67840000Y-75325000D02*
X67840000Y-74675000D01*
X67840000Y-75325000D02*
X67840000Y-75975000D01*
X70960000Y-75325000D02*
X70960000Y-74675000D01*
X70960000Y-75325000D02*
X70960000Y-75975000D01*
X67890000Y-76487500D02*
X67560000Y-76727500D01*
X67560000Y-76247500D01*
X67890000Y-76487500D01*
G36*
X67890000Y-76487500D02*
G01*
X67560000Y-76727500D01*
X67560000Y-76247500D01*
X67890000Y-76487500D01*
G37*
%TO.C,Q8*%
X98562500Y-101640000D02*
X97912500Y-101640000D01*
X98562500Y-101640000D02*
X99212500Y-101640000D01*
X98562500Y-104760000D02*
X97912500Y-104760000D01*
X98562500Y-104760000D02*
X99212500Y-104760000D01*
X97400000Y-101690000D02*
X97160000Y-101360000D01*
X97640000Y-101360000D01*
X97400000Y-101690000D01*
G36*
X97400000Y-101690000D02*
G01*
X97160000Y-101360000D01*
X97640000Y-101360000D01*
X97400000Y-101690000D01*
G37*
%TO.C,R38*%
X101365000Y-97527064D02*
X101365000Y-97072936D01*
X102835000Y-97527064D02*
X102835000Y-97072936D01*
%TO.C,U5*%
X41340000Y-78960000D02*
X41340000Y-76240000D01*
X42320000Y-78960000D02*
X41340000Y-78960000D01*
X45080000Y-78960000D02*
X46060000Y-78960000D01*
X46060000Y-76380000D02*
X46060000Y-78960000D01*
X46240000Y-76070000D02*
X45910000Y-75830000D01*
X46240000Y-75590000D01*
X46240000Y-76070000D01*
G36*
X46240000Y-76070000D02*
G01*
X45910000Y-75830000D01*
X46240000Y-75590000D01*
X46240000Y-76070000D01*
G37*
%TO.C,R42*%
X95367064Y-73665000D02*
X94912936Y-73665000D01*
X95367064Y-75135000D02*
X94912936Y-75135000D01*
%TO.C,R10*%
X82572936Y-91465000D02*
X83027064Y-91465000D01*
X82572936Y-92935000D02*
X83027064Y-92935000D01*
%TO.C,D4*%
X79140000Y-79315000D02*
X79140000Y-82000000D01*
X81060000Y-79315000D02*
X79140000Y-79315000D01*
X81060000Y-82000000D02*
X81060000Y-79315000D01*
%TO.C,D6*%
X73240000Y-74125000D02*
X73240000Y-76810000D01*
X73240000Y-76810000D02*
X75160000Y-76810000D01*
X75160000Y-76810000D02*
X75160000Y-74125000D01*
%TO.C,D8*%
X47140000Y-89250000D02*
X47140000Y-90520000D01*
X50260000Y-90550000D02*
X50260000Y-89250000D01*
X47190000Y-90900000D02*
X46860000Y-91140000D01*
X46860000Y-90660000D01*
X47190000Y-90900000D01*
G36*
X47190000Y-90900000D02*
G01*
X46860000Y-91140000D01*
X46860000Y-90660000D01*
X47190000Y-90900000D01*
G37*
%TO.C,C11*%
X47065000Y-94161252D02*
X47065000Y-93638748D01*
X48535000Y-94161252D02*
X48535000Y-93638748D01*
%TO.C,C12*%
X47265000Y-73861252D02*
X47265000Y-73338748D01*
X48735000Y-73861252D02*
X48735000Y-73338748D01*
%TO.C,R17*%
X52572936Y-90465000D02*
X53027064Y-90465000D01*
X52572936Y-91935000D02*
X53027064Y-91935000D01*
%TO.C,C3*%
X58085133Y-92748401D02*
X57854819Y-92587134D01*
X58670181Y-91912866D02*
X58439867Y-91751599D01*
%TO.C,Q6*%
X94337500Y-97940000D02*
X93687500Y-97940000D01*
X94337500Y-97940000D02*
X94987500Y-97940000D01*
X94337500Y-101060000D02*
X93687500Y-101060000D01*
X94337500Y-101060000D02*
X94987500Y-101060000D01*
X95740000Y-101340000D02*
X95260000Y-101340000D01*
X95500000Y-101010000D01*
X95740000Y-101340000D01*
G36*
X95740000Y-101340000D02*
G01*
X95260000Y-101340000D01*
X95500000Y-101010000D01*
X95740000Y-101340000D01*
G37*
%TO.C,D5*%
X81240000Y-79315000D02*
X81240000Y-82000000D01*
X83160000Y-79315000D02*
X81240000Y-79315000D01*
X83160000Y-82000000D02*
X83160000Y-79315000D01*
%TO.C,R2*%
X76160436Y-105565000D02*
X76614564Y-105565000D01*
X76160436Y-107035000D02*
X76614564Y-107035000D01*
%TO.C,J7*%
X88630000Y-69670000D02*
X88630000Y-72330000D01*
X93770000Y-69670000D02*
X88630000Y-69670000D01*
X93770000Y-69670000D02*
X93770000Y-72330000D01*
X93770000Y-72330000D02*
X88630000Y-72330000D01*
X95040000Y-69670000D02*
X96370000Y-69670000D01*
X96370000Y-69670000D02*
X96370000Y-71000000D01*
%TO.C,C7*%
X63223752Y-91315000D02*
X62701248Y-91315000D01*
X63223752Y-92785000D02*
X62701248Y-92785000D01*
%TO.C,R18*%
X63365000Y-95827064D02*
X63365000Y-95372936D01*
X64835000Y-95827064D02*
X64835000Y-95372936D01*
%TO.C,C23*%
X94276248Y-93315000D02*
X94798752Y-93315000D01*
X94276248Y-94785000D02*
X94798752Y-94785000D01*
%TO.C,FB1*%
X48337221Y-86390000D02*
X48662779Y-86390000D01*
X48337221Y-87410000D02*
X48662779Y-87410000D01*
%TO.C,R41*%
X90167064Y-73665000D02*
X89712936Y-73665000D01*
X90167064Y-75135000D02*
X89712936Y-75135000D01*
%TO.C,C9*%
X63961252Y-85565000D02*
X63438748Y-85565000D01*
X63961252Y-87035000D02*
X63438748Y-87035000D01*
%TO.C,R27*%
X40252500Y-97872936D02*
X40252500Y-98327064D01*
X41722500Y-97872936D02*
X41722500Y-98327064D01*
%TO.C,U3*%
X53640000Y-80900000D02*
X53640000Y-80100000D01*
X53640000Y-80900000D02*
X53640000Y-81700000D01*
X56760000Y-80900000D02*
X56760000Y-80100000D01*
X56760000Y-80900000D02*
X56760000Y-81700000D01*
X53690000Y-82200000D02*
X53360000Y-82440000D01*
X53360000Y-81960000D01*
X53690000Y-82200000D01*
G36*
X53690000Y-82200000D02*
G01*
X53360000Y-82440000D01*
X53360000Y-81960000D01*
X53690000Y-82200000D01*
G37*
%TO.C,R32*%
X43947936Y-98865000D02*
X44402064Y-98865000D01*
X43947936Y-100335000D02*
X44402064Y-100335000D01*
%TO.C,R36*%
X89602500Y-86822936D02*
X89602500Y-87277064D01*
X91072500Y-86822936D02*
X91072500Y-87277064D01*
%TO.C,Q7*%
X94362500Y-101640000D02*
X93712500Y-101640000D01*
X94362500Y-101640000D02*
X95012500Y-101640000D01*
X94362500Y-104760000D02*
X93712500Y-104760000D01*
X94362500Y-104760000D02*
X95012500Y-104760000D01*
X93200000Y-101690000D02*
X92960000Y-101360000D01*
X93440000Y-101360000D01*
X93200000Y-101690000D01*
G36*
X93200000Y-101690000D02*
G01*
X92960000Y-101360000D01*
X93440000Y-101360000D01*
X93200000Y-101690000D01*
G37*
%TO.C,R1*%
X76160436Y-107565000D02*
X76614564Y-107565000D01*
X76160436Y-109035000D02*
X76614564Y-109035000D01*
%TO.C,R33*%
X98610436Y-85415000D02*
X99064564Y-85415000D01*
X98610436Y-86885000D02*
X99064564Y-86885000D01*
%TO.C,C16*%
X57565000Y-80338748D02*
X57565000Y-80861252D01*
X59035000Y-80338748D02*
X59035000Y-80861252D01*
%TO.C,D2*%
X78702500Y-105340000D02*
X78702500Y-107260000D01*
X78702500Y-107260000D02*
X81387500Y-107260000D01*
X81387500Y-105340000D02*
X78702500Y-105340000D01*
%TO.C,R3*%
X76160436Y-103565000D02*
X76614564Y-103565000D01*
X76160436Y-105035000D02*
X76614564Y-105035000D01*
%TO.C,R9*%
X73227064Y-98865000D02*
X72772936Y-98865000D01*
X73227064Y-100335000D02*
X72772936Y-100335000D01*
%TO.C,D1*%
X78702500Y-107340000D02*
X78702500Y-109260000D01*
X78702500Y-109260000D02*
X81387500Y-109260000D01*
X81387500Y-107340000D02*
X78702500Y-107340000D01*
%TO.C,C15*%
X47265000Y-70061252D02*
X47265000Y-69538748D01*
X48735000Y-70061252D02*
X48735000Y-69538748D01*
%TO.C,C21*%
X42938748Y-72565000D02*
X43461252Y-72565000D01*
X42938748Y-74035000D02*
X43461252Y-74035000D01*
%TO.C,R14*%
X83027064Y-97465000D02*
X82572936Y-97465000D01*
X83027064Y-98935000D02*
X82572936Y-98935000D01*
%TO.C,R8*%
X69327064Y-97765000D02*
X68872936Y-97765000D01*
X69327064Y-99235000D02*
X68872936Y-99235000D01*
%TO.C,Y1*%
X57663746Y-90241904D02*
X60366949Y-92134706D01*
X60366949Y-92134706D02*
X62661254Y-88858096D01*
%TO.C,U1*%
X67390000Y-86390000D02*
X67390000Y-86840000D01*
X67390000Y-93610000D02*
X67390000Y-93160000D01*
X67840000Y-86390000D02*
X67390000Y-86390000D01*
X67840000Y-93610000D02*
X67390000Y-93610000D01*
X74160000Y-86390000D02*
X74610000Y-86390000D01*
X74160000Y-93610000D02*
X74610000Y-93610000D01*
X74610000Y-86390000D02*
X74610000Y-86840000D01*
X74610000Y-93610000D02*
X74610000Y-93160000D01*
X66800000Y-86840000D02*
X66460000Y-86370000D01*
X67140000Y-86370000D01*
X66800000Y-86840000D01*
G36*
X66800000Y-86840000D02*
G01*
X66460000Y-86370000D01*
X67140000Y-86370000D01*
X66800000Y-86840000D01*
G37*
%TO.C,C10*%
X61911252Y-77490000D02*
X61388748Y-77490000D01*
X61911252Y-78960000D02*
X61388748Y-78960000D01*
%TO.C,R44*%
X90465000Y-99727064D02*
X90465000Y-99272936D01*
X91935000Y-99727064D02*
X91935000Y-99272936D01*
%TO.C,R19*%
X63365000Y-99527064D02*
X63365000Y-99072936D01*
X64835000Y-99527064D02*
X64835000Y-99072936D01*
%TO.C,Q5*%
X98537500Y-97940000D02*
X97887500Y-97940000D01*
X98537500Y-97940000D02*
X99187500Y-97940000D01*
X98537500Y-101060000D02*
X97887500Y-101060000D01*
X98537500Y-101060000D02*
X99187500Y-101060000D01*
X99940000Y-101340000D02*
X99460000Y-101340000D01*
X99700000Y-101010000D01*
X99940000Y-101340000D01*
G36*
X99940000Y-101340000D02*
G01*
X99460000Y-101340000D01*
X99700000Y-101010000D01*
X99940000Y-101340000D01*
G37*
%TO.C,R15*%
X83027064Y-95465000D02*
X82572936Y-95465000D01*
X83027064Y-96935000D02*
X82572936Y-96935000D01*
%TO.C,R20*%
X72972936Y-77490000D02*
X73427064Y-77490000D01*
X72972936Y-78960000D02*
X73427064Y-78960000D01*
%TO.C,R24*%
X63865000Y-74897936D02*
X63865000Y-75352064D01*
X65335000Y-74897936D02*
X65335000Y-75352064D01*
%TO.C,C19*%
X48801248Y-76440000D02*
X50223752Y-76440000D01*
X48801248Y-78260000D02*
X50223752Y-78260000D01*
%TO.C,R34*%
X94310436Y-85415000D02*
X94764564Y-85415000D01*
X94310436Y-86885000D02*
X94764564Y-86885000D01*
%TO.C,C6*%
X65036252Y-83190000D02*
X63613748Y-83190000D01*
X65036252Y-85010000D02*
X63613748Y-85010000D01*
%TO.C,R43*%
X90465000Y-102972936D02*
X90465000Y-103427064D01*
X91935000Y-102972936D02*
X91935000Y-103427064D01*
%TO.C,Q1*%
X75440000Y-75325000D02*
X75440000Y-74675000D01*
X75440000Y-75325000D02*
X75440000Y-75975000D01*
X78560000Y-75325000D02*
X78560000Y-74675000D01*
X78560000Y-75325000D02*
X78560000Y-75975000D01*
X75490000Y-76487500D02*
X75160000Y-76727500D01*
X75160000Y-76247500D01*
X75490000Y-76487500D01*
G36*
X75490000Y-76487500D02*
G01*
X75160000Y-76727500D01*
X75160000Y-76247500D01*
X75490000Y-76487500D01*
G37*
%TO.C,C2*%
X57164099Y-87772632D02*
X57325366Y-87542320D01*
X57999634Y-88357680D02*
X58160901Y-88127368D01*
%TO.C,R11*%
X82572936Y-93465000D02*
X83027064Y-93465000D01*
X82572936Y-94935000D02*
X83027064Y-94935000D01*
%TO.C,J6*%
X103870000Y-81095000D02*
X105200000Y-81095000D01*
X103870000Y-82425000D02*
X103870000Y-81095000D01*
X103870000Y-83695000D02*
X103870000Y-101535000D01*
X103870000Y-83695000D02*
X106530000Y-83695000D01*
X103870000Y-101535000D02*
X106530000Y-101535000D01*
X106530000Y-83695000D02*
X106530000Y-101535000D01*
%TO.C,R26*%
X42365000Y-81572936D02*
X42365000Y-82027064D01*
X43835000Y-81572936D02*
X43835000Y-82027064D01*
%TO.C,C20*%
X44465000Y-81538748D02*
X44465000Y-82061252D01*
X45935000Y-81538748D02*
X45935000Y-82061252D01*
%TO.C,J5*%
X85170000Y-81195000D02*
X86500000Y-81195000D01*
X85170000Y-82525000D02*
X85170000Y-81195000D01*
X85170000Y-83795000D02*
X85170000Y-101635000D01*
X85170000Y-83795000D02*
X87830000Y-83795000D01*
X85170000Y-101635000D02*
X87830000Y-101635000D01*
X87830000Y-83795000D02*
X87830000Y-101635000D01*
%TO.C,C14*%
X48801248Y-83540000D02*
X50223752Y-83540000D01*
X48801248Y-85360000D02*
X50223752Y-85360000D01*
%TO.C,C13*%
X55088748Y-83590000D02*
X56511252Y-83590000D01*
X55088748Y-85410000D02*
X56511252Y-85410000D01*
%TO.C,Q4*%
X48225000Y-96540000D02*
X47575000Y-96540000D01*
X48225000Y-96540000D02*
X48875000Y-96540000D01*
X48225000Y-99660000D02*
X47575000Y-99660000D01*
X48225000Y-99660000D02*
X48875000Y-99660000D01*
X49627500Y-99940000D02*
X49147500Y-99940000D01*
X49387500Y-99610000D01*
X49627500Y-99940000D01*
G36*
X49627500Y-99940000D02*
G01*
X49147500Y-99940000D01*
X49387500Y-99610000D01*
X49627500Y-99940000D01*
G37*
%TO.C,R25*%
X40265000Y-81572936D02*
X40265000Y-82027064D01*
X41735000Y-81572936D02*
X41735000Y-82027064D01*
%TO.C,D7*%
X65640000Y-74125000D02*
X65640000Y-76810000D01*
X65640000Y-76810000D02*
X67560000Y-76810000D01*
X67560000Y-76810000D02*
X67560000Y-74125000D01*
%TO.C,R13*%
X82572936Y-89465000D02*
X83027064Y-89465000D01*
X82572936Y-90935000D02*
X83027064Y-90935000D01*
%TO.C,R5*%
X76727064Y-80965000D02*
X76272936Y-80965000D01*
X76727064Y-82435000D02*
X76272936Y-82435000D01*
%TO.C,R37*%
X98572936Y-95865000D02*
X99027064Y-95865000D01*
X98572936Y-97335000D02*
X99027064Y-97335000D01*
%TO.C,C17*%
X51277500Y-80388748D02*
X51277500Y-80911252D01*
X52747500Y-80388748D02*
X52747500Y-80911252D01*
%TO.C,U2*%
X51850000Y-68290000D02*
X55610000Y-68290000D01*
X51850000Y-75110000D02*
X55610000Y-75110000D01*
X55610000Y-68290000D02*
X55610000Y-69550000D01*
X55610000Y-75110000D02*
X55610000Y-73850000D01*
X50570000Y-68390000D02*
X50330000Y-68060000D01*
X50810000Y-68060000D01*
X50570000Y-68390000D01*
G36*
X50570000Y-68390000D02*
G01*
X50330000Y-68060000D01*
X50810000Y-68060000D01*
X50570000Y-68390000D01*
G37*
%TO.C,R16*%
X52572936Y-88365000D02*
X53027064Y-88365000D01*
X52572936Y-89835000D02*
X53027064Y-89835000D01*
%TO.C,R35*%
X89602500Y-90822936D02*
X89602500Y-91277064D01*
X91072500Y-90822936D02*
X91072500Y-91277064D01*
%TD*%
M02*
