%TF.GenerationSoftware,KiCad,Pcbnew,8.0.4*%
%TF.CreationDate,2024-07-27T17:20:27+08:00*%
%TF.ProjectId,DapLink_STM32F103CBT6,4461704c-696e-46b5-9f53-544d33324631,rev?*%
%TF.SameCoordinates,Original*%
%TF.FileFunction,Legend,Bot*%
%TF.FilePolarity,Positive*%
%FSLAX46Y46*%
G04 Gerber Fmt 4.6, Leading zero omitted, Abs format (unit mm)*
G04 Created by KiCad (PCBNEW 8.0.4) date 2024-07-27 17:20:27*
%MOMM*%
%LPD*%
G01*
G04 APERTURE LIST*
%ADD10C,0.300000*%
G04 APERTURE END LIST*
D10*
X90636770Y-73568796D02*
X90636770Y-72854510D01*
X90636770Y-72854510D02*
X89036770Y-72854510D01*
X90636770Y-74068796D02*
X89036770Y-74068796D01*
X89036770Y-74068796D02*
X89036770Y-74425939D01*
X89036770Y-74425939D02*
X89112960Y-74640225D01*
X89112960Y-74640225D02*
X89265341Y-74783082D01*
X89265341Y-74783082D02*
X89417722Y-74854511D01*
X89417722Y-74854511D02*
X89722484Y-74925939D01*
X89722484Y-74925939D02*
X89951056Y-74925939D01*
X89951056Y-74925939D02*
X90255818Y-74854511D01*
X90255818Y-74854511D02*
X90408199Y-74783082D01*
X90408199Y-74783082D02*
X90560580Y-74640225D01*
X90560580Y-74640225D02*
X90636770Y-74425939D01*
X90636770Y-74425939D02*
X90636770Y-74068796D01*
X89036770Y-75854511D02*
X89036770Y-76140225D01*
X89036770Y-76140225D02*
X89112960Y-76283082D01*
X89112960Y-76283082D02*
X89265341Y-76425939D01*
X89265341Y-76425939D02*
X89570103Y-76497368D01*
X89570103Y-76497368D02*
X90103437Y-76497368D01*
X90103437Y-76497368D02*
X90408199Y-76425939D01*
X90408199Y-76425939D02*
X90560580Y-76283082D01*
X90560580Y-76283082D02*
X90636770Y-76140225D01*
X90636770Y-76140225D02*
X90636770Y-75854511D01*
X90636770Y-75854511D02*
X90560580Y-75711654D01*
X90560580Y-75711654D02*
X90408199Y-75568796D01*
X90408199Y-75568796D02*
X90103437Y-75497368D01*
X90103437Y-75497368D02*
X89570103Y-75497368D01*
X89570103Y-75497368D02*
X89265341Y-75568796D01*
X89265341Y-75568796D02*
X89112960Y-75711654D01*
X89112960Y-75711654D02*
X89036770Y-75854511D01*
X93212680Y-73640225D02*
X93212680Y-72783082D01*
X93212680Y-73211653D02*
X91612680Y-73211653D01*
X91612680Y-73211653D02*
X91841251Y-73068796D01*
X91841251Y-73068796D02*
X91993632Y-72925939D01*
X91993632Y-72925939D02*
X92069823Y-72783082D01*
X93060299Y-74283081D02*
X93136490Y-74354510D01*
X93136490Y-74354510D02*
X93212680Y-74283081D01*
X93212680Y-74283081D02*
X93136490Y-74211653D01*
X93136490Y-74211653D02*
X93060299Y-74283081D01*
X93060299Y-74283081D02*
X93212680Y-74283081D01*
X92298394Y-75211653D02*
X92222204Y-75068796D01*
X92222204Y-75068796D02*
X92146013Y-74997367D01*
X92146013Y-74997367D02*
X91993632Y-74925939D01*
X91993632Y-74925939D02*
X91917442Y-74925939D01*
X91917442Y-74925939D02*
X91765061Y-74997367D01*
X91765061Y-74997367D02*
X91688870Y-75068796D01*
X91688870Y-75068796D02*
X91612680Y-75211653D01*
X91612680Y-75211653D02*
X91612680Y-75497367D01*
X91612680Y-75497367D02*
X91688870Y-75640225D01*
X91688870Y-75640225D02*
X91765061Y-75711653D01*
X91765061Y-75711653D02*
X91917442Y-75783082D01*
X91917442Y-75783082D02*
X91993632Y-75783082D01*
X91993632Y-75783082D02*
X92146013Y-75711653D01*
X92146013Y-75711653D02*
X92222204Y-75640225D01*
X92222204Y-75640225D02*
X92298394Y-75497367D01*
X92298394Y-75497367D02*
X92298394Y-75211653D01*
X92298394Y-75211653D02*
X92374585Y-75068796D01*
X92374585Y-75068796D02*
X92450775Y-74997367D01*
X92450775Y-74997367D02*
X92603156Y-74925939D01*
X92603156Y-74925939D02*
X92907918Y-74925939D01*
X92907918Y-74925939D02*
X93060299Y-74997367D01*
X93060299Y-74997367D02*
X93136490Y-75068796D01*
X93136490Y-75068796D02*
X93212680Y-75211653D01*
X93212680Y-75211653D02*
X93212680Y-75497367D01*
X93212680Y-75497367D02*
X93136490Y-75640225D01*
X93136490Y-75640225D02*
X93060299Y-75711653D01*
X93060299Y-75711653D02*
X92907918Y-75783082D01*
X92907918Y-75783082D02*
X92603156Y-75783082D01*
X92603156Y-75783082D02*
X92450775Y-75711653D01*
X92450775Y-75711653D02*
X92374585Y-75640225D01*
X92374585Y-75640225D02*
X92298394Y-75497367D01*
X91612680Y-76211653D02*
X93212680Y-76711653D01*
X93212680Y-76711653D02*
X91612680Y-77211653D01*
X94188590Y-72640225D02*
X94188590Y-73497368D01*
X95788590Y-73068796D02*
X94188590Y-73068796D01*
X95331447Y-73925939D02*
X95331447Y-74640225D01*
X95788590Y-73783082D02*
X94188590Y-74283082D01*
X94188590Y-74283082D02*
X95788590Y-74783082D01*
X95788590Y-76140224D02*
X95026685Y-75640224D01*
X95788590Y-75283081D02*
X94188590Y-75283081D01*
X94188590Y-75283081D02*
X94188590Y-75854510D01*
X94188590Y-75854510D02*
X94264780Y-75997367D01*
X94264780Y-75997367D02*
X94340971Y-76068796D01*
X94340971Y-76068796D02*
X94493352Y-76140224D01*
X94493352Y-76140224D02*
X94721923Y-76140224D01*
X94721923Y-76140224D02*
X94874304Y-76068796D01*
X94874304Y-76068796D02*
X94950495Y-75997367D01*
X94950495Y-75997367D02*
X95026685Y-75854510D01*
X95026685Y-75854510D02*
X95026685Y-75283081D01*
X94264780Y-77568796D02*
X94188590Y-77425939D01*
X94188590Y-77425939D02*
X94188590Y-77211653D01*
X94188590Y-77211653D02*
X94264780Y-76997367D01*
X94264780Y-76997367D02*
X94417161Y-76854510D01*
X94417161Y-76854510D02*
X94569542Y-76783081D01*
X94569542Y-76783081D02*
X94874304Y-76711653D01*
X94874304Y-76711653D02*
X95102876Y-76711653D01*
X95102876Y-76711653D02*
X95407638Y-76783081D01*
X95407638Y-76783081D02*
X95560019Y-76854510D01*
X95560019Y-76854510D02*
X95712400Y-76997367D01*
X95712400Y-76997367D02*
X95788590Y-77211653D01*
X95788590Y-77211653D02*
X95788590Y-77354510D01*
X95788590Y-77354510D02*
X95712400Y-77568796D01*
X95712400Y-77568796D02*
X95636209Y-77640224D01*
X95636209Y-77640224D02*
X95102876Y-77640224D01*
X95102876Y-77640224D02*
X95102876Y-77354510D01*
X94950495Y-78283081D02*
X94950495Y-78783081D01*
X95788590Y-78997367D02*
X95788590Y-78283081D01*
X95788590Y-78283081D02*
X94188590Y-78283081D01*
X94188590Y-78283081D02*
X94188590Y-78997367D01*
X94188590Y-79425939D02*
X94188590Y-80283082D01*
X95788590Y-79854510D02*
X94188590Y-79854510D01*
X102559774Y-83257220D02*
X103416917Y-83257220D01*
X102988346Y-83257220D02*
X102988346Y-81657220D01*
X102988346Y-81657220D02*
X103131203Y-81885791D01*
X103131203Y-81885791D02*
X103274060Y-82038172D01*
X103274060Y-82038172D02*
X103416917Y-82114363D01*
X101916918Y-83104839D02*
X101845489Y-83181030D01*
X101845489Y-83181030D02*
X101916918Y-83257220D01*
X101916918Y-83257220D02*
X101988346Y-83181030D01*
X101988346Y-83181030D02*
X101916918Y-83104839D01*
X101916918Y-83104839D02*
X101916918Y-83257220D01*
X100988346Y-82342934D02*
X101131203Y-82266744D01*
X101131203Y-82266744D02*
X101202632Y-82190553D01*
X101202632Y-82190553D02*
X101274060Y-82038172D01*
X101274060Y-82038172D02*
X101274060Y-81961982D01*
X101274060Y-81961982D02*
X101202632Y-81809601D01*
X101202632Y-81809601D02*
X101131203Y-81733410D01*
X101131203Y-81733410D02*
X100988346Y-81657220D01*
X100988346Y-81657220D02*
X100702632Y-81657220D01*
X100702632Y-81657220D02*
X100559775Y-81733410D01*
X100559775Y-81733410D02*
X100488346Y-81809601D01*
X100488346Y-81809601D02*
X100416917Y-81961982D01*
X100416917Y-81961982D02*
X100416917Y-82038172D01*
X100416917Y-82038172D02*
X100488346Y-82190553D01*
X100488346Y-82190553D02*
X100559775Y-82266744D01*
X100559775Y-82266744D02*
X100702632Y-82342934D01*
X100702632Y-82342934D02*
X100988346Y-82342934D01*
X100988346Y-82342934D02*
X101131203Y-82419125D01*
X101131203Y-82419125D02*
X101202632Y-82495315D01*
X101202632Y-82495315D02*
X101274060Y-82647696D01*
X101274060Y-82647696D02*
X101274060Y-82952458D01*
X101274060Y-82952458D02*
X101202632Y-83104839D01*
X101202632Y-83104839D02*
X101131203Y-83181030D01*
X101131203Y-83181030D02*
X100988346Y-83257220D01*
X100988346Y-83257220D02*
X100702632Y-83257220D01*
X100702632Y-83257220D02*
X100559775Y-83181030D01*
X100559775Y-83181030D02*
X100488346Y-83104839D01*
X100488346Y-83104839D02*
X100416917Y-82952458D01*
X100416917Y-82952458D02*
X100416917Y-82647696D01*
X100416917Y-82647696D02*
X100488346Y-82495315D01*
X100488346Y-82495315D02*
X100559775Y-82419125D01*
X100559775Y-82419125D02*
X100702632Y-82342934D01*
X99988346Y-81657220D02*
X99488346Y-83257220D01*
X99488346Y-83257220D02*
X98988346Y-81657220D01*
X102559774Y-84309320D02*
X102702632Y-84233130D01*
X102702632Y-84233130D02*
X102916917Y-84233130D01*
X102916917Y-84233130D02*
X103131203Y-84309320D01*
X103131203Y-84309320D02*
X103274060Y-84461701D01*
X103274060Y-84461701D02*
X103345489Y-84614082D01*
X103345489Y-84614082D02*
X103416917Y-84918844D01*
X103416917Y-84918844D02*
X103416917Y-85147416D01*
X103416917Y-85147416D02*
X103345489Y-85452178D01*
X103345489Y-85452178D02*
X103274060Y-85604559D01*
X103274060Y-85604559D02*
X103131203Y-85756940D01*
X103131203Y-85756940D02*
X102916917Y-85833130D01*
X102916917Y-85833130D02*
X102774060Y-85833130D01*
X102774060Y-85833130D02*
X102559774Y-85756940D01*
X102559774Y-85756940D02*
X102488346Y-85680749D01*
X102488346Y-85680749D02*
X102488346Y-85147416D01*
X102488346Y-85147416D02*
X102774060Y-85147416D01*
X101845489Y-85833130D02*
X101845489Y-84233130D01*
X101845489Y-84233130D02*
X100988346Y-85833130D01*
X100988346Y-85833130D02*
X100988346Y-84233130D01*
X100274060Y-85833130D02*
X100274060Y-84233130D01*
X100274060Y-84233130D02*
X99916917Y-84233130D01*
X99916917Y-84233130D02*
X99702631Y-84309320D01*
X99702631Y-84309320D02*
X99559774Y-84461701D01*
X99559774Y-84461701D02*
X99488345Y-84614082D01*
X99488345Y-84614082D02*
X99416917Y-84918844D01*
X99416917Y-84918844D02*
X99416917Y-85147416D01*
X99416917Y-85147416D02*
X99488345Y-85452178D01*
X99488345Y-85452178D02*
X99559774Y-85604559D01*
X99559774Y-85604559D02*
X99702631Y-85756940D01*
X99702631Y-85756940D02*
X99916917Y-85833130D01*
X99916917Y-85833130D02*
X100274060Y-85833130D01*
X102559774Y-88409040D02*
X103416917Y-88409040D01*
X102988346Y-88409040D02*
X102988346Y-86809040D01*
X102988346Y-86809040D02*
X103131203Y-87037611D01*
X103131203Y-87037611D02*
X103274060Y-87189992D01*
X103274060Y-87189992D02*
X103416917Y-87266183D01*
X102131203Y-86809040D02*
X101631203Y-88409040D01*
X101631203Y-88409040D02*
X101131203Y-86809040D01*
X100416918Y-87494754D02*
X100559775Y-87418564D01*
X100559775Y-87418564D02*
X100631204Y-87342373D01*
X100631204Y-87342373D02*
X100702632Y-87189992D01*
X100702632Y-87189992D02*
X100702632Y-87113802D01*
X100702632Y-87113802D02*
X100631204Y-86961421D01*
X100631204Y-86961421D02*
X100559775Y-86885230D01*
X100559775Y-86885230D02*
X100416918Y-86809040D01*
X100416918Y-86809040D02*
X100131204Y-86809040D01*
X100131204Y-86809040D02*
X99988347Y-86885230D01*
X99988347Y-86885230D02*
X99916918Y-86961421D01*
X99916918Y-86961421D02*
X99845489Y-87113802D01*
X99845489Y-87113802D02*
X99845489Y-87189992D01*
X99845489Y-87189992D02*
X99916918Y-87342373D01*
X99916918Y-87342373D02*
X99988347Y-87418564D01*
X99988347Y-87418564D02*
X100131204Y-87494754D01*
X100131204Y-87494754D02*
X100416918Y-87494754D01*
X100416918Y-87494754D02*
X100559775Y-87570945D01*
X100559775Y-87570945D02*
X100631204Y-87647135D01*
X100631204Y-87647135D02*
X100702632Y-87799516D01*
X100702632Y-87799516D02*
X100702632Y-88104278D01*
X100702632Y-88104278D02*
X100631204Y-88256659D01*
X100631204Y-88256659D02*
X100559775Y-88332850D01*
X100559775Y-88332850D02*
X100416918Y-88409040D01*
X100416918Y-88409040D02*
X100131204Y-88409040D01*
X100131204Y-88409040D02*
X99988347Y-88332850D01*
X99988347Y-88332850D02*
X99916918Y-88256659D01*
X99916918Y-88256659D02*
X99845489Y-88104278D01*
X99845489Y-88104278D02*
X99845489Y-87799516D01*
X99845489Y-87799516D02*
X99916918Y-87647135D01*
X99916918Y-87647135D02*
X99988347Y-87570945D01*
X99988347Y-87570945D02*
X100131204Y-87494754D01*
X99559776Y-88561421D02*
X98416918Y-88561421D01*
X98131204Y-88332850D02*
X97916919Y-88409040D01*
X97916919Y-88409040D02*
X97559776Y-88409040D01*
X97559776Y-88409040D02*
X97416919Y-88332850D01*
X97416919Y-88332850D02*
X97345490Y-88256659D01*
X97345490Y-88256659D02*
X97274061Y-88104278D01*
X97274061Y-88104278D02*
X97274061Y-87951897D01*
X97274061Y-87951897D02*
X97345490Y-87799516D01*
X97345490Y-87799516D02*
X97416919Y-87723326D01*
X97416919Y-87723326D02*
X97559776Y-87647135D01*
X97559776Y-87647135D02*
X97845490Y-87570945D01*
X97845490Y-87570945D02*
X97988347Y-87494754D01*
X97988347Y-87494754D02*
X98059776Y-87418564D01*
X98059776Y-87418564D02*
X98131204Y-87266183D01*
X98131204Y-87266183D02*
X98131204Y-87113802D01*
X98131204Y-87113802D02*
X98059776Y-86961421D01*
X98059776Y-86961421D02*
X97988347Y-86885230D01*
X97988347Y-86885230D02*
X97845490Y-86809040D01*
X97845490Y-86809040D02*
X97488347Y-86809040D01*
X97488347Y-86809040D02*
X97274061Y-86885230D01*
X96774062Y-86809040D02*
X96416919Y-88409040D01*
X96416919Y-88409040D02*
X96131205Y-87266183D01*
X96131205Y-87266183D02*
X95845490Y-88409040D01*
X95845490Y-88409040D02*
X95488348Y-86809040D01*
X94059776Y-88256659D02*
X94131204Y-88332850D01*
X94131204Y-88332850D02*
X94345490Y-88409040D01*
X94345490Y-88409040D02*
X94488347Y-88409040D01*
X94488347Y-88409040D02*
X94702633Y-88332850D01*
X94702633Y-88332850D02*
X94845490Y-88180469D01*
X94845490Y-88180469D02*
X94916919Y-88028088D01*
X94916919Y-88028088D02*
X94988347Y-87723326D01*
X94988347Y-87723326D02*
X94988347Y-87494754D01*
X94988347Y-87494754D02*
X94916919Y-87189992D01*
X94916919Y-87189992D02*
X94845490Y-87037611D01*
X94845490Y-87037611D02*
X94702633Y-86885230D01*
X94702633Y-86885230D02*
X94488347Y-86809040D01*
X94488347Y-86809040D02*
X94345490Y-86809040D01*
X94345490Y-86809040D02*
X94131204Y-86885230D01*
X94131204Y-86885230D02*
X94059776Y-86961421D01*
X92702633Y-88409040D02*
X93416919Y-88409040D01*
X93416919Y-88409040D02*
X93416919Y-86809040D01*
X92202633Y-88409040D02*
X92202633Y-86809040D01*
X91345490Y-88409040D02*
X91988347Y-87494754D01*
X91345490Y-86809040D02*
X92202633Y-87723326D01*
X102559774Y-90984950D02*
X103416917Y-90984950D01*
X102988346Y-90984950D02*
X102988346Y-89384950D01*
X102988346Y-89384950D02*
X103131203Y-89613521D01*
X103131203Y-89613521D02*
X103274060Y-89765902D01*
X103274060Y-89765902D02*
X103416917Y-89842093D01*
X102131203Y-89384950D02*
X101631203Y-90984950D01*
X101631203Y-90984950D02*
X101131203Y-89384950D01*
X100416918Y-90070664D02*
X100559775Y-89994474D01*
X100559775Y-89994474D02*
X100631204Y-89918283D01*
X100631204Y-89918283D02*
X100702632Y-89765902D01*
X100702632Y-89765902D02*
X100702632Y-89689712D01*
X100702632Y-89689712D02*
X100631204Y-89537331D01*
X100631204Y-89537331D02*
X100559775Y-89461140D01*
X100559775Y-89461140D02*
X100416918Y-89384950D01*
X100416918Y-89384950D02*
X100131204Y-89384950D01*
X100131204Y-89384950D02*
X99988347Y-89461140D01*
X99988347Y-89461140D02*
X99916918Y-89537331D01*
X99916918Y-89537331D02*
X99845489Y-89689712D01*
X99845489Y-89689712D02*
X99845489Y-89765902D01*
X99845489Y-89765902D02*
X99916918Y-89918283D01*
X99916918Y-89918283D02*
X99988347Y-89994474D01*
X99988347Y-89994474D02*
X100131204Y-90070664D01*
X100131204Y-90070664D02*
X100416918Y-90070664D01*
X100416918Y-90070664D02*
X100559775Y-90146855D01*
X100559775Y-90146855D02*
X100631204Y-90223045D01*
X100631204Y-90223045D02*
X100702632Y-90375426D01*
X100702632Y-90375426D02*
X100702632Y-90680188D01*
X100702632Y-90680188D02*
X100631204Y-90832569D01*
X100631204Y-90832569D02*
X100559775Y-90908760D01*
X100559775Y-90908760D02*
X100416918Y-90984950D01*
X100416918Y-90984950D02*
X100131204Y-90984950D01*
X100131204Y-90984950D02*
X99988347Y-90908760D01*
X99988347Y-90908760D02*
X99916918Y-90832569D01*
X99916918Y-90832569D02*
X99845489Y-90680188D01*
X99845489Y-90680188D02*
X99845489Y-90375426D01*
X99845489Y-90375426D02*
X99916918Y-90223045D01*
X99916918Y-90223045D02*
X99988347Y-90146855D01*
X99988347Y-90146855D02*
X100131204Y-90070664D01*
X99559776Y-91137331D02*
X98416918Y-91137331D01*
X98131204Y-90908760D02*
X97916919Y-90984950D01*
X97916919Y-90984950D02*
X97559776Y-90984950D01*
X97559776Y-90984950D02*
X97416919Y-90908760D01*
X97416919Y-90908760D02*
X97345490Y-90832569D01*
X97345490Y-90832569D02*
X97274061Y-90680188D01*
X97274061Y-90680188D02*
X97274061Y-90527807D01*
X97274061Y-90527807D02*
X97345490Y-90375426D01*
X97345490Y-90375426D02*
X97416919Y-90299236D01*
X97416919Y-90299236D02*
X97559776Y-90223045D01*
X97559776Y-90223045D02*
X97845490Y-90146855D01*
X97845490Y-90146855D02*
X97988347Y-90070664D01*
X97988347Y-90070664D02*
X98059776Y-89994474D01*
X98059776Y-89994474D02*
X98131204Y-89842093D01*
X98131204Y-89842093D02*
X98131204Y-89689712D01*
X98131204Y-89689712D02*
X98059776Y-89537331D01*
X98059776Y-89537331D02*
X97988347Y-89461140D01*
X97988347Y-89461140D02*
X97845490Y-89384950D01*
X97845490Y-89384950D02*
X97488347Y-89384950D01*
X97488347Y-89384950D02*
X97274061Y-89461140D01*
X96774062Y-89384950D02*
X96416919Y-90984950D01*
X96416919Y-90984950D02*
X96131205Y-89842093D01*
X96131205Y-89842093D02*
X95845490Y-90984950D01*
X95845490Y-90984950D02*
X95488348Y-89384950D01*
X94916919Y-90984950D02*
X94916919Y-89384950D01*
X94916919Y-89384950D02*
X94559776Y-89384950D01*
X94559776Y-89384950D02*
X94345490Y-89461140D01*
X94345490Y-89461140D02*
X94202633Y-89613521D01*
X94202633Y-89613521D02*
X94131204Y-89765902D01*
X94131204Y-89765902D02*
X94059776Y-90070664D01*
X94059776Y-90070664D02*
X94059776Y-90299236D01*
X94059776Y-90299236D02*
X94131204Y-90603998D01*
X94131204Y-90603998D02*
X94202633Y-90756379D01*
X94202633Y-90756379D02*
X94345490Y-90908760D01*
X94345490Y-90908760D02*
X94559776Y-90984950D01*
X94559776Y-90984950D02*
X94916919Y-90984950D01*
X93416919Y-90984950D02*
X93416919Y-89384950D01*
X92416918Y-89384950D02*
X92131204Y-89384950D01*
X92131204Y-89384950D02*
X91988347Y-89461140D01*
X91988347Y-89461140D02*
X91845490Y-89613521D01*
X91845490Y-89613521D02*
X91774061Y-89918283D01*
X91774061Y-89918283D02*
X91774061Y-90451617D01*
X91774061Y-90451617D02*
X91845490Y-90756379D01*
X91845490Y-90756379D02*
X91988347Y-90908760D01*
X91988347Y-90908760D02*
X92131204Y-90984950D01*
X92131204Y-90984950D02*
X92416918Y-90984950D01*
X92416918Y-90984950D02*
X92559776Y-90908760D01*
X92559776Y-90908760D02*
X92702633Y-90756379D01*
X92702633Y-90756379D02*
X92774061Y-90451617D01*
X92774061Y-90451617D02*
X92774061Y-89918283D01*
X92774061Y-89918283D02*
X92702633Y-89613521D01*
X92702633Y-89613521D02*
X92559776Y-89461140D01*
X92559776Y-89461140D02*
X92416918Y-89384950D01*
X102559774Y-93560860D02*
X103416917Y-93560860D01*
X102988346Y-93560860D02*
X102988346Y-91960860D01*
X102988346Y-91960860D02*
X103131203Y-92189431D01*
X103131203Y-92189431D02*
X103274060Y-92341812D01*
X103274060Y-92341812D02*
X103416917Y-92418003D01*
X102131203Y-91960860D02*
X101631203Y-93560860D01*
X101631203Y-93560860D02*
X101131203Y-91960860D01*
X100416918Y-92646574D02*
X100559775Y-92570384D01*
X100559775Y-92570384D02*
X100631204Y-92494193D01*
X100631204Y-92494193D02*
X100702632Y-92341812D01*
X100702632Y-92341812D02*
X100702632Y-92265622D01*
X100702632Y-92265622D02*
X100631204Y-92113241D01*
X100631204Y-92113241D02*
X100559775Y-92037050D01*
X100559775Y-92037050D02*
X100416918Y-91960860D01*
X100416918Y-91960860D02*
X100131204Y-91960860D01*
X100131204Y-91960860D02*
X99988347Y-92037050D01*
X99988347Y-92037050D02*
X99916918Y-92113241D01*
X99916918Y-92113241D02*
X99845489Y-92265622D01*
X99845489Y-92265622D02*
X99845489Y-92341812D01*
X99845489Y-92341812D02*
X99916918Y-92494193D01*
X99916918Y-92494193D02*
X99988347Y-92570384D01*
X99988347Y-92570384D02*
X100131204Y-92646574D01*
X100131204Y-92646574D02*
X100416918Y-92646574D01*
X100416918Y-92646574D02*
X100559775Y-92722765D01*
X100559775Y-92722765D02*
X100631204Y-92798955D01*
X100631204Y-92798955D02*
X100702632Y-92951336D01*
X100702632Y-92951336D02*
X100702632Y-93256098D01*
X100702632Y-93256098D02*
X100631204Y-93408479D01*
X100631204Y-93408479D02*
X100559775Y-93484670D01*
X100559775Y-93484670D02*
X100416918Y-93560860D01*
X100416918Y-93560860D02*
X100131204Y-93560860D01*
X100131204Y-93560860D02*
X99988347Y-93484670D01*
X99988347Y-93484670D02*
X99916918Y-93408479D01*
X99916918Y-93408479D02*
X99845489Y-93256098D01*
X99845489Y-93256098D02*
X99845489Y-92951336D01*
X99845489Y-92951336D02*
X99916918Y-92798955D01*
X99916918Y-92798955D02*
X99988347Y-92722765D01*
X99988347Y-92722765D02*
X100131204Y-92646574D01*
X99559776Y-93713241D02*
X98416918Y-93713241D01*
X98274061Y-91960860D02*
X97416919Y-91960860D01*
X97845490Y-93560860D02*
X97845490Y-91960860D01*
X97059776Y-91960860D02*
X96059776Y-93560860D01*
X96059776Y-91960860D02*
X97059776Y-93560860D01*
X95488348Y-93560860D02*
X95488348Y-91960860D01*
X95488348Y-91960860D02*
X95131205Y-91960860D01*
X95131205Y-91960860D02*
X94916919Y-92037050D01*
X94916919Y-92037050D02*
X94774062Y-92189431D01*
X94774062Y-92189431D02*
X94702633Y-92341812D01*
X94702633Y-92341812D02*
X94631205Y-92646574D01*
X94631205Y-92646574D02*
X94631205Y-92875146D01*
X94631205Y-92875146D02*
X94702633Y-93179908D01*
X94702633Y-93179908D02*
X94774062Y-93332289D01*
X94774062Y-93332289D02*
X94916919Y-93484670D01*
X94916919Y-93484670D02*
X95131205Y-93560860D01*
X95131205Y-93560860D02*
X95488348Y-93560860D01*
X102559774Y-96136770D02*
X103416917Y-96136770D01*
X102988346Y-96136770D02*
X102988346Y-94536770D01*
X102988346Y-94536770D02*
X103131203Y-94765341D01*
X103131203Y-94765341D02*
X103274060Y-94917722D01*
X103274060Y-94917722D02*
X103416917Y-94993913D01*
X102131203Y-94536770D02*
X101631203Y-96136770D01*
X101631203Y-96136770D02*
X101131203Y-94536770D01*
X100416918Y-95222484D02*
X100559775Y-95146294D01*
X100559775Y-95146294D02*
X100631204Y-95070103D01*
X100631204Y-95070103D02*
X100702632Y-94917722D01*
X100702632Y-94917722D02*
X100702632Y-94841532D01*
X100702632Y-94841532D02*
X100631204Y-94689151D01*
X100631204Y-94689151D02*
X100559775Y-94612960D01*
X100559775Y-94612960D02*
X100416918Y-94536770D01*
X100416918Y-94536770D02*
X100131204Y-94536770D01*
X100131204Y-94536770D02*
X99988347Y-94612960D01*
X99988347Y-94612960D02*
X99916918Y-94689151D01*
X99916918Y-94689151D02*
X99845489Y-94841532D01*
X99845489Y-94841532D02*
X99845489Y-94917722D01*
X99845489Y-94917722D02*
X99916918Y-95070103D01*
X99916918Y-95070103D02*
X99988347Y-95146294D01*
X99988347Y-95146294D02*
X100131204Y-95222484D01*
X100131204Y-95222484D02*
X100416918Y-95222484D01*
X100416918Y-95222484D02*
X100559775Y-95298675D01*
X100559775Y-95298675D02*
X100631204Y-95374865D01*
X100631204Y-95374865D02*
X100702632Y-95527246D01*
X100702632Y-95527246D02*
X100702632Y-95832008D01*
X100702632Y-95832008D02*
X100631204Y-95984389D01*
X100631204Y-95984389D02*
X100559775Y-96060580D01*
X100559775Y-96060580D02*
X100416918Y-96136770D01*
X100416918Y-96136770D02*
X100131204Y-96136770D01*
X100131204Y-96136770D02*
X99988347Y-96060580D01*
X99988347Y-96060580D02*
X99916918Y-95984389D01*
X99916918Y-95984389D02*
X99845489Y-95832008D01*
X99845489Y-95832008D02*
X99845489Y-95527246D01*
X99845489Y-95527246D02*
X99916918Y-95374865D01*
X99916918Y-95374865D02*
X99988347Y-95298675D01*
X99988347Y-95298675D02*
X100131204Y-95222484D01*
X99559776Y-96289151D02*
X98416918Y-96289151D01*
X97202633Y-96136770D02*
X97702633Y-95374865D01*
X98059776Y-96136770D02*
X98059776Y-94536770D01*
X98059776Y-94536770D02*
X97488347Y-94536770D01*
X97488347Y-94536770D02*
X97345490Y-94612960D01*
X97345490Y-94612960D02*
X97274061Y-94689151D01*
X97274061Y-94689151D02*
X97202633Y-94841532D01*
X97202633Y-94841532D02*
X97202633Y-95070103D01*
X97202633Y-95070103D02*
X97274061Y-95222484D01*
X97274061Y-95222484D02*
X97345490Y-95298675D01*
X97345490Y-95298675D02*
X97488347Y-95374865D01*
X97488347Y-95374865D02*
X98059776Y-95374865D01*
X96702633Y-94536770D02*
X95702633Y-96136770D01*
X95702633Y-94536770D02*
X96702633Y-96136770D01*
X95131205Y-96136770D02*
X95131205Y-94536770D01*
X95131205Y-94536770D02*
X94774062Y-94536770D01*
X94774062Y-94536770D02*
X94559776Y-94612960D01*
X94559776Y-94612960D02*
X94416919Y-94765341D01*
X94416919Y-94765341D02*
X94345490Y-94917722D01*
X94345490Y-94917722D02*
X94274062Y-95222484D01*
X94274062Y-95222484D02*
X94274062Y-95451056D01*
X94274062Y-95451056D02*
X94345490Y-95755818D01*
X94345490Y-95755818D02*
X94416919Y-95908199D01*
X94416919Y-95908199D02*
X94559776Y-96060580D01*
X94559776Y-96060580D02*
X94774062Y-96136770D01*
X94774062Y-96136770D02*
X95131205Y-96136770D01*
X102559774Y-98712680D02*
X103416917Y-98712680D01*
X102988346Y-98712680D02*
X102988346Y-97112680D01*
X102988346Y-97112680D02*
X103131203Y-97341251D01*
X103131203Y-97341251D02*
X103274060Y-97493632D01*
X103274060Y-97493632D02*
X103416917Y-97569823D01*
X102131203Y-97112680D02*
X101631203Y-98712680D01*
X101631203Y-98712680D02*
X101131203Y-97112680D01*
X100416918Y-97798394D02*
X100559775Y-97722204D01*
X100559775Y-97722204D02*
X100631204Y-97646013D01*
X100631204Y-97646013D02*
X100702632Y-97493632D01*
X100702632Y-97493632D02*
X100702632Y-97417442D01*
X100702632Y-97417442D02*
X100631204Y-97265061D01*
X100631204Y-97265061D02*
X100559775Y-97188870D01*
X100559775Y-97188870D02*
X100416918Y-97112680D01*
X100416918Y-97112680D02*
X100131204Y-97112680D01*
X100131204Y-97112680D02*
X99988347Y-97188870D01*
X99988347Y-97188870D02*
X99916918Y-97265061D01*
X99916918Y-97265061D02*
X99845489Y-97417442D01*
X99845489Y-97417442D02*
X99845489Y-97493632D01*
X99845489Y-97493632D02*
X99916918Y-97646013D01*
X99916918Y-97646013D02*
X99988347Y-97722204D01*
X99988347Y-97722204D02*
X100131204Y-97798394D01*
X100131204Y-97798394D02*
X100416918Y-97798394D01*
X100416918Y-97798394D02*
X100559775Y-97874585D01*
X100559775Y-97874585D02*
X100631204Y-97950775D01*
X100631204Y-97950775D02*
X100702632Y-98103156D01*
X100702632Y-98103156D02*
X100702632Y-98407918D01*
X100702632Y-98407918D02*
X100631204Y-98560299D01*
X100631204Y-98560299D02*
X100559775Y-98636490D01*
X100559775Y-98636490D02*
X100416918Y-98712680D01*
X100416918Y-98712680D02*
X100131204Y-98712680D01*
X100131204Y-98712680D02*
X99988347Y-98636490D01*
X99988347Y-98636490D02*
X99916918Y-98560299D01*
X99916918Y-98560299D02*
X99845489Y-98407918D01*
X99845489Y-98407918D02*
X99845489Y-98103156D01*
X99845489Y-98103156D02*
X99916918Y-97950775D01*
X99916918Y-97950775D02*
X99988347Y-97874585D01*
X99988347Y-97874585D02*
X100131204Y-97798394D01*
X99559776Y-98865061D02*
X98416918Y-98865061D01*
X98131204Y-98636490D02*
X97916919Y-98712680D01*
X97916919Y-98712680D02*
X97559776Y-98712680D01*
X97559776Y-98712680D02*
X97416919Y-98636490D01*
X97416919Y-98636490D02*
X97345490Y-98560299D01*
X97345490Y-98560299D02*
X97274061Y-98407918D01*
X97274061Y-98407918D02*
X97274061Y-98255537D01*
X97274061Y-98255537D02*
X97345490Y-98103156D01*
X97345490Y-98103156D02*
X97416919Y-98026966D01*
X97416919Y-98026966D02*
X97559776Y-97950775D01*
X97559776Y-97950775D02*
X97845490Y-97874585D01*
X97845490Y-97874585D02*
X97988347Y-97798394D01*
X97988347Y-97798394D02*
X98059776Y-97722204D01*
X98059776Y-97722204D02*
X98131204Y-97569823D01*
X98131204Y-97569823D02*
X98131204Y-97417442D01*
X98131204Y-97417442D02*
X98059776Y-97265061D01*
X98059776Y-97265061D02*
X97988347Y-97188870D01*
X97988347Y-97188870D02*
X97845490Y-97112680D01*
X97845490Y-97112680D02*
X97488347Y-97112680D01*
X97488347Y-97112680D02*
X97274061Y-97188870D01*
X96774062Y-97112680D02*
X96416919Y-98712680D01*
X96416919Y-98712680D02*
X96131205Y-97569823D01*
X96131205Y-97569823D02*
X95845490Y-98712680D01*
X95845490Y-98712680D02*
X95488348Y-97112680D01*
X94631204Y-97112680D02*
X94345490Y-97112680D01*
X94345490Y-97112680D02*
X94202633Y-97188870D01*
X94202633Y-97188870D02*
X94059776Y-97341251D01*
X94059776Y-97341251D02*
X93988347Y-97646013D01*
X93988347Y-97646013D02*
X93988347Y-98179347D01*
X93988347Y-98179347D02*
X94059776Y-98484109D01*
X94059776Y-98484109D02*
X94202633Y-98636490D01*
X94202633Y-98636490D02*
X94345490Y-98712680D01*
X94345490Y-98712680D02*
X94631204Y-98712680D01*
X94631204Y-98712680D02*
X94774062Y-98636490D01*
X94774062Y-98636490D02*
X94916919Y-98484109D01*
X94916919Y-98484109D02*
X94988347Y-98179347D01*
X94988347Y-98179347D02*
X94988347Y-97646013D01*
X94988347Y-97646013D02*
X94916919Y-97341251D01*
X94916919Y-97341251D02*
X94774062Y-97188870D01*
X94774062Y-97188870D02*
X94631204Y-97112680D01*
X102559774Y-101288590D02*
X103416917Y-101288590D01*
X102988346Y-101288590D02*
X102988346Y-99688590D01*
X102988346Y-99688590D02*
X103131203Y-99917161D01*
X103131203Y-99917161D02*
X103274060Y-100069542D01*
X103274060Y-100069542D02*
X103416917Y-100145733D01*
X102131203Y-99688590D02*
X101631203Y-101288590D01*
X101631203Y-101288590D02*
X101131203Y-99688590D01*
X100416918Y-100374304D02*
X100559775Y-100298114D01*
X100559775Y-100298114D02*
X100631204Y-100221923D01*
X100631204Y-100221923D02*
X100702632Y-100069542D01*
X100702632Y-100069542D02*
X100702632Y-99993352D01*
X100702632Y-99993352D02*
X100631204Y-99840971D01*
X100631204Y-99840971D02*
X100559775Y-99764780D01*
X100559775Y-99764780D02*
X100416918Y-99688590D01*
X100416918Y-99688590D02*
X100131204Y-99688590D01*
X100131204Y-99688590D02*
X99988347Y-99764780D01*
X99988347Y-99764780D02*
X99916918Y-99840971D01*
X99916918Y-99840971D02*
X99845489Y-99993352D01*
X99845489Y-99993352D02*
X99845489Y-100069542D01*
X99845489Y-100069542D02*
X99916918Y-100221923D01*
X99916918Y-100221923D02*
X99988347Y-100298114D01*
X99988347Y-100298114D02*
X100131204Y-100374304D01*
X100131204Y-100374304D02*
X100416918Y-100374304D01*
X100416918Y-100374304D02*
X100559775Y-100450495D01*
X100559775Y-100450495D02*
X100631204Y-100526685D01*
X100631204Y-100526685D02*
X100702632Y-100679066D01*
X100702632Y-100679066D02*
X100702632Y-100983828D01*
X100702632Y-100983828D02*
X100631204Y-101136209D01*
X100631204Y-101136209D02*
X100559775Y-101212400D01*
X100559775Y-101212400D02*
X100416918Y-101288590D01*
X100416918Y-101288590D02*
X100131204Y-101288590D01*
X100131204Y-101288590D02*
X99988347Y-101212400D01*
X99988347Y-101212400D02*
X99916918Y-101136209D01*
X99916918Y-101136209D02*
X99845489Y-100983828D01*
X99845489Y-100983828D02*
X99845489Y-100679066D01*
X99845489Y-100679066D02*
X99916918Y-100526685D01*
X99916918Y-100526685D02*
X99988347Y-100450495D01*
X99988347Y-100450495D02*
X100131204Y-100374304D01*
X99559776Y-101440971D02*
X98416918Y-101440971D01*
X97202633Y-101288590D02*
X97702633Y-100526685D01*
X98059776Y-101288590D02*
X98059776Y-99688590D01*
X98059776Y-99688590D02*
X97488347Y-99688590D01*
X97488347Y-99688590D02*
X97345490Y-99764780D01*
X97345490Y-99764780D02*
X97274061Y-99840971D01*
X97274061Y-99840971D02*
X97202633Y-99993352D01*
X97202633Y-99993352D02*
X97202633Y-100221923D01*
X97202633Y-100221923D02*
X97274061Y-100374304D01*
X97274061Y-100374304D02*
X97345490Y-100450495D01*
X97345490Y-100450495D02*
X97488347Y-100526685D01*
X97488347Y-100526685D02*
X98059776Y-100526685D01*
X96559776Y-100450495D02*
X96059776Y-100450495D01*
X95845490Y-101288590D02*
X96559776Y-101288590D01*
X96559776Y-101288590D02*
X96559776Y-99688590D01*
X96559776Y-99688590D02*
X95845490Y-99688590D01*
X95274061Y-101212400D02*
X95059776Y-101288590D01*
X95059776Y-101288590D02*
X94702633Y-101288590D01*
X94702633Y-101288590D02*
X94559776Y-101212400D01*
X94559776Y-101212400D02*
X94488347Y-101136209D01*
X94488347Y-101136209D02*
X94416918Y-100983828D01*
X94416918Y-100983828D02*
X94416918Y-100831447D01*
X94416918Y-100831447D02*
X94488347Y-100679066D01*
X94488347Y-100679066D02*
X94559776Y-100602876D01*
X94559776Y-100602876D02*
X94702633Y-100526685D01*
X94702633Y-100526685D02*
X94988347Y-100450495D01*
X94988347Y-100450495D02*
X95131204Y-100374304D01*
X95131204Y-100374304D02*
X95202633Y-100298114D01*
X95202633Y-100298114D02*
X95274061Y-100145733D01*
X95274061Y-100145733D02*
X95274061Y-99993352D01*
X95274061Y-99993352D02*
X95202633Y-99840971D01*
X95202633Y-99840971D02*
X95131204Y-99764780D01*
X95131204Y-99764780D02*
X94988347Y-99688590D01*
X94988347Y-99688590D02*
X94631204Y-99688590D01*
X94631204Y-99688590D02*
X94416918Y-99764780D01*
X93774062Y-100450495D02*
X93274062Y-100450495D01*
X93059776Y-101288590D02*
X93774062Y-101288590D01*
X93774062Y-101288590D02*
X93774062Y-99688590D01*
X93774062Y-99688590D02*
X93059776Y-99688590D01*
X92631204Y-99688590D02*
X91774062Y-99688590D01*
X92202633Y-101288590D02*
X92202633Y-99688590D01*
X84688346Y-81657220D02*
X83759774Y-81657220D01*
X83759774Y-81657220D02*
X84259774Y-82266744D01*
X84259774Y-82266744D02*
X84045489Y-82266744D01*
X84045489Y-82266744D02*
X83902632Y-82342934D01*
X83902632Y-82342934D02*
X83831203Y-82419125D01*
X83831203Y-82419125D02*
X83759774Y-82571506D01*
X83759774Y-82571506D02*
X83759774Y-82952458D01*
X83759774Y-82952458D02*
X83831203Y-83104839D01*
X83831203Y-83104839D02*
X83902632Y-83181030D01*
X83902632Y-83181030D02*
X84045489Y-83257220D01*
X84045489Y-83257220D02*
X84474060Y-83257220D01*
X84474060Y-83257220D02*
X84616917Y-83181030D01*
X84616917Y-83181030D02*
X84688346Y-83104839D01*
X83116918Y-83104839D02*
X83045489Y-83181030D01*
X83045489Y-83181030D02*
X83116918Y-83257220D01*
X83116918Y-83257220D02*
X83188346Y-83181030D01*
X83188346Y-83181030D02*
X83116918Y-83104839D01*
X83116918Y-83104839D02*
X83116918Y-83257220D01*
X82545489Y-81657220D02*
X81616917Y-81657220D01*
X81616917Y-81657220D02*
X82116917Y-82266744D01*
X82116917Y-82266744D02*
X81902632Y-82266744D01*
X81902632Y-82266744D02*
X81759775Y-82342934D01*
X81759775Y-82342934D02*
X81688346Y-82419125D01*
X81688346Y-82419125D02*
X81616917Y-82571506D01*
X81616917Y-82571506D02*
X81616917Y-82952458D01*
X81616917Y-82952458D02*
X81688346Y-83104839D01*
X81688346Y-83104839D02*
X81759775Y-83181030D01*
X81759775Y-83181030D02*
X81902632Y-83257220D01*
X81902632Y-83257220D02*
X82331203Y-83257220D01*
X82331203Y-83257220D02*
X82474060Y-83181030D01*
X82474060Y-83181030D02*
X82545489Y-83104839D01*
X81188346Y-81657220D02*
X80688346Y-83257220D01*
X80688346Y-83257220D02*
X80188346Y-81657220D01*
X83759774Y-84309320D02*
X83902632Y-84233130D01*
X83902632Y-84233130D02*
X84116917Y-84233130D01*
X84116917Y-84233130D02*
X84331203Y-84309320D01*
X84331203Y-84309320D02*
X84474060Y-84461701D01*
X84474060Y-84461701D02*
X84545489Y-84614082D01*
X84545489Y-84614082D02*
X84616917Y-84918844D01*
X84616917Y-84918844D02*
X84616917Y-85147416D01*
X84616917Y-85147416D02*
X84545489Y-85452178D01*
X84545489Y-85452178D02*
X84474060Y-85604559D01*
X84474060Y-85604559D02*
X84331203Y-85756940D01*
X84331203Y-85756940D02*
X84116917Y-85833130D01*
X84116917Y-85833130D02*
X83974060Y-85833130D01*
X83974060Y-85833130D02*
X83759774Y-85756940D01*
X83759774Y-85756940D02*
X83688346Y-85680749D01*
X83688346Y-85680749D02*
X83688346Y-85147416D01*
X83688346Y-85147416D02*
X83974060Y-85147416D01*
X83045489Y-85833130D02*
X83045489Y-84233130D01*
X83045489Y-84233130D02*
X82188346Y-85833130D01*
X82188346Y-85833130D02*
X82188346Y-84233130D01*
X81474060Y-85833130D02*
X81474060Y-84233130D01*
X81474060Y-84233130D02*
X81116917Y-84233130D01*
X81116917Y-84233130D02*
X80902631Y-84309320D01*
X80902631Y-84309320D02*
X80759774Y-84461701D01*
X80759774Y-84461701D02*
X80688345Y-84614082D01*
X80688345Y-84614082D02*
X80616917Y-84918844D01*
X80616917Y-84918844D02*
X80616917Y-85147416D01*
X80616917Y-85147416D02*
X80688345Y-85452178D01*
X80688345Y-85452178D02*
X80759774Y-85604559D01*
X80759774Y-85604559D02*
X80902631Y-85756940D01*
X80902631Y-85756940D02*
X81116917Y-85833130D01*
X81116917Y-85833130D02*
X81474060Y-85833130D01*
X84616917Y-88332850D02*
X84402632Y-88409040D01*
X84402632Y-88409040D02*
X84045489Y-88409040D01*
X84045489Y-88409040D02*
X83902632Y-88332850D01*
X83902632Y-88332850D02*
X83831203Y-88256659D01*
X83831203Y-88256659D02*
X83759774Y-88104278D01*
X83759774Y-88104278D02*
X83759774Y-87951897D01*
X83759774Y-87951897D02*
X83831203Y-87799516D01*
X83831203Y-87799516D02*
X83902632Y-87723326D01*
X83902632Y-87723326D02*
X84045489Y-87647135D01*
X84045489Y-87647135D02*
X84331203Y-87570945D01*
X84331203Y-87570945D02*
X84474060Y-87494754D01*
X84474060Y-87494754D02*
X84545489Y-87418564D01*
X84545489Y-87418564D02*
X84616917Y-87266183D01*
X84616917Y-87266183D02*
X84616917Y-87113802D01*
X84616917Y-87113802D02*
X84545489Y-86961421D01*
X84545489Y-86961421D02*
X84474060Y-86885230D01*
X84474060Y-86885230D02*
X84331203Y-86809040D01*
X84331203Y-86809040D02*
X83974060Y-86809040D01*
X83974060Y-86809040D02*
X83759774Y-86885230D01*
X83259775Y-86809040D02*
X82902632Y-88409040D01*
X82902632Y-88409040D02*
X82616918Y-87266183D01*
X82616918Y-87266183D02*
X82331203Y-88409040D01*
X82331203Y-88409040D02*
X81974061Y-86809040D01*
X80545489Y-88256659D02*
X80616917Y-88332850D01*
X80616917Y-88332850D02*
X80831203Y-88409040D01*
X80831203Y-88409040D02*
X80974060Y-88409040D01*
X80974060Y-88409040D02*
X81188346Y-88332850D01*
X81188346Y-88332850D02*
X81331203Y-88180469D01*
X81331203Y-88180469D02*
X81402632Y-88028088D01*
X81402632Y-88028088D02*
X81474060Y-87723326D01*
X81474060Y-87723326D02*
X81474060Y-87494754D01*
X81474060Y-87494754D02*
X81402632Y-87189992D01*
X81402632Y-87189992D02*
X81331203Y-87037611D01*
X81331203Y-87037611D02*
X81188346Y-86885230D01*
X81188346Y-86885230D02*
X80974060Y-86809040D01*
X80974060Y-86809040D02*
X80831203Y-86809040D01*
X80831203Y-86809040D02*
X80616917Y-86885230D01*
X80616917Y-86885230D02*
X80545489Y-86961421D01*
X79188346Y-88409040D02*
X79902632Y-88409040D01*
X79902632Y-88409040D02*
X79902632Y-86809040D01*
X78688346Y-88409040D02*
X78688346Y-86809040D01*
X77831203Y-88409040D02*
X78474060Y-87494754D01*
X77831203Y-86809040D02*
X78688346Y-87723326D01*
X84616917Y-90908760D02*
X84402632Y-90984950D01*
X84402632Y-90984950D02*
X84045489Y-90984950D01*
X84045489Y-90984950D02*
X83902632Y-90908760D01*
X83902632Y-90908760D02*
X83831203Y-90832569D01*
X83831203Y-90832569D02*
X83759774Y-90680188D01*
X83759774Y-90680188D02*
X83759774Y-90527807D01*
X83759774Y-90527807D02*
X83831203Y-90375426D01*
X83831203Y-90375426D02*
X83902632Y-90299236D01*
X83902632Y-90299236D02*
X84045489Y-90223045D01*
X84045489Y-90223045D02*
X84331203Y-90146855D01*
X84331203Y-90146855D02*
X84474060Y-90070664D01*
X84474060Y-90070664D02*
X84545489Y-89994474D01*
X84545489Y-89994474D02*
X84616917Y-89842093D01*
X84616917Y-89842093D02*
X84616917Y-89689712D01*
X84616917Y-89689712D02*
X84545489Y-89537331D01*
X84545489Y-89537331D02*
X84474060Y-89461140D01*
X84474060Y-89461140D02*
X84331203Y-89384950D01*
X84331203Y-89384950D02*
X83974060Y-89384950D01*
X83974060Y-89384950D02*
X83759774Y-89461140D01*
X83259775Y-89384950D02*
X82902632Y-90984950D01*
X82902632Y-90984950D02*
X82616918Y-89842093D01*
X82616918Y-89842093D02*
X82331203Y-90984950D01*
X82331203Y-90984950D02*
X81974061Y-89384950D01*
X81402632Y-90984950D02*
X81402632Y-89384950D01*
X81402632Y-89384950D02*
X81045489Y-89384950D01*
X81045489Y-89384950D02*
X80831203Y-89461140D01*
X80831203Y-89461140D02*
X80688346Y-89613521D01*
X80688346Y-89613521D02*
X80616917Y-89765902D01*
X80616917Y-89765902D02*
X80545489Y-90070664D01*
X80545489Y-90070664D02*
X80545489Y-90299236D01*
X80545489Y-90299236D02*
X80616917Y-90603998D01*
X80616917Y-90603998D02*
X80688346Y-90756379D01*
X80688346Y-90756379D02*
X80831203Y-90908760D01*
X80831203Y-90908760D02*
X81045489Y-90984950D01*
X81045489Y-90984950D02*
X81402632Y-90984950D01*
X79902632Y-90984950D02*
X79902632Y-89384950D01*
X78902631Y-89384950D02*
X78616917Y-89384950D01*
X78616917Y-89384950D02*
X78474060Y-89461140D01*
X78474060Y-89461140D02*
X78331203Y-89613521D01*
X78331203Y-89613521D02*
X78259774Y-89918283D01*
X78259774Y-89918283D02*
X78259774Y-90451617D01*
X78259774Y-90451617D02*
X78331203Y-90756379D01*
X78331203Y-90756379D02*
X78474060Y-90908760D01*
X78474060Y-90908760D02*
X78616917Y-90984950D01*
X78616917Y-90984950D02*
X78902631Y-90984950D01*
X78902631Y-90984950D02*
X79045489Y-90908760D01*
X79045489Y-90908760D02*
X79188346Y-90756379D01*
X79188346Y-90756379D02*
X79259774Y-90451617D01*
X79259774Y-90451617D02*
X79259774Y-89918283D01*
X79259774Y-89918283D02*
X79188346Y-89613521D01*
X79188346Y-89613521D02*
X79045489Y-89461140D01*
X79045489Y-89461140D02*
X78902631Y-89384950D01*
X84759774Y-91960860D02*
X83902632Y-91960860D01*
X84331203Y-93560860D02*
X84331203Y-91960860D01*
X83545489Y-91960860D02*
X82545489Y-93560860D01*
X82545489Y-91960860D02*
X83545489Y-93560860D01*
X81974061Y-93560860D02*
X81974061Y-91960860D01*
X81974061Y-91960860D02*
X81616918Y-91960860D01*
X81616918Y-91960860D02*
X81402632Y-92037050D01*
X81402632Y-92037050D02*
X81259775Y-92189431D01*
X81259775Y-92189431D02*
X81188346Y-92341812D01*
X81188346Y-92341812D02*
X81116918Y-92646574D01*
X81116918Y-92646574D02*
X81116918Y-92875146D01*
X81116918Y-92875146D02*
X81188346Y-93179908D01*
X81188346Y-93179908D02*
X81259775Y-93332289D01*
X81259775Y-93332289D02*
X81402632Y-93484670D01*
X81402632Y-93484670D02*
X81616918Y-93560860D01*
X81616918Y-93560860D02*
X81974061Y-93560860D01*
X83688346Y-96136770D02*
X84188346Y-95374865D01*
X84545489Y-96136770D02*
X84545489Y-94536770D01*
X84545489Y-94536770D02*
X83974060Y-94536770D01*
X83974060Y-94536770D02*
X83831203Y-94612960D01*
X83831203Y-94612960D02*
X83759774Y-94689151D01*
X83759774Y-94689151D02*
X83688346Y-94841532D01*
X83688346Y-94841532D02*
X83688346Y-95070103D01*
X83688346Y-95070103D02*
X83759774Y-95222484D01*
X83759774Y-95222484D02*
X83831203Y-95298675D01*
X83831203Y-95298675D02*
X83974060Y-95374865D01*
X83974060Y-95374865D02*
X84545489Y-95374865D01*
X83188346Y-94536770D02*
X82188346Y-96136770D01*
X82188346Y-94536770D02*
X83188346Y-96136770D01*
X81616918Y-96136770D02*
X81616918Y-94536770D01*
X81616918Y-94536770D02*
X81259775Y-94536770D01*
X81259775Y-94536770D02*
X81045489Y-94612960D01*
X81045489Y-94612960D02*
X80902632Y-94765341D01*
X80902632Y-94765341D02*
X80831203Y-94917722D01*
X80831203Y-94917722D02*
X80759775Y-95222484D01*
X80759775Y-95222484D02*
X80759775Y-95451056D01*
X80759775Y-95451056D02*
X80831203Y-95755818D01*
X80831203Y-95755818D02*
X80902632Y-95908199D01*
X80902632Y-95908199D02*
X81045489Y-96060580D01*
X81045489Y-96060580D02*
X81259775Y-96136770D01*
X81259775Y-96136770D02*
X81616918Y-96136770D01*
X84616917Y-98636490D02*
X84402632Y-98712680D01*
X84402632Y-98712680D02*
X84045489Y-98712680D01*
X84045489Y-98712680D02*
X83902632Y-98636490D01*
X83902632Y-98636490D02*
X83831203Y-98560299D01*
X83831203Y-98560299D02*
X83759774Y-98407918D01*
X83759774Y-98407918D02*
X83759774Y-98255537D01*
X83759774Y-98255537D02*
X83831203Y-98103156D01*
X83831203Y-98103156D02*
X83902632Y-98026966D01*
X83902632Y-98026966D02*
X84045489Y-97950775D01*
X84045489Y-97950775D02*
X84331203Y-97874585D01*
X84331203Y-97874585D02*
X84474060Y-97798394D01*
X84474060Y-97798394D02*
X84545489Y-97722204D01*
X84545489Y-97722204D02*
X84616917Y-97569823D01*
X84616917Y-97569823D02*
X84616917Y-97417442D01*
X84616917Y-97417442D02*
X84545489Y-97265061D01*
X84545489Y-97265061D02*
X84474060Y-97188870D01*
X84474060Y-97188870D02*
X84331203Y-97112680D01*
X84331203Y-97112680D02*
X83974060Y-97112680D01*
X83974060Y-97112680D02*
X83759774Y-97188870D01*
X83259775Y-97112680D02*
X82902632Y-98712680D01*
X82902632Y-98712680D02*
X82616918Y-97569823D01*
X82616918Y-97569823D02*
X82331203Y-98712680D01*
X82331203Y-98712680D02*
X81974061Y-97112680D01*
X81116917Y-97112680D02*
X80831203Y-97112680D01*
X80831203Y-97112680D02*
X80688346Y-97188870D01*
X80688346Y-97188870D02*
X80545489Y-97341251D01*
X80545489Y-97341251D02*
X80474060Y-97646013D01*
X80474060Y-97646013D02*
X80474060Y-98179347D01*
X80474060Y-98179347D02*
X80545489Y-98484109D01*
X80545489Y-98484109D02*
X80688346Y-98636490D01*
X80688346Y-98636490D02*
X80831203Y-98712680D01*
X80831203Y-98712680D02*
X81116917Y-98712680D01*
X81116917Y-98712680D02*
X81259775Y-98636490D01*
X81259775Y-98636490D02*
X81402632Y-98484109D01*
X81402632Y-98484109D02*
X81474060Y-98179347D01*
X81474060Y-98179347D02*
X81474060Y-97646013D01*
X81474060Y-97646013D02*
X81402632Y-97341251D01*
X81402632Y-97341251D02*
X81259775Y-97188870D01*
X81259775Y-97188870D02*
X81116917Y-97112680D01*
X83688346Y-101288590D02*
X84188346Y-100526685D01*
X84545489Y-101288590D02*
X84545489Y-99688590D01*
X84545489Y-99688590D02*
X83974060Y-99688590D01*
X83974060Y-99688590D02*
X83831203Y-99764780D01*
X83831203Y-99764780D02*
X83759774Y-99840971D01*
X83759774Y-99840971D02*
X83688346Y-99993352D01*
X83688346Y-99993352D02*
X83688346Y-100221923D01*
X83688346Y-100221923D02*
X83759774Y-100374304D01*
X83759774Y-100374304D02*
X83831203Y-100450495D01*
X83831203Y-100450495D02*
X83974060Y-100526685D01*
X83974060Y-100526685D02*
X84545489Y-100526685D01*
X83045489Y-100450495D02*
X82545489Y-100450495D01*
X82331203Y-101288590D02*
X83045489Y-101288590D01*
X83045489Y-101288590D02*
X83045489Y-99688590D01*
X83045489Y-99688590D02*
X82331203Y-99688590D01*
X81759774Y-101212400D02*
X81545489Y-101288590D01*
X81545489Y-101288590D02*
X81188346Y-101288590D01*
X81188346Y-101288590D02*
X81045489Y-101212400D01*
X81045489Y-101212400D02*
X80974060Y-101136209D01*
X80974060Y-101136209D02*
X80902631Y-100983828D01*
X80902631Y-100983828D02*
X80902631Y-100831447D01*
X80902631Y-100831447D02*
X80974060Y-100679066D01*
X80974060Y-100679066D02*
X81045489Y-100602876D01*
X81045489Y-100602876D02*
X81188346Y-100526685D01*
X81188346Y-100526685D02*
X81474060Y-100450495D01*
X81474060Y-100450495D02*
X81616917Y-100374304D01*
X81616917Y-100374304D02*
X81688346Y-100298114D01*
X81688346Y-100298114D02*
X81759774Y-100145733D01*
X81759774Y-100145733D02*
X81759774Y-99993352D01*
X81759774Y-99993352D02*
X81688346Y-99840971D01*
X81688346Y-99840971D02*
X81616917Y-99764780D01*
X81616917Y-99764780D02*
X81474060Y-99688590D01*
X81474060Y-99688590D02*
X81116917Y-99688590D01*
X81116917Y-99688590D02*
X80902631Y-99764780D01*
X80259775Y-100450495D02*
X79759775Y-100450495D01*
X79545489Y-101288590D02*
X80259775Y-101288590D01*
X80259775Y-101288590D02*
X80259775Y-99688590D01*
X80259775Y-99688590D02*
X79545489Y-99688590D01*
X79116917Y-99688590D02*
X78259775Y-99688590D01*
X78688346Y-101288590D02*
X78688346Y-99688590D01*
X80442779Y-77240224D02*
X80442779Y-76311652D01*
X80442779Y-76311652D02*
X79833255Y-76811652D01*
X79833255Y-76811652D02*
X79833255Y-76597367D01*
X79833255Y-76597367D02*
X79757065Y-76454510D01*
X79757065Y-76454510D02*
X79680874Y-76383081D01*
X79680874Y-76383081D02*
X79528493Y-76311652D01*
X79528493Y-76311652D02*
X79147541Y-76311652D01*
X79147541Y-76311652D02*
X78995160Y-76383081D01*
X78995160Y-76383081D02*
X78918970Y-76454510D01*
X78918970Y-76454510D02*
X78842779Y-76597367D01*
X78842779Y-76597367D02*
X78842779Y-77025938D01*
X78842779Y-77025938D02*
X78918970Y-77168795D01*
X78918970Y-77168795D02*
X78995160Y-77240224D01*
X78995160Y-75668796D02*
X78918970Y-75597367D01*
X78918970Y-75597367D02*
X78842779Y-75668796D01*
X78842779Y-75668796D02*
X78918970Y-75740224D01*
X78918970Y-75740224D02*
X78995160Y-75668796D01*
X78995160Y-75668796D02*
X78842779Y-75668796D01*
X80442779Y-75097367D02*
X80442779Y-74168795D01*
X80442779Y-74168795D02*
X79833255Y-74668795D01*
X79833255Y-74668795D02*
X79833255Y-74454510D01*
X79833255Y-74454510D02*
X79757065Y-74311653D01*
X79757065Y-74311653D02*
X79680874Y-74240224D01*
X79680874Y-74240224D02*
X79528493Y-74168795D01*
X79528493Y-74168795D02*
X79147541Y-74168795D01*
X79147541Y-74168795D02*
X78995160Y-74240224D01*
X78995160Y-74240224D02*
X78918970Y-74311653D01*
X78918970Y-74311653D02*
X78842779Y-74454510D01*
X78842779Y-74454510D02*
X78842779Y-74883081D01*
X78842779Y-74883081D02*
X78918970Y-75025938D01*
X78918970Y-75025938D02*
X78995160Y-75097367D01*
X80442779Y-73740224D02*
X78842779Y-73240224D01*
X78842779Y-73240224D02*
X80442779Y-72740224D01*
X77790679Y-76025939D02*
X77866869Y-76168797D01*
X77866869Y-76168797D02*
X77866869Y-76383082D01*
X77866869Y-76383082D02*
X77790679Y-76597368D01*
X77790679Y-76597368D02*
X77638298Y-76740225D01*
X77638298Y-76740225D02*
X77485917Y-76811654D01*
X77485917Y-76811654D02*
X77181155Y-76883082D01*
X77181155Y-76883082D02*
X76952583Y-76883082D01*
X76952583Y-76883082D02*
X76647821Y-76811654D01*
X76647821Y-76811654D02*
X76495440Y-76740225D01*
X76495440Y-76740225D02*
X76343060Y-76597368D01*
X76343060Y-76597368D02*
X76266869Y-76383082D01*
X76266869Y-76383082D02*
X76266869Y-76240225D01*
X76266869Y-76240225D02*
X76343060Y-76025939D01*
X76343060Y-76025939D02*
X76419250Y-75954511D01*
X76419250Y-75954511D02*
X76952583Y-75954511D01*
X76952583Y-75954511D02*
X76952583Y-76240225D01*
X76266869Y-75311654D02*
X77866869Y-75311654D01*
X77866869Y-75311654D02*
X76266869Y-74454511D01*
X76266869Y-74454511D02*
X77866869Y-74454511D01*
X76266869Y-73740225D02*
X77866869Y-73740225D01*
X77866869Y-73740225D02*
X77866869Y-73383082D01*
X77866869Y-73383082D02*
X77790679Y-73168796D01*
X77790679Y-73168796D02*
X77638298Y-73025939D01*
X77638298Y-73025939D02*
X77485917Y-72954510D01*
X77485917Y-72954510D02*
X77181155Y-72883082D01*
X77181155Y-72883082D02*
X76952583Y-72883082D01*
X76952583Y-72883082D02*
X76647821Y-72954510D01*
X76647821Y-72954510D02*
X76495440Y-73025939D01*
X76495440Y-73025939D02*
X76343060Y-73168796D01*
X76343060Y-73168796D02*
X76266869Y-73383082D01*
X76266869Y-73383082D02*
X76266869Y-73740225D01*
X73690959Y-82740225D02*
X75290959Y-82740225D01*
X74529054Y-81525939D02*
X74529054Y-82025939D01*
X73690959Y-82025939D02*
X75290959Y-82025939D01*
X75290959Y-82025939D02*
X75290959Y-81311653D01*
X73538578Y-81097368D02*
X73538578Y-79954510D01*
X73767150Y-79668796D02*
X73690959Y-79454511D01*
X73690959Y-79454511D02*
X73690959Y-79097368D01*
X73690959Y-79097368D02*
X73767150Y-78954511D01*
X73767150Y-78954511D02*
X73843340Y-78883082D01*
X73843340Y-78883082D02*
X73995721Y-78811653D01*
X73995721Y-78811653D02*
X74148102Y-78811653D01*
X74148102Y-78811653D02*
X74300483Y-78883082D01*
X74300483Y-78883082D02*
X74376673Y-78954511D01*
X74376673Y-78954511D02*
X74452864Y-79097368D01*
X74452864Y-79097368D02*
X74529054Y-79383082D01*
X74529054Y-79383082D02*
X74605245Y-79525939D01*
X74605245Y-79525939D02*
X74681435Y-79597368D01*
X74681435Y-79597368D02*
X74833816Y-79668796D01*
X74833816Y-79668796D02*
X74986197Y-79668796D01*
X74986197Y-79668796D02*
X75138578Y-79597368D01*
X75138578Y-79597368D02*
X75214769Y-79525939D01*
X75214769Y-79525939D02*
X75290959Y-79383082D01*
X75290959Y-79383082D02*
X75290959Y-79025939D01*
X75290959Y-79025939D02*
X75214769Y-78811653D01*
X75290959Y-78311654D02*
X73690959Y-77954511D01*
X73690959Y-77954511D02*
X74833816Y-77668797D01*
X74833816Y-77668797D02*
X73690959Y-77383082D01*
X73690959Y-77383082D02*
X75290959Y-77025940D01*
X73843340Y-75597368D02*
X73767150Y-75668796D01*
X73767150Y-75668796D02*
X73690959Y-75883082D01*
X73690959Y-75883082D02*
X73690959Y-76025939D01*
X73690959Y-76025939D02*
X73767150Y-76240225D01*
X73767150Y-76240225D02*
X73919530Y-76383082D01*
X73919530Y-76383082D02*
X74071911Y-76454511D01*
X74071911Y-76454511D02*
X74376673Y-76525939D01*
X74376673Y-76525939D02*
X74605245Y-76525939D01*
X74605245Y-76525939D02*
X74910007Y-76454511D01*
X74910007Y-76454511D02*
X75062388Y-76383082D01*
X75062388Y-76383082D02*
X75214769Y-76240225D01*
X75214769Y-76240225D02*
X75290959Y-76025939D01*
X75290959Y-76025939D02*
X75290959Y-75883082D01*
X75290959Y-75883082D02*
X75214769Y-75668796D01*
X75214769Y-75668796D02*
X75138578Y-75597368D01*
X73690959Y-74240225D02*
X73690959Y-74954511D01*
X73690959Y-74954511D02*
X75290959Y-74954511D01*
X73690959Y-73740225D02*
X75290959Y-73740225D01*
X73690959Y-72883082D02*
X74605245Y-73525939D01*
X75290959Y-72883082D02*
X74376673Y-73740225D01*
X71115049Y-82311654D02*
X72715049Y-82311654D01*
X71953144Y-81097368D02*
X71953144Y-81597368D01*
X71115049Y-81597368D02*
X72715049Y-81597368D01*
X72715049Y-81597368D02*
X72715049Y-80883082D01*
X70962668Y-80668797D02*
X70962668Y-79525939D01*
X71191240Y-79240225D02*
X71115049Y-79025940D01*
X71115049Y-79025940D02*
X71115049Y-78668797D01*
X71115049Y-78668797D02*
X71191240Y-78525940D01*
X71191240Y-78525940D02*
X71267430Y-78454511D01*
X71267430Y-78454511D02*
X71419811Y-78383082D01*
X71419811Y-78383082D02*
X71572192Y-78383082D01*
X71572192Y-78383082D02*
X71724573Y-78454511D01*
X71724573Y-78454511D02*
X71800763Y-78525940D01*
X71800763Y-78525940D02*
X71876954Y-78668797D01*
X71876954Y-78668797D02*
X71953144Y-78954511D01*
X71953144Y-78954511D02*
X72029335Y-79097368D01*
X72029335Y-79097368D02*
X72105525Y-79168797D01*
X72105525Y-79168797D02*
X72257906Y-79240225D01*
X72257906Y-79240225D02*
X72410287Y-79240225D01*
X72410287Y-79240225D02*
X72562668Y-79168797D01*
X72562668Y-79168797D02*
X72638859Y-79097368D01*
X72638859Y-79097368D02*
X72715049Y-78954511D01*
X72715049Y-78954511D02*
X72715049Y-78597368D01*
X72715049Y-78597368D02*
X72638859Y-78383082D01*
X72715049Y-77883083D02*
X71115049Y-77525940D01*
X71115049Y-77525940D02*
X72257906Y-77240226D01*
X72257906Y-77240226D02*
X71115049Y-76954511D01*
X71115049Y-76954511D02*
X72715049Y-76597369D01*
X71115049Y-76025940D02*
X72715049Y-76025940D01*
X72715049Y-76025940D02*
X72715049Y-75668797D01*
X72715049Y-75668797D02*
X72638859Y-75454511D01*
X72638859Y-75454511D02*
X72486478Y-75311654D01*
X72486478Y-75311654D02*
X72334097Y-75240225D01*
X72334097Y-75240225D02*
X72029335Y-75168797D01*
X72029335Y-75168797D02*
X71800763Y-75168797D01*
X71800763Y-75168797D02*
X71496001Y-75240225D01*
X71496001Y-75240225D02*
X71343620Y-75311654D01*
X71343620Y-75311654D02*
X71191240Y-75454511D01*
X71191240Y-75454511D02*
X71115049Y-75668797D01*
X71115049Y-75668797D02*
X71115049Y-76025940D01*
X71115049Y-74525940D02*
X72715049Y-74525940D01*
X72715049Y-73525939D02*
X72715049Y-73240225D01*
X72715049Y-73240225D02*
X72638859Y-73097368D01*
X72638859Y-73097368D02*
X72486478Y-72954511D01*
X72486478Y-72954511D02*
X72181716Y-72883082D01*
X72181716Y-72883082D02*
X71648382Y-72883082D01*
X71648382Y-72883082D02*
X71343620Y-72954511D01*
X71343620Y-72954511D02*
X71191240Y-73097368D01*
X71191240Y-73097368D02*
X71115049Y-73240225D01*
X71115049Y-73240225D02*
X71115049Y-73525939D01*
X71115049Y-73525939D02*
X71191240Y-73668797D01*
X71191240Y-73668797D02*
X71343620Y-73811654D01*
X71343620Y-73811654D02*
X71648382Y-73883082D01*
X71648382Y-73883082D02*
X72181716Y-73883082D01*
X72181716Y-73883082D02*
X72486478Y-73811654D01*
X72486478Y-73811654D02*
X72638859Y-73668797D01*
X72638859Y-73668797D02*
X72715049Y-73525939D01*
X68539139Y-79454510D02*
X70139139Y-79454510D01*
X69377234Y-78240224D02*
X69377234Y-78740224D01*
X68539139Y-78740224D02*
X70139139Y-78740224D01*
X70139139Y-78740224D02*
X70139139Y-78025938D01*
X68386758Y-77811653D02*
X68386758Y-76668795D01*
X70139139Y-76525938D02*
X70139139Y-75668796D01*
X68539139Y-76097367D02*
X70139139Y-76097367D01*
X70139139Y-75311653D02*
X68539139Y-74311653D01*
X70139139Y-74311653D02*
X68539139Y-75311653D01*
X68539139Y-73740225D02*
X70139139Y-73740225D01*
X70139139Y-73740225D02*
X70139139Y-73383082D01*
X70139139Y-73383082D02*
X70062949Y-73168796D01*
X70062949Y-73168796D02*
X69910568Y-73025939D01*
X69910568Y-73025939D02*
X69758187Y-72954510D01*
X69758187Y-72954510D02*
X69453425Y-72883082D01*
X69453425Y-72883082D02*
X69224853Y-72883082D01*
X69224853Y-72883082D02*
X68920091Y-72954510D01*
X68920091Y-72954510D02*
X68767710Y-73025939D01*
X68767710Y-73025939D02*
X68615330Y-73168796D01*
X68615330Y-73168796D02*
X68539139Y-73383082D01*
X68539139Y-73383082D02*
X68539139Y-73740225D01*
X65963229Y-79811653D02*
X67563229Y-79811653D01*
X66801324Y-78597367D02*
X66801324Y-79097367D01*
X65963229Y-79097367D02*
X67563229Y-79097367D01*
X67563229Y-79097367D02*
X67563229Y-78383081D01*
X65810848Y-78168796D02*
X65810848Y-77025938D01*
X65963229Y-75811653D02*
X66725134Y-76311653D01*
X65963229Y-76668796D02*
X67563229Y-76668796D01*
X67563229Y-76668796D02*
X67563229Y-76097367D01*
X67563229Y-76097367D02*
X67487039Y-75954510D01*
X67487039Y-75954510D02*
X67410848Y-75883081D01*
X67410848Y-75883081D02*
X67258467Y-75811653D01*
X67258467Y-75811653D02*
X67029896Y-75811653D01*
X67029896Y-75811653D02*
X66877515Y-75883081D01*
X66877515Y-75883081D02*
X66801324Y-75954510D01*
X66801324Y-75954510D02*
X66725134Y-76097367D01*
X66725134Y-76097367D02*
X66725134Y-76668796D01*
X67563229Y-75311653D02*
X65963229Y-74311653D01*
X67563229Y-74311653D02*
X65963229Y-75311653D01*
X65963229Y-73740225D02*
X67563229Y-73740225D01*
X67563229Y-73740225D02*
X67563229Y-73383082D01*
X67563229Y-73383082D02*
X67487039Y-73168796D01*
X67487039Y-73168796D02*
X67334658Y-73025939D01*
X67334658Y-73025939D02*
X67182277Y-72954510D01*
X67182277Y-72954510D02*
X66877515Y-72883082D01*
X66877515Y-72883082D02*
X66648943Y-72883082D01*
X66648943Y-72883082D02*
X66344181Y-72954510D01*
X66344181Y-72954510D02*
X66191800Y-73025939D01*
X66191800Y-73025939D02*
X66039420Y-73168796D01*
X66039420Y-73168796D02*
X65963229Y-73383082D01*
X65963229Y-73383082D02*
X65963229Y-73740225D01*
X63387319Y-80097368D02*
X64987319Y-80097368D01*
X64225414Y-78883082D02*
X64225414Y-79383082D01*
X63387319Y-79383082D02*
X64987319Y-79383082D01*
X64987319Y-79383082D02*
X64987319Y-78668796D01*
X63234938Y-78454511D02*
X63234938Y-77311653D01*
X63463510Y-77025939D02*
X63387319Y-76811654D01*
X63387319Y-76811654D02*
X63387319Y-76454511D01*
X63387319Y-76454511D02*
X63463510Y-76311654D01*
X63463510Y-76311654D02*
X63539700Y-76240225D01*
X63539700Y-76240225D02*
X63692081Y-76168796D01*
X63692081Y-76168796D02*
X63844462Y-76168796D01*
X63844462Y-76168796D02*
X63996843Y-76240225D01*
X63996843Y-76240225D02*
X64073033Y-76311654D01*
X64073033Y-76311654D02*
X64149224Y-76454511D01*
X64149224Y-76454511D02*
X64225414Y-76740225D01*
X64225414Y-76740225D02*
X64301605Y-76883082D01*
X64301605Y-76883082D02*
X64377795Y-76954511D01*
X64377795Y-76954511D02*
X64530176Y-77025939D01*
X64530176Y-77025939D02*
X64682557Y-77025939D01*
X64682557Y-77025939D02*
X64834938Y-76954511D01*
X64834938Y-76954511D02*
X64911129Y-76883082D01*
X64911129Y-76883082D02*
X64987319Y-76740225D01*
X64987319Y-76740225D02*
X64987319Y-76383082D01*
X64987319Y-76383082D02*
X64911129Y-76168796D01*
X64987319Y-75668797D02*
X63387319Y-75311654D01*
X63387319Y-75311654D02*
X64530176Y-75025940D01*
X64530176Y-75025940D02*
X63387319Y-74740225D01*
X63387319Y-74740225D02*
X64987319Y-74383083D01*
X64987319Y-73525939D02*
X64987319Y-73240225D01*
X64987319Y-73240225D02*
X64911129Y-73097368D01*
X64911129Y-73097368D02*
X64758748Y-72954511D01*
X64758748Y-72954511D02*
X64453986Y-72883082D01*
X64453986Y-72883082D02*
X63920652Y-72883082D01*
X63920652Y-72883082D02*
X63615890Y-72954511D01*
X63615890Y-72954511D02*
X63463510Y-73097368D01*
X63463510Y-73097368D02*
X63387319Y-73240225D01*
X63387319Y-73240225D02*
X63387319Y-73525939D01*
X63387319Y-73525939D02*
X63463510Y-73668797D01*
X63463510Y-73668797D02*
X63615890Y-73811654D01*
X63615890Y-73811654D02*
X63920652Y-73883082D01*
X63920652Y-73883082D02*
X64453986Y-73883082D01*
X64453986Y-73883082D02*
X64758748Y-73811654D01*
X64758748Y-73811654D02*
X64911129Y-73668797D01*
X64911129Y-73668797D02*
X64987319Y-73525939D01*
X60811409Y-82168796D02*
X62411409Y-82168796D01*
X61649504Y-80954510D02*
X61649504Y-81454510D01*
X60811409Y-81454510D02*
X62411409Y-81454510D01*
X62411409Y-81454510D02*
X62411409Y-80740224D01*
X60659028Y-80525939D02*
X60659028Y-79383081D01*
X60811409Y-78168796D02*
X61573314Y-78668796D01*
X60811409Y-79025939D02*
X62411409Y-79025939D01*
X62411409Y-79025939D02*
X62411409Y-78454510D01*
X62411409Y-78454510D02*
X62335219Y-78311653D01*
X62335219Y-78311653D02*
X62259028Y-78240224D01*
X62259028Y-78240224D02*
X62106647Y-78168796D01*
X62106647Y-78168796D02*
X61878076Y-78168796D01*
X61878076Y-78168796D02*
X61725695Y-78240224D01*
X61725695Y-78240224D02*
X61649504Y-78311653D01*
X61649504Y-78311653D02*
X61573314Y-78454510D01*
X61573314Y-78454510D02*
X61573314Y-79025939D01*
X61649504Y-77525939D02*
X61649504Y-77025939D01*
X60811409Y-76811653D02*
X60811409Y-77525939D01*
X60811409Y-77525939D02*
X62411409Y-77525939D01*
X62411409Y-77525939D02*
X62411409Y-76811653D01*
X60887600Y-76240224D02*
X60811409Y-76025939D01*
X60811409Y-76025939D02*
X60811409Y-75668796D01*
X60811409Y-75668796D02*
X60887600Y-75525939D01*
X60887600Y-75525939D02*
X60963790Y-75454510D01*
X60963790Y-75454510D02*
X61116171Y-75383081D01*
X61116171Y-75383081D02*
X61268552Y-75383081D01*
X61268552Y-75383081D02*
X61420933Y-75454510D01*
X61420933Y-75454510D02*
X61497123Y-75525939D01*
X61497123Y-75525939D02*
X61573314Y-75668796D01*
X61573314Y-75668796D02*
X61649504Y-75954510D01*
X61649504Y-75954510D02*
X61725695Y-76097367D01*
X61725695Y-76097367D02*
X61801885Y-76168796D01*
X61801885Y-76168796D02*
X61954266Y-76240224D01*
X61954266Y-76240224D02*
X62106647Y-76240224D01*
X62106647Y-76240224D02*
X62259028Y-76168796D01*
X62259028Y-76168796D02*
X62335219Y-76097367D01*
X62335219Y-76097367D02*
X62411409Y-75954510D01*
X62411409Y-75954510D02*
X62411409Y-75597367D01*
X62411409Y-75597367D02*
X62335219Y-75383081D01*
X61649504Y-74740225D02*
X61649504Y-74240225D01*
X60811409Y-74025939D02*
X60811409Y-74740225D01*
X60811409Y-74740225D02*
X62411409Y-74740225D01*
X62411409Y-74740225D02*
X62411409Y-74025939D01*
X62411409Y-73597367D02*
X62411409Y-72740225D01*
X60811409Y-73168796D02*
X62411409Y-73168796D01*
X64136770Y-101259775D02*
X64136770Y-102188347D01*
X64136770Y-102188347D02*
X64746294Y-101688347D01*
X64746294Y-101688347D02*
X64746294Y-101902632D01*
X64746294Y-101902632D02*
X64822484Y-102045490D01*
X64822484Y-102045490D02*
X64898675Y-102116918D01*
X64898675Y-102116918D02*
X65051056Y-102188347D01*
X65051056Y-102188347D02*
X65432008Y-102188347D01*
X65432008Y-102188347D02*
X65584389Y-102116918D01*
X65584389Y-102116918D02*
X65660580Y-102045490D01*
X65660580Y-102045490D02*
X65736770Y-101902632D01*
X65736770Y-101902632D02*
X65736770Y-101474061D01*
X65736770Y-101474061D02*
X65660580Y-101331204D01*
X65660580Y-101331204D02*
X65584389Y-101259775D01*
X65584389Y-102831203D02*
X65660580Y-102902632D01*
X65660580Y-102902632D02*
X65736770Y-102831203D01*
X65736770Y-102831203D02*
X65660580Y-102759775D01*
X65660580Y-102759775D02*
X65584389Y-102831203D01*
X65584389Y-102831203D02*
X65736770Y-102831203D01*
X64136770Y-103402632D02*
X64136770Y-104331204D01*
X64136770Y-104331204D02*
X64746294Y-103831204D01*
X64746294Y-103831204D02*
X64746294Y-104045489D01*
X64746294Y-104045489D02*
X64822484Y-104188347D01*
X64822484Y-104188347D02*
X64898675Y-104259775D01*
X64898675Y-104259775D02*
X65051056Y-104331204D01*
X65051056Y-104331204D02*
X65432008Y-104331204D01*
X65432008Y-104331204D02*
X65584389Y-104259775D01*
X65584389Y-104259775D02*
X65660580Y-104188347D01*
X65660580Y-104188347D02*
X65736770Y-104045489D01*
X65736770Y-104045489D02*
X65736770Y-103616918D01*
X65736770Y-103616918D02*
X65660580Y-103474061D01*
X65660580Y-103474061D02*
X65584389Y-103402632D01*
X64136770Y-104759775D02*
X65736770Y-105259775D01*
X65736770Y-105259775D02*
X64136770Y-105759775D01*
X67474585Y-99545488D02*
X67550775Y-99759774D01*
X67550775Y-99759774D02*
X67626966Y-99831203D01*
X67626966Y-99831203D02*
X67779347Y-99902631D01*
X67779347Y-99902631D02*
X68007918Y-99902631D01*
X68007918Y-99902631D02*
X68160299Y-99831203D01*
X68160299Y-99831203D02*
X68236490Y-99759774D01*
X68236490Y-99759774D02*
X68312680Y-99616917D01*
X68312680Y-99616917D02*
X68312680Y-99045488D01*
X68312680Y-99045488D02*
X66712680Y-99045488D01*
X66712680Y-99045488D02*
X66712680Y-99545488D01*
X66712680Y-99545488D02*
X66788870Y-99688346D01*
X66788870Y-99688346D02*
X66865061Y-99759774D01*
X66865061Y-99759774D02*
X67017442Y-99831203D01*
X67017442Y-99831203D02*
X67169823Y-99831203D01*
X67169823Y-99831203D02*
X67322204Y-99759774D01*
X67322204Y-99759774D02*
X67398394Y-99688346D01*
X67398394Y-99688346D02*
X67474585Y-99545488D01*
X67474585Y-99545488D02*
X67474585Y-99045488D01*
X66712680Y-100831203D02*
X66712680Y-101116917D01*
X66712680Y-101116917D02*
X66788870Y-101259774D01*
X66788870Y-101259774D02*
X66941251Y-101402631D01*
X66941251Y-101402631D02*
X67246013Y-101474060D01*
X67246013Y-101474060D02*
X67779347Y-101474060D01*
X67779347Y-101474060D02*
X68084109Y-101402631D01*
X68084109Y-101402631D02*
X68236490Y-101259774D01*
X68236490Y-101259774D02*
X68312680Y-101116917D01*
X68312680Y-101116917D02*
X68312680Y-100831203D01*
X68312680Y-100831203D02*
X68236490Y-100688346D01*
X68236490Y-100688346D02*
X68084109Y-100545488D01*
X68084109Y-100545488D02*
X67779347Y-100474060D01*
X67779347Y-100474060D02*
X67246013Y-100474060D01*
X67246013Y-100474060D02*
X66941251Y-100545488D01*
X66941251Y-100545488D02*
X66788870Y-100688346D01*
X66788870Y-100688346D02*
X66712680Y-100831203D01*
X66712680Y-102402632D02*
X66712680Y-102688346D01*
X66712680Y-102688346D02*
X66788870Y-102831203D01*
X66788870Y-102831203D02*
X66941251Y-102974060D01*
X66941251Y-102974060D02*
X67246013Y-103045489D01*
X67246013Y-103045489D02*
X67779347Y-103045489D01*
X67779347Y-103045489D02*
X68084109Y-102974060D01*
X68084109Y-102974060D02*
X68236490Y-102831203D01*
X68236490Y-102831203D02*
X68312680Y-102688346D01*
X68312680Y-102688346D02*
X68312680Y-102402632D01*
X68312680Y-102402632D02*
X68236490Y-102259775D01*
X68236490Y-102259775D02*
X68084109Y-102116917D01*
X68084109Y-102116917D02*
X67779347Y-102045489D01*
X67779347Y-102045489D02*
X67246013Y-102045489D01*
X67246013Y-102045489D02*
X66941251Y-102116917D01*
X66941251Y-102116917D02*
X66788870Y-102259775D01*
X66788870Y-102259775D02*
X66712680Y-102402632D01*
X66712680Y-103474061D02*
X66712680Y-104331204D01*
X68312680Y-103902632D02*
X66712680Y-103902632D01*
X68312680Y-105616918D02*
X68312680Y-104759775D01*
X68312680Y-105188346D02*
X66712680Y-105188346D01*
X66712680Y-105188346D02*
X66941251Y-105045489D01*
X66941251Y-105045489D02*
X67093632Y-104902632D01*
X67093632Y-104902632D02*
X67169823Y-104759775D01*
X69364780Y-102474060D02*
X69288590Y-102331203D01*
X69288590Y-102331203D02*
X69288590Y-102116917D01*
X69288590Y-102116917D02*
X69364780Y-101902631D01*
X69364780Y-101902631D02*
X69517161Y-101759774D01*
X69517161Y-101759774D02*
X69669542Y-101688345D01*
X69669542Y-101688345D02*
X69974304Y-101616917D01*
X69974304Y-101616917D02*
X70202876Y-101616917D01*
X70202876Y-101616917D02*
X70507638Y-101688345D01*
X70507638Y-101688345D02*
X70660019Y-101759774D01*
X70660019Y-101759774D02*
X70812400Y-101902631D01*
X70812400Y-101902631D02*
X70888590Y-102116917D01*
X70888590Y-102116917D02*
X70888590Y-102259774D01*
X70888590Y-102259774D02*
X70812400Y-102474060D01*
X70812400Y-102474060D02*
X70736209Y-102545488D01*
X70736209Y-102545488D02*
X70202876Y-102545488D01*
X70202876Y-102545488D02*
X70202876Y-102259774D01*
X70888590Y-103188345D02*
X69288590Y-103188345D01*
X69288590Y-103188345D02*
X70888590Y-104045488D01*
X70888590Y-104045488D02*
X69288590Y-104045488D01*
X70888590Y-104759774D02*
X69288590Y-104759774D01*
X69288590Y-104759774D02*
X69288590Y-105116917D01*
X69288590Y-105116917D02*
X69364780Y-105331203D01*
X69364780Y-105331203D02*
X69517161Y-105474060D01*
X69517161Y-105474060D02*
X69669542Y-105545489D01*
X69669542Y-105545489D02*
X69974304Y-105616917D01*
X69974304Y-105616917D02*
X70202876Y-105616917D01*
X70202876Y-105616917D02*
X70507638Y-105545489D01*
X70507638Y-105545489D02*
X70660019Y-105474060D01*
X70660019Y-105474060D02*
X70812400Y-105331203D01*
X70812400Y-105331203D02*
X70888590Y-105116917D01*
X70888590Y-105116917D02*
X70888590Y-104759774D01*
X52012960Y-102674060D02*
X51936770Y-102531203D01*
X51936770Y-102531203D02*
X51936770Y-102316917D01*
X51936770Y-102316917D02*
X52012960Y-102102631D01*
X52012960Y-102102631D02*
X52165341Y-101959774D01*
X52165341Y-101959774D02*
X52317722Y-101888345D01*
X52317722Y-101888345D02*
X52622484Y-101816917D01*
X52622484Y-101816917D02*
X52851056Y-101816917D01*
X52851056Y-101816917D02*
X53155818Y-101888345D01*
X53155818Y-101888345D02*
X53308199Y-101959774D01*
X53308199Y-101959774D02*
X53460580Y-102102631D01*
X53460580Y-102102631D02*
X53536770Y-102316917D01*
X53536770Y-102316917D02*
X53536770Y-102459774D01*
X53536770Y-102459774D02*
X53460580Y-102674060D01*
X53460580Y-102674060D02*
X53384389Y-102745488D01*
X53384389Y-102745488D02*
X52851056Y-102745488D01*
X52851056Y-102745488D02*
X52851056Y-102459774D01*
X53536770Y-103388345D02*
X51936770Y-103388345D01*
X51936770Y-103388345D02*
X53536770Y-104245488D01*
X53536770Y-104245488D02*
X51936770Y-104245488D01*
X53536770Y-104959774D02*
X51936770Y-104959774D01*
X51936770Y-104959774D02*
X51936770Y-105316917D01*
X51936770Y-105316917D02*
X52012960Y-105531203D01*
X52012960Y-105531203D02*
X52165341Y-105674060D01*
X52165341Y-105674060D02*
X52317722Y-105745489D01*
X52317722Y-105745489D02*
X52622484Y-105816917D01*
X52622484Y-105816917D02*
X52851056Y-105816917D01*
X52851056Y-105816917D02*
X53155818Y-105745489D01*
X53155818Y-105745489D02*
X53308199Y-105674060D01*
X53308199Y-105674060D02*
X53460580Y-105531203D01*
X53460580Y-105531203D02*
X53536770Y-105316917D01*
X53536770Y-105316917D02*
X53536770Y-104959774D01*
X55274585Y-99745488D02*
X55350775Y-99959774D01*
X55350775Y-99959774D02*
X55426966Y-100031203D01*
X55426966Y-100031203D02*
X55579347Y-100102631D01*
X55579347Y-100102631D02*
X55807918Y-100102631D01*
X55807918Y-100102631D02*
X55960299Y-100031203D01*
X55960299Y-100031203D02*
X56036490Y-99959774D01*
X56036490Y-99959774D02*
X56112680Y-99816917D01*
X56112680Y-99816917D02*
X56112680Y-99245488D01*
X56112680Y-99245488D02*
X54512680Y-99245488D01*
X54512680Y-99245488D02*
X54512680Y-99745488D01*
X54512680Y-99745488D02*
X54588870Y-99888346D01*
X54588870Y-99888346D02*
X54665061Y-99959774D01*
X54665061Y-99959774D02*
X54817442Y-100031203D01*
X54817442Y-100031203D02*
X54969823Y-100031203D01*
X54969823Y-100031203D02*
X55122204Y-99959774D01*
X55122204Y-99959774D02*
X55198394Y-99888346D01*
X55198394Y-99888346D02*
X55274585Y-99745488D01*
X55274585Y-99745488D02*
X55274585Y-99245488D01*
X54512680Y-101031203D02*
X54512680Y-101316917D01*
X54512680Y-101316917D02*
X54588870Y-101459774D01*
X54588870Y-101459774D02*
X54741251Y-101602631D01*
X54741251Y-101602631D02*
X55046013Y-101674060D01*
X55046013Y-101674060D02*
X55579347Y-101674060D01*
X55579347Y-101674060D02*
X55884109Y-101602631D01*
X55884109Y-101602631D02*
X56036490Y-101459774D01*
X56036490Y-101459774D02*
X56112680Y-101316917D01*
X56112680Y-101316917D02*
X56112680Y-101031203D01*
X56112680Y-101031203D02*
X56036490Y-100888346D01*
X56036490Y-100888346D02*
X55884109Y-100745488D01*
X55884109Y-100745488D02*
X55579347Y-100674060D01*
X55579347Y-100674060D02*
X55046013Y-100674060D01*
X55046013Y-100674060D02*
X54741251Y-100745488D01*
X54741251Y-100745488D02*
X54588870Y-100888346D01*
X54588870Y-100888346D02*
X54512680Y-101031203D01*
X54512680Y-102602632D02*
X54512680Y-102888346D01*
X54512680Y-102888346D02*
X54588870Y-103031203D01*
X54588870Y-103031203D02*
X54741251Y-103174060D01*
X54741251Y-103174060D02*
X55046013Y-103245489D01*
X55046013Y-103245489D02*
X55579347Y-103245489D01*
X55579347Y-103245489D02*
X55884109Y-103174060D01*
X55884109Y-103174060D02*
X56036490Y-103031203D01*
X56036490Y-103031203D02*
X56112680Y-102888346D01*
X56112680Y-102888346D02*
X56112680Y-102602632D01*
X56112680Y-102602632D02*
X56036490Y-102459775D01*
X56036490Y-102459775D02*
X55884109Y-102316917D01*
X55884109Y-102316917D02*
X55579347Y-102245489D01*
X55579347Y-102245489D02*
X55046013Y-102245489D01*
X55046013Y-102245489D02*
X54741251Y-102316917D01*
X54741251Y-102316917D02*
X54588870Y-102459775D01*
X54588870Y-102459775D02*
X54512680Y-102602632D01*
X54512680Y-103674061D02*
X54512680Y-104531204D01*
X56112680Y-104102632D02*
X54512680Y-104102632D01*
X54512680Y-105316918D02*
X54512680Y-105459775D01*
X54512680Y-105459775D02*
X54588870Y-105602632D01*
X54588870Y-105602632D02*
X54665061Y-105674061D01*
X54665061Y-105674061D02*
X54817442Y-105745489D01*
X54817442Y-105745489D02*
X55122204Y-105816918D01*
X55122204Y-105816918D02*
X55503156Y-105816918D01*
X55503156Y-105816918D02*
X55807918Y-105745489D01*
X55807918Y-105745489D02*
X55960299Y-105674061D01*
X55960299Y-105674061D02*
X56036490Y-105602632D01*
X56036490Y-105602632D02*
X56112680Y-105459775D01*
X56112680Y-105459775D02*
X56112680Y-105316918D01*
X56112680Y-105316918D02*
X56036490Y-105174061D01*
X56036490Y-105174061D02*
X55960299Y-105102632D01*
X55960299Y-105102632D02*
X55807918Y-105031203D01*
X55807918Y-105031203D02*
X55503156Y-104959775D01*
X55503156Y-104959775D02*
X55122204Y-104959775D01*
X55122204Y-104959775D02*
X54817442Y-105031203D01*
X54817442Y-105031203D02*
X54665061Y-105102632D01*
X54665061Y-105102632D02*
X54588870Y-105174061D01*
X54588870Y-105174061D02*
X54512680Y-105316918D01*
X57088590Y-101459775D02*
X57088590Y-102388347D01*
X57088590Y-102388347D02*
X57698114Y-101888347D01*
X57698114Y-101888347D02*
X57698114Y-102102632D01*
X57698114Y-102102632D02*
X57774304Y-102245490D01*
X57774304Y-102245490D02*
X57850495Y-102316918D01*
X57850495Y-102316918D02*
X58002876Y-102388347D01*
X58002876Y-102388347D02*
X58383828Y-102388347D01*
X58383828Y-102388347D02*
X58536209Y-102316918D01*
X58536209Y-102316918D02*
X58612400Y-102245490D01*
X58612400Y-102245490D02*
X58688590Y-102102632D01*
X58688590Y-102102632D02*
X58688590Y-101674061D01*
X58688590Y-101674061D02*
X58612400Y-101531204D01*
X58612400Y-101531204D02*
X58536209Y-101459775D01*
X58536209Y-103031203D02*
X58612400Y-103102632D01*
X58612400Y-103102632D02*
X58688590Y-103031203D01*
X58688590Y-103031203D02*
X58612400Y-102959775D01*
X58612400Y-102959775D02*
X58536209Y-103031203D01*
X58536209Y-103031203D02*
X58688590Y-103031203D01*
X57088590Y-103602632D02*
X57088590Y-104531204D01*
X57088590Y-104531204D02*
X57698114Y-104031204D01*
X57698114Y-104031204D02*
X57698114Y-104245489D01*
X57698114Y-104245489D02*
X57774304Y-104388347D01*
X57774304Y-104388347D02*
X57850495Y-104459775D01*
X57850495Y-104459775D02*
X58002876Y-104531204D01*
X58002876Y-104531204D02*
X58383828Y-104531204D01*
X58383828Y-104531204D02*
X58536209Y-104459775D01*
X58536209Y-104459775D02*
X58612400Y-104388347D01*
X58612400Y-104388347D02*
X58688590Y-104245489D01*
X58688590Y-104245489D02*
X58688590Y-103816918D01*
X58688590Y-103816918D02*
X58612400Y-103674061D01*
X58612400Y-103674061D02*
X58536209Y-103602632D01*
X57088590Y-104959775D02*
X58688590Y-105459775D01*
X58688590Y-105459775D02*
X57088590Y-105959775D01*
M02*
