%TF.GenerationSoftware,KiCad,Pcbnew,8.0.4*%
%TF.CreationDate,2024-08-18T22:57:54+08:00*%
%TF.ProjectId,DapLink_STM32F103CBT6,4461704c-696e-46b5-9f53-544d33324631,rev?*%
%TF.SameCoordinates,Original*%
%TF.FileFunction,Copper,L2,Bot*%
%TF.FilePolarity,Positive*%
%FSLAX46Y46*%
G04 Gerber Fmt 4.6, Leading zero omitted, Abs format (unit mm)*
G04 Created by KiCad (PCBNEW 8.0.4) date 2024-08-18 22:57:54*
%MOMM*%
%LPD*%
G01*
G04 APERTURE LIST*
%TA.AperFunction,Conductor*%
%ADD10C,0.001000*%
%TD*%
%TA.AperFunction,ComponentPad*%
%ADD11C,0.800000*%
%TD*%
%TA.AperFunction,ComponentPad*%
%ADD12C,6.400000*%
%TD*%
%TA.AperFunction,ComponentPad*%
%ADD13R,1.700000X1.700000*%
%TD*%
%TA.AperFunction,ComponentPad*%
%ADD14O,1.700000X1.700000*%
%TD*%
%TA.AperFunction,ComponentPad*%
%ADD15O,2.100000X1.000000*%
%TD*%
%TA.AperFunction,ComponentPad*%
%ADD16O,1.800000X1.000000*%
%TD*%
%TA.AperFunction,ViaPad*%
%ADD17C,0.600000*%
%TD*%
%TA.AperFunction,Conductor*%
%ADD18C,0.600000*%
%TD*%
%TA.AperFunction,Conductor*%
%ADD19C,0.300000*%
%TD*%
%TA.AperFunction,Conductor*%
%ADD20C,0.200000*%
%TD*%
G04 APERTURE END LIST*
D10*
%TO.N,+3.3V*%
X65400000Y-73100000D02*
X65400000Y-73700000D01*
X65100000Y-74000000D01*
X63900000Y-74000000D01*
X63600000Y-73700000D01*
X63600000Y-73100000D01*
X63900000Y-72800000D01*
X65100000Y-72800000D01*
X65400000Y-73100000D01*
%TA.AperFunction,Conductor*%
G36*
X65400000Y-73100000D02*
G01*
X65400000Y-73700000D01*
X65100000Y-74000000D01*
X63900000Y-74000000D01*
X63600000Y-73700000D01*
X63600000Y-73100000D01*
X63900000Y-72800000D01*
X65100000Y-72800000D01*
X65400000Y-73100000D01*
G37*
%TD.AperFunction*%
%TD*%
D11*
%TO.P,H1,1,1*%
%TO.N,GND*%
X38100000Y-68500000D03*
X38802944Y-66802944D03*
X38802944Y-70197056D03*
X40500000Y-66100000D03*
D12*
X40500000Y-68500000D03*
D11*
X40500000Y-70900000D03*
X42197056Y-66802944D03*
X42197056Y-70197056D03*
X42900000Y-68500000D03*
%TD*%
D13*
%TO.P,J3,1,Pin_1*%
%TO.N,+3.3V*%
X79600000Y-71000000D03*
D14*
%TO.P,J3,2,Pin_2*%
%TO.N,GND*%
X77060000Y-71000000D03*
%TO.P,J3,3,Pin_3*%
%TO.N,/Mcu/IF_SWCLK*%
X74520000Y-71000000D03*
%TO.P,J3,4,Pin_4*%
%TO.N,/Mcu/IF_SWDIO*%
X71980000Y-71000000D03*
%TO.P,J3,5,Pin_5*%
%TO.N,/Mcu/IF_TXD*%
X69440000Y-71000000D03*
%TO.P,J3,6,Pin_6*%
%TO.N,/Mcu/IF_RXD*%
X66900000Y-71000000D03*
%TO.P,J3,7,Pin_7*%
%TO.N,/Mcu/IF_SWO*%
X64360000Y-71000000D03*
%TO.P,J3,8,Pin_8*%
%TO.N,/Mcu/IF_RESET*%
X61820000Y-71000000D03*
%TD*%
D13*
%TO.P,J2,1,Pin_1*%
%TO.N,+3.3V*%
X58000000Y-107700000D03*
D14*
%TO.P,J2,2,Pin_2*%
%TO.N,/Mcu/BOOT0*%
X55460000Y-107700000D03*
%TO.P,J2,3,Pin_3*%
%TO.N,GND*%
X52920000Y-107700000D03*
%TD*%
D15*
%TO.P,J4,S1,SHIELD*%
%TO.N,GND*%
X43125000Y-85680000D03*
D16*
X38925000Y-85680000D03*
D15*
X43125000Y-94320000D03*
D16*
X38925000Y-94320000D03*
%TD*%
D13*
%TO.P,J1,1,Pin_1*%
%TO.N,+3.3V*%
X65060000Y-107700000D03*
D14*
%TO.P,J1,2,Pin_2*%
%TO.N,/Mcu/BOOT1*%
X67600000Y-107700000D03*
%TO.P,J1,3,Pin_3*%
%TO.N,GND*%
X70140000Y-107700000D03*
%TD*%
D11*
%TO.P,H4,1,1*%
%TO.N,GND*%
X100600000Y-109000000D03*
X101302944Y-107302944D03*
X101302944Y-110697056D03*
X103000000Y-106600000D03*
D12*
X103000000Y-109000000D03*
D11*
X103000000Y-111400000D03*
X104697056Y-107302944D03*
X104697056Y-110697056D03*
X105400000Y-109000000D03*
%TD*%
D13*
%TO.P,J7,1,Pin_1*%
%TO.N,+1.8V_Target*%
X95040000Y-71000000D03*
D14*
%TO.P,J7,2,Pin_2*%
%TO.N,+1.8V*%
X92500000Y-71000000D03*
%TO.P,J7,3,Pin_3*%
%TO.N,+1.8V_LDO*%
X89960000Y-71000000D03*
%TD*%
D11*
%TO.P,H3,1,1*%
%TO.N,GND*%
X100600000Y-68500000D03*
X101302944Y-66802944D03*
X101302944Y-70197056D03*
X103000000Y-66100000D03*
D12*
X103000000Y-68500000D03*
D11*
X103000000Y-70900000D03*
X104697056Y-66802944D03*
X104697056Y-70197056D03*
X105400000Y-68500000D03*
%TD*%
D13*
%TO.P,J6,1,Pin_1*%
%TO.N,+1.8V_Target*%
X105200000Y-82425000D03*
D14*
%TO.P,J6,2,Pin_2*%
%TO.N,GND*%
X105200000Y-84965000D03*
%TO.P,J6,3,Pin_3*%
%TO.N,/DebugAndUart/TARGET_1v8_SWCLK*%
X105200000Y-87505000D03*
%TO.P,J6,4,Pin_4*%
%TO.N,/DebugAndUart/TARGET_1v8_SWDIO*%
X105200000Y-90045000D03*
%TO.P,J6,5,Pin_5*%
%TO.N,/DebugAndUart/TARGET_1v8_TXD*%
X105200000Y-92585000D03*
%TO.P,J6,6,Pin_6*%
%TO.N,/DebugAndUart/TARGET_1v8_RXD*%
X105200000Y-95125000D03*
%TO.P,J6,7,Pin_7*%
%TO.N,/DebugAndUart/TARGET_1v8_SWO*%
X105200000Y-97665000D03*
%TO.P,J6,8,Pin_8*%
%TO.N,/DebugAndUart/TARGET_1v8_RESET*%
X105200000Y-100205000D03*
%TD*%
D13*
%TO.P,J5,1,Pin_1*%
%TO.N,+3.3V*%
X86500000Y-82525000D03*
D14*
%TO.P,J5,2,Pin_2*%
%TO.N,GND*%
X86500000Y-85065000D03*
%TO.P,J5,3,Pin_3*%
%TO.N,/DebugAndUart/TARGET_SWCLK*%
X86500000Y-87605000D03*
%TO.P,J5,4,Pin_4*%
%TO.N,/DebugAndUart/TARGET_SWDIO*%
X86500000Y-90145000D03*
%TO.P,J5,5,Pin_5*%
%TO.N,/DebugAndUart/TARGET_TXD*%
X86500000Y-92685000D03*
%TO.P,J5,6,Pin_6*%
%TO.N,/DebugAndUart/TARGET_RXD*%
X86500000Y-95225000D03*
%TO.P,J5,7,Pin_7*%
%TO.N,/DebugAndUart/TARGET_SWO*%
X86500000Y-97765000D03*
%TO.P,J5,8,Pin_8*%
%TO.N,/DebugAndUart/TARGET_RESET*%
X86500000Y-100305000D03*
%TD*%
D11*
%TO.P,H2,1,1*%
%TO.N,GND*%
X38100000Y-109000000D03*
X38802944Y-107302944D03*
X38802944Y-110697056D03*
X40500000Y-106600000D03*
D12*
X40500000Y-109000000D03*
D11*
X40500000Y-111400000D03*
X42197056Y-107302944D03*
X42197056Y-110697056D03*
X42900000Y-109000000D03*
%TD*%
D17*
%TO.N,GND*%
X70500000Y-74300000D03*
X82700000Y-88700000D03*
X53900000Y-93800000D03*
X79000000Y-89700000D03*
X52300000Y-92800000D03*
X96700000Y-96400000D03*
X57000000Y-90200000D03*
X80400000Y-95100000D03*
X96000000Y-99400000D03*
X52600000Y-76900000D03*
X39100000Y-73300000D03*
X81500000Y-70800000D03*
X65900000Y-82500000D03*
X96600000Y-66700000D03*
X92000000Y-83000000D03*
X89500000Y-105900000D03*
X56300000Y-74400000D03*
X70600000Y-77600000D03*
X71000000Y-91100000D03*
X99500000Y-102000000D03*
X87700000Y-77100000D03*
X59300000Y-86400000D03*
X106400000Y-102800000D03*
X57400000Y-93200000D03*
X72400000Y-91900000D03*
X95300000Y-75600000D03*
X62800000Y-106600000D03*
X68200000Y-72100000D03*
X47900000Y-66700000D03*
X87100000Y-70700000D03*
X54100000Y-72900000D03*
X76800000Y-87600000D03*
X74955555Y-66700000D03*
X54100000Y-75700000D03*
X84000000Y-86800000D03*
X105700000Y-78800000D03*
X80900000Y-84700000D03*
X69500000Y-82400000D03*
X75200000Y-80300000D03*
X79000000Y-95100000D03*
X84000000Y-78800000D03*
X47800000Y-75800000D03*
X61700000Y-82200000D03*
X96700000Y-87200000D03*
X56500000Y-97800000D03*
X85100000Y-77200000D03*
X97900000Y-95300000D03*
X42200000Y-98200000D03*
X65500000Y-97500000D03*
X68000000Y-78100000D03*
X106700000Y-91400000D03*
X48700000Y-88000000D03*
X58722222Y-66700000D03*
X80700000Y-100300000D03*
X84000000Y-82700000D03*
X69500000Y-80700000D03*
X43100000Y-84100000D03*
X89700000Y-80000000D03*
X81400000Y-88700000D03*
X45400000Y-78100000D03*
X97400000Y-83000000D03*
X51700000Y-101900000D03*
X74400000Y-95600000D03*
X101000000Y-88400000D03*
X67200000Y-82500000D03*
X68200000Y-69600000D03*
X46300000Y-70400000D03*
X71000000Y-92700000D03*
X81600000Y-74200000D03*
X75600000Y-72100000D03*
X81100000Y-83000000D03*
X93400000Y-107100000D03*
X90000000Y-73100000D03*
X78700000Y-80900000D03*
X63800000Y-88100000D03*
X39000000Y-76500000D03*
X44700000Y-103600000D03*
X66400000Y-93600000D03*
X52500000Y-83400000D03*
X72700000Y-96600000D03*
X100400000Y-82100000D03*
X98500000Y-84400000D03*
X60700000Y-84500000D03*
X61400000Y-105400000D03*
X73700000Y-81300000D03*
X60700000Y-80500000D03*
X96100000Y-90500000D03*
X47800000Y-110200000D03*
X94500000Y-95300000D03*
X65300000Y-93300000D03*
X100700000Y-84600000D03*
X93400000Y-105900000D03*
X61400000Y-86700000D03*
X65100000Y-104500000D03*
X68900000Y-87400000D03*
X94200000Y-80100000D03*
X45300000Y-74300000D03*
X89000000Y-101200000D03*
X57700000Y-100000000D03*
X102800000Y-88400000D03*
X59200000Y-102900000D03*
X88800000Y-102900000D03*
X54000000Y-104600000D03*
X59300000Y-69500000D03*
X54100000Y-74300000D03*
X37900000Y-103500000D03*
X101300000Y-92400000D03*
X76500000Y-101500000D03*
X97900000Y-79900000D03*
X51112500Y-82750000D03*
X55600000Y-92100000D03*
X39300000Y-91700000D03*
X66400000Y-101100000D03*
X43300000Y-74300000D03*
X68800000Y-90900000D03*
X55800000Y-84500000D03*
X55700000Y-110800000D03*
X57100000Y-86300000D03*
X96700000Y-84900000D03*
X65500000Y-101100000D03*
X86700000Y-110200000D03*
X78800000Y-85800000D03*
X56600000Y-102700000D03*
X65600000Y-81300000D03*
X60800000Y-97400000D03*
X51500000Y-104700000D03*
X77500000Y-78200000D03*
X42000000Y-80887500D03*
X73600000Y-92700000D03*
X55100000Y-87400000D03*
X37900000Y-101400000D03*
X74000000Y-110600000D03*
X63500000Y-81300000D03*
X94500000Y-97700000D03*
X45900000Y-84600000D03*
X58800000Y-84600000D03*
X91300000Y-105900000D03*
X56500000Y-105900000D03*
X100900000Y-97300000D03*
X56500000Y-95900000D03*
X59700000Y-83100000D03*
X75200000Y-79100000D03*
X51400000Y-96500000D03*
X73000000Y-101500000D03*
X79200000Y-99400000D03*
X96100000Y-92100000D03*
X58500000Y-73800000D03*
X66300000Y-95600000D03*
X80100000Y-96500000D03*
X96200000Y-108300000D03*
X49200000Y-72800000D03*
X55200000Y-80300000D03*
X71000000Y-101500000D03*
X87700000Y-74300000D03*
X92100000Y-88000000D03*
X74200000Y-79900000D03*
X77700000Y-79900000D03*
X74300000Y-84200000D03*
X45900000Y-86200000D03*
X74750000Y-101500000D03*
X63200000Y-82500000D03*
X90800000Y-94300000D03*
X84700000Y-88100000D03*
X38900000Y-97200000D03*
X102300000Y-79600000D03*
X88600000Y-83600000D03*
X50500000Y-106200000D03*
X56500000Y-100000000D03*
X89000000Y-99100000D03*
X79700000Y-84400000D03*
X83700000Y-65400000D03*
X46700000Y-77600000D03*
X55600000Y-89800000D03*
X44800000Y-101300000D03*
X50700000Y-89900000D03*
X92100000Y-84500000D03*
X94600000Y-83000000D03*
X59300000Y-70700000D03*
X87700000Y-79900000D03*
X47800000Y-96100000D03*
X39000000Y-80900000D03*
X47800000Y-91900000D03*
X60800000Y-92300000D03*
X53300000Y-80700000D03*
X57450000Y-82862500D03*
X49000000Y-80300000D03*
X81600000Y-77200000D03*
X75200000Y-99400000D03*
X46600000Y-72800000D03*
X59200000Y-105100000D03*
X82700000Y-110200000D03*
X100000000Y-99500000D03*
X60400000Y-106600000D03*
X73600000Y-91100000D03*
X93600000Y-100600000D03*
X49500000Y-94600000D03*
X89000000Y-97500000D03*
X56500000Y-93800000D03*
X51100000Y-98700000D03*
X85100000Y-79900000D03*
X53200000Y-87300000D03*
X77100000Y-76225000D03*
X64133333Y-66700000D03*
X58900000Y-78000000D03*
X91188888Y-66700000D03*
X66700000Y-106200000D03*
X72800000Y-95600000D03*
X76500000Y-99400000D03*
X60500000Y-75100000D03*
X73300000Y-88300000D03*
X59500000Y-93800000D03*
X60600000Y-101000000D03*
X69544444Y-66700000D03*
X50800000Y-93800000D03*
X42400000Y-95800000D03*
X85777777Y-66700000D03*
X94900000Y-110200000D03*
X46400000Y-91100000D03*
X68400000Y-105200000D03*
X42000000Y-78000000D03*
X90400000Y-110200000D03*
X60900000Y-95600000D03*
X69500000Y-76225000D03*
X62800000Y-93500000D03*
X63100000Y-101100000D03*
X83400000Y-100300000D03*
X79100000Y-102700000D03*
X65100000Y-106000000D03*
X49500000Y-93100000D03*
X85100000Y-74200000D03*
X77900000Y-83100000D03*
X94900000Y-77200000D03*
X65600000Y-72100000D03*
X71700000Y-105600000D03*
X49600000Y-84450000D03*
X79200000Y-96500000D03*
X49700000Y-77200000D03*
X83400000Y-102300000D03*
X88600000Y-94500000D03*
X97500000Y-100900000D03*
X46900000Y-79800000D03*
X43200000Y-102700000D03*
X53800000Y-101900000D03*
X88600000Y-85100000D03*
X103600000Y-94800000D03*
X81700000Y-87100000D03*
X90700000Y-77200000D03*
X41600000Y-89600000D03*
X58900000Y-76700000D03*
X52900000Y-84800000D03*
X65500000Y-100212500D03*
X53311111Y-66700000D03*
X77400000Y-110700000D03*
X80100000Y-74200000D03*
X79600000Y-78800000D03*
X60900000Y-76900000D03*
X52600000Y-78400000D03*
X52900000Y-70200000D03*
X74800000Y-83100000D03*
X52900000Y-68600000D03*
X63900000Y-90600000D03*
X84700000Y-70700000D03*
X45000000Y-106200000D03*
X74400000Y-96600000D03*
X78800000Y-87600000D03*
X51900000Y-72900000D03*
X50700000Y-87300000D03*
X96200000Y-77200000D03*
X66300000Y-98400000D03*
X67200000Y-81300000D03*
X38900000Y-99100000D03*
X62700000Y-110800000D03*
X47600000Y-99300000D03*
X46000000Y-95800000D03*
X56300000Y-75600000D03*
X99500000Y-104300000D03*
X100500000Y-95300000D03*
X84000000Y-85000000D03*
X88700000Y-87100000D03*
X96100000Y-88900000D03*
X78000000Y-74000000D03*
X46400000Y-74000000D03*
X66400000Y-100200000D03*
X62600000Y-89600000D03*
X71000000Y-110700000D03*
X59100000Y-75300000D03*
X79700000Y-88600000D03*
X91500000Y-96700000D03*
X67100000Y-97500000D03*
X39300000Y-87600000D03*
X46700000Y-82200000D03*
X73800000Y-107300000D03*
X77000000Y-86100000D03*
X101700000Y-74500000D03*
X96700000Y-94100000D03*
X46200000Y-101300000D03*
X50700000Y-91800000D03*
X69500000Y-84100000D03*
X47750000Y-106200000D03*
X86500000Y-102300000D03*
X45100000Y-93700000D03*
X66700000Y-104500000D03*
X80700000Y-102300000D03*
X80366666Y-66700000D03*
X90400000Y-107100000D03*
X46300000Y-103600000D03*
X62900000Y-104700000D03*
X65300000Y-95600000D03*
X98300000Y-75800000D03*
X45300000Y-73200000D03*
X98100000Y-97900000D03*
X95400000Y-104200000D03*
X51100000Y-100200000D03*
X105700000Y-74500000D03*
X79100000Y-101150000D03*
%TO.N,/UsbAndPower/USB_VBUS*%
X45200000Y-92400000D03*
X45200000Y-87600000D03*
%TO.N,+3.3V*%
X90300000Y-82525000D03*
X92400000Y-98600000D03*
X65100000Y-73700000D03*
X52300000Y-75900000D03*
X64500000Y-73700000D03*
X91800000Y-90750000D03*
X64500000Y-73100000D03*
X52900000Y-75900000D03*
X76200000Y-73000000D03*
X76100000Y-93800000D03*
X64900000Y-83500000D03*
X65100000Y-73100000D03*
X63900000Y-73100000D03*
X75600000Y-85600000D03*
X92400000Y-108100000D03*
X50200000Y-103300000D03*
X92600000Y-94900000D03*
X64900000Y-84700000D03*
X52300000Y-71700000D03*
X63900000Y-73700000D03*
X92600000Y-95500000D03*
X52900000Y-71700000D03*
X75500000Y-93800000D03*
X86500000Y-74200000D03*
X86500000Y-73600000D03*
X92600000Y-94300000D03*
X64900000Y-84100000D03*
X64000000Y-93700000D03*
X86500000Y-73000000D03*
X49400000Y-97900000D03*
X64000000Y-93100000D03*
X90300000Y-83100000D03*
%TO.N,+1.8V*%
X100000000Y-92800000D03*
X100650000Y-86150000D03*
X102100000Y-100300000D03*
X92500000Y-74400000D03*
X92500000Y-73800000D03*
%TO.N,/Mcu/IF_RESET*%
X68100000Y-90250000D03*
X62600000Y-77025000D03*
X68100000Y-79675000D03*
%TO.N,/UsbAndPower/USB_D+*%
X42500000Y-90300000D03*
X41000000Y-96100000D03*
%TO.N,+1.8V_LDO*%
X55200000Y-77000000D03*
X55200000Y-68400000D03*
X55200000Y-77600000D03*
X55800000Y-68400000D03*
%TO.N,/UsbAndPower/USB_CONNECT*%
X70150000Y-88150000D03*
X68196993Y-103800000D03*
%TO.N,/DebugAndUart/TARGET_TXD*%
X84624265Y-97175735D03*
%TO.N,/Mcu/IF_RXD*%
X71300000Y-79025000D03*
X71775499Y-89600000D03*
X65600000Y-77125000D03*
%TO.N,+1.8V_Target*%
X97100000Y-74700000D03*
X97100000Y-74100000D03*
%TO.N,/Mcu/BOOT1*%
X67900000Y-99800000D03*
%TO.N,/Mcu/IF_SWDIO*%
X72400000Y-89100000D03*
%TO.N,/Mcu/LED_nHID*%
X68900000Y-95500000D03*
X68900000Y-104212149D03*
%TO.N,/Mcu/LED_nCDC*%
X69600000Y-95900000D03*
X69600000Y-103800000D03*
%TO.N,/Mcu/LED_nMSC*%
X70300000Y-104200000D03*
X70400000Y-95900000D03*
%TO.N,/Mcu/IF_SWCLK*%
X72950000Y-84184620D03*
%TO.N,/Mcu/LED_RUNNING*%
X80600000Y-90300000D03*
X80600000Y-85700000D03*
%TO.N,Net-(U1-BOOT0)*%
X67250000Y-101950000D03*
X61000000Y-101950000D03*
X70150000Y-87350000D03*
X61000000Y-104250000D03*
%TO.N,Net-(U1-PB0)*%
X71000000Y-98100000D03*
X71100000Y-95500000D03*
%TO.N,Net-(U1-PB2)*%
X73200000Y-99600000D03*
X71800000Y-95900000D03*
%TO.N,Net-(U1-PB14)*%
X80800000Y-93550000D03*
X80600000Y-91600000D03*
%TO.N,/Mcu/IF_SWO*%
X72450000Y-87074999D03*
X62900000Y-79600000D03*
X72450000Y-79800000D03*
%TO.N,/Mcu/IF_TXD*%
X71163302Y-90114994D03*
X73200000Y-77125000D03*
X71300000Y-78225000D03*
%TO.N,/DebugAndUart/TARGET_SWO*%
X83900000Y-88900000D03*
%TO.N,Net-(U1-PA11)*%
X77300000Y-89250000D03*
X54700000Y-89110000D03*
X55700000Y-101200000D03*
X77314004Y-102450000D03*
%TO.N,Net-(U1-PA12)*%
X78000000Y-88750000D03*
X78000000Y-103000000D03*
X55700000Y-102100000D03*
X53900000Y-92400000D03*
%TO.N,Net-(U1-PA0)*%
X66800000Y-96500000D03*
X68300000Y-91750000D03*
%TD*%
D18*
%TO.N,/UsbAndPower/USB_VBUS*%
X45200000Y-87600000D02*
X45200000Y-92400000D01*
%TO.N,+3.3V*%
X64900000Y-92200000D02*
X64000000Y-93100000D01*
X86500000Y-73000000D02*
X86500000Y-82525000D01*
X64900000Y-83500000D02*
X64500000Y-83100000D01*
D19*
X49400000Y-102500000D02*
X50200000Y-103300000D01*
D18*
X90300000Y-89250000D02*
X90300000Y-82525000D01*
X64500000Y-83100000D02*
X64500000Y-73100000D01*
X91800000Y-90750000D02*
X91800000Y-93300000D01*
X52300000Y-71700000D02*
X52900000Y-71700000D01*
X75600000Y-85600000D02*
X75600000Y-93700000D01*
X52300000Y-75900000D02*
X52900000Y-75900000D01*
D19*
X92400000Y-98600000D02*
X92400000Y-108100000D01*
D18*
X76200000Y-73000000D02*
X76200000Y-85000000D01*
X64000000Y-106640000D02*
X64000000Y-93700000D01*
X75600000Y-93700000D02*
X75500000Y-93800000D01*
X91800000Y-90750000D02*
X90300000Y-89250000D01*
X92400000Y-98600000D02*
X92600000Y-98400000D01*
D19*
X49400000Y-97900000D02*
X49400000Y-102500000D01*
D18*
X64900000Y-84700000D02*
X64900000Y-92200000D01*
X92600000Y-94100000D02*
X92600000Y-94300000D01*
X64900000Y-84700000D02*
X64900000Y-83500000D01*
X92600000Y-94300000D02*
X92600000Y-94900000D01*
X64000000Y-93100000D02*
X64000000Y-93700000D01*
X65060000Y-107700000D02*
X64000000Y-106640000D01*
X76200000Y-85000000D02*
X75600000Y-85600000D01*
X92600000Y-98400000D02*
X92600000Y-94900000D01*
X52900000Y-75900000D02*
X52900000Y-71700000D01*
X75500000Y-93800000D02*
X76100000Y-93800000D01*
D19*
X90400000Y-82625000D02*
X90300000Y-82525000D01*
D18*
X91800000Y-93300000D02*
X92600000Y-94100000D01*
%TO.N,+1.8V*%
X100650000Y-86150000D02*
X99550000Y-86150000D01*
X97800000Y-91800000D02*
X97800000Y-87900000D01*
X99550000Y-86150000D02*
X99550000Y-83550000D01*
X102100000Y-100300000D02*
X102100000Y-94900000D01*
X92500000Y-76500000D02*
X92500000Y-73800000D01*
X102100000Y-94900000D02*
X100000000Y-92800000D01*
X98800000Y-92800000D02*
X97800000Y-91800000D01*
X99550000Y-83550000D02*
X92500000Y-76500000D01*
X97800000Y-87900000D02*
X99550000Y-86150000D01*
X92500000Y-74400000D02*
X92500000Y-73800000D01*
X100000000Y-92800000D02*
X98800000Y-92800000D01*
D19*
%TO.N,/Mcu/IF_RESET*%
X62600000Y-77025000D02*
X62600000Y-71845000D01*
X62600000Y-71845000D02*
X61780000Y-71025000D01*
X68100000Y-79675000D02*
X68100000Y-90250000D01*
%TO.N,/UsbAndPower/USB_D+*%
X41000000Y-96100000D02*
X41000000Y-91800000D01*
X41000000Y-91800000D02*
X42500000Y-90300000D01*
D18*
%TO.N,+1.8V_LDO*%
X55200000Y-77600000D02*
X55200000Y-68400000D01*
X55200000Y-68400000D02*
X55800000Y-68400000D01*
D19*
%TO.N,/UsbAndPower/USB_CONNECT*%
X68250000Y-96176346D02*
X68250000Y-94450000D01*
X68599997Y-96526343D02*
X68250000Y-96176346D01*
X68250000Y-94450000D02*
X70150000Y-92550000D01*
X68196993Y-103800000D02*
X68196993Y-103476661D01*
X70150000Y-92550000D02*
X70150000Y-88150000D01*
X68196993Y-103476661D02*
X68599997Y-103073657D01*
X68599997Y-103073657D02*
X68599997Y-96526343D01*
%TO.N,/DebugAndUart/TARGET_TXD*%
X84624265Y-97175735D02*
X84624265Y-93475735D01*
X85415000Y-92685000D02*
X86500000Y-92685000D01*
X84624265Y-93475735D02*
X85415000Y-92685000D01*
%TO.N,/Mcu/IF_RXD*%
X71300000Y-89124501D02*
X71300000Y-79025000D01*
X66860000Y-71025000D02*
X66860000Y-75865000D01*
X66860000Y-75865000D02*
X65600000Y-77125000D01*
X71775499Y-89600000D02*
X71300000Y-89124501D01*
D18*
%TO.N,+1.8V_Target*%
X103650000Y-81000000D02*
X105075000Y-82425000D01*
X97100000Y-74100000D02*
X97100000Y-76350000D01*
X97100000Y-76350000D02*
X101750000Y-81000000D01*
X101750000Y-81000000D02*
X103650000Y-81000000D01*
X105075000Y-82425000D02*
X105200000Y-82425000D01*
D19*
%TO.N,/Mcu/BOOT1*%
X67546993Y-103419554D02*
X67546993Y-107646993D01*
X67900000Y-103066547D02*
X67546993Y-103419554D01*
X67900000Y-99800000D02*
X67900000Y-100150003D01*
X67546993Y-107286993D02*
X67960000Y-107700000D01*
X67546993Y-107646993D02*
X67600000Y-107700000D01*
X67900000Y-99800000D02*
X67900000Y-103066547D01*
%TO.N,/Mcu/IF_SWDIO*%
X71800000Y-88500000D02*
X71800000Y-79444239D01*
X73850000Y-72350000D02*
X72525000Y-71025000D01*
X72525000Y-71025000D02*
X71940000Y-71025000D01*
X71800000Y-79444239D02*
X73850000Y-77394239D01*
X72400000Y-89100000D02*
X71800000Y-88500000D01*
X73850000Y-77394239D02*
X73850000Y-72350000D01*
%TO.N,/Mcu/LED_nHID*%
X69099997Y-96319236D02*
X68900000Y-96119239D01*
X69099997Y-103280764D02*
X69099997Y-96319236D01*
X68900000Y-96119239D02*
X68900000Y-95500000D01*
X68950000Y-104162149D02*
X68950000Y-103430761D01*
X68900000Y-104212149D02*
X68950000Y-104162149D01*
X68950000Y-103430761D02*
X69099997Y-103280764D01*
%TO.N,/Mcu/LED_nCDC*%
X69599997Y-103799997D02*
X69599997Y-95900000D01*
%TO.N,/Mcu/LED_nMSC*%
X70400000Y-95900000D02*
X70400000Y-96019236D01*
X70099997Y-103280758D02*
X70300000Y-103480761D01*
X70099997Y-96319239D02*
X70099997Y-103280758D01*
X70400000Y-96019236D02*
X70099997Y-96319239D01*
X70300000Y-103480761D02*
X70300000Y-104200000D01*
%TO.N,/Mcu/IF_SWCLK*%
X74480000Y-77471345D02*
X74480000Y-71025000D01*
X73100000Y-78851345D02*
X74480000Y-77471345D01*
X73100000Y-80069239D02*
X73100000Y-78851345D01*
X72950000Y-84184620D02*
X72800000Y-84034620D01*
X72800000Y-80369239D02*
X73100000Y-80069239D01*
X72800000Y-84034620D02*
X72800000Y-80369239D01*
%TO.N,/Mcu/LED_RUNNING*%
X80600000Y-85700000D02*
X80600000Y-90300000D01*
%TO.N,Net-(U1-BOOT0)*%
X67250000Y-101950000D02*
X67400000Y-101800000D01*
X68099997Y-98680764D02*
X68099997Y-96733449D01*
X67400000Y-101800000D02*
X67400000Y-100219239D01*
X67250000Y-99530761D02*
X68099997Y-98680764D01*
X69500000Y-88419239D02*
X69500000Y-87880761D01*
X69650000Y-92342894D02*
X69650000Y-88569239D01*
X69650000Y-88569239D02*
X69500000Y-88419239D01*
X70030761Y-87350000D02*
X70150000Y-87350000D01*
X69500000Y-87880761D02*
X70030761Y-87350000D01*
X67750000Y-96383452D02*
X67750000Y-94242894D01*
X67750000Y-94242894D02*
X69650000Y-92342894D01*
X67250000Y-100069239D02*
X67250000Y-99530761D01*
X67400000Y-100219239D02*
X67250000Y-100069239D01*
X68099997Y-96733449D02*
X67750000Y-96383452D01*
X61000000Y-101950000D02*
X61000000Y-104250000D01*
%TO.N,Net-(U1-PB0)*%
X70600000Y-97700000D02*
X71000000Y-98100000D01*
X70600000Y-96619239D02*
X70600000Y-97700000D01*
X71100000Y-95500000D02*
X71100000Y-96119239D01*
X71100000Y-96119239D02*
X70600000Y-96619239D01*
%TO.N,Net-(U1-PB2)*%
X72100000Y-99600000D02*
X71800000Y-99300000D01*
X71800000Y-99300000D02*
X71800000Y-95900000D01*
X73200000Y-99600000D02*
X72100000Y-99600000D01*
%TO.N,Net-(U1-PB14)*%
X80600000Y-91600000D02*
X80600000Y-93350000D01*
X80600000Y-93350000D02*
X80800000Y-93550000D01*
%TO.N,/Mcu/IF_SWO*%
X62900000Y-77644239D02*
X62900000Y-79600000D01*
X72300000Y-86924999D02*
X72300000Y-79950000D01*
X63100000Y-72245000D02*
X63100000Y-76605761D01*
X64320000Y-71025000D02*
X63100000Y-72245000D01*
X72300000Y-79950000D02*
X72450000Y-79800000D01*
X63250000Y-76755761D02*
X63250000Y-77294239D01*
X72450000Y-87074999D02*
X72300000Y-86924999D01*
X63100000Y-76605761D02*
X63250000Y-76755761D01*
X63250000Y-77294239D02*
X62900000Y-77644239D01*
%TO.N,/Mcu/IF_TXD*%
X70650000Y-79294239D02*
X70650000Y-78675000D01*
X69900000Y-71025000D02*
X69400000Y-71025000D01*
X70800000Y-79444239D02*
X70650000Y-79294239D01*
X73200000Y-73200000D02*
X72300000Y-72300000D01*
X69900000Y-70525000D02*
X69400000Y-70525000D01*
X71163302Y-90114994D02*
X70800000Y-89751692D01*
X72300000Y-72300000D02*
X71175000Y-72300000D01*
X71175000Y-72300000D02*
X69900000Y-71025000D01*
X71163302Y-90133822D02*
X71163302Y-90114994D01*
X71100000Y-78225000D02*
X71300000Y-78225000D01*
X71098562Y-90198562D02*
X71163302Y-90133822D01*
X73200000Y-77125000D02*
X73200000Y-73200000D01*
X70800000Y-89751692D02*
X70800000Y-79444239D01*
X70650000Y-78675000D02*
X71100000Y-78225000D01*
%TO.N,/DebugAndUart/TARGET_SWO*%
X84429291Y-97900000D02*
X86365000Y-97900000D01*
X86365000Y-97900000D02*
X86500000Y-97765000D01*
X83900000Y-88900000D02*
X83900000Y-97370709D01*
X83900000Y-97370709D02*
X84429291Y-97900000D01*
%TO.N,Net-(U1-PA11)*%
X54700003Y-92492897D02*
X54700003Y-89110003D01*
X77400000Y-89385774D02*
X77300000Y-89285774D01*
X77314004Y-102450000D02*
X77400000Y-102364004D01*
X55600000Y-93392894D02*
X54700003Y-92492897D01*
X77400000Y-102364004D02*
X77400000Y-89385774D01*
X55700000Y-101200000D02*
X55600000Y-101100000D01*
D20*
X54700003Y-89110003D02*
X54700000Y-89110000D01*
D19*
X55600000Y-101100000D02*
X55600000Y-93392894D01*
%TO.N,Net-(U1-PA12)*%
X55050000Y-101469239D02*
X55050000Y-93550000D01*
X77900000Y-89569239D02*
X78031481Y-89437758D01*
X55680761Y-102100000D02*
X55050000Y-101469239D01*
D20*
X78031481Y-88828519D02*
X78050000Y-88810000D01*
D19*
X78000000Y-103000000D02*
X78000000Y-102216757D01*
X78000000Y-102216757D02*
X77900000Y-102116757D01*
X55050000Y-93550000D02*
X53900000Y-92400000D01*
X78031481Y-89437758D02*
X78031481Y-88828519D01*
X55700000Y-102100000D02*
X55680761Y-102100000D01*
X77900000Y-102116757D02*
X77900000Y-89569239D01*
%TO.N,Net-(U1-PA0)*%
X67250000Y-96050000D02*
X67250000Y-94035788D01*
X67250000Y-94035788D02*
X68300000Y-92985788D01*
X66800000Y-96500000D02*
X67250000Y-96050000D01*
X66800000Y-96512500D02*
X66800000Y-96500000D01*
X68300000Y-92985788D02*
X68300000Y-91750000D01*
%TD*%
%TA.AperFunction,Conductor*%
%TO.N,GND*%
G36*
X107942539Y-64520185D02*
G01*
X107988294Y-64572989D01*
X107999500Y-64624500D01*
X107999500Y-112875500D01*
X107979815Y-112942539D01*
X107927011Y-112988294D01*
X107875500Y-112999500D01*
X36624500Y-112999500D01*
X36557461Y-112979815D01*
X36511706Y-112927011D01*
X36500500Y-112875500D01*
X36500500Y-108999997D01*
X37095006Y-108999997D01*
X37095006Y-109000002D01*
X37114966Y-109368142D01*
X37114967Y-109368159D01*
X37174610Y-109731960D01*
X37174616Y-109731986D01*
X37273243Y-110087209D01*
X37273245Y-110087216D01*
X37409706Y-110429710D01*
X37409715Y-110429728D01*
X37582406Y-110755458D01*
X37789307Y-111060613D01*
X37789314Y-111060623D01*
X37893019Y-111182714D01*
X37893020Y-111182715D01*
X39175992Y-109899743D01*
X39279588Y-110042330D01*
X39457670Y-110220412D01*
X39600256Y-110324007D01*
X38314659Y-111609603D01*
X38314659Y-111609604D01*
X38589158Y-111818274D01*
X38589175Y-111818286D01*
X38905067Y-112008350D01*
X38905080Y-112008357D01*
X39239671Y-112163155D01*
X39589068Y-112280882D01*
X39949134Y-112360138D01*
X40315655Y-112399999D01*
X40315663Y-112400000D01*
X40684337Y-112400000D01*
X40684344Y-112399999D01*
X41050865Y-112360138D01*
X41410931Y-112280882D01*
X41760328Y-112163155D01*
X42094919Y-112008357D01*
X42094923Y-112008355D01*
X42410842Y-111818273D01*
X42685340Y-111609604D01*
X41399743Y-110324007D01*
X41542330Y-110220412D01*
X41720412Y-110042330D01*
X41824007Y-109899743D01*
X43106978Y-111182715D01*
X43106979Y-111182714D01*
X43210692Y-111060614D01*
X43417593Y-110755458D01*
X43590284Y-110429728D01*
X43590293Y-110429710D01*
X43726754Y-110087216D01*
X43726756Y-110087209D01*
X43825383Y-109731986D01*
X43825389Y-109731960D01*
X43885032Y-109368159D01*
X43885033Y-109368142D01*
X43904994Y-109000002D01*
X43904994Y-108999997D01*
X99595006Y-108999997D01*
X99595006Y-109000002D01*
X99614966Y-109368142D01*
X99614967Y-109368159D01*
X99674610Y-109731960D01*
X99674616Y-109731986D01*
X99773243Y-110087209D01*
X99773245Y-110087216D01*
X99909706Y-110429710D01*
X99909715Y-110429728D01*
X100082406Y-110755458D01*
X100289307Y-111060613D01*
X100289314Y-111060623D01*
X100393019Y-111182714D01*
X100393020Y-111182715D01*
X101675992Y-109899743D01*
X101779588Y-110042330D01*
X101957670Y-110220412D01*
X102100256Y-110324007D01*
X100814659Y-111609603D01*
X100814659Y-111609604D01*
X101089158Y-111818274D01*
X101089175Y-111818286D01*
X101405067Y-112008350D01*
X101405080Y-112008357D01*
X101739671Y-112163155D01*
X102089068Y-112280882D01*
X102449134Y-112360138D01*
X102815655Y-112399999D01*
X102815663Y-112400000D01*
X103184337Y-112400000D01*
X103184344Y-112399999D01*
X103550865Y-112360138D01*
X103910931Y-112280882D01*
X104260328Y-112163155D01*
X104594919Y-112008357D01*
X104594923Y-112008355D01*
X104910842Y-111818273D01*
X105185340Y-111609604D01*
X103899743Y-110324007D01*
X104042330Y-110220412D01*
X104220412Y-110042330D01*
X104324007Y-109899743D01*
X105606978Y-111182715D01*
X105606979Y-111182714D01*
X105710692Y-111060614D01*
X105917593Y-110755458D01*
X106090284Y-110429728D01*
X106090293Y-110429710D01*
X106226754Y-110087216D01*
X106226756Y-110087209D01*
X106325383Y-109731986D01*
X106325389Y-109731960D01*
X106385032Y-109368159D01*
X106385033Y-109368142D01*
X106404994Y-109000002D01*
X106404994Y-108999997D01*
X106385033Y-108631857D01*
X106385032Y-108631840D01*
X106325389Y-108268039D01*
X106325383Y-108268013D01*
X106226756Y-107912790D01*
X106226754Y-107912783D01*
X106090293Y-107570289D01*
X106090284Y-107570271D01*
X105917593Y-107244541D01*
X105710692Y-106939386D01*
X105710685Y-106939376D01*
X105606979Y-106817284D01*
X105606978Y-106817283D01*
X104324006Y-108100255D01*
X104220412Y-107957670D01*
X104042330Y-107779588D01*
X103899743Y-107675992D01*
X105185339Y-106390395D01*
X105185339Y-106390394D01*
X104910841Y-106181725D01*
X104910824Y-106181713D01*
X104594932Y-105991649D01*
X104594919Y-105991642D01*
X104260328Y-105836844D01*
X103910931Y-105719117D01*
X103550865Y-105639861D01*
X103184344Y-105600000D01*
X102815655Y-105600000D01*
X102449134Y-105639861D01*
X102089068Y-105719117D01*
X101739671Y-105836844D01*
X101405080Y-105991642D01*
X101405067Y-105991649D01*
X101089181Y-106181710D01*
X101089165Y-106181721D01*
X100814659Y-106390394D01*
X100814659Y-106390395D01*
X102100256Y-107675992D01*
X101957670Y-107779588D01*
X101779588Y-107957670D01*
X101675993Y-108100256D01*
X100393020Y-106817283D01*
X100393019Y-106817283D01*
X100289306Y-106939386D01*
X100082406Y-107244541D01*
X99909715Y-107570271D01*
X99909706Y-107570289D01*
X99773245Y-107912783D01*
X99773243Y-107912790D01*
X99674616Y-108268013D01*
X99674610Y-108268039D01*
X99614967Y-108631840D01*
X99614966Y-108631857D01*
X99595006Y-108999997D01*
X43904994Y-108999997D01*
X43885033Y-108631857D01*
X43885032Y-108631840D01*
X43825389Y-108268039D01*
X43825383Y-108268013D01*
X43726756Y-107912790D01*
X43726754Y-107912783D01*
X43590293Y-107570289D01*
X43590284Y-107570271D01*
X43500012Y-107399999D01*
X51913756Y-107399999D01*
X51913757Y-107400000D01*
X52515856Y-107400000D01*
X52454075Y-107507007D01*
X52420000Y-107634174D01*
X52420000Y-107765826D01*
X52454075Y-107892993D01*
X52515856Y-108000000D01*
X51913757Y-108000000D01*
X51945234Y-108103768D01*
X52042728Y-108286166D01*
X52042732Y-108286173D01*
X52173944Y-108446055D01*
X52333826Y-108577267D01*
X52333833Y-108577271D01*
X52516237Y-108674767D01*
X52516241Y-108674769D01*
X52620000Y-108706243D01*
X52620000Y-108104144D01*
X52727007Y-108165925D01*
X52854174Y-108200000D01*
X52985826Y-108200000D01*
X53112993Y-108165925D01*
X53220000Y-108104144D01*
X53220000Y-108706242D01*
X53323758Y-108674769D01*
X53323762Y-108674767D01*
X53506166Y-108577271D01*
X53506173Y-108577267D01*
X53666055Y-108446055D01*
X53797267Y-108286173D01*
X53797271Y-108286166D01*
X53894765Y-108103768D01*
X53926243Y-108000000D01*
X53324144Y-108000000D01*
X53385925Y-107892993D01*
X53420000Y-107765826D01*
X53420000Y-107700000D01*
X54304571Y-107700000D01*
X54324244Y-107912310D01*
X54378719Y-108103768D01*
X54382596Y-108117392D01*
X54382596Y-108117394D01*
X54477632Y-108308253D01*
X54606127Y-108478406D01*
X54606128Y-108478407D01*
X54763698Y-108622052D01*
X54944981Y-108734298D01*
X55143802Y-108811321D01*
X55353390Y-108850500D01*
X55353392Y-108850500D01*
X55566608Y-108850500D01*
X55566610Y-108850500D01*
X55776198Y-108811321D01*
X55975019Y-108734298D01*
X56156302Y-108622052D01*
X56313872Y-108478407D01*
X56442366Y-108308255D01*
X56496270Y-108200000D01*
X56537403Y-108117394D01*
X56537403Y-108117393D01*
X56537405Y-108117389D01*
X56595756Y-107912310D01*
X56602029Y-107844605D01*
X56627814Y-107779669D01*
X56684614Y-107738981D01*
X56754395Y-107735461D01*
X56815002Y-107770225D01*
X56847193Y-107832238D01*
X56849500Y-107856047D01*
X56849500Y-108594856D01*
X56849502Y-108594882D01*
X56852413Y-108619987D01*
X56852415Y-108619991D01*
X56897793Y-108722764D01*
X56897794Y-108722765D01*
X56977235Y-108802206D01*
X57080009Y-108847585D01*
X57105135Y-108850500D01*
X58894864Y-108850499D01*
X58894879Y-108850497D01*
X58894882Y-108850497D01*
X58919987Y-108847586D01*
X58919988Y-108847585D01*
X58919991Y-108847585D01*
X59022765Y-108802206D01*
X59102206Y-108722765D01*
X59147585Y-108619991D01*
X59150500Y-108594865D01*
X59150499Y-106805136D01*
X59150497Y-106805117D01*
X59147586Y-106780012D01*
X59147585Y-106780010D01*
X59147585Y-106780009D01*
X59102206Y-106677235D01*
X59022765Y-106597794D01*
X59022763Y-106597793D01*
X58919992Y-106552415D01*
X58894865Y-106549500D01*
X57105143Y-106549500D01*
X57105117Y-106549502D01*
X57080012Y-106552413D01*
X57080008Y-106552415D01*
X56977235Y-106597793D01*
X56897794Y-106677234D01*
X56852415Y-106780006D01*
X56852415Y-106780008D01*
X56849500Y-106805131D01*
X56849500Y-107543951D01*
X56829815Y-107610990D01*
X56777011Y-107656745D01*
X56707853Y-107666689D01*
X56644297Y-107637664D01*
X56606523Y-107578886D01*
X56602029Y-107555391D01*
X56595756Y-107487689D01*
X56577560Y-107423739D01*
X56537405Y-107282611D01*
X56537403Y-107282606D01*
X56537403Y-107282605D01*
X56442367Y-107091746D01*
X56313872Y-106921593D01*
X56313871Y-106921592D01*
X56156302Y-106777948D01*
X55975019Y-106665702D01*
X55975017Y-106665701D01*
X55875608Y-106627190D01*
X55776198Y-106588679D01*
X55566610Y-106549500D01*
X55353390Y-106549500D01*
X55143802Y-106588679D01*
X55143799Y-106588679D01*
X55143799Y-106588680D01*
X54944982Y-106665701D01*
X54944980Y-106665702D01*
X54763699Y-106777947D01*
X54606127Y-106921593D01*
X54477632Y-107091746D01*
X54382596Y-107282605D01*
X54382596Y-107282607D01*
X54324244Y-107487689D01*
X54310671Y-107634174D01*
X54304571Y-107700000D01*
X53420000Y-107700000D01*
X53420000Y-107634174D01*
X53385925Y-107507007D01*
X53324144Y-107400000D01*
X53926243Y-107400000D01*
X53926243Y-107399999D01*
X53894765Y-107296231D01*
X53797271Y-107113833D01*
X53797267Y-107113826D01*
X53666055Y-106953944D01*
X53506173Y-106822732D01*
X53506166Y-106822728D01*
X53323768Y-106725234D01*
X53220000Y-106693756D01*
X53220000Y-107295855D01*
X53112993Y-107234075D01*
X52985826Y-107200000D01*
X52854174Y-107200000D01*
X52727007Y-107234075D01*
X52620000Y-107295855D01*
X52620000Y-106693756D01*
X52619999Y-106693756D01*
X52516231Y-106725234D01*
X52333833Y-106822728D01*
X52333826Y-106822732D01*
X52173944Y-106953944D01*
X52042732Y-107113826D01*
X52042728Y-107113833D01*
X51945234Y-107296231D01*
X51913756Y-107399999D01*
X43500012Y-107399999D01*
X43417593Y-107244541D01*
X43210692Y-106939386D01*
X43210685Y-106939376D01*
X43106979Y-106817284D01*
X43106978Y-106817283D01*
X41824006Y-108100255D01*
X41720412Y-107957670D01*
X41542330Y-107779588D01*
X41399743Y-107675992D01*
X42685339Y-106390395D01*
X42685339Y-106390394D01*
X42410841Y-106181725D01*
X42410824Y-106181713D01*
X42094932Y-105991649D01*
X42094919Y-105991642D01*
X41760328Y-105836844D01*
X41410931Y-105719117D01*
X41050865Y-105639861D01*
X40684344Y-105600000D01*
X40315655Y-105600000D01*
X39949134Y-105639861D01*
X39589068Y-105719117D01*
X39239671Y-105836844D01*
X38905080Y-105991642D01*
X38905067Y-105991649D01*
X38589181Y-106181710D01*
X38589165Y-106181721D01*
X38314659Y-106390394D01*
X38314659Y-106390395D01*
X39600256Y-107675992D01*
X39457670Y-107779588D01*
X39279588Y-107957670D01*
X39175993Y-108100256D01*
X37893020Y-106817283D01*
X37893019Y-106817283D01*
X37789306Y-106939386D01*
X37582406Y-107244541D01*
X37409715Y-107570271D01*
X37409706Y-107570289D01*
X37273245Y-107912783D01*
X37273243Y-107912790D01*
X37174616Y-108268013D01*
X37174610Y-108268039D01*
X37114967Y-108631840D01*
X37114966Y-108631857D01*
X37095006Y-108999997D01*
X36500500Y-108999997D01*
X36500500Y-97899998D01*
X48794318Y-97899998D01*
X48794318Y-97900001D01*
X48814955Y-98056760D01*
X48814957Y-98056765D01*
X48875461Y-98202836D01*
X48875464Y-98202841D01*
X48923876Y-98265933D01*
X48949070Y-98331102D01*
X48949500Y-98341419D01*
X48949500Y-102559309D01*
X48952069Y-102568896D01*
X48966804Y-102623887D01*
X48966804Y-102623889D01*
X48980199Y-102673884D01*
X48993636Y-102697157D01*
X49039511Y-102776614D01*
X49039513Y-102776616D01*
X49569317Y-103306421D01*
X49602802Y-103367744D01*
X49604575Y-103377916D01*
X49614955Y-103456761D01*
X49643029Y-103524536D01*
X49675464Y-103602841D01*
X49771718Y-103728282D01*
X49897159Y-103824536D01*
X50043238Y-103885044D01*
X50121619Y-103895363D01*
X50199999Y-103905682D01*
X50200000Y-103905682D01*
X50200001Y-103905682D01*
X50264754Y-103897157D01*
X50356762Y-103885044D01*
X50502841Y-103824536D01*
X50628282Y-103728282D01*
X50724536Y-103602841D01*
X50785044Y-103456762D01*
X50800918Y-103336185D01*
X50805682Y-103300001D01*
X50805682Y-103299998D01*
X50785044Y-103143239D01*
X50785044Y-103143238D01*
X50724536Y-102997159D01*
X50628282Y-102871718D01*
X50502841Y-102775464D01*
X50502839Y-102775463D01*
X50356761Y-102714955D01*
X50277916Y-102704575D01*
X50214019Y-102676308D01*
X50206421Y-102669317D01*
X49886819Y-102349715D01*
X49853334Y-102288392D01*
X49850500Y-102262034D01*
X49850500Y-98341419D01*
X49870185Y-98274380D01*
X49876124Y-98265933D01*
X49892092Y-98245121D01*
X49924536Y-98202841D01*
X49985044Y-98056762D01*
X50005682Y-97900000D01*
X49985044Y-97743238D01*
X49924536Y-97597159D01*
X49828282Y-97471718D01*
X49702841Y-97375464D01*
X49635588Y-97347607D01*
X49556762Y-97314956D01*
X49556760Y-97314955D01*
X49400001Y-97294318D01*
X49399999Y-97294318D01*
X49243239Y-97314955D01*
X49243237Y-97314956D01*
X49097160Y-97375463D01*
X48971718Y-97471718D01*
X48875463Y-97597160D01*
X48814956Y-97743237D01*
X48814955Y-97743239D01*
X48794318Y-97899998D01*
X36500500Y-97899998D01*
X36500500Y-96099998D01*
X40394318Y-96099998D01*
X40394318Y-96100001D01*
X40414955Y-96256760D01*
X40414956Y-96256762D01*
X40450775Y-96343238D01*
X40475464Y-96402841D01*
X40571718Y-96528282D01*
X40697159Y-96624536D01*
X40843238Y-96685044D01*
X40881050Y-96690022D01*
X40999999Y-96705682D01*
X41000000Y-96705682D01*
X41000001Y-96705682D01*
X41052254Y-96698802D01*
X41156762Y-96685044D01*
X41302841Y-96624536D01*
X41428282Y-96528282D01*
X41524536Y-96402841D01*
X41585044Y-96256762D01*
X41605682Y-96100000D01*
X41599989Y-96056760D01*
X41585044Y-95943239D01*
X41585044Y-95943238D01*
X41524536Y-95797159D01*
X41524535Y-95797158D01*
X41524535Y-95797157D01*
X41476124Y-95734066D01*
X41450930Y-95668896D01*
X41450500Y-95658580D01*
X41450500Y-94019999D01*
X41941589Y-94019999D01*
X41941590Y-94020000D01*
X42535504Y-94020000D01*
X42459204Y-94040444D01*
X42390795Y-94079940D01*
X42334940Y-94135795D01*
X42295444Y-94204204D01*
X42275000Y-94280504D01*
X42275000Y-94359496D01*
X42295444Y-94435796D01*
X42334940Y-94504205D01*
X42390795Y-94560060D01*
X42459204Y-94599556D01*
X42535504Y-94620000D01*
X41941590Y-94620000D01*
X41954664Y-94651566D01*
X41954671Y-94651579D01*
X42031275Y-94766226D01*
X42128773Y-94863724D01*
X42243420Y-94940328D01*
X42243433Y-94940335D01*
X42370813Y-94993097D01*
X42370823Y-94993100D01*
X42506053Y-95020000D01*
X42825000Y-95020000D01*
X42825000Y-94620000D01*
X43425000Y-94620000D01*
X43425000Y-95020000D01*
X43743946Y-95020000D01*
X43879176Y-94993100D01*
X43879186Y-94993097D01*
X44006566Y-94940335D01*
X44006579Y-94940328D01*
X44121226Y-94863724D01*
X44218724Y-94766226D01*
X44295328Y-94651579D01*
X44295335Y-94651566D01*
X44308410Y-94620000D01*
X43714496Y-94620000D01*
X43790796Y-94599556D01*
X43859205Y-94560060D01*
X43915060Y-94504205D01*
X43954556Y-94435796D01*
X43975000Y-94359496D01*
X43975000Y-94280504D01*
X43954556Y-94204204D01*
X43915060Y-94135795D01*
X43859205Y-94079940D01*
X43790796Y-94040444D01*
X43714496Y-94020000D01*
X44308410Y-94020000D01*
X44308410Y-94019999D01*
X44295335Y-93988433D01*
X44295328Y-93988420D01*
X44218724Y-93873773D01*
X44121226Y-93776275D01*
X44006579Y-93699671D01*
X44006566Y-93699664D01*
X43879186Y-93646902D01*
X43879176Y-93646899D01*
X43743946Y-93620000D01*
X43425000Y-93620000D01*
X43425000Y-94020000D01*
X42825000Y-94020000D01*
X42825000Y-93620000D01*
X42817237Y-93612237D01*
X42783752Y-93550914D01*
X42788736Y-93481222D01*
X42830608Y-93425289D01*
X42842918Y-93417169D01*
X42921642Y-93371717D01*
X42958365Y-93350515D01*
X43065515Y-93243365D01*
X43141281Y-93112135D01*
X43180500Y-92965766D01*
X43180500Y-92814234D01*
X43141281Y-92667865D01*
X43065515Y-92536635D01*
X42958365Y-92429485D01*
X42859992Y-92372689D01*
X42827136Y-92353719D01*
X42699359Y-92319482D01*
X42680766Y-92314500D01*
X42529234Y-92314500D01*
X42382863Y-92353719D01*
X42251635Y-92429485D01*
X42251632Y-92429487D01*
X42144487Y-92536632D01*
X42144485Y-92536635D01*
X42068719Y-92667863D01*
X42044399Y-92758629D01*
X42029500Y-92814234D01*
X42029500Y-92965766D01*
X42044709Y-93022527D01*
X42068719Y-93112136D01*
X42079780Y-93131293D01*
X42144485Y-93243365D01*
X42251635Y-93350515D01*
X42350899Y-93407825D01*
X42382570Y-93426111D01*
X42430785Y-93476679D01*
X42444007Y-93545286D01*
X42418039Y-93610150D01*
X42368022Y-93648059D01*
X42243429Y-93699666D01*
X42243420Y-93699671D01*
X42128773Y-93776275D01*
X42031275Y-93873773D01*
X41954671Y-93988420D01*
X41954664Y-93988433D01*
X41941589Y-94019999D01*
X41450500Y-94019999D01*
X41450500Y-92037964D01*
X41470185Y-91970925D01*
X41486814Y-91950287D01*
X42506422Y-90930679D01*
X42567743Y-90897196D01*
X42577896Y-90895426D01*
X42656762Y-90885044D01*
X42802841Y-90824536D01*
X42928282Y-90728282D01*
X43024536Y-90602841D01*
X43085044Y-90456762D01*
X43105682Y-90300000D01*
X43101092Y-90265139D01*
X43085044Y-90143239D01*
X43085044Y-90143238D01*
X43024536Y-89997159D01*
X42928282Y-89871718D01*
X42802841Y-89775464D01*
X42758663Y-89757165D01*
X42656762Y-89714956D01*
X42656760Y-89714955D01*
X42500001Y-89694318D01*
X42499999Y-89694318D01*
X42343239Y-89714955D01*
X42343237Y-89714956D01*
X42197160Y-89775463D01*
X42071718Y-89871718D01*
X41975463Y-89997160D01*
X41914956Y-90143238D01*
X41904575Y-90222084D01*
X41876308Y-90285980D01*
X41869317Y-90293578D01*
X40639513Y-91523383D01*
X40639509Y-91523389D01*
X40580201Y-91626112D01*
X40580200Y-91626117D01*
X40549500Y-91740691D01*
X40549500Y-95658580D01*
X40529815Y-95725619D01*
X40523876Y-95734066D01*
X40475464Y-95797157D01*
X40414956Y-95943237D01*
X40414955Y-95943239D01*
X40394318Y-96099998D01*
X36500500Y-96099998D01*
X36500500Y-94019999D01*
X37891589Y-94019999D01*
X37891590Y-94020000D01*
X38485504Y-94020000D01*
X38409204Y-94040444D01*
X38340795Y-94079940D01*
X38284940Y-94135795D01*
X38245444Y-94204204D01*
X38225000Y-94280504D01*
X38225000Y-94359496D01*
X38245444Y-94435796D01*
X38284940Y-94504205D01*
X38340795Y-94560060D01*
X38409204Y-94599556D01*
X38485504Y-94620000D01*
X37891590Y-94620000D01*
X37904664Y-94651566D01*
X37904671Y-94651579D01*
X37981275Y-94766226D01*
X38078773Y-94863724D01*
X38193420Y-94940328D01*
X38193433Y-94940335D01*
X38320813Y-94993097D01*
X38320823Y-94993100D01*
X38456053Y-95020000D01*
X38625000Y-95020000D01*
X38625000Y-94620000D01*
X39225000Y-94620000D01*
X39225000Y-95020000D01*
X39393946Y-95020000D01*
X39529176Y-94993100D01*
X39529186Y-94993097D01*
X39656566Y-94940335D01*
X39656579Y-94940328D01*
X39771226Y-94863724D01*
X39868724Y-94766226D01*
X39945328Y-94651579D01*
X39945335Y-94651566D01*
X39958410Y-94620000D01*
X39364496Y-94620000D01*
X39440796Y-94599556D01*
X39509205Y-94560060D01*
X39565060Y-94504205D01*
X39604556Y-94435796D01*
X39625000Y-94359496D01*
X39625000Y-94280504D01*
X39604556Y-94204204D01*
X39565060Y-94135795D01*
X39509205Y-94079940D01*
X39440796Y-94040444D01*
X39364496Y-94020000D01*
X39958410Y-94020000D01*
X39958410Y-94019999D01*
X39945335Y-93988433D01*
X39945328Y-93988420D01*
X39868724Y-93873773D01*
X39771226Y-93776275D01*
X39656579Y-93699671D01*
X39656566Y-93699664D01*
X39529186Y-93646902D01*
X39529176Y-93646899D01*
X39393946Y-93620000D01*
X39225000Y-93620000D01*
X39225000Y-94020000D01*
X38625000Y-94020000D01*
X38625000Y-93620000D01*
X38456054Y-93620000D01*
X38320823Y-93646899D01*
X38320813Y-93646902D01*
X38193433Y-93699664D01*
X38193420Y-93699671D01*
X38078773Y-93776275D01*
X37981275Y-93873773D01*
X37904671Y-93988420D01*
X37904664Y-93988433D01*
X37891589Y-94019999D01*
X36500500Y-94019999D01*
X36500500Y-85379999D01*
X37891589Y-85379999D01*
X37891590Y-85380000D01*
X38485504Y-85380000D01*
X38409204Y-85400444D01*
X38340795Y-85439940D01*
X38284940Y-85495795D01*
X38245444Y-85564204D01*
X38225000Y-85640504D01*
X38225000Y-85719496D01*
X38245444Y-85795796D01*
X38284940Y-85864205D01*
X38340795Y-85920060D01*
X38409204Y-85959556D01*
X38485504Y-85980000D01*
X37891590Y-85980000D01*
X37904664Y-86011566D01*
X37904671Y-86011579D01*
X37981275Y-86126226D01*
X38078773Y-86223724D01*
X38193420Y-86300328D01*
X38193433Y-86300335D01*
X38320813Y-86353097D01*
X38320823Y-86353100D01*
X38456053Y-86380000D01*
X38625000Y-86380000D01*
X38625000Y-85980000D01*
X39225000Y-85980000D01*
X39225000Y-86380000D01*
X39393946Y-86380000D01*
X39529176Y-86353100D01*
X39529186Y-86353097D01*
X39656566Y-86300335D01*
X39656579Y-86300328D01*
X39771226Y-86223724D01*
X39868724Y-86126226D01*
X39945328Y-86011579D01*
X39945335Y-86011566D01*
X39958410Y-85980000D01*
X39364496Y-85980000D01*
X39440796Y-85959556D01*
X39509205Y-85920060D01*
X39565060Y-85864205D01*
X39604556Y-85795796D01*
X39625000Y-85719496D01*
X39625000Y-85640504D01*
X39604556Y-85564204D01*
X39565060Y-85495795D01*
X39509205Y-85439940D01*
X39440796Y-85400444D01*
X39364496Y-85380000D01*
X39958410Y-85380000D01*
X39958410Y-85379999D01*
X41941589Y-85379999D01*
X41941590Y-85380000D01*
X42535504Y-85380000D01*
X42459204Y-85400444D01*
X42390795Y-85439940D01*
X42334940Y-85495795D01*
X42295444Y-85564204D01*
X42275000Y-85640504D01*
X42275000Y-85719496D01*
X42295444Y-85795796D01*
X42334940Y-85864205D01*
X42390795Y-85920060D01*
X42459204Y-85959556D01*
X42535504Y-85980000D01*
X41941590Y-85980000D01*
X41954664Y-86011566D01*
X41954671Y-86011579D01*
X42031275Y-86126226D01*
X42128773Y-86223724D01*
X42243420Y-86300328D01*
X42243433Y-86300335D01*
X42368021Y-86351940D01*
X42422425Y-86395780D01*
X42444490Y-86462074D01*
X42427211Y-86529774D01*
X42382570Y-86573887D01*
X42251641Y-86649480D01*
X42251632Y-86649487D01*
X42144487Y-86756632D01*
X42144485Y-86756635D01*
X42068719Y-86887863D01*
X42059648Y-86921718D01*
X42029500Y-87034234D01*
X42029500Y-87185766D01*
X42035715Y-87208960D01*
X42068719Y-87332136D01*
X42073765Y-87340875D01*
X42144485Y-87463365D01*
X42251635Y-87570515D01*
X42382865Y-87646281D01*
X42529234Y-87685500D01*
X42529236Y-87685500D01*
X42680764Y-87685500D01*
X42680766Y-87685500D01*
X42827135Y-87646281D01*
X42907299Y-87599998D01*
X44594318Y-87599998D01*
X44594318Y-87600000D01*
X44598439Y-87631301D01*
X44599500Y-87647487D01*
X44599500Y-92352512D01*
X44598439Y-92368697D01*
X44594318Y-92399998D01*
X44594318Y-92400000D01*
X44598439Y-92431301D01*
X44599500Y-92447487D01*
X44599500Y-92479057D01*
X44607670Y-92509549D01*
X44610833Y-92525450D01*
X44614956Y-92556764D01*
X44627038Y-92585932D01*
X44632251Y-92601288D01*
X44640422Y-92631781D01*
X44640423Y-92631784D01*
X44656207Y-92659123D01*
X44663379Y-92673668D01*
X44675462Y-92702839D01*
X44675463Y-92702840D01*
X44694682Y-92727887D01*
X44703692Y-92741372D01*
X44719475Y-92768709D01*
X44719482Y-92768718D01*
X44741803Y-92791039D01*
X44752497Y-92803233D01*
X44771717Y-92828281D01*
X44796765Y-92847501D01*
X44808960Y-92858196D01*
X44831284Y-92880520D01*
X44831285Y-92880521D01*
X44831287Y-92880522D01*
X44858625Y-92896305D01*
X44872104Y-92905311D01*
X44897159Y-92924536D01*
X44920493Y-92934201D01*
X44926326Y-92936617D01*
X44940873Y-92943791D01*
X44968214Y-92959576D01*
X44968216Y-92959577D01*
X44998708Y-92967746D01*
X45014060Y-92972957D01*
X45043238Y-92985044D01*
X45074541Y-92989165D01*
X45090441Y-92992327D01*
X45120943Y-93000500D01*
X45152513Y-93000500D01*
X45168697Y-93001560D01*
X45200000Y-93005682D01*
X45231302Y-93001560D01*
X45247487Y-93000500D01*
X45279056Y-93000500D01*
X45279057Y-93000500D01*
X45309555Y-92992327D01*
X45325439Y-92989167D01*
X45356762Y-92985044D01*
X45385930Y-92972961D01*
X45401293Y-92967747D01*
X45420858Y-92962504D01*
X45431784Y-92959577D01*
X45459130Y-92943787D01*
X45473666Y-92936619D01*
X45502841Y-92924536D01*
X45527895Y-92905310D01*
X45541374Y-92896305D01*
X45568716Y-92880520D01*
X45591040Y-92858194D01*
X45603234Y-92847501D01*
X45628282Y-92828282D01*
X45647502Y-92803233D01*
X45658196Y-92791039D01*
X45680520Y-92768716D01*
X45696308Y-92741368D01*
X45705310Y-92727895D01*
X45724536Y-92702841D01*
X45736619Y-92673666D01*
X45743792Y-92659123D01*
X45759577Y-92631784D01*
X45762874Y-92619478D01*
X45767747Y-92601293D01*
X45772962Y-92585928D01*
X45785044Y-92556762D01*
X45789167Y-92525439D01*
X45792329Y-92509549D01*
X45800500Y-92479057D01*
X45800500Y-92447487D01*
X45801561Y-92431301D01*
X45805682Y-92400000D01*
X45805682Y-92399998D01*
X53294318Y-92399998D01*
X53294318Y-92400001D01*
X53314955Y-92556760D01*
X53314956Y-92556762D01*
X53368486Y-92685996D01*
X53375464Y-92702841D01*
X53471718Y-92828282D01*
X53597159Y-92924536D01*
X53743238Y-92985044D01*
X53822082Y-92995423D01*
X53885977Y-93023689D01*
X53893577Y-93030681D01*
X54563181Y-93700284D01*
X54596666Y-93761607D01*
X54599500Y-93787965D01*
X54599500Y-101528549D01*
X54615834Y-101589511D01*
X54615835Y-101589511D01*
X54630201Y-101643127D01*
X54659856Y-101694489D01*
X54689511Y-101745853D01*
X54689513Y-101745855D01*
X55072234Y-102128577D01*
X55105719Y-102189900D01*
X55107492Y-102200071D01*
X55114956Y-102256762D01*
X55175464Y-102402841D01*
X55271718Y-102528282D01*
X55397159Y-102624536D01*
X55543238Y-102685044D01*
X55621619Y-102695363D01*
X55699999Y-102705682D01*
X55700000Y-102705682D01*
X55700001Y-102705682D01*
X55764754Y-102697157D01*
X55856762Y-102685044D01*
X56002841Y-102624536D01*
X56128282Y-102528282D01*
X56224536Y-102402841D01*
X56285044Y-102256762D01*
X56305682Y-102100000D01*
X56285934Y-101949998D01*
X60394318Y-101949998D01*
X60394318Y-101950001D01*
X60414955Y-102106760D01*
X60414957Y-102106765D01*
X60475461Y-102252836D01*
X60475464Y-102252841D01*
X60523876Y-102315933D01*
X60549070Y-102381102D01*
X60549500Y-102391419D01*
X60549500Y-103808580D01*
X60529815Y-103875619D01*
X60523876Y-103884066D01*
X60475464Y-103947157D01*
X60414956Y-104093237D01*
X60414955Y-104093239D01*
X60394318Y-104249998D01*
X60394318Y-104250001D01*
X60414955Y-104406760D01*
X60414956Y-104406762D01*
X60459785Y-104514990D01*
X60475464Y-104552841D01*
X60571718Y-104678282D01*
X60697159Y-104774536D01*
X60843238Y-104835044D01*
X60921619Y-104845363D01*
X60999999Y-104855682D01*
X61000000Y-104855682D01*
X61000001Y-104855682D01*
X61052254Y-104848802D01*
X61156762Y-104835044D01*
X61302841Y-104774536D01*
X61428282Y-104678282D01*
X61524536Y-104552841D01*
X61585044Y-104406762D01*
X61605682Y-104250000D01*
X61599099Y-104200000D01*
X61585044Y-104093239D01*
X61585044Y-104093238D01*
X61524536Y-103947159D01*
X61524535Y-103947158D01*
X61524535Y-103947157D01*
X61476124Y-103884066D01*
X61450930Y-103818896D01*
X61450500Y-103808580D01*
X61450500Y-102391419D01*
X61470185Y-102324380D01*
X61476124Y-102315933D01*
X61493539Y-102293237D01*
X61524536Y-102252841D01*
X61585044Y-102106762D01*
X61605682Y-101950000D01*
X61604384Y-101940143D01*
X61585044Y-101793239D01*
X61585044Y-101793238D01*
X61524536Y-101647159D01*
X61428282Y-101521718D01*
X61302841Y-101425464D01*
X61300499Y-101424494D01*
X61156762Y-101364956D01*
X61156760Y-101364955D01*
X61000001Y-101344318D01*
X60999999Y-101344318D01*
X60843239Y-101364955D01*
X60843237Y-101364956D01*
X60697160Y-101425463D01*
X60571718Y-101521718D01*
X60475463Y-101647160D01*
X60414956Y-101793237D01*
X60414955Y-101793239D01*
X60394318Y-101949998D01*
X56285934Y-101949998D01*
X56285044Y-101943238D01*
X56224536Y-101797159D01*
X56224535Y-101797158D01*
X56224535Y-101797157D01*
X56169540Y-101725487D01*
X56144345Y-101660318D01*
X56158383Y-101591873D01*
X56169540Y-101574513D01*
X56204810Y-101528549D01*
X56224536Y-101502841D01*
X56285044Y-101356762D01*
X56300508Y-101239298D01*
X56305682Y-101200001D01*
X56305682Y-101199998D01*
X56285044Y-101043239D01*
X56285044Y-101043238D01*
X56224536Y-100897159D01*
X56128282Y-100771718D01*
X56128279Y-100771716D01*
X56128278Y-100771714D01*
X56099013Y-100749258D01*
X56057811Y-100692830D01*
X56050500Y-100650883D01*
X56050500Y-93333587D01*
X56050500Y-93333585D01*
X56023348Y-93232251D01*
X56022269Y-93228225D01*
X56019799Y-93219007D01*
X56002501Y-93189046D01*
X55960489Y-93116280D01*
X55186822Y-92342613D01*
X55153337Y-92281290D01*
X55150503Y-92254932D01*
X55150503Y-89551415D01*
X55170188Y-89484376D01*
X55176127Y-89475929D01*
X55191564Y-89455809D01*
X55224536Y-89412841D01*
X55285044Y-89266762D01*
X55305682Y-89110000D01*
X55304365Y-89100000D01*
X55287519Y-88972040D01*
X55285044Y-88953238D01*
X55224536Y-88807159D01*
X55128282Y-88681718D01*
X55002841Y-88585464D01*
X54978696Y-88575463D01*
X54856762Y-88524956D01*
X54856760Y-88524955D01*
X54700001Y-88504318D01*
X54699999Y-88504318D01*
X54543239Y-88524955D01*
X54543237Y-88524956D01*
X54397160Y-88585463D01*
X54271718Y-88681718D01*
X54175463Y-88807160D01*
X54114956Y-88953237D01*
X54114955Y-88953239D01*
X54094318Y-89109998D01*
X54094318Y-89110001D01*
X54114955Y-89266760D01*
X54114957Y-89266765D01*
X54175461Y-89412836D01*
X54175464Y-89412841D01*
X54223879Y-89475937D01*
X54249073Y-89541106D01*
X54249503Y-89551423D01*
X54249503Y-91709213D01*
X54229818Y-91776252D01*
X54177014Y-91822007D01*
X54107856Y-91831951D01*
X54078051Y-91823774D01*
X54056765Y-91814957D01*
X54056760Y-91814955D01*
X53900001Y-91794318D01*
X53899999Y-91794318D01*
X53743239Y-91814955D01*
X53743237Y-91814956D01*
X53597160Y-91875463D01*
X53471718Y-91971718D01*
X53375463Y-92097160D01*
X53314956Y-92243237D01*
X53314955Y-92243239D01*
X53294318Y-92399998D01*
X45805682Y-92399998D01*
X45801561Y-92368697D01*
X45800500Y-92352512D01*
X45800500Y-87647487D01*
X45801561Y-87631301D01*
X45805682Y-87600000D01*
X45805682Y-87599998D01*
X45801561Y-87568697D01*
X45800500Y-87552512D01*
X45800500Y-87520945D01*
X45800500Y-87520943D01*
X45792327Y-87490441D01*
X45789164Y-87474536D01*
X45787693Y-87463365D01*
X45785044Y-87443238D01*
X45772957Y-87414060D01*
X45767745Y-87398703D01*
X45766134Y-87392689D01*
X45759577Y-87368216D01*
X45759575Y-87368212D01*
X45743791Y-87340873D01*
X45736617Y-87326326D01*
X45724536Y-87297160D01*
X45724536Y-87297159D01*
X45705311Y-87272104D01*
X45696305Y-87258625D01*
X45680522Y-87231287D01*
X45680518Y-87231282D01*
X45658196Y-87208960D01*
X45647501Y-87196765D01*
X45640472Y-87187605D01*
X45628282Y-87171718D01*
X45603233Y-87152497D01*
X45591039Y-87141803D01*
X45568718Y-87119482D01*
X45568716Y-87119480D01*
X45568713Y-87119478D01*
X45568709Y-87119475D01*
X45541372Y-87103692D01*
X45527887Y-87094682D01*
X45502840Y-87075463D01*
X45502839Y-87075462D01*
X45473668Y-87063379D01*
X45459123Y-87056207D01*
X45431784Y-87040423D01*
X45431781Y-87040422D01*
X45401288Y-87032251D01*
X45385932Y-87027038D01*
X45356764Y-87014956D01*
X45325450Y-87010833D01*
X45309552Y-87007670D01*
X45279057Y-86999500D01*
X45247487Y-86999500D01*
X45231302Y-86998439D01*
X45200000Y-86994318D01*
X45168697Y-86998439D01*
X45152513Y-86999500D01*
X45120940Y-86999500D01*
X45090441Y-87007671D01*
X45074545Y-87010832D01*
X45043244Y-87014954D01*
X45043235Y-87014956D01*
X45014067Y-87027038D01*
X44998715Y-87032250D01*
X44968219Y-87040422D01*
X44968217Y-87040422D01*
X44968216Y-87040423D01*
X44968214Y-87040424D01*
X44968212Y-87040425D01*
X44940875Y-87056207D01*
X44926336Y-87063377D01*
X44897165Y-87075460D01*
X44897160Y-87075463D01*
X44872107Y-87094686D01*
X44858629Y-87103691D01*
X44831283Y-87119480D01*
X44808955Y-87141807D01*
X44796767Y-87152496D01*
X44771718Y-87171718D01*
X44752496Y-87196767D01*
X44741807Y-87208955D01*
X44719480Y-87231283D01*
X44703691Y-87258629D01*
X44694686Y-87272107D01*
X44675463Y-87297160D01*
X44675460Y-87297165D01*
X44663377Y-87326336D01*
X44656207Y-87340875D01*
X44640425Y-87368212D01*
X44640422Y-87368219D01*
X44632250Y-87398715D01*
X44627038Y-87414067D01*
X44614956Y-87443235D01*
X44614954Y-87443244D01*
X44610832Y-87474545D01*
X44607671Y-87490441D01*
X44599500Y-87520940D01*
X44599500Y-87552512D01*
X44598439Y-87568697D01*
X44594318Y-87599998D01*
X42907299Y-87599998D01*
X42958365Y-87570515D01*
X43065515Y-87463365D01*
X43141281Y-87332135D01*
X43180500Y-87185766D01*
X43180500Y-87034234D01*
X43141281Y-86887865D01*
X43065515Y-86756635D01*
X42958365Y-86649485D01*
X42886851Y-86608196D01*
X42842917Y-86582830D01*
X42794702Y-86532262D01*
X42781480Y-86463655D01*
X42807448Y-86398790D01*
X42817238Y-86387761D01*
X42825000Y-86379999D01*
X42825000Y-85980000D01*
X43425000Y-85980000D01*
X43425000Y-86380000D01*
X43743946Y-86380000D01*
X43879176Y-86353100D01*
X43879186Y-86353097D01*
X44006566Y-86300335D01*
X44006579Y-86300328D01*
X44121226Y-86223724D01*
X44218724Y-86126226D01*
X44295328Y-86011579D01*
X44295335Y-86011566D01*
X44308410Y-85980000D01*
X43714496Y-85980000D01*
X43790796Y-85959556D01*
X43859205Y-85920060D01*
X43915060Y-85864205D01*
X43954556Y-85795796D01*
X43975000Y-85719496D01*
X43975000Y-85640504D01*
X43954556Y-85564204D01*
X43915060Y-85495795D01*
X43859205Y-85439940D01*
X43790796Y-85400444D01*
X43714496Y-85380000D01*
X44308410Y-85380000D01*
X44308410Y-85379999D01*
X44295335Y-85348433D01*
X44295328Y-85348420D01*
X44218724Y-85233773D01*
X44121226Y-85136275D01*
X44006579Y-85059671D01*
X44006566Y-85059664D01*
X43879186Y-85006902D01*
X43879176Y-85006899D01*
X43743946Y-84980000D01*
X43425000Y-84980000D01*
X43425000Y-85380000D01*
X42825000Y-85380000D01*
X42825000Y-84980000D01*
X42506054Y-84980000D01*
X42370823Y-85006899D01*
X42370813Y-85006902D01*
X42243433Y-85059664D01*
X42243420Y-85059671D01*
X42128773Y-85136275D01*
X42031275Y-85233773D01*
X41954671Y-85348420D01*
X41954664Y-85348433D01*
X41941589Y-85379999D01*
X39958410Y-85379999D01*
X39945335Y-85348433D01*
X39945328Y-85348420D01*
X39868724Y-85233773D01*
X39771226Y-85136275D01*
X39656579Y-85059671D01*
X39656566Y-85059664D01*
X39529186Y-85006902D01*
X39529176Y-85006899D01*
X39393946Y-84980000D01*
X39225000Y-84980000D01*
X39225000Y-85380000D01*
X38625000Y-85380000D01*
X38625000Y-84980000D01*
X38456054Y-84980000D01*
X38320823Y-85006899D01*
X38320813Y-85006902D01*
X38193433Y-85059664D01*
X38193420Y-85059671D01*
X38078773Y-85136275D01*
X37981275Y-85233773D01*
X37904671Y-85348420D01*
X37904664Y-85348433D01*
X37891589Y-85379999D01*
X36500500Y-85379999D01*
X36500500Y-68499997D01*
X37095006Y-68499997D01*
X37095006Y-68500002D01*
X37114966Y-68868142D01*
X37114967Y-68868159D01*
X37174610Y-69231960D01*
X37174616Y-69231986D01*
X37273243Y-69587209D01*
X37273245Y-69587216D01*
X37409706Y-69929710D01*
X37409715Y-69929728D01*
X37582406Y-70255458D01*
X37789307Y-70560613D01*
X37789314Y-70560623D01*
X37893019Y-70682714D01*
X37893020Y-70682715D01*
X39175992Y-69399743D01*
X39279588Y-69542330D01*
X39457670Y-69720412D01*
X39600256Y-69824007D01*
X38314659Y-71109603D01*
X38314659Y-71109604D01*
X38589158Y-71318274D01*
X38589175Y-71318286D01*
X38905067Y-71508350D01*
X38905080Y-71508357D01*
X39239671Y-71663155D01*
X39589068Y-71780882D01*
X39949134Y-71860138D01*
X40315655Y-71899999D01*
X40315663Y-71900000D01*
X40684337Y-71900000D01*
X40684344Y-71899999D01*
X41050865Y-71860138D01*
X41410931Y-71780882D01*
X41650983Y-71699998D01*
X51694318Y-71699998D01*
X51694318Y-71700000D01*
X51698439Y-71731301D01*
X51699500Y-71747487D01*
X51699500Y-71779057D01*
X51707670Y-71809552D01*
X51710833Y-71825450D01*
X51714956Y-71856764D01*
X51727038Y-71885932D01*
X51732251Y-71901288D01*
X51740422Y-71931781D01*
X51740423Y-71931784D01*
X51756207Y-71959123D01*
X51763379Y-71973668D01*
X51775462Y-72002839D01*
X51775463Y-72002840D01*
X51794682Y-72027887D01*
X51803692Y-72041372D01*
X51819475Y-72068709D01*
X51819482Y-72068718D01*
X51841803Y-72091039D01*
X51852497Y-72103233D01*
X51871717Y-72128281D01*
X51896765Y-72147501D01*
X51908960Y-72158196D01*
X51931284Y-72180520D01*
X51931285Y-72180521D01*
X51931287Y-72180522D01*
X51958625Y-72196305D01*
X51972104Y-72205311D01*
X51997159Y-72224536D01*
X52024009Y-72235657D01*
X52026326Y-72236617D01*
X52040873Y-72243791D01*
X52065765Y-72258162D01*
X52068216Y-72259577D01*
X52098708Y-72267746D01*
X52114060Y-72272957D01*
X52143238Y-72285044D01*
X52174541Y-72289165D01*
X52190435Y-72292325D01*
X52207593Y-72296922D01*
X52267252Y-72333284D01*
X52297783Y-72396131D01*
X52299500Y-72416697D01*
X52299500Y-75183301D01*
X52279815Y-75250340D01*
X52227011Y-75296095D01*
X52207585Y-75303078D01*
X52190439Y-75307671D01*
X52174545Y-75310832D01*
X52143244Y-75314954D01*
X52143235Y-75314956D01*
X52114067Y-75327038D01*
X52098715Y-75332250D01*
X52068219Y-75340422D01*
X52068217Y-75340422D01*
X52068216Y-75340423D01*
X52068214Y-75340424D01*
X52068212Y-75340425D01*
X52040875Y-75356207D01*
X52026336Y-75363377D01*
X51997165Y-75375460D01*
X51997160Y-75375463D01*
X51972107Y-75394686D01*
X51958629Y-75403691D01*
X51931283Y-75419480D01*
X51908955Y-75441807D01*
X51896767Y-75452496D01*
X51871718Y-75471718D01*
X51852496Y-75496767D01*
X51841807Y-75508955D01*
X51819480Y-75531283D01*
X51803691Y-75558629D01*
X51794686Y-75572107D01*
X51775463Y-75597160D01*
X51775460Y-75597165D01*
X51763377Y-75626336D01*
X51756207Y-75640875D01*
X51740425Y-75668212D01*
X51740422Y-75668219D01*
X51732250Y-75698715D01*
X51727038Y-75714067D01*
X51714956Y-75743235D01*
X51714954Y-75743244D01*
X51710832Y-75774545D01*
X51707671Y-75790441D01*
X51699500Y-75820940D01*
X51699500Y-75852512D01*
X51698439Y-75868697D01*
X51694318Y-75899998D01*
X51694318Y-75900000D01*
X51698439Y-75931301D01*
X51699500Y-75947487D01*
X51699500Y-75979057D01*
X51707670Y-76009549D01*
X51710833Y-76025450D01*
X51714956Y-76056764D01*
X51727038Y-76085932D01*
X51732251Y-76101288D01*
X51740422Y-76131781D01*
X51740423Y-76131784D01*
X51756207Y-76159123D01*
X51763379Y-76173668D01*
X51775462Y-76202839D01*
X51775463Y-76202840D01*
X51794682Y-76227887D01*
X51803692Y-76241372D01*
X51819475Y-76268709D01*
X51819482Y-76268718D01*
X51841803Y-76291039D01*
X51852497Y-76303233D01*
X51871717Y-76328281D01*
X51896765Y-76347501D01*
X51908960Y-76358196D01*
X51931284Y-76380520D01*
X51931285Y-76380521D01*
X51931287Y-76380522D01*
X51958625Y-76396305D01*
X51972104Y-76405311D01*
X51997159Y-76424536D01*
X52024009Y-76435657D01*
X52026326Y-76436617D01*
X52040873Y-76443791D01*
X52068214Y-76459576D01*
X52068216Y-76459577D01*
X52098708Y-76467746D01*
X52114060Y-76472957D01*
X52143238Y-76485044D01*
X52174541Y-76489165D01*
X52190441Y-76492327D01*
X52220943Y-76500500D01*
X52252513Y-76500500D01*
X52268697Y-76501560D01*
X52300000Y-76505682D01*
X52331302Y-76501560D01*
X52347487Y-76500500D01*
X52820943Y-76500500D01*
X52852513Y-76500500D01*
X52868697Y-76501560D01*
X52900000Y-76505682D01*
X52931302Y-76501560D01*
X52947487Y-76500500D01*
X52979056Y-76500500D01*
X52979057Y-76500500D01*
X53009555Y-76492327D01*
X53025439Y-76489167D01*
X53056762Y-76485044D01*
X53085930Y-76472961D01*
X53101293Y-76467747D01*
X53120858Y-76462504D01*
X53131784Y-76459577D01*
X53159130Y-76443787D01*
X53173666Y-76436619D01*
X53202841Y-76424536D01*
X53227895Y-76405310D01*
X53241374Y-76396305D01*
X53268716Y-76380520D01*
X53291040Y-76358194D01*
X53303234Y-76347501D01*
X53328282Y-76328282D01*
X53347502Y-76303233D01*
X53358196Y-76291039D01*
X53361652Y-76287583D01*
X53380520Y-76268716D01*
X53396308Y-76241368D01*
X53405310Y-76227895D01*
X53424536Y-76202841D01*
X53436619Y-76173666D01*
X53443792Y-76159123D01*
X53459577Y-76131784D01*
X53462504Y-76120858D01*
X53467747Y-76101293D01*
X53472962Y-76085928D01*
X53485044Y-76056762D01*
X53489167Y-76025439D01*
X53492329Y-76009549D01*
X53500500Y-75979057D01*
X53500500Y-75947487D01*
X53501561Y-75931301D01*
X53505682Y-75900000D01*
X53505682Y-75899998D01*
X53501561Y-75868697D01*
X53500500Y-75852512D01*
X53500500Y-71747487D01*
X53501561Y-71731301D01*
X53505682Y-71700000D01*
X53505682Y-71699998D01*
X53501561Y-71668697D01*
X53500500Y-71652512D01*
X53500500Y-71620945D01*
X53500500Y-71620943D01*
X53492327Y-71590441D01*
X53489164Y-71574536D01*
X53488595Y-71570215D01*
X53485044Y-71543238D01*
X53472957Y-71514060D01*
X53467745Y-71498703D01*
X53461415Y-71475076D01*
X53459577Y-71468216D01*
X53458254Y-71465925D01*
X53443791Y-71440873D01*
X53436617Y-71426326D01*
X53427273Y-71403768D01*
X53424536Y-71397159D01*
X53405311Y-71372104D01*
X53396305Y-71358625D01*
X53380522Y-71331287D01*
X53380518Y-71331282D01*
X53358196Y-71308960D01*
X53347501Y-71296765D01*
X53328281Y-71271717D01*
X53303233Y-71252497D01*
X53291039Y-71241803D01*
X53268718Y-71219482D01*
X53268716Y-71219480D01*
X53268713Y-71219478D01*
X53268709Y-71219475D01*
X53241372Y-71203692D01*
X53227887Y-71194682D01*
X53202840Y-71175463D01*
X53202839Y-71175462D01*
X53173668Y-71163379D01*
X53159123Y-71156207D01*
X53131784Y-71140423D01*
X53131781Y-71140422D01*
X53101288Y-71132251D01*
X53085932Y-71127038D01*
X53056764Y-71114956D01*
X53025450Y-71110833D01*
X53009552Y-71107670D01*
X52979057Y-71099500D01*
X52947487Y-71099500D01*
X52931302Y-71098439D01*
X52900000Y-71094318D01*
X52868697Y-71098439D01*
X52852513Y-71099500D01*
X52347487Y-71099500D01*
X52331302Y-71098439D01*
X52300000Y-71094318D01*
X52268697Y-71098439D01*
X52252513Y-71099500D01*
X52220940Y-71099500D01*
X52190441Y-71107671D01*
X52174545Y-71110832D01*
X52143244Y-71114954D01*
X52143235Y-71114956D01*
X52114067Y-71127038D01*
X52098715Y-71132250D01*
X52068219Y-71140422D01*
X52068217Y-71140422D01*
X52068216Y-71140423D01*
X52068214Y-71140424D01*
X52068212Y-71140425D01*
X52040875Y-71156207D01*
X52026336Y-71163377D01*
X51997165Y-71175460D01*
X51997160Y-71175463D01*
X51972107Y-71194686D01*
X51958629Y-71203691D01*
X51931283Y-71219480D01*
X51908955Y-71241807D01*
X51896767Y-71252496D01*
X51871718Y-71271718D01*
X51852496Y-71296767D01*
X51841807Y-71308955D01*
X51819480Y-71331283D01*
X51803691Y-71358629D01*
X51794686Y-71372107D01*
X51775463Y-71397160D01*
X51775460Y-71397165D01*
X51763377Y-71426336D01*
X51756207Y-71440875D01*
X51740425Y-71468212D01*
X51740422Y-71468219D01*
X51732250Y-71498715D01*
X51727038Y-71514067D01*
X51714956Y-71543235D01*
X51714954Y-71543244D01*
X51710832Y-71574545D01*
X51707671Y-71590441D01*
X51699500Y-71620940D01*
X51699500Y-71652512D01*
X51698439Y-71668697D01*
X51694318Y-71699998D01*
X41650983Y-71699998D01*
X41760328Y-71663155D01*
X42094919Y-71508357D01*
X42094923Y-71508355D01*
X42410842Y-71318273D01*
X42685340Y-71109604D01*
X41399743Y-69824007D01*
X41542330Y-69720412D01*
X41720412Y-69542330D01*
X41824007Y-69399743D01*
X43106978Y-70682715D01*
X43106979Y-70682714D01*
X43210692Y-70560614D01*
X43417593Y-70255458D01*
X43590284Y-69929728D01*
X43590293Y-69929710D01*
X43726754Y-69587216D01*
X43726756Y-69587209D01*
X43825383Y-69231986D01*
X43825389Y-69231960D01*
X43885032Y-68868159D01*
X43885033Y-68868142D01*
X43904994Y-68500002D01*
X43904994Y-68499997D01*
X43899572Y-68399998D01*
X54594318Y-68399998D01*
X54594318Y-68400000D01*
X54598439Y-68431301D01*
X54599500Y-68447487D01*
X54599500Y-76952512D01*
X54598439Y-76968697D01*
X54596883Y-76980520D01*
X54594318Y-77000000D01*
X54597609Y-77025001D01*
X54598439Y-77031301D01*
X54599500Y-77047487D01*
X54599500Y-77552512D01*
X54598439Y-77568697D01*
X54594318Y-77599998D01*
X54594318Y-77600000D01*
X54598439Y-77631301D01*
X54599500Y-77647487D01*
X54599500Y-77679057D01*
X54607670Y-77709549D01*
X54610833Y-77725450D01*
X54614956Y-77756764D01*
X54627038Y-77785932D01*
X54632251Y-77801288D01*
X54640422Y-77831781D01*
X54640423Y-77831784D01*
X54656207Y-77859123D01*
X54663379Y-77873668D01*
X54675462Y-77902839D01*
X54675463Y-77902840D01*
X54694682Y-77927887D01*
X54703692Y-77941372D01*
X54719475Y-77968709D01*
X54719482Y-77968718D01*
X54741803Y-77991039D01*
X54752497Y-78003233D01*
X54771717Y-78028281D01*
X54796765Y-78047501D01*
X54808960Y-78058196D01*
X54831284Y-78080520D01*
X54831285Y-78080521D01*
X54831287Y-78080522D01*
X54858625Y-78096305D01*
X54872104Y-78105311D01*
X54897159Y-78124536D01*
X54924009Y-78135657D01*
X54926326Y-78136617D01*
X54940873Y-78143791D01*
X54968214Y-78159576D01*
X54968216Y-78159577D01*
X54998708Y-78167746D01*
X55014060Y-78172957D01*
X55043238Y-78185044D01*
X55074541Y-78189165D01*
X55090441Y-78192327D01*
X55120943Y-78200500D01*
X55152513Y-78200500D01*
X55168697Y-78201560D01*
X55200000Y-78205682D01*
X55231302Y-78201560D01*
X55247487Y-78200500D01*
X55279056Y-78200500D01*
X55279057Y-78200500D01*
X55309555Y-78192327D01*
X55325439Y-78189167D01*
X55356762Y-78185044D01*
X55385930Y-78172961D01*
X55401293Y-78167747D01*
X55420858Y-78162504D01*
X55431784Y-78159577D01*
X55459130Y-78143787D01*
X55473666Y-78136619D01*
X55502841Y-78124536D01*
X55527895Y-78105310D01*
X55541374Y-78096305D01*
X55568716Y-78080520D01*
X55591040Y-78058194D01*
X55603234Y-78047501D01*
X55628282Y-78028282D01*
X55647502Y-78003233D01*
X55658196Y-77991039D01*
X55680520Y-77968716D01*
X55696308Y-77941368D01*
X55705310Y-77927895D01*
X55724536Y-77902841D01*
X55736619Y-77873666D01*
X55743792Y-77859123D01*
X55759577Y-77831784D01*
X55764030Y-77815165D01*
X55767747Y-77801293D01*
X55772962Y-77785928D01*
X55777175Y-77775758D01*
X55785044Y-77756762D01*
X55789167Y-77725439D01*
X55792329Y-77709549D01*
X55800500Y-77679057D01*
X55800500Y-77647487D01*
X55801561Y-77631301D01*
X55805682Y-77600000D01*
X55805682Y-77599998D01*
X55801561Y-77568697D01*
X55800500Y-77552512D01*
X55800500Y-77047487D01*
X55801561Y-77031301D01*
X55802391Y-77025001D01*
X55805682Y-77000000D01*
X55803117Y-76980520D01*
X55801561Y-76968697D01*
X55800500Y-76952512D01*
X55800500Y-71000000D01*
X60664571Y-71000000D01*
X60684244Y-71212310D01*
X60738719Y-71403768D01*
X60742596Y-71417392D01*
X60742596Y-71417394D01*
X60837632Y-71608253D01*
X60942778Y-71747487D01*
X60966128Y-71778407D01*
X61123698Y-71922052D01*
X61304981Y-72034298D01*
X61503802Y-72111321D01*
X61713390Y-72150500D01*
X61713392Y-72150500D01*
X61926608Y-72150500D01*
X61926610Y-72150500D01*
X62002716Y-72136273D01*
X62072230Y-72143304D01*
X62126908Y-72186802D01*
X62149391Y-72252955D01*
X62149500Y-72258162D01*
X62149500Y-76583580D01*
X62129815Y-76650619D01*
X62123876Y-76659066D01*
X62075464Y-76722157D01*
X62014956Y-76868237D01*
X62014955Y-76868239D01*
X61994318Y-77024998D01*
X61994318Y-77025001D01*
X62014955Y-77181760D01*
X62014956Y-77181762D01*
X62056376Y-77281760D01*
X62075464Y-77327841D01*
X62171718Y-77453282D01*
X62297159Y-77549536D01*
X62297160Y-77549536D01*
X62297161Y-77549537D01*
X62306205Y-77553283D01*
X62372953Y-77580931D01*
X62427356Y-77624770D01*
X62449421Y-77691064D01*
X62449500Y-77695491D01*
X62449500Y-79158580D01*
X62429815Y-79225619D01*
X62423876Y-79234066D01*
X62375464Y-79297157D01*
X62314956Y-79443237D01*
X62314955Y-79443239D01*
X62294318Y-79599998D01*
X62294318Y-79600001D01*
X62314955Y-79756760D01*
X62314956Y-79756762D01*
X62375464Y-79902841D01*
X62471718Y-80028282D01*
X62597159Y-80124536D01*
X62743238Y-80185044D01*
X62821619Y-80195363D01*
X62899999Y-80205682D01*
X62900000Y-80205682D01*
X62900001Y-80205682D01*
X62952254Y-80198802D01*
X63056762Y-80185044D01*
X63202841Y-80124536D01*
X63328282Y-80028282D01*
X63424536Y-79902841D01*
X63485044Y-79756762D01*
X63505682Y-79600000D01*
X63485044Y-79443238D01*
X63424536Y-79297159D01*
X63424535Y-79297158D01*
X63424535Y-79297157D01*
X63376124Y-79234066D01*
X63350930Y-79168896D01*
X63350500Y-79158580D01*
X63350500Y-77882204D01*
X63370185Y-77815165D01*
X63386819Y-77794523D01*
X63471798Y-77709544D01*
X63610490Y-77570853D01*
X63668113Y-77471045D01*
X63718679Y-77422831D01*
X63787286Y-77409607D01*
X63852151Y-77435575D01*
X63892680Y-77492489D01*
X63899500Y-77533046D01*
X63899500Y-83013330D01*
X63899499Y-83013348D01*
X63899499Y-83179054D01*
X63899498Y-83179054D01*
X63940423Y-83331785D01*
X63948047Y-83344991D01*
X63963511Y-83371774D01*
X64007384Y-83447765D01*
X64019479Y-83468714D01*
X64019481Y-83468717D01*
X64138349Y-83587585D01*
X64138355Y-83587590D01*
X64263181Y-83712416D01*
X64296666Y-83773739D01*
X64299500Y-83800097D01*
X64299500Y-84052512D01*
X64298439Y-84068697D01*
X64294318Y-84099998D01*
X64294318Y-84100000D01*
X64298439Y-84131301D01*
X64299500Y-84147487D01*
X64299500Y-84652512D01*
X64298439Y-84668697D01*
X64294318Y-84699998D01*
X64294318Y-84700000D01*
X64298439Y-84731301D01*
X64299500Y-84747487D01*
X64299500Y-91899902D01*
X64279815Y-91966941D01*
X64263181Y-91987583D01*
X63631286Y-92619478D01*
X63631280Y-92619481D01*
X63631281Y-92619482D01*
X63608953Y-92641808D01*
X63596767Y-92652495D01*
X63571718Y-92671717D01*
X63552496Y-92696767D01*
X63541807Y-92708955D01*
X63519480Y-92731283D01*
X63503691Y-92758629D01*
X63494684Y-92772108D01*
X63475467Y-92797153D01*
X63475464Y-92797158D01*
X63463380Y-92826331D01*
X63456208Y-92840873D01*
X63440424Y-92868212D01*
X63432248Y-92898718D01*
X63427038Y-92914065D01*
X63414956Y-92943235D01*
X63410834Y-92974541D01*
X63407670Y-92990442D01*
X63399500Y-93020935D01*
X63399499Y-93020943D01*
X63399499Y-93052519D01*
X63398438Y-93068704D01*
X63394318Y-93099998D01*
X63394318Y-93100000D01*
X63398438Y-93131293D01*
X63399499Y-93147479D01*
X63399499Y-93189046D01*
X63399500Y-93189059D01*
X63399500Y-93652512D01*
X63398439Y-93668697D01*
X63394803Y-93696319D01*
X63394318Y-93700000D01*
X63397075Y-93720945D01*
X63398439Y-93731301D01*
X63399500Y-93747487D01*
X63399500Y-106553330D01*
X63399499Y-106553348D01*
X63399499Y-106719054D01*
X63399498Y-106719054D01*
X63440423Y-106871785D01*
X63469179Y-106921592D01*
X63469181Y-106921594D01*
X63519479Y-107008714D01*
X63519481Y-107008717D01*
X63638349Y-107127585D01*
X63638355Y-107127590D01*
X63873181Y-107362416D01*
X63906666Y-107423739D01*
X63909500Y-107450097D01*
X63909500Y-108594856D01*
X63909502Y-108594882D01*
X63912413Y-108619987D01*
X63912415Y-108619991D01*
X63957793Y-108722764D01*
X63957794Y-108722765D01*
X64037235Y-108802206D01*
X64140009Y-108847585D01*
X64165135Y-108850500D01*
X65954864Y-108850499D01*
X65954879Y-108850497D01*
X65954882Y-108850497D01*
X65979987Y-108847586D01*
X65979988Y-108847585D01*
X65979991Y-108847585D01*
X66082765Y-108802206D01*
X66162206Y-108722765D01*
X66207585Y-108619991D01*
X66210500Y-108594865D01*
X66210499Y-107856046D01*
X66230183Y-107789009D01*
X66282987Y-107743254D01*
X66352146Y-107733310D01*
X66415702Y-107762335D01*
X66453476Y-107821113D01*
X66457970Y-107844606D01*
X66462454Y-107892993D01*
X66464244Y-107912310D01*
X66518719Y-108103768D01*
X66522596Y-108117392D01*
X66522596Y-108117394D01*
X66617632Y-108308253D01*
X66746127Y-108478406D01*
X66746128Y-108478407D01*
X66903698Y-108622052D01*
X67084981Y-108734298D01*
X67283802Y-108811321D01*
X67493390Y-108850500D01*
X67493392Y-108850500D01*
X67706608Y-108850500D01*
X67706610Y-108850500D01*
X67916198Y-108811321D01*
X68115019Y-108734298D01*
X68296302Y-108622052D01*
X68453872Y-108478407D01*
X68582366Y-108308255D01*
X68636270Y-108200000D01*
X68677403Y-108117394D01*
X68677403Y-108117393D01*
X68677405Y-108117389D01*
X68735756Y-107912310D01*
X68755429Y-107700000D01*
X68735756Y-107487690D01*
X68710805Y-107399999D01*
X69133756Y-107399999D01*
X69133757Y-107400000D01*
X69735856Y-107400000D01*
X69674075Y-107507007D01*
X69640000Y-107634174D01*
X69640000Y-107765826D01*
X69674075Y-107892993D01*
X69735856Y-108000000D01*
X69133757Y-108000000D01*
X69165234Y-108103768D01*
X69262728Y-108286166D01*
X69262732Y-108286173D01*
X69393944Y-108446055D01*
X69553826Y-108577267D01*
X69553833Y-108577271D01*
X69736237Y-108674767D01*
X69736241Y-108674769D01*
X69840000Y-108706243D01*
X69840000Y-108104144D01*
X69947007Y-108165925D01*
X70074174Y-108200000D01*
X70205826Y-108200000D01*
X70332993Y-108165925D01*
X70440000Y-108104144D01*
X70440000Y-108706242D01*
X70543758Y-108674769D01*
X70543762Y-108674767D01*
X70726166Y-108577271D01*
X70726173Y-108577267D01*
X70886055Y-108446055D01*
X71017267Y-108286173D01*
X71017271Y-108286166D01*
X71114765Y-108103768D01*
X71146243Y-108000000D01*
X70544144Y-108000000D01*
X70605925Y-107892993D01*
X70640000Y-107765826D01*
X70640000Y-107634174D01*
X70605925Y-107507007D01*
X70544144Y-107400000D01*
X71146243Y-107400000D01*
X71146243Y-107399999D01*
X71114765Y-107296231D01*
X71017271Y-107113833D01*
X71017267Y-107113826D01*
X70886055Y-106953944D01*
X70726173Y-106822732D01*
X70726166Y-106822728D01*
X70543768Y-106725234D01*
X70440000Y-106693756D01*
X70440000Y-107295855D01*
X70332993Y-107234075D01*
X70205826Y-107200000D01*
X70074174Y-107200000D01*
X69947007Y-107234075D01*
X69840000Y-107295855D01*
X69840000Y-106693756D01*
X69839999Y-106693756D01*
X69736231Y-106725234D01*
X69553833Y-106822728D01*
X69553826Y-106822732D01*
X69393944Y-106953944D01*
X69262732Y-107113826D01*
X69262728Y-107113833D01*
X69165234Y-107296231D01*
X69133756Y-107399999D01*
X68710805Y-107399999D01*
X68677405Y-107282611D01*
X68677403Y-107282606D01*
X68677403Y-107282605D01*
X68582367Y-107091746D01*
X68453872Y-106921593D01*
X68453871Y-106921592D01*
X68296302Y-106777948D01*
X68201190Y-106719057D01*
X68115020Y-106665702D01*
X68115015Y-106665700D01*
X68076700Y-106650857D01*
X68021298Y-106608284D01*
X67997707Y-106542518D01*
X67997493Y-106535230D01*
X67997493Y-104520812D01*
X68017178Y-104453773D01*
X68069982Y-104408018D01*
X68137678Y-104397873D01*
X68196993Y-104405682D01*
X68228964Y-104401472D01*
X68297996Y-104412236D01*
X68350253Y-104458614D01*
X68359710Y-104476958D01*
X68375462Y-104514986D01*
X68375464Y-104514990D01*
X68442529Y-104602391D01*
X68462395Y-104628282D01*
X68471718Y-104640431D01*
X68597159Y-104736685D01*
X68743238Y-104797193D01*
X68807719Y-104805682D01*
X68899999Y-104817831D01*
X68900000Y-104817831D01*
X68900001Y-104817831D01*
X68992281Y-104805682D01*
X69056762Y-104797193D01*
X69202841Y-104736685D01*
X69328282Y-104640431D01*
X69424536Y-104514990D01*
X69440134Y-104477332D01*
X69483973Y-104422932D01*
X69550267Y-104400866D01*
X69570878Y-104401847D01*
X69600000Y-104405682D01*
X69633891Y-104401220D01*
X69702926Y-104411985D01*
X69755182Y-104458365D01*
X69764638Y-104476706D01*
X69775462Y-104502838D01*
X69775463Y-104502839D01*
X69775464Y-104502841D01*
X69871718Y-104628282D01*
X69997159Y-104724536D01*
X70143238Y-104785044D01*
X70221619Y-104795363D01*
X70299999Y-104805682D01*
X70300000Y-104805682D01*
X70300001Y-104805682D01*
X70352254Y-104798802D01*
X70456762Y-104785044D01*
X70602841Y-104724536D01*
X70728282Y-104628282D01*
X70824536Y-104502841D01*
X70885044Y-104356762D01*
X70905682Y-104200000D01*
X70885044Y-104043238D01*
X70824536Y-103897159D01*
X70824535Y-103897158D01*
X70824535Y-103897157D01*
X70776124Y-103834066D01*
X70750930Y-103768896D01*
X70750500Y-103758580D01*
X70750500Y-103421454D01*
X70750500Y-103421452D01*
X70719799Y-103306875D01*
X70719799Y-103306874D01*
X70660489Y-103204147D01*
X70586816Y-103130474D01*
X70553331Y-103069151D01*
X70550497Y-103042793D01*
X70550497Y-98749365D01*
X70570182Y-98682326D01*
X70622986Y-98636571D01*
X70692144Y-98626627D01*
X70721944Y-98634802D01*
X70843238Y-98685044D01*
X70921619Y-98695363D01*
X70999999Y-98705682D01*
X71000000Y-98705682D01*
X71000001Y-98705682D01*
X71052254Y-98698802D01*
X71156762Y-98685044D01*
X71178048Y-98676226D01*
X71247516Y-98668758D01*
X71309995Y-98700033D01*
X71345648Y-98760122D01*
X71349500Y-98790788D01*
X71349500Y-99359308D01*
X71367528Y-99426592D01*
X71367529Y-99426592D01*
X71380202Y-99473890D01*
X71410631Y-99526593D01*
X71439511Y-99576614D01*
X71823386Y-99960489D01*
X71926113Y-100019799D01*
X71950321Y-100026284D01*
X71950324Y-100026286D01*
X71950325Y-100026286D01*
X71980447Y-100034357D01*
X72040691Y-100050500D01*
X72758581Y-100050500D01*
X72825620Y-100070185D01*
X72834067Y-100076124D01*
X72897157Y-100124535D01*
X72897158Y-100124535D01*
X72897159Y-100124536D01*
X73043238Y-100185044D01*
X73121619Y-100195363D01*
X73199999Y-100205682D01*
X73200000Y-100205682D01*
X73200001Y-100205682D01*
X73252254Y-100198802D01*
X73356762Y-100185044D01*
X73502841Y-100124536D01*
X73628282Y-100028282D01*
X73724536Y-99902841D01*
X73785044Y-99756762D01*
X73805682Y-99600000D01*
X73805253Y-99596745D01*
X73785044Y-99443239D01*
X73785044Y-99443238D01*
X73724536Y-99297159D01*
X73628282Y-99171718D01*
X73502841Y-99075464D01*
X73501479Y-99074900D01*
X73356762Y-99014956D01*
X73356760Y-99014955D01*
X73200001Y-98994318D01*
X73199999Y-98994318D01*
X73043239Y-99014955D01*
X73043237Y-99014956D01*
X72897157Y-99075464D01*
X72834067Y-99123876D01*
X72768898Y-99149070D01*
X72758581Y-99149500D01*
X72374500Y-99149500D01*
X72307461Y-99129815D01*
X72261706Y-99077011D01*
X72250500Y-99025500D01*
X72250500Y-96341419D01*
X72270185Y-96274380D01*
X72276124Y-96265933D01*
X72298847Y-96236319D01*
X72324536Y-96202841D01*
X72385044Y-96056762D01*
X72404553Y-95908577D01*
X72405682Y-95900001D01*
X72405682Y-95899998D01*
X72385044Y-95743239D01*
X72385044Y-95743238D01*
X72324536Y-95597159D01*
X72228282Y-95471718D01*
X72102841Y-95375464D01*
X71956762Y-95314956D01*
X71956760Y-95314955D01*
X71800001Y-95294318D01*
X71800000Y-95294318D01*
X71791381Y-95295452D01*
X71766104Y-95298780D01*
X71697069Y-95288012D01*
X71644815Y-95241631D01*
X71635361Y-95223293D01*
X71624536Y-95197160D01*
X71624536Y-95197159D01*
X71528282Y-95071718D01*
X71402841Y-94975464D01*
X71318015Y-94940328D01*
X71256762Y-94914956D01*
X71256760Y-94914955D01*
X71100001Y-94894318D01*
X71099999Y-94894318D01*
X70943239Y-94914955D01*
X70943237Y-94914956D01*
X70797160Y-94975463D01*
X70671716Y-95071719D01*
X70575464Y-95197158D01*
X70575460Y-95197165D01*
X70564635Y-95223297D01*
X70520792Y-95277699D01*
X70454497Y-95299761D01*
X70433893Y-95298779D01*
X70400004Y-95294318D01*
X70399999Y-95294318D01*
X70243239Y-95314955D01*
X70243237Y-95314956D01*
X70097158Y-95375464D01*
X70075484Y-95392095D01*
X70010314Y-95417287D01*
X69941870Y-95403247D01*
X69924516Y-95392095D01*
X69902841Y-95375464D01*
X69756762Y-95314956D01*
X69756760Y-95314955D01*
X69600001Y-95294318D01*
X69600000Y-95294318D01*
X69591381Y-95295452D01*
X69566104Y-95298780D01*
X69497069Y-95288012D01*
X69444815Y-95241631D01*
X69435361Y-95223293D01*
X69424536Y-95197160D01*
X69424536Y-95197159D01*
X69328282Y-95071718D01*
X69202841Y-94975464D01*
X69118015Y-94940328D01*
X69056762Y-94914956D01*
X69056760Y-94914955D01*
X68900001Y-94894318D01*
X68899997Y-94894318D01*
X68840684Y-94902126D01*
X68771649Y-94891360D01*
X68719393Y-94844979D01*
X68700500Y-94779187D01*
X68700500Y-94687965D01*
X68720185Y-94620926D01*
X68736819Y-94600284D01*
X69537103Y-93800000D01*
X74894318Y-93800000D01*
X74897621Y-93825092D01*
X74898438Y-93831293D01*
X74899499Y-93847479D01*
X74899499Y-93879056D01*
X74907671Y-93909557D01*
X74910834Y-93925458D01*
X74914956Y-93956763D01*
X74914957Y-93956767D01*
X74927038Y-93985934D01*
X74932250Y-94001288D01*
X74940421Y-94031780D01*
X74940425Y-94031790D01*
X74956205Y-94059121D01*
X74963378Y-94073665D01*
X74975464Y-94102841D01*
X74994685Y-94127890D01*
X75003691Y-94141370D01*
X75019480Y-94168716D01*
X75019481Y-94168717D01*
X75019482Y-94168718D01*
X75041803Y-94191039D01*
X75052497Y-94203233D01*
X75071717Y-94228281D01*
X75096765Y-94247501D01*
X75108960Y-94258196D01*
X75131284Y-94280520D01*
X75131285Y-94280521D01*
X75131287Y-94280522D01*
X75158627Y-94296307D01*
X75172113Y-94305318D01*
X75197157Y-94324535D01*
X75197158Y-94324535D01*
X75197159Y-94324536D01*
X75226330Y-94336618D01*
X75240868Y-94343788D01*
X75268215Y-94359577D01*
X75298718Y-94367750D01*
X75314069Y-94372962D01*
X75343236Y-94385043D01*
X75343235Y-94385043D01*
X75343238Y-94385044D01*
X75374536Y-94389164D01*
X75390445Y-94392329D01*
X75407401Y-94396872D01*
X75420943Y-94400501D01*
X75452520Y-94400501D01*
X75468705Y-94401562D01*
X75499999Y-94405682D01*
X75500000Y-94405682D01*
X75500001Y-94405682D01*
X75531295Y-94401562D01*
X75547480Y-94400501D01*
X75586653Y-94400501D01*
X75586669Y-94400500D01*
X76052513Y-94400500D01*
X76068697Y-94401560D01*
X76100000Y-94405682D01*
X76131302Y-94401560D01*
X76147487Y-94400500D01*
X76179056Y-94400500D01*
X76179057Y-94400500D01*
X76209555Y-94392327D01*
X76225439Y-94389167D01*
X76256762Y-94385044D01*
X76285930Y-94372961D01*
X76301293Y-94367747D01*
X76320858Y-94362504D01*
X76331784Y-94359577D01*
X76359130Y-94343787D01*
X76373666Y-94336619D01*
X76402841Y-94324536D01*
X76427895Y-94305310D01*
X76441371Y-94296307D01*
X76468716Y-94280520D01*
X76491040Y-94258194D01*
X76503234Y-94247501D01*
X76528282Y-94228282D01*
X76547502Y-94203233D01*
X76558196Y-94191039D01*
X76560189Y-94189046D01*
X76580520Y-94168716D01*
X76596308Y-94141368D01*
X76605310Y-94127895D01*
X76624536Y-94102841D01*
X76636619Y-94073666D01*
X76643787Y-94059130D01*
X76659577Y-94031784D01*
X76662734Y-94020000D01*
X76667747Y-94001293D01*
X76672962Y-93985928D01*
X76673385Y-93984908D01*
X76685044Y-93956762D01*
X76689167Y-93925439D01*
X76692329Y-93909549D01*
X76700500Y-93879057D01*
X76700500Y-93847487D01*
X76701561Y-93831302D01*
X76702561Y-93823706D01*
X76711686Y-93803077D01*
X76706523Y-93795042D01*
X76702561Y-93776294D01*
X76701560Y-93768695D01*
X76700500Y-93752512D01*
X76700500Y-93720945D01*
X76700500Y-93720943D01*
X76692327Y-93690441D01*
X76689164Y-93674536D01*
X76688395Y-93668697D01*
X76685044Y-93643238D01*
X76672957Y-93614060D01*
X76667745Y-93598703D01*
X76659577Y-93568216D01*
X76649588Y-93550914D01*
X76643791Y-93540873D01*
X76636617Y-93526326D01*
X76635607Y-93523887D01*
X76624536Y-93497159D01*
X76605311Y-93472104D01*
X76596305Y-93458625D01*
X76580522Y-93431287D01*
X76580518Y-93431282D01*
X76558196Y-93408960D01*
X76547501Y-93396765D01*
X76528282Y-93371718D01*
X76512458Y-93359576D01*
X76503233Y-93352497D01*
X76491039Y-93341803D01*
X76468718Y-93319482D01*
X76468716Y-93319480D01*
X76468713Y-93319478D01*
X76468709Y-93319475D01*
X76441372Y-93303692D01*
X76427887Y-93294682D01*
X76402840Y-93275463D01*
X76402839Y-93275462D01*
X76373668Y-93263379D01*
X76359123Y-93256207D01*
X76331784Y-93240423D01*
X76331781Y-93240422D01*
X76301288Y-93232251D01*
X76285930Y-93227037D01*
X76277046Y-93223357D01*
X76222643Y-93179516D01*
X76200579Y-93113221D01*
X76200500Y-93108797D01*
X76200500Y-89249998D01*
X76694318Y-89249998D01*
X76694318Y-89250001D01*
X76714955Y-89406760D01*
X76714956Y-89406762D01*
X76774876Y-89551423D01*
X76775464Y-89552841D01*
X76871718Y-89678282D01*
X76900987Y-89700740D01*
X76942189Y-89757165D01*
X76949500Y-89799115D01*
X76949500Y-93760107D01*
X76937955Y-93799423D01*
X76948019Y-93820784D01*
X76949500Y-93839891D01*
X76949500Y-101911628D01*
X76929815Y-101978667D01*
X76900989Y-102010002D01*
X76885725Y-102021714D01*
X76789467Y-102147160D01*
X76728960Y-102293237D01*
X76728959Y-102293239D01*
X76708322Y-102449998D01*
X76708322Y-102450001D01*
X76728959Y-102606760D01*
X76728960Y-102606762D01*
X76769475Y-102704575D01*
X76789468Y-102752841D01*
X76885722Y-102878282D01*
X77011163Y-102974536D01*
X77157242Y-103035044D01*
X77308861Y-103055004D01*
X77372755Y-103083270D01*
X77411227Y-103141594D01*
X77412821Y-103148920D01*
X77412853Y-103148912D01*
X77414956Y-103156762D01*
X77474287Y-103300001D01*
X77475464Y-103302841D01*
X77571718Y-103428282D01*
X77697159Y-103524536D01*
X77843238Y-103585044D01*
X77921619Y-103595363D01*
X77999999Y-103605682D01*
X78000000Y-103605682D01*
X78000001Y-103605682D01*
X78052254Y-103598802D01*
X78156762Y-103585044D01*
X78302841Y-103524536D01*
X78428282Y-103428282D01*
X78524536Y-103302841D01*
X78585044Y-103156762D01*
X78605682Y-103000000D01*
X78585044Y-102843238D01*
X78524536Y-102697159D01*
X78524535Y-102697158D01*
X78524535Y-102697157D01*
X78476124Y-102634066D01*
X78450930Y-102568896D01*
X78450500Y-102558580D01*
X78450500Y-102157450D01*
X78450500Y-102157448D01*
X78419799Y-102042871D01*
X78378751Y-101971774D01*
X78367111Y-101951612D01*
X78350500Y-101889615D01*
X78350500Y-89807204D01*
X78370185Y-89740165D01*
X78386819Y-89719523D01*
X78391970Y-89714372D01*
X78451280Y-89611645D01*
X78460347Y-89577805D01*
X78481981Y-89497067D01*
X78481981Y-89150391D01*
X78501666Y-89083352D01*
X78507595Y-89074918D01*
X78524536Y-89052841D01*
X78585044Y-88906762D01*
X78604958Y-88755500D01*
X78605682Y-88750001D01*
X78605682Y-88749998D01*
X78585044Y-88593239D01*
X78585044Y-88593238D01*
X78524536Y-88447159D01*
X78428282Y-88321718D01*
X78302841Y-88225464D01*
X78156762Y-88164956D01*
X78156760Y-88164955D01*
X78000001Y-88144318D01*
X77999999Y-88144318D01*
X77843239Y-88164955D01*
X77843237Y-88164956D01*
X77697160Y-88225463D01*
X77571718Y-88321718D01*
X77475463Y-88447160D01*
X77425359Y-88568122D01*
X77381518Y-88622525D01*
X77315223Y-88644590D01*
X77308127Y-88644252D01*
X77308127Y-88644318D01*
X77299999Y-88644318D01*
X77143239Y-88664955D01*
X77143237Y-88664956D01*
X76997160Y-88725463D01*
X76871718Y-88821718D01*
X76775463Y-88947160D01*
X76714956Y-89093237D01*
X76714955Y-89093239D01*
X76694318Y-89249998D01*
X76200500Y-89249998D01*
X76200500Y-85900096D01*
X76220185Y-85833057D01*
X76236815Y-85812419D01*
X76349236Y-85699998D01*
X79994318Y-85699998D01*
X79994318Y-85700001D01*
X80014955Y-85856760D01*
X80014957Y-85856765D01*
X80075461Y-86002836D01*
X80075464Y-86002841D01*
X80123876Y-86065933D01*
X80149070Y-86131102D01*
X80149500Y-86141419D01*
X80149500Y-89858580D01*
X80129815Y-89925619D01*
X80123876Y-89934066D01*
X80075464Y-89997157D01*
X80014956Y-90143237D01*
X80014955Y-90143239D01*
X79994318Y-90299998D01*
X79994318Y-90300001D01*
X80014955Y-90456760D01*
X80014956Y-90456762D01*
X80059404Y-90564070D01*
X80075464Y-90602841D01*
X80171718Y-90728282D01*
X80297159Y-90824536D01*
X80320488Y-90834199D01*
X80323481Y-90835439D01*
X80377884Y-90879280D01*
X80399949Y-90945575D01*
X80382670Y-91013274D01*
X80331532Y-91060884D01*
X80323481Y-91064561D01*
X80297160Y-91075463D01*
X80171718Y-91171718D01*
X80075463Y-91297160D01*
X80014956Y-91443237D01*
X80014955Y-91443239D01*
X79994318Y-91599998D01*
X79994318Y-91600001D01*
X80014955Y-91756760D01*
X80014957Y-91756765D01*
X80075461Y-91902836D01*
X80075464Y-91902841D01*
X80123876Y-91965933D01*
X80149070Y-92031102D01*
X80149500Y-92041419D01*
X80149500Y-93409309D01*
X80161698Y-93454835D01*
X80173039Y-93497159D01*
X80173667Y-93499500D01*
X80180201Y-93523887D01*
X80181700Y-93526483D01*
X80197254Y-93572302D01*
X80214955Y-93706760D01*
X80214956Y-93706762D01*
X80267291Y-93833111D01*
X80275464Y-93852841D01*
X80371718Y-93978282D01*
X80497159Y-94074536D01*
X80643238Y-94135044D01*
X80691373Y-94141381D01*
X80799999Y-94155682D01*
X80800000Y-94155682D01*
X80800001Y-94155682D01*
X80852254Y-94148802D01*
X80956762Y-94135044D01*
X81102841Y-94074536D01*
X81228282Y-93978282D01*
X81324536Y-93852841D01*
X81385044Y-93706762D01*
X81405682Y-93550000D01*
X81405061Y-93545286D01*
X81391923Y-93445492D01*
X81385044Y-93393238D01*
X81324536Y-93247159D01*
X81228282Y-93121718D01*
X81102841Y-93025464D01*
X81102840Y-93025463D01*
X81099013Y-93022527D01*
X81057811Y-92966099D01*
X81050500Y-92924151D01*
X81050500Y-92041419D01*
X81070185Y-91974380D01*
X81076124Y-91965933D01*
X81092092Y-91945121D01*
X81124536Y-91902841D01*
X81185044Y-91756762D01*
X81205682Y-91600000D01*
X81204047Y-91587583D01*
X81185044Y-91443239D01*
X81185044Y-91443238D01*
X81124536Y-91297159D01*
X81028282Y-91171718D01*
X80902841Y-91075464D01*
X80902840Y-91075463D01*
X80902838Y-91075462D01*
X80876519Y-91064561D01*
X80822115Y-91020721D01*
X80800050Y-90954427D01*
X80817329Y-90886727D01*
X80868466Y-90839116D01*
X80876519Y-90835439D01*
X80881246Y-90833480D01*
X80902841Y-90824536D01*
X81028282Y-90728282D01*
X81124536Y-90602841D01*
X81185044Y-90456762D01*
X81205682Y-90300000D01*
X81201092Y-90265139D01*
X81185044Y-90143239D01*
X81185044Y-90143238D01*
X81124536Y-89997159D01*
X81124535Y-89997158D01*
X81124535Y-89997157D01*
X81076124Y-89934066D01*
X81050930Y-89868896D01*
X81050500Y-89858580D01*
X81050500Y-88899998D01*
X83294318Y-88899998D01*
X83294318Y-88900001D01*
X83314955Y-89056760D01*
X83314957Y-89056765D01*
X83375461Y-89202836D01*
X83375464Y-89202841D01*
X83423876Y-89265933D01*
X83449070Y-89331102D01*
X83449500Y-89341419D01*
X83449500Y-97430017D01*
X83471695Y-97512853D01*
X83472259Y-97514956D01*
X83480201Y-97544596D01*
X83480202Y-97544598D01*
X83484874Y-97552690D01*
X83539511Y-97647323D01*
X84152678Y-98260490D01*
X84245368Y-98314004D01*
X84245369Y-98314005D01*
X84251509Y-98317549D01*
X84255405Y-98319799D01*
X84369982Y-98350500D01*
X85438706Y-98350500D01*
X85505745Y-98370185D01*
X85537658Y-98399771D01*
X85646128Y-98543407D01*
X85803698Y-98687052D01*
X85984981Y-98799298D01*
X86183802Y-98876321D01*
X86380613Y-98913111D01*
X86442893Y-98944779D01*
X86478166Y-99005092D01*
X86475232Y-99074900D01*
X86435023Y-99132040D01*
X86380613Y-99156888D01*
X86183802Y-99193679D01*
X86183799Y-99193679D01*
X86183799Y-99193680D01*
X85984982Y-99270701D01*
X85984980Y-99270702D01*
X85803699Y-99382947D01*
X85646127Y-99526593D01*
X85517632Y-99696746D01*
X85422596Y-99887605D01*
X85422596Y-99887607D01*
X85364244Y-100092689D01*
X85350305Y-100243124D01*
X85344571Y-100305000D01*
X85364244Y-100517310D01*
X85419648Y-100712033D01*
X85422596Y-100722392D01*
X85422596Y-100722394D01*
X85517632Y-100913253D01*
X85615794Y-101043239D01*
X85646128Y-101083407D01*
X85803698Y-101227052D01*
X85984981Y-101339298D01*
X86183802Y-101416321D01*
X86393390Y-101455500D01*
X86393392Y-101455500D01*
X86606608Y-101455500D01*
X86606610Y-101455500D01*
X86816198Y-101416321D01*
X87015019Y-101339298D01*
X87196302Y-101227052D01*
X87353872Y-101083407D01*
X87482366Y-100913255D01*
X87520527Y-100836616D01*
X87577403Y-100722394D01*
X87577403Y-100722393D01*
X87577405Y-100722389D01*
X87635756Y-100517310D01*
X87655429Y-100305000D01*
X87635756Y-100092690D01*
X87577405Y-99887611D01*
X87577403Y-99887606D01*
X87577403Y-99887605D01*
X87482367Y-99696746D01*
X87353872Y-99526593D01*
X87296060Y-99473890D01*
X87196302Y-99382948D01*
X87015019Y-99270702D01*
X87015017Y-99270701D01*
X86915608Y-99232190D01*
X86816198Y-99193679D01*
X86619385Y-99156888D01*
X86557106Y-99125221D01*
X86521833Y-99064908D01*
X86524767Y-98995100D01*
X86564976Y-98937960D01*
X86619384Y-98913111D01*
X86816198Y-98876321D01*
X87015019Y-98799298D01*
X87196302Y-98687052D01*
X87353872Y-98543407D01*
X87482366Y-98373255D01*
X87501994Y-98333836D01*
X87577403Y-98182394D01*
X87577403Y-98182393D01*
X87577405Y-98182389D01*
X87635756Y-97977310D01*
X87655429Y-97765000D01*
X87635756Y-97552690D01*
X87577405Y-97347611D01*
X87577403Y-97347606D01*
X87577403Y-97347605D01*
X87482367Y-97156746D01*
X87353872Y-96986593D01*
X87196302Y-96842948D01*
X87015019Y-96730702D01*
X87015017Y-96730701D01*
X86897161Y-96685044D01*
X86816198Y-96653679D01*
X86619385Y-96616888D01*
X86557106Y-96585221D01*
X86521833Y-96524908D01*
X86524767Y-96455100D01*
X86564976Y-96397960D01*
X86619384Y-96373111D01*
X86816198Y-96336321D01*
X87015019Y-96259298D01*
X87196302Y-96147052D01*
X87353872Y-96003407D01*
X87482366Y-95833255D01*
X87482367Y-95833253D01*
X87577403Y-95642394D01*
X87577403Y-95642393D01*
X87577405Y-95642389D01*
X87635756Y-95437310D01*
X87655429Y-95225000D01*
X87635756Y-95012690D01*
X87577405Y-94807611D01*
X87577403Y-94807606D01*
X87577403Y-94807605D01*
X87482367Y-94616746D01*
X87353872Y-94446593D01*
X87342028Y-94435796D01*
X87196302Y-94302948D01*
X87015019Y-94190702D01*
X87015017Y-94190701D01*
X86871345Y-94135043D01*
X86816198Y-94113679D01*
X86619385Y-94076888D01*
X86557106Y-94045221D01*
X86521833Y-93984908D01*
X86524767Y-93915100D01*
X86564976Y-93857960D01*
X86619384Y-93833111D01*
X86816198Y-93796321D01*
X87015019Y-93719298D01*
X87196302Y-93607052D01*
X87353872Y-93463407D01*
X87482366Y-93293255D01*
X87508673Y-93240423D01*
X87577403Y-93102394D01*
X87577403Y-93102393D01*
X87577405Y-93102389D01*
X87635756Y-92897310D01*
X87655429Y-92685000D01*
X87635756Y-92472690D01*
X87577405Y-92267611D01*
X87577403Y-92267606D01*
X87577403Y-92267605D01*
X87482367Y-92076746D01*
X87353872Y-91906593D01*
X87346532Y-91899902D01*
X87196302Y-91762948D01*
X87015019Y-91650702D01*
X87015017Y-91650701D01*
X86915608Y-91612190D01*
X86816198Y-91573679D01*
X86619385Y-91536888D01*
X86557106Y-91505221D01*
X86521833Y-91444908D01*
X86524767Y-91375100D01*
X86564976Y-91317960D01*
X86619384Y-91293111D01*
X86816198Y-91256321D01*
X87015019Y-91179298D01*
X87196302Y-91067052D01*
X87353872Y-90923407D01*
X87482366Y-90753255D01*
X87494801Y-90728282D01*
X87577403Y-90562394D01*
X87577403Y-90562393D01*
X87577405Y-90562389D01*
X87635756Y-90357310D01*
X87655429Y-90145000D01*
X87635756Y-89932690D01*
X87577405Y-89727611D01*
X87577403Y-89727606D01*
X87577403Y-89727605D01*
X87482367Y-89536746D01*
X87353872Y-89366593D01*
X87196302Y-89222948D01*
X87015019Y-89110702D01*
X87015017Y-89110701D01*
X86875790Y-89056765D01*
X86816198Y-89033679D01*
X86619385Y-88996888D01*
X86557106Y-88965221D01*
X86521833Y-88904908D01*
X86524767Y-88835100D01*
X86564976Y-88777960D01*
X86619384Y-88753111D01*
X86816198Y-88716321D01*
X87015019Y-88639298D01*
X87196302Y-88527052D01*
X87353872Y-88383407D01*
X87482366Y-88213255D01*
X87532161Y-88113253D01*
X87577403Y-88022394D01*
X87577403Y-88022393D01*
X87577405Y-88022389D01*
X87635756Y-87817310D01*
X87655429Y-87605000D01*
X87635756Y-87392690D01*
X87577405Y-87187611D01*
X87577403Y-87187606D01*
X87577403Y-87187605D01*
X87482367Y-86996746D01*
X87353872Y-86826593D01*
X87294160Y-86772158D01*
X87196302Y-86682948D01*
X87015019Y-86570702D01*
X87015017Y-86570701D01*
X86880829Y-86518717D01*
X86816198Y-86493679D01*
X86606610Y-86454500D01*
X86393390Y-86454500D01*
X86183802Y-86493679D01*
X86183799Y-86493679D01*
X86183799Y-86493680D01*
X85984982Y-86570701D01*
X85984980Y-86570702D01*
X85803699Y-86682947D01*
X85646127Y-86826593D01*
X85517632Y-86996746D01*
X85422596Y-87187605D01*
X85422596Y-87187607D01*
X85364244Y-87392689D01*
X85347767Y-87570514D01*
X85344571Y-87605000D01*
X85364244Y-87817310D01*
X85394143Y-87922394D01*
X85422596Y-88022392D01*
X85422596Y-88022394D01*
X85517632Y-88213253D01*
X85646127Y-88383406D01*
X85646128Y-88383407D01*
X85803698Y-88527052D01*
X85984981Y-88639298D01*
X86183802Y-88716321D01*
X86380613Y-88753111D01*
X86442893Y-88784779D01*
X86478166Y-88845092D01*
X86475232Y-88914900D01*
X86435023Y-88972040D01*
X86380613Y-88996888D01*
X86183802Y-89033679D01*
X86183799Y-89033679D01*
X86183799Y-89033680D01*
X85984982Y-89110701D01*
X85984980Y-89110702D01*
X85803699Y-89222947D01*
X85646127Y-89366593D01*
X85517632Y-89536746D01*
X85422596Y-89727605D01*
X85422596Y-89727607D01*
X85422595Y-89727611D01*
X85364244Y-89932690D01*
X85344571Y-90145000D01*
X85364244Y-90357310D01*
X85410026Y-90518216D01*
X85422596Y-90562392D01*
X85422596Y-90562394D01*
X85517632Y-90753253D01*
X85646127Y-90923406D01*
X85646128Y-90923407D01*
X85803698Y-91067052D01*
X85984981Y-91179298D01*
X86183802Y-91256321D01*
X86380613Y-91293111D01*
X86442893Y-91324779D01*
X86478166Y-91385092D01*
X86475232Y-91454900D01*
X86435023Y-91512040D01*
X86380613Y-91536888D01*
X86183802Y-91573679D01*
X86183799Y-91573679D01*
X86183799Y-91573680D01*
X85984982Y-91650701D01*
X85984980Y-91650702D01*
X85803699Y-91762947D01*
X85646127Y-91906593D01*
X85535685Y-92052842D01*
X85517634Y-92076745D01*
X85473303Y-92165774D01*
X85425803Y-92217008D01*
X85362305Y-92234500D01*
X85355691Y-92234500D01*
X85265325Y-92258713D01*
X85265324Y-92258712D01*
X85241116Y-92265199D01*
X85241113Y-92265200D01*
X85138386Y-92324511D01*
X85138383Y-92324513D01*
X84562181Y-92900716D01*
X84500858Y-92934201D01*
X84431166Y-92929217D01*
X84375233Y-92887345D01*
X84350816Y-92821881D01*
X84350500Y-92813035D01*
X84350500Y-89341419D01*
X84370185Y-89274380D01*
X84376124Y-89265933D01*
X84409108Y-89222947D01*
X84424536Y-89202841D01*
X84485044Y-89056762D01*
X84505682Y-88900000D01*
X84505272Y-88896889D01*
X84485044Y-88743239D01*
X84485044Y-88743238D01*
X84424536Y-88597159D01*
X84328282Y-88471718D01*
X84202841Y-88375464D01*
X84056762Y-88314956D01*
X84056760Y-88314955D01*
X83900001Y-88294318D01*
X83899999Y-88294318D01*
X83743239Y-88314955D01*
X83743237Y-88314956D01*
X83597160Y-88375463D01*
X83471718Y-88471718D01*
X83375463Y-88597160D01*
X83314956Y-88743237D01*
X83314955Y-88743239D01*
X83294318Y-88899998D01*
X81050500Y-88899998D01*
X81050500Y-86141419D01*
X81070185Y-86074380D01*
X81076124Y-86065933D01*
X81096200Y-86039769D01*
X81124536Y-86002841D01*
X81185044Y-85856762D01*
X81205682Y-85700000D01*
X81201663Y-85669475D01*
X81185044Y-85543239D01*
X81185044Y-85543238D01*
X81124536Y-85397159D01*
X81028282Y-85271718D01*
X80902841Y-85175464D01*
X80893797Y-85171718D01*
X80756762Y-85114956D01*
X80756760Y-85114955D01*
X80600001Y-85094318D01*
X80599999Y-85094318D01*
X80443239Y-85114955D01*
X80443237Y-85114956D01*
X80297160Y-85175463D01*
X80171718Y-85271718D01*
X80075463Y-85397160D01*
X80014956Y-85543237D01*
X80014955Y-85543239D01*
X79994318Y-85699998D01*
X76349236Y-85699998D01*
X76558506Y-85490727D01*
X76558511Y-85490724D01*
X76568714Y-85480520D01*
X76568716Y-85480520D01*
X76680520Y-85368716D01*
X76749349Y-85249500D01*
X76759577Y-85231785D01*
X76800500Y-85079057D01*
X76800500Y-84920943D01*
X76800500Y-84764999D01*
X85493756Y-84764999D01*
X85493757Y-84765000D01*
X86095856Y-84765000D01*
X86034075Y-84872007D01*
X86000000Y-84999174D01*
X86000000Y-85130826D01*
X86034075Y-85257993D01*
X86095856Y-85365000D01*
X85493757Y-85365000D01*
X85525234Y-85468768D01*
X85622728Y-85651166D01*
X85622732Y-85651173D01*
X85753944Y-85811055D01*
X85913826Y-85942267D01*
X85913833Y-85942271D01*
X86096237Y-86039767D01*
X86096241Y-86039769D01*
X86200000Y-86071243D01*
X86200000Y-85469144D01*
X86307007Y-85530925D01*
X86434174Y-85565000D01*
X86565826Y-85565000D01*
X86692993Y-85530925D01*
X86800000Y-85469144D01*
X86800000Y-86071242D01*
X86903758Y-86039769D01*
X86903762Y-86039767D01*
X87086166Y-85942271D01*
X87086173Y-85942267D01*
X87246055Y-85811055D01*
X87377267Y-85651173D01*
X87377271Y-85651166D01*
X87474765Y-85468768D01*
X87506243Y-85365000D01*
X86904144Y-85365000D01*
X86965925Y-85257993D01*
X87000000Y-85130826D01*
X87000000Y-84999174D01*
X86965925Y-84872007D01*
X86904144Y-84765000D01*
X87506243Y-84765000D01*
X87506243Y-84764999D01*
X87474765Y-84661231D01*
X87377271Y-84478833D01*
X87377267Y-84478826D01*
X87246055Y-84318944D01*
X87086173Y-84187732D01*
X87086166Y-84187728D01*
X86903768Y-84090234D01*
X86800000Y-84058756D01*
X86800000Y-84660855D01*
X86692993Y-84599075D01*
X86565826Y-84565000D01*
X86434174Y-84565000D01*
X86307007Y-84599075D01*
X86200000Y-84660855D01*
X86200000Y-84058756D01*
X86199999Y-84058756D01*
X86096231Y-84090234D01*
X85913833Y-84187728D01*
X85913826Y-84187732D01*
X85753944Y-84318944D01*
X85622732Y-84478826D01*
X85622728Y-84478833D01*
X85525234Y-84661231D01*
X85493756Y-84764999D01*
X76800500Y-84764999D01*
X76800500Y-81630131D01*
X85349500Y-81630131D01*
X85349500Y-83419856D01*
X85349502Y-83419882D01*
X85352413Y-83444987D01*
X85352415Y-83444991D01*
X85397793Y-83547764D01*
X85397794Y-83547765D01*
X85477235Y-83627206D01*
X85580009Y-83672585D01*
X85605135Y-83675500D01*
X87394864Y-83675499D01*
X87394879Y-83675497D01*
X87394882Y-83675497D01*
X87419987Y-83672586D01*
X87419988Y-83672585D01*
X87419991Y-83672585D01*
X87522765Y-83627206D01*
X87602206Y-83547765D01*
X87647585Y-83444991D01*
X87650500Y-83419865D01*
X87650499Y-82524998D01*
X89694318Y-82524998D01*
X89694318Y-82525000D01*
X89698439Y-82556301D01*
X89699500Y-82572487D01*
X89699500Y-83052512D01*
X89698439Y-83068697D01*
X89694318Y-83099998D01*
X89694318Y-83100000D01*
X89698439Y-83131301D01*
X89699500Y-83147487D01*
X89699500Y-89163330D01*
X89699499Y-89163348D01*
X89699499Y-89329054D01*
X89699498Y-89329054D01*
X89699499Y-89329057D01*
X89740423Y-89481785D01*
X89767268Y-89528282D01*
X89795862Y-89577809D01*
X89819481Y-89618717D01*
X89938349Y-89737585D01*
X89938355Y-89737590D01*
X91163181Y-90962416D01*
X91196666Y-91023739D01*
X91199500Y-91050097D01*
X91199500Y-93213330D01*
X91199499Y-93213348D01*
X91199499Y-93379054D01*
X91199498Y-93379054D01*
X91222101Y-93463406D01*
X91240423Y-93531785D01*
X91253213Y-93553937D01*
X91304771Y-93643239D01*
X91319479Y-93668714D01*
X91319481Y-93668717D01*
X91438349Y-93787585D01*
X91438355Y-93787590D01*
X91963181Y-94312416D01*
X91996666Y-94373739D01*
X91999500Y-94400097D01*
X91999500Y-94852512D01*
X91998439Y-94868697D01*
X91994318Y-94899998D01*
X91994318Y-94900000D01*
X91998439Y-94931301D01*
X91999500Y-94947487D01*
X91999500Y-95452512D01*
X91998439Y-95468697D01*
X91994318Y-95499998D01*
X91994318Y-95500000D01*
X91998439Y-95531301D01*
X91999500Y-95547487D01*
X91999500Y-98093420D01*
X91979815Y-98160459D01*
X91973872Y-98168911D01*
X91952492Y-98196771D01*
X91941804Y-98208958D01*
X91919482Y-98231280D01*
X91903693Y-98258628D01*
X91894685Y-98272108D01*
X91875464Y-98297157D01*
X91875464Y-98297158D01*
X91875464Y-98297159D01*
X91866087Y-98319797D01*
X91863380Y-98326331D01*
X91856208Y-98340873D01*
X91840424Y-98368212D01*
X91832248Y-98398718D01*
X91827038Y-98414065D01*
X91814956Y-98443235D01*
X91810834Y-98474541D01*
X91807670Y-98490442D01*
X91799500Y-98520935D01*
X91799499Y-98520943D01*
X91799499Y-98552519D01*
X91798438Y-98568704D01*
X91794318Y-98599998D01*
X91794318Y-98600000D01*
X91798438Y-98631293D01*
X91799499Y-98647479D01*
X91799499Y-98679056D01*
X91807671Y-98709557D01*
X91810834Y-98725458D01*
X91814956Y-98756763D01*
X91814957Y-98756767D01*
X91827038Y-98785934D01*
X91832250Y-98801288D01*
X91840421Y-98831780D01*
X91840425Y-98831790D01*
X91856205Y-98859121D01*
X91863378Y-98873665D01*
X91875464Y-98902841D01*
X91875466Y-98902843D01*
X91875468Y-98902847D01*
X91894683Y-98927888D01*
X91903694Y-98941373D01*
X91919480Y-98968715D01*
X91923877Y-98974445D01*
X91949070Y-99039614D01*
X91949500Y-99049930D01*
X91949500Y-107658580D01*
X91929815Y-107725619D01*
X91923876Y-107734066D01*
X91875464Y-107797157D01*
X91814956Y-107943237D01*
X91814955Y-107943239D01*
X91794318Y-108099998D01*
X91794318Y-108100001D01*
X91814955Y-108256760D01*
X91814956Y-108256762D01*
X91875464Y-108402841D01*
X91971718Y-108528282D01*
X92097159Y-108624536D01*
X92243238Y-108685044D01*
X92321619Y-108695363D01*
X92399999Y-108705682D01*
X92400000Y-108705682D01*
X92400001Y-108705682D01*
X92452254Y-108698802D01*
X92556762Y-108685044D01*
X92702841Y-108624536D01*
X92828282Y-108528282D01*
X92924536Y-108402841D01*
X92985044Y-108256762D01*
X93005682Y-108100000D01*
X92985044Y-107943238D01*
X92924536Y-107797159D01*
X92924535Y-107797158D01*
X92924535Y-107797157D01*
X92876124Y-107734066D01*
X92850930Y-107668896D01*
X92850500Y-107658580D01*
X92850500Y-99050097D01*
X92870185Y-98983058D01*
X92886819Y-98962415D01*
X92907861Y-98941373D01*
X93080520Y-98768716D01*
X93159577Y-98631784D01*
X93200501Y-98479057D01*
X93200501Y-98320942D01*
X93200501Y-98313347D01*
X93200500Y-98313329D01*
X93200500Y-95547487D01*
X93201561Y-95531301D01*
X93205682Y-95500000D01*
X93205682Y-95499998D01*
X93201561Y-95468697D01*
X93200500Y-95452512D01*
X93200500Y-94947487D01*
X93201561Y-94931301D01*
X93205682Y-94900000D01*
X93205682Y-94899998D01*
X93201561Y-94868697D01*
X93200500Y-94852512D01*
X93200500Y-94347487D01*
X93201561Y-94331301D01*
X93205682Y-94300000D01*
X93205682Y-94299998D01*
X93201561Y-94268697D01*
X93200500Y-94252512D01*
X93200500Y-94189059D01*
X93200501Y-94189046D01*
X93200501Y-94020945D01*
X93200501Y-94020943D01*
X93159577Y-93868215D01*
X93127521Y-93812693D01*
X93080520Y-93731284D01*
X92968716Y-93619480D01*
X92968715Y-93619479D01*
X92964385Y-93615149D01*
X92964374Y-93615139D01*
X92436819Y-93087584D01*
X92403334Y-93026261D01*
X92400500Y-92999903D01*
X92400500Y-90797487D01*
X92401561Y-90781301D01*
X92405682Y-90750000D01*
X92405682Y-90749998D01*
X92401561Y-90718697D01*
X92400500Y-90702512D01*
X92400500Y-90670944D01*
X92400498Y-90670935D01*
X92400192Y-90669792D01*
X92400193Y-90669791D01*
X92400183Y-90669764D01*
X92392325Y-90640436D01*
X92389165Y-90624542D01*
X92389155Y-90624463D01*
X92385044Y-90593238D01*
X92372957Y-90564060D01*
X92367745Y-90548703D01*
X92359576Y-90518214D01*
X92343791Y-90490873D01*
X92336617Y-90476326D01*
X92330844Y-90462389D01*
X92324536Y-90447159D01*
X92305311Y-90422104D01*
X92296305Y-90408625D01*
X92295229Y-90406762D01*
X92280520Y-90381284D01*
X92258196Y-90358960D01*
X92247501Y-90346765D01*
X92228281Y-90321717D01*
X92203233Y-90302497D01*
X92191045Y-90291809D01*
X92168716Y-90269480D01*
X92168715Y-90269479D01*
X92164384Y-90265148D01*
X92164374Y-90265139D01*
X90936819Y-89037584D01*
X90903334Y-88976261D01*
X90900500Y-88949903D01*
X90900500Y-83147487D01*
X90901561Y-83131301D01*
X90905682Y-83100000D01*
X90905682Y-83099998D01*
X90901561Y-83068697D01*
X90900500Y-83052512D01*
X90900500Y-82572487D01*
X90901561Y-82556301D01*
X90905682Y-82525000D01*
X90905682Y-82524998D01*
X90901561Y-82493697D01*
X90900500Y-82477512D01*
X90900500Y-82445945D01*
X90900500Y-82445943D01*
X90892327Y-82415441D01*
X90889164Y-82399536D01*
X90885044Y-82368239D01*
X90885044Y-82368238D01*
X90872957Y-82339060D01*
X90867745Y-82323703D01*
X90859577Y-82293216D01*
X90848332Y-82273739D01*
X90843791Y-82265873D01*
X90836617Y-82251326D01*
X90824536Y-82222160D01*
X90824536Y-82222159D01*
X90805311Y-82197104D01*
X90796305Y-82183625D01*
X90780522Y-82156287D01*
X90780518Y-82156282D01*
X90758196Y-82133960D01*
X90747501Y-82121765D01*
X90728281Y-82096717D01*
X90703233Y-82077497D01*
X90691039Y-82066803D01*
X90668718Y-82044482D01*
X90668716Y-82044480D01*
X90668713Y-82044478D01*
X90668709Y-82044475D01*
X90641372Y-82028692D01*
X90627887Y-82019682D01*
X90602840Y-82000463D01*
X90602839Y-82000462D01*
X90573668Y-81988379D01*
X90559123Y-81981207D01*
X90531784Y-81965423D01*
X90531781Y-81965422D01*
X90501288Y-81957251D01*
X90485932Y-81952038D01*
X90456764Y-81939956D01*
X90425450Y-81935833D01*
X90409552Y-81932670D01*
X90379057Y-81924500D01*
X90347487Y-81924500D01*
X90331302Y-81923439D01*
X90300000Y-81919318D01*
X90268697Y-81923439D01*
X90252513Y-81924500D01*
X90220940Y-81924500D01*
X90190441Y-81932671D01*
X90174545Y-81935832D01*
X90143244Y-81939954D01*
X90143235Y-81939956D01*
X90114067Y-81952038D01*
X90098715Y-81957250D01*
X90068219Y-81965422D01*
X90068217Y-81965422D01*
X90068216Y-81965423D01*
X90068214Y-81965424D01*
X90068212Y-81965425D01*
X90040875Y-81981207D01*
X90026336Y-81988377D01*
X89997165Y-82000460D01*
X89997160Y-82000463D01*
X89972107Y-82019686D01*
X89958629Y-82028691D01*
X89931283Y-82044480D01*
X89908955Y-82066807D01*
X89896767Y-82077496D01*
X89871718Y-82096718D01*
X89852496Y-82121767D01*
X89841807Y-82133955D01*
X89819480Y-82156283D01*
X89803691Y-82183629D01*
X89794686Y-82197107D01*
X89775463Y-82222160D01*
X89775460Y-82222165D01*
X89763377Y-82251336D01*
X89756207Y-82265875D01*
X89740425Y-82293212D01*
X89740422Y-82293219D01*
X89732250Y-82323715D01*
X89727038Y-82339067D01*
X89714956Y-82368235D01*
X89714954Y-82368244D01*
X89710832Y-82399545D01*
X89707671Y-82415441D01*
X89699500Y-82445940D01*
X89699500Y-82477512D01*
X89698439Y-82493697D01*
X89694318Y-82524998D01*
X87650499Y-82524998D01*
X87650499Y-81630136D01*
X87649345Y-81620185D01*
X87647586Y-81605012D01*
X87647585Y-81605010D01*
X87647585Y-81605009D01*
X87602206Y-81502235D01*
X87522765Y-81422794D01*
X87522763Y-81422793D01*
X87419992Y-81377415D01*
X87394868Y-81374500D01*
X87394865Y-81374500D01*
X87224500Y-81374500D01*
X87157461Y-81354815D01*
X87111706Y-81302011D01*
X87100500Y-81250500D01*
X87100500Y-74247487D01*
X87101561Y-74231301D01*
X87105682Y-74200000D01*
X87105682Y-74199998D01*
X87101561Y-74168697D01*
X87100500Y-74152512D01*
X87100500Y-73799998D01*
X91894318Y-73799998D01*
X91894318Y-73800000D01*
X91898439Y-73831301D01*
X91899500Y-73847487D01*
X91899500Y-74352512D01*
X91898439Y-74368697D01*
X91894318Y-74399998D01*
X91894318Y-74400000D01*
X91898439Y-74431301D01*
X91899500Y-74447487D01*
X91899500Y-76413330D01*
X91899499Y-76413348D01*
X91899499Y-76579054D01*
X91899498Y-76579054D01*
X91915746Y-76639691D01*
X91940423Y-76731785D01*
X91953213Y-76753937D01*
X92019204Y-76868238D01*
X92019479Y-76868714D01*
X92019481Y-76868717D01*
X92138349Y-76987585D01*
X92138355Y-76987590D01*
X98913181Y-83762416D01*
X98946666Y-83823739D01*
X98949500Y-83850097D01*
X98949500Y-85849902D01*
X98929815Y-85916941D01*
X98913181Y-85937583D01*
X97319481Y-87531282D01*
X97319479Y-87531285D01*
X97297880Y-87568697D01*
X97276921Y-87605000D01*
X97269361Y-87618094D01*
X97269359Y-87618096D01*
X97240425Y-87668209D01*
X97240424Y-87668210D01*
X97235791Y-87685500D01*
X97199499Y-87820943D01*
X97199499Y-87820945D01*
X97199499Y-87989046D01*
X97199500Y-87989059D01*
X97199500Y-91713330D01*
X97199499Y-91713348D01*
X97199499Y-91879054D01*
X97199498Y-91879054D01*
X97240423Y-92031786D01*
X97252578Y-92052837D01*
X97252579Y-92052842D01*
X97252580Y-92052842D01*
X97319475Y-92168709D01*
X97319481Y-92168717D01*
X97438349Y-92287585D01*
X97438354Y-92287589D01*
X98431284Y-93280520D01*
X98431286Y-93280521D01*
X98431290Y-93280524D01*
X98555953Y-93352497D01*
X98568216Y-93359577D01*
X98720943Y-93400501D01*
X98720945Y-93400501D01*
X98886654Y-93400501D01*
X98886670Y-93400500D01*
X99699903Y-93400500D01*
X99766942Y-93420185D01*
X99787584Y-93436819D01*
X101463181Y-95112416D01*
X101496666Y-95173739D01*
X101499500Y-95200097D01*
X101499500Y-100252512D01*
X101498439Y-100268697D01*
X101494318Y-100299998D01*
X101494318Y-100300000D01*
X101498439Y-100331301D01*
X101499500Y-100347487D01*
X101499500Y-100379057D01*
X101507670Y-100409549D01*
X101510833Y-100425450D01*
X101514956Y-100456764D01*
X101527038Y-100485932D01*
X101532251Y-100501288D01*
X101540422Y-100531781D01*
X101540423Y-100531784D01*
X101556207Y-100559123D01*
X101563379Y-100573668D01*
X101575462Y-100602839D01*
X101575463Y-100602840D01*
X101594682Y-100627887D01*
X101603692Y-100641372D01*
X101619475Y-100668709D01*
X101619482Y-100668718D01*
X101641803Y-100691039D01*
X101652497Y-100703233D01*
X101671717Y-100728281D01*
X101696765Y-100747501D01*
X101708960Y-100758196D01*
X101731284Y-100780520D01*
X101731285Y-100780521D01*
X101731287Y-100780522D01*
X101758625Y-100796305D01*
X101772104Y-100805311D01*
X101797159Y-100824536D01*
X101824009Y-100835657D01*
X101826326Y-100836617D01*
X101840873Y-100843791D01*
X101868214Y-100859576D01*
X101868216Y-100859577D01*
X101898708Y-100867746D01*
X101914060Y-100872957D01*
X101943238Y-100885044D01*
X101974541Y-100889165D01*
X101990441Y-100892327D01*
X102020943Y-100900500D01*
X102052513Y-100900500D01*
X102068697Y-100901560D01*
X102100000Y-100905682D01*
X102131302Y-100901560D01*
X102147487Y-100900500D01*
X102179056Y-100900500D01*
X102179057Y-100900500D01*
X102209555Y-100892327D01*
X102225439Y-100889167D01*
X102256762Y-100885044D01*
X102285930Y-100872961D01*
X102301293Y-100867747D01*
X102320858Y-100862504D01*
X102331784Y-100859577D01*
X102359130Y-100843787D01*
X102373666Y-100836619D01*
X102402841Y-100824536D01*
X102427895Y-100805310D01*
X102441374Y-100796305D01*
X102468716Y-100780520D01*
X102491040Y-100758194D01*
X102503234Y-100747501D01*
X102528282Y-100728282D01*
X102547502Y-100703233D01*
X102558196Y-100691039D01*
X102580520Y-100668716D01*
X102596308Y-100641368D01*
X102605310Y-100627895D01*
X102624536Y-100602841D01*
X102636619Y-100573666D01*
X102643792Y-100559123D01*
X102659577Y-100531784D01*
X102663455Y-100517310D01*
X102667747Y-100501293D01*
X102672962Y-100485928D01*
X102685044Y-100456762D01*
X102689167Y-100425439D01*
X102692329Y-100409549D01*
X102700500Y-100379057D01*
X102700500Y-100347487D01*
X102701561Y-100331301D01*
X102705682Y-100300000D01*
X102705682Y-100299998D01*
X102701561Y-100268697D01*
X102700500Y-100252512D01*
X102700500Y-94820945D01*
X102700500Y-94820943D01*
X102659577Y-94668216D01*
X102649964Y-94651566D01*
X102580524Y-94531290D01*
X102580521Y-94531286D01*
X102580520Y-94531284D01*
X102468716Y-94419480D01*
X102468715Y-94419479D01*
X102464385Y-94415149D01*
X102464374Y-94415139D01*
X100487590Y-92438355D01*
X100487588Y-92438352D01*
X100458196Y-92408960D01*
X100447501Y-92396765D01*
X100445079Y-92393609D01*
X100428282Y-92371718D01*
X100413842Y-92360638D01*
X100403233Y-92352497D01*
X100391039Y-92341803D01*
X100368718Y-92319482D01*
X100368716Y-92319480D01*
X100341370Y-92303691D01*
X100327890Y-92294685D01*
X100302841Y-92275464D01*
X100273665Y-92263378D01*
X100259121Y-92256205D01*
X100231790Y-92240425D01*
X100231780Y-92240421D01*
X100201288Y-92232250D01*
X100185934Y-92227038D01*
X100156767Y-92214957D01*
X100156763Y-92214956D01*
X100125458Y-92210834D01*
X100109557Y-92207671D01*
X100096545Y-92204184D01*
X100079057Y-92199499D01*
X100079056Y-92199499D01*
X100047480Y-92199499D01*
X100031295Y-92198438D01*
X100000001Y-92194318D01*
X99999999Y-92194318D01*
X99968705Y-92198438D01*
X99952520Y-92199499D01*
X99913347Y-92199499D01*
X99913331Y-92199500D01*
X99100098Y-92199500D01*
X99033059Y-92179815D01*
X99012417Y-92163181D01*
X98436819Y-91587583D01*
X98403334Y-91526260D01*
X98400500Y-91499902D01*
X98400500Y-88200097D01*
X98420185Y-88133058D01*
X98436819Y-88112416D01*
X99044235Y-87505000D01*
X104044571Y-87505000D01*
X104064244Y-87717310D01*
X104122595Y-87922389D01*
X104122596Y-87922392D01*
X104122596Y-87922394D01*
X104217632Y-88113253D01*
X104293151Y-88213255D01*
X104346128Y-88283407D01*
X104503698Y-88427052D01*
X104684981Y-88539298D01*
X104883802Y-88616321D01*
X105080613Y-88653111D01*
X105142893Y-88684779D01*
X105178166Y-88745092D01*
X105175232Y-88814900D01*
X105135023Y-88872040D01*
X105080613Y-88896888D01*
X104883802Y-88933679D01*
X104883799Y-88933679D01*
X104883799Y-88933680D01*
X104684982Y-89010701D01*
X104684980Y-89010702D01*
X104503699Y-89122947D01*
X104346127Y-89266593D01*
X104217632Y-89436746D01*
X104122596Y-89627605D01*
X104122596Y-89627607D01*
X104064244Y-89832689D01*
X104057945Y-89900673D01*
X104044571Y-90045000D01*
X104064244Y-90257310D01*
X104120993Y-90456760D01*
X104122596Y-90462392D01*
X104122596Y-90462394D01*
X104217632Y-90653253D01*
X104320417Y-90789361D01*
X104346128Y-90823407D01*
X104503698Y-90967052D01*
X104684981Y-91079298D01*
X104883802Y-91156321D01*
X105080613Y-91193111D01*
X105142893Y-91224779D01*
X105178166Y-91285092D01*
X105175232Y-91354900D01*
X105135023Y-91412040D01*
X105080613Y-91436888D01*
X104883802Y-91473679D01*
X104883799Y-91473679D01*
X104883799Y-91473680D01*
X104684982Y-91550701D01*
X104684980Y-91550702D01*
X104503699Y-91662947D01*
X104346127Y-91806593D01*
X104217632Y-91976746D01*
X104122596Y-92167605D01*
X104122596Y-92167607D01*
X104064244Y-92372689D01*
X104047188Y-92556762D01*
X104044571Y-92585000D01*
X104064244Y-92797310D01*
X104122359Y-93001561D01*
X104122596Y-93002392D01*
X104122596Y-93002394D01*
X104217632Y-93193253D01*
X104346127Y-93363406D01*
X104346128Y-93363407D01*
X104503698Y-93507052D01*
X104684981Y-93619298D01*
X104883802Y-93696321D01*
X105080613Y-93733111D01*
X105142893Y-93764779D01*
X105178166Y-93825092D01*
X105175232Y-93894900D01*
X105135023Y-93952040D01*
X105080613Y-93976888D01*
X104883802Y-94013679D01*
X104883799Y-94013679D01*
X104883799Y-94013680D01*
X104684982Y-94090701D01*
X104684980Y-94090702D01*
X104503699Y-94202947D01*
X104346127Y-94346593D01*
X104217632Y-94516746D01*
X104122596Y-94707605D01*
X104122596Y-94707607D01*
X104067250Y-94902126D01*
X104064244Y-94912690D01*
X104044571Y-95125000D01*
X104064244Y-95337310D01*
X104121733Y-95539361D01*
X104122596Y-95542392D01*
X104122596Y-95542394D01*
X104217632Y-95733253D01*
X104343555Y-95900000D01*
X104346128Y-95903407D01*
X104503698Y-96047052D01*
X104684981Y-96159298D01*
X104883802Y-96236321D01*
X105080613Y-96273111D01*
X105142893Y-96304779D01*
X105178166Y-96365092D01*
X105175232Y-96434900D01*
X105135023Y-96492040D01*
X105080613Y-96516888D01*
X104883802Y-96553679D01*
X104883799Y-96553679D01*
X104883799Y-96553680D01*
X104684982Y-96630701D01*
X104684980Y-96630702D01*
X104503699Y-96742947D01*
X104346127Y-96886593D01*
X104217632Y-97056746D01*
X104122596Y-97247605D01*
X104122596Y-97247607D01*
X104064244Y-97452689D01*
X104044571Y-97664999D01*
X104044571Y-97665000D01*
X104064244Y-97877310D01*
X104122596Y-98082392D01*
X104122596Y-98082394D01*
X104217632Y-98273253D01*
X104345669Y-98442799D01*
X104346128Y-98443407D01*
X104503698Y-98587052D01*
X104684981Y-98699298D01*
X104883802Y-98776321D01*
X105080613Y-98813111D01*
X105142893Y-98844779D01*
X105178166Y-98905092D01*
X105175232Y-98974900D01*
X105135023Y-99032040D01*
X105080613Y-99056888D01*
X104883802Y-99093679D01*
X104883799Y-99093679D01*
X104883799Y-99093680D01*
X104684982Y-99170701D01*
X104684980Y-99170702D01*
X104503699Y-99282947D01*
X104419935Y-99359309D01*
X104346128Y-99426593D01*
X104325010Y-99454557D01*
X104217632Y-99596746D01*
X104122596Y-99787605D01*
X104122596Y-99787607D01*
X104089809Y-99902841D01*
X104064244Y-99992690D01*
X104044571Y-100205000D01*
X104064244Y-100417310D01*
X104117032Y-100602839D01*
X104122596Y-100622392D01*
X104122596Y-100622394D01*
X104217632Y-100813253D01*
X104293151Y-100913255D01*
X104346128Y-100983407D01*
X104503698Y-101127052D01*
X104684981Y-101239298D01*
X104883802Y-101316321D01*
X105093390Y-101355500D01*
X105093392Y-101355500D01*
X105306608Y-101355500D01*
X105306610Y-101355500D01*
X105516198Y-101316321D01*
X105715019Y-101239298D01*
X105896302Y-101127052D01*
X106053872Y-100983407D01*
X106182366Y-100813255D01*
X106212644Y-100752448D01*
X106277403Y-100622394D01*
X106277403Y-100622393D01*
X106277405Y-100622389D01*
X106335756Y-100417310D01*
X106355429Y-100205000D01*
X106335756Y-99992690D01*
X106277405Y-99787611D01*
X106277403Y-99787606D01*
X106277403Y-99787605D01*
X106182367Y-99596746D01*
X106087748Y-99471452D01*
X106053872Y-99426593D01*
X105896302Y-99282948D01*
X105715019Y-99170702D01*
X105715017Y-99170701D01*
X105567096Y-99113397D01*
X105516198Y-99093679D01*
X105319385Y-99056888D01*
X105257106Y-99025221D01*
X105221833Y-98964908D01*
X105224767Y-98895100D01*
X105264976Y-98837960D01*
X105319384Y-98813111D01*
X105516198Y-98776321D01*
X105715019Y-98699298D01*
X105896302Y-98587052D01*
X106053872Y-98443407D01*
X106182366Y-98273255D01*
X106227610Y-98182392D01*
X106277403Y-98082394D01*
X106277403Y-98082393D01*
X106277405Y-98082389D01*
X106335756Y-97877310D01*
X106355429Y-97665000D01*
X106335756Y-97452690D01*
X106277405Y-97247611D01*
X106277403Y-97247606D01*
X106277403Y-97247605D01*
X106182367Y-97056746D01*
X106053872Y-96886593D01*
X106005995Y-96842947D01*
X105896302Y-96742948D01*
X105715019Y-96630702D01*
X105715017Y-96630701D01*
X105597618Y-96585221D01*
X105516198Y-96553679D01*
X105319385Y-96516888D01*
X105257106Y-96485221D01*
X105221833Y-96424908D01*
X105224767Y-96355100D01*
X105264976Y-96297960D01*
X105319384Y-96273111D01*
X105516198Y-96236321D01*
X105715019Y-96159298D01*
X105896302Y-96047052D01*
X106053872Y-95903407D01*
X106182366Y-95733255D01*
X106214413Y-95668896D01*
X106277403Y-95542394D01*
X106277403Y-95542393D01*
X106277405Y-95542389D01*
X106335756Y-95337310D01*
X106355429Y-95125000D01*
X106335756Y-94912690D01*
X106277405Y-94707611D01*
X106277403Y-94707606D01*
X106277403Y-94707605D01*
X106182367Y-94516746D01*
X106053872Y-94346593D01*
X106050796Y-94343789D01*
X105896302Y-94202948D01*
X105715019Y-94090702D01*
X105715017Y-94090701D01*
X105562935Y-94031785D01*
X105516198Y-94013679D01*
X105319385Y-93976888D01*
X105257106Y-93945221D01*
X105221833Y-93884908D01*
X105224767Y-93815100D01*
X105264976Y-93757960D01*
X105319384Y-93733111D01*
X105516198Y-93696321D01*
X105715019Y-93619298D01*
X105896302Y-93507052D01*
X106053872Y-93363407D01*
X106182366Y-93193255D01*
X106227610Y-93102392D01*
X106277403Y-93002394D01*
X106277403Y-93002393D01*
X106277405Y-93002389D01*
X106335756Y-92797310D01*
X106355429Y-92585000D01*
X106335756Y-92372690D01*
X106277405Y-92167611D01*
X106277403Y-92167606D01*
X106277403Y-92167605D01*
X106182367Y-91976746D01*
X106053872Y-91806593D01*
X106005995Y-91762947D01*
X105896302Y-91662948D01*
X105715019Y-91550702D01*
X105715017Y-91550701D01*
X105583888Y-91499902D01*
X105516198Y-91473679D01*
X105319385Y-91436888D01*
X105257106Y-91405221D01*
X105221833Y-91344908D01*
X105224767Y-91275100D01*
X105264976Y-91217960D01*
X105319384Y-91193111D01*
X105516198Y-91156321D01*
X105715019Y-91079298D01*
X105896302Y-90967052D01*
X106053872Y-90823407D01*
X106182366Y-90653255D01*
X106212251Y-90593238D01*
X106277403Y-90462394D01*
X106277403Y-90462393D01*
X106277405Y-90462389D01*
X106335756Y-90257310D01*
X106355429Y-90045000D01*
X106335756Y-89832690D01*
X106277405Y-89627611D01*
X106277403Y-89627606D01*
X106277403Y-89627605D01*
X106182367Y-89436746D01*
X106053872Y-89266593D01*
X106043086Y-89256760D01*
X105896302Y-89122948D01*
X105715019Y-89010702D01*
X105715017Y-89010701D01*
X105597618Y-88965221D01*
X105516198Y-88933679D01*
X105319385Y-88896888D01*
X105257106Y-88865221D01*
X105221833Y-88804908D01*
X105224767Y-88735100D01*
X105264976Y-88677960D01*
X105319384Y-88653111D01*
X105516198Y-88616321D01*
X105715019Y-88539298D01*
X105896302Y-88427052D01*
X106053872Y-88283407D01*
X106182366Y-88113255D01*
X106227610Y-88022392D01*
X106277403Y-87922394D01*
X106277403Y-87922393D01*
X106277405Y-87922389D01*
X106335756Y-87717310D01*
X106355429Y-87505000D01*
X106335756Y-87292690D01*
X106277405Y-87087611D01*
X106277403Y-87087606D01*
X106277403Y-87087605D01*
X106182367Y-86896746D01*
X106053872Y-86726593D01*
X106013433Y-86689728D01*
X105896302Y-86582948D01*
X105715019Y-86470702D01*
X105715017Y-86470701D01*
X105521621Y-86395780D01*
X105516198Y-86393679D01*
X105306610Y-86354500D01*
X105093390Y-86354500D01*
X104883802Y-86393679D01*
X104883799Y-86393679D01*
X104883799Y-86393680D01*
X104684982Y-86470701D01*
X104684980Y-86470702D01*
X104503699Y-86582947D01*
X104346127Y-86726593D01*
X104217632Y-86896746D01*
X104122596Y-87087605D01*
X104122596Y-87087607D01*
X104064244Y-87292689D01*
X104054420Y-87398715D01*
X104044571Y-87505000D01*
X99044235Y-87505000D01*
X99762417Y-86786819D01*
X99823740Y-86753334D01*
X99850098Y-86750500D01*
X100602513Y-86750500D01*
X100618697Y-86751560D01*
X100650000Y-86755682D01*
X100681302Y-86751560D01*
X100697487Y-86750500D01*
X100729056Y-86750500D01*
X100729057Y-86750500D01*
X100759555Y-86742327D01*
X100775439Y-86739167D01*
X100806762Y-86735044D01*
X100835930Y-86722961D01*
X100851293Y-86717747D01*
X100870858Y-86712504D01*
X100881784Y-86709577D01*
X100909130Y-86693787D01*
X100923666Y-86686619D01*
X100952841Y-86674536D01*
X100977895Y-86655310D01*
X100991368Y-86646308D01*
X101018716Y-86630520D01*
X101041040Y-86608194D01*
X101053234Y-86597501D01*
X101078282Y-86578282D01*
X101097501Y-86553234D01*
X101108196Y-86541039D01*
X101114735Y-86534500D01*
X101130520Y-86518716D01*
X101146308Y-86491368D01*
X101155310Y-86477895D01*
X101174536Y-86452841D01*
X101186619Y-86423666D01*
X101193787Y-86409130D01*
X101209577Y-86381784D01*
X101212504Y-86370858D01*
X101217747Y-86351293D01*
X101222962Y-86335928D01*
X101235044Y-86306762D01*
X101239167Y-86275439D01*
X101242329Y-86259549D01*
X101250500Y-86229057D01*
X101250500Y-86197487D01*
X101251561Y-86181301D01*
X101255682Y-86150000D01*
X101255682Y-86149998D01*
X101251561Y-86118697D01*
X101250500Y-86102512D01*
X101250500Y-86070945D01*
X101250500Y-86070943D01*
X101242327Y-86040441D01*
X101239164Y-86024536D01*
X101237458Y-86011579D01*
X101235044Y-85993238D01*
X101222957Y-85964060D01*
X101217745Y-85948703D01*
X101216021Y-85942267D01*
X101209577Y-85918216D01*
X101199790Y-85901264D01*
X101193791Y-85890873D01*
X101186617Y-85876326D01*
X101181596Y-85864205D01*
X101174536Y-85847159D01*
X101155311Y-85822104D01*
X101146305Y-85808625D01*
X101130522Y-85781287D01*
X101130518Y-85781282D01*
X101108196Y-85758960D01*
X101097501Y-85746765D01*
X101078281Y-85721717D01*
X101053233Y-85702497D01*
X101041039Y-85691803D01*
X101018718Y-85669482D01*
X101018716Y-85669480D01*
X101018713Y-85669478D01*
X101018709Y-85669475D01*
X100991372Y-85653692D01*
X100977887Y-85644682D01*
X100952840Y-85625463D01*
X100952839Y-85625462D01*
X100923668Y-85613379D01*
X100909123Y-85606207D01*
X100881784Y-85590423D01*
X100881781Y-85590422D01*
X100851288Y-85582251D01*
X100835932Y-85577038D01*
X100806764Y-85564956D01*
X100775450Y-85560833D01*
X100759552Y-85557670D01*
X100729057Y-85549500D01*
X100697487Y-85549500D01*
X100681302Y-85548439D01*
X100650000Y-85544318D01*
X100618697Y-85548439D01*
X100602513Y-85549500D01*
X100274500Y-85549500D01*
X100207461Y-85529815D01*
X100161706Y-85477011D01*
X100150500Y-85425500D01*
X100150500Y-84664999D01*
X104193756Y-84664999D01*
X104193757Y-84665000D01*
X104795856Y-84665000D01*
X104734075Y-84772007D01*
X104700000Y-84899174D01*
X104700000Y-85030826D01*
X104734075Y-85157993D01*
X104795856Y-85265000D01*
X104193757Y-85265000D01*
X104225234Y-85368768D01*
X104322728Y-85551166D01*
X104322732Y-85551173D01*
X104453944Y-85711055D01*
X104613826Y-85842267D01*
X104613833Y-85842271D01*
X104796237Y-85939767D01*
X104796241Y-85939769D01*
X104900000Y-85971243D01*
X104900000Y-85369144D01*
X105007007Y-85430925D01*
X105134174Y-85465000D01*
X105265826Y-85465000D01*
X105392993Y-85430925D01*
X105500000Y-85369144D01*
X105500000Y-85971242D01*
X105603758Y-85939769D01*
X105603762Y-85939767D01*
X105786166Y-85842271D01*
X105786173Y-85842267D01*
X105946055Y-85711055D01*
X106077267Y-85551173D01*
X106077271Y-85551166D01*
X106174765Y-85368768D01*
X106206243Y-85265000D01*
X105604144Y-85265000D01*
X105665925Y-85157993D01*
X105700000Y-85030826D01*
X105700000Y-84899174D01*
X105665925Y-84772007D01*
X105604144Y-84665000D01*
X106206243Y-84665000D01*
X106206243Y-84664999D01*
X106174765Y-84561231D01*
X106077271Y-84378833D01*
X106077267Y-84378826D01*
X105946055Y-84218944D01*
X105786173Y-84087732D01*
X105786166Y-84087728D01*
X105603768Y-83990234D01*
X105500000Y-83958756D01*
X105500000Y-84560855D01*
X105392993Y-84499075D01*
X105265826Y-84465000D01*
X105134174Y-84465000D01*
X105007007Y-84499075D01*
X104900000Y-84560855D01*
X104900000Y-83958756D01*
X104899999Y-83958756D01*
X104796231Y-83990234D01*
X104613833Y-84087728D01*
X104613826Y-84087732D01*
X104453944Y-84218944D01*
X104322732Y-84378826D01*
X104322728Y-84378833D01*
X104225234Y-84561231D01*
X104193756Y-84664999D01*
X100150500Y-84664999D01*
X100150500Y-83639060D01*
X100150501Y-83639047D01*
X100150501Y-83470944D01*
X100150501Y-83470943D01*
X100109577Y-83318216D01*
X100080709Y-83268214D01*
X100030524Y-83181290D01*
X100030518Y-83181282D01*
X93136819Y-76287583D01*
X93103334Y-76226260D01*
X93100500Y-76199902D01*
X93100500Y-74447487D01*
X93101561Y-74431301D01*
X93105682Y-74400000D01*
X93105682Y-74399998D01*
X93101561Y-74368697D01*
X93100500Y-74352512D01*
X93100500Y-74100000D01*
X96494318Y-74100000D01*
X96498041Y-74128282D01*
X96498439Y-74131301D01*
X96499500Y-74147487D01*
X96499500Y-74652512D01*
X96498439Y-74668697D01*
X96494318Y-74699998D01*
X96494318Y-74700000D01*
X96498439Y-74731301D01*
X96499500Y-74747487D01*
X96499500Y-76263330D01*
X96499499Y-76263348D01*
X96499499Y-76429054D01*
X96499498Y-76429054D01*
X96540424Y-76581789D01*
X96540425Y-76581790D01*
X96557287Y-76610995D01*
X96557288Y-76610996D01*
X96619477Y-76718712D01*
X96619481Y-76718717D01*
X96738349Y-76837585D01*
X96738355Y-76837590D01*
X101265139Y-81364374D01*
X101265149Y-81364385D01*
X101269479Y-81368715D01*
X101269480Y-81368716D01*
X101381284Y-81480520D01*
X101467222Y-81530136D01*
X101518215Y-81559577D01*
X101670943Y-81600500D01*
X103349903Y-81600500D01*
X103416942Y-81620185D01*
X103437584Y-81636819D01*
X104013181Y-82212416D01*
X104046666Y-82273739D01*
X104049500Y-82300097D01*
X104049500Y-83319856D01*
X104049502Y-83319882D01*
X104052413Y-83344987D01*
X104052415Y-83344991D01*
X104097793Y-83447764D01*
X104097794Y-83447765D01*
X104177235Y-83527206D01*
X104280009Y-83572585D01*
X104305135Y-83575500D01*
X106094864Y-83575499D01*
X106094879Y-83575497D01*
X106094882Y-83575497D01*
X106119987Y-83572586D01*
X106119988Y-83572585D01*
X106119991Y-83572585D01*
X106222765Y-83527206D01*
X106302206Y-83447765D01*
X106347585Y-83344991D01*
X106350500Y-83319865D01*
X106350499Y-81530136D01*
X106350497Y-81530117D01*
X106347586Y-81505012D01*
X106347585Y-81505010D01*
X106347585Y-81505009D01*
X106302206Y-81402235D01*
X106222765Y-81322794D01*
X106175696Y-81302011D01*
X106119992Y-81277415D01*
X106094868Y-81274500D01*
X106094865Y-81274500D01*
X104825097Y-81274500D01*
X104758058Y-81254815D01*
X104737416Y-81238181D01*
X104137590Y-80638355D01*
X104137588Y-80638352D01*
X104018717Y-80519481D01*
X104018716Y-80519480D01*
X103931904Y-80469360D01*
X103931904Y-80469359D01*
X103931900Y-80469358D01*
X103881785Y-80440423D01*
X103729057Y-80399499D01*
X103570943Y-80399499D01*
X103563347Y-80399499D01*
X103563331Y-80399500D01*
X102050097Y-80399500D01*
X101983058Y-80379815D01*
X101962416Y-80363181D01*
X97736819Y-76137584D01*
X97703334Y-76076261D01*
X97700500Y-76049903D01*
X97700500Y-74747487D01*
X97701561Y-74731301D01*
X97705682Y-74700000D01*
X97705682Y-74699998D01*
X97701561Y-74668697D01*
X97700500Y-74652512D01*
X97700500Y-74147487D01*
X97701561Y-74131301D01*
X97701959Y-74128282D01*
X97705682Y-74100000D01*
X97701561Y-74068697D01*
X97700500Y-74052512D01*
X97700500Y-74020945D01*
X97700500Y-74020943D01*
X97692327Y-73990441D01*
X97689164Y-73974536D01*
X97685044Y-73943239D01*
X97685044Y-73943238D01*
X97672957Y-73914060D01*
X97667745Y-73898703D01*
X97659577Y-73868216D01*
X97652964Y-73856762D01*
X97643791Y-73840873D01*
X97636617Y-73826326D01*
X97635657Y-73824009D01*
X97624536Y-73797159D01*
X97605311Y-73772104D01*
X97596305Y-73758625D01*
X97580522Y-73731287D01*
X97580518Y-73731282D01*
X97558196Y-73708960D01*
X97547501Y-73696765D01*
X97542652Y-73690446D01*
X97528282Y-73671718D01*
X97503233Y-73652497D01*
X97491039Y-73641803D01*
X97468718Y-73619482D01*
X97468716Y-73619480D01*
X97468713Y-73619478D01*
X97468709Y-73619475D01*
X97441372Y-73603692D01*
X97427887Y-73594682D01*
X97402840Y-73575463D01*
X97402839Y-73575462D01*
X97373668Y-73563379D01*
X97359123Y-73556207D01*
X97331784Y-73540423D01*
X97331781Y-73540422D01*
X97301288Y-73532251D01*
X97285932Y-73527038D01*
X97256764Y-73514956D01*
X97225450Y-73510833D01*
X97209552Y-73507670D01*
X97179057Y-73499500D01*
X97147487Y-73499500D01*
X97131302Y-73498439D01*
X97100000Y-73494318D01*
X97068697Y-73498439D01*
X97052513Y-73499500D01*
X97020940Y-73499500D01*
X96990441Y-73507671D01*
X96974545Y-73510832D01*
X96943244Y-73514954D01*
X96943235Y-73514956D01*
X96914067Y-73527038D01*
X96898715Y-73532250D01*
X96868219Y-73540422D01*
X96868217Y-73540422D01*
X96868216Y-73540423D01*
X96868214Y-73540424D01*
X96868212Y-73540425D01*
X96840875Y-73556207D01*
X96826336Y-73563377D01*
X96797165Y-73575460D01*
X96797160Y-73575463D01*
X96772107Y-73594686D01*
X96758629Y-73603691D01*
X96731283Y-73619480D01*
X96708955Y-73641807D01*
X96696767Y-73652496D01*
X96671718Y-73671718D01*
X96652496Y-73696767D01*
X96641807Y-73708955D01*
X96619480Y-73731283D01*
X96603691Y-73758629D01*
X96594686Y-73772107D01*
X96575463Y-73797160D01*
X96575460Y-73797165D01*
X96563377Y-73826336D01*
X96556207Y-73840875D01*
X96540425Y-73868212D01*
X96540422Y-73868219D01*
X96532250Y-73898715D01*
X96527038Y-73914067D01*
X96514956Y-73943235D01*
X96514954Y-73943244D01*
X96510832Y-73974545D01*
X96507671Y-73990441D01*
X96499500Y-74020940D01*
X96499500Y-74052512D01*
X96498438Y-74068697D01*
X96494318Y-74100000D01*
X93100500Y-74100000D01*
X93100500Y-73847487D01*
X93101561Y-73831301D01*
X93105682Y-73800000D01*
X93105682Y-73799998D01*
X93101561Y-73768697D01*
X93100500Y-73752512D01*
X93100500Y-73720945D01*
X93100500Y-73720943D01*
X93092327Y-73690441D01*
X93089164Y-73674536D01*
X93085044Y-73643239D01*
X93085044Y-73643238D01*
X93072957Y-73614060D01*
X93067745Y-73598703D01*
X93061519Y-73575464D01*
X93059577Y-73568216D01*
X93059575Y-73568212D01*
X93043791Y-73540873D01*
X93036617Y-73526326D01*
X93035657Y-73524009D01*
X93024536Y-73497159D01*
X93005311Y-73472104D01*
X92996305Y-73458625D01*
X92980522Y-73431287D01*
X92980518Y-73431282D01*
X92958196Y-73408960D01*
X92947501Y-73396765D01*
X92928282Y-73371718D01*
X92903233Y-73352497D01*
X92891039Y-73341803D01*
X92868718Y-73319482D01*
X92868716Y-73319480D01*
X92868713Y-73319478D01*
X92868709Y-73319475D01*
X92841372Y-73303692D01*
X92827887Y-73294682D01*
X92802840Y-73275463D01*
X92802839Y-73275462D01*
X92773668Y-73263379D01*
X92759123Y-73256207D01*
X92731784Y-73240423D01*
X92731781Y-73240422D01*
X92701288Y-73232251D01*
X92685932Y-73227038D01*
X92656764Y-73214956D01*
X92625450Y-73210833D01*
X92609552Y-73207670D01*
X92579057Y-73199500D01*
X92547487Y-73199500D01*
X92531302Y-73198439D01*
X92500000Y-73194318D01*
X92468697Y-73198439D01*
X92452513Y-73199500D01*
X92420940Y-73199500D01*
X92390441Y-73207671D01*
X92374545Y-73210832D01*
X92343244Y-73214954D01*
X92343235Y-73214956D01*
X92314067Y-73227038D01*
X92298715Y-73232250D01*
X92268219Y-73240422D01*
X92268217Y-73240422D01*
X92268216Y-73240423D01*
X92268214Y-73240424D01*
X92268212Y-73240425D01*
X92240875Y-73256207D01*
X92226336Y-73263377D01*
X92197165Y-73275460D01*
X92197160Y-73275463D01*
X92172107Y-73294686D01*
X92158629Y-73303691D01*
X92131283Y-73319480D01*
X92108955Y-73341807D01*
X92096767Y-73352496D01*
X92071718Y-73371718D01*
X92052496Y-73396767D01*
X92041807Y-73408955D01*
X92019480Y-73431283D01*
X92003691Y-73458629D01*
X91994686Y-73472107D01*
X91975463Y-73497160D01*
X91975460Y-73497165D01*
X91963377Y-73526336D01*
X91956207Y-73540875D01*
X91940425Y-73568212D01*
X91940422Y-73568219D01*
X91932250Y-73598715D01*
X91927038Y-73614067D01*
X91914956Y-73643235D01*
X91914954Y-73643244D01*
X91910832Y-73674545D01*
X91907671Y-73690441D01*
X91899500Y-73720940D01*
X91899500Y-73752512D01*
X91898439Y-73768697D01*
X91894318Y-73799998D01*
X87100500Y-73799998D01*
X87100500Y-73647487D01*
X87101561Y-73631301D01*
X87105682Y-73600000D01*
X87105682Y-73599998D01*
X87101561Y-73568697D01*
X87100500Y-73552512D01*
X87100500Y-73047487D01*
X87101561Y-73031301D01*
X87105682Y-73000000D01*
X87105682Y-72999998D01*
X87101561Y-72968697D01*
X87100500Y-72952512D01*
X87100500Y-72920945D01*
X87100500Y-72920943D01*
X87092327Y-72890441D01*
X87089164Y-72874536D01*
X87085044Y-72843239D01*
X87085044Y-72843238D01*
X87072957Y-72814060D01*
X87067745Y-72798703D01*
X87067332Y-72797160D01*
X87059577Y-72768216D01*
X87059575Y-72768212D01*
X87043791Y-72740873D01*
X87036617Y-72726326D01*
X87024536Y-72697160D01*
X87024536Y-72697159D01*
X87005311Y-72672104D01*
X86996305Y-72658625D01*
X86980522Y-72631287D01*
X86980518Y-72631282D01*
X86958196Y-72608960D01*
X86947501Y-72596765D01*
X86931156Y-72575464D01*
X86928282Y-72571718D01*
X86903233Y-72552497D01*
X86891039Y-72541803D01*
X86868718Y-72519482D01*
X86868716Y-72519480D01*
X86868713Y-72519478D01*
X86868709Y-72519475D01*
X86841372Y-72503692D01*
X86827887Y-72494682D01*
X86802840Y-72475463D01*
X86802839Y-72475462D01*
X86773668Y-72463379D01*
X86759123Y-72456207D01*
X86731784Y-72440423D01*
X86731781Y-72440422D01*
X86701288Y-72432251D01*
X86685932Y-72427038D01*
X86656764Y-72414956D01*
X86625450Y-72410833D01*
X86609552Y-72407670D01*
X86579057Y-72399500D01*
X86547487Y-72399500D01*
X86531302Y-72398439D01*
X86500000Y-72394318D01*
X86468697Y-72398439D01*
X86452513Y-72399500D01*
X86420940Y-72399500D01*
X86390441Y-72407671D01*
X86374545Y-72410832D01*
X86343244Y-72414954D01*
X86343235Y-72414956D01*
X86314067Y-72427038D01*
X86298715Y-72432250D01*
X86268219Y-72440422D01*
X86268217Y-72440422D01*
X86268216Y-72440423D01*
X86268214Y-72440424D01*
X86268212Y-72440425D01*
X86240875Y-72456207D01*
X86226336Y-72463377D01*
X86197165Y-72475460D01*
X86197160Y-72475463D01*
X86172107Y-72494686D01*
X86158629Y-72503691D01*
X86131283Y-72519480D01*
X86108955Y-72541807D01*
X86096767Y-72552496D01*
X86071718Y-72571718D01*
X86052496Y-72596767D01*
X86041807Y-72608955D01*
X86019480Y-72631283D01*
X86003691Y-72658629D01*
X85994686Y-72672107D01*
X85975463Y-72697160D01*
X85975460Y-72697165D01*
X85963377Y-72726336D01*
X85956207Y-72740875D01*
X85940425Y-72768212D01*
X85940422Y-72768219D01*
X85932250Y-72798715D01*
X85927038Y-72814067D01*
X85914956Y-72843235D01*
X85914954Y-72843244D01*
X85910832Y-72874545D01*
X85907671Y-72890441D01*
X85899500Y-72920940D01*
X85899500Y-72952512D01*
X85898439Y-72968697D01*
X85894318Y-72999998D01*
X85894318Y-73000000D01*
X85898439Y-73031301D01*
X85899500Y-73047487D01*
X85899500Y-73552512D01*
X85898439Y-73568697D01*
X85894318Y-73599998D01*
X85894318Y-73600000D01*
X85898439Y-73631301D01*
X85899500Y-73647487D01*
X85899500Y-74152512D01*
X85898439Y-74168697D01*
X85894318Y-74199998D01*
X85894318Y-74200000D01*
X85898439Y-74231301D01*
X85899500Y-74247487D01*
X85899500Y-81250500D01*
X85879815Y-81317539D01*
X85827011Y-81363294D01*
X85775501Y-81374500D01*
X85605144Y-81374500D01*
X85605117Y-81374502D01*
X85580012Y-81377413D01*
X85580008Y-81377415D01*
X85477235Y-81422793D01*
X85397794Y-81502234D01*
X85352415Y-81605006D01*
X85352415Y-81605008D01*
X85349500Y-81630131D01*
X76800500Y-81630131D01*
X76800500Y-73047487D01*
X76801561Y-73031301D01*
X76805682Y-73000000D01*
X76805682Y-72999998D01*
X76801561Y-72968697D01*
X76800500Y-72952512D01*
X76800500Y-72920945D01*
X76800500Y-72920943D01*
X76792327Y-72890441D01*
X76789164Y-72874536D01*
X76785044Y-72843239D01*
X76785044Y-72843238D01*
X76772957Y-72814060D01*
X76767745Y-72798703D01*
X76767332Y-72797160D01*
X76759577Y-72768216D01*
X76759575Y-72768212D01*
X76743791Y-72740873D01*
X76736617Y-72726326D01*
X76724536Y-72697160D01*
X76724536Y-72697159D01*
X76705311Y-72672104D01*
X76696305Y-72658625D01*
X76680522Y-72631287D01*
X76680518Y-72631282D01*
X76658196Y-72608960D01*
X76647501Y-72596765D01*
X76631156Y-72575464D01*
X76628282Y-72571718D01*
X76603233Y-72552497D01*
X76591039Y-72541803D01*
X76568718Y-72519482D01*
X76568716Y-72519480D01*
X76568713Y-72519478D01*
X76568709Y-72519475D01*
X76541372Y-72503692D01*
X76527887Y-72494682D01*
X76502840Y-72475463D01*
X76502839Y-72475462D01*
X76473668Y-72463379D01*
X76459123Y-72456207D01*
X76431784Y-72440423D01*
X76431781Y-72440422D01*
X76401288Y-72432251D01*
X76385932Y-72427038D01*
X76356764Y-72414956D01*
X76325450Y-72410833D01*
X76309552Y-72407670D01*
X76279057Y-72399500D01*
X76247487Y-72399500D01*
X76231302Y-72398439D01*
X76200000Y-72394318D01*
X76168697Y-72398439D01*
X76152513Y-72399500D01*
X76120940Y-72399500D01*
X76090441Y-72407671D01*
X76074545Y-72410832D01*
X76043244Y-72414954D01*
X76043235Y-72414956D01*
X76014067Y-72427038D01*
X75998715Y-72432250D01*
X75968219Y-72440422D01*
X75968217Y-72440422D01*
X75968216Y-72440423D01*
X75968214Y-72440424D01*
X75968212Y-72440425D01*
X75940875Y-72456207D01*
X75926336Y-72463377D01*
X75897165Y-72475460D01*
X75897160Y-72475463D01*
X75872107Y-72494686D01*
X75858629Y-72503691D01*
X75831283Y-72519480D01*
X75808955Y-72541807D01*
X75796767Y-72552496D01*
X75771718Y-72571718D01*
X75752496Y-72596767D01*
X75741807Y-72608955D01*
X75719480Y-72631283D01*
X75703691Y-72658629D01*
X75694686Y-72672107D01*
X75675463Y-72697160D01*
X75675460Y-72697165D01*
X75663377Y-72726336D01*
X75656207Y-72740875D01*
X75640425Y-72768212D01*
X75640422Y-72768219D01*
X75632250Y-72798715D01*
X75627038Y-72814067D01*
X75614956Y-72843235D01*
X75614954Y-72843244D01*
X75610832Y-72874545D01*
X75607671Y-72890441D01*
X75599500Y-72920940D01*
X75599500Y-72952512D01*
X75598439Y-72968697D01*
X75594318Y-72999998D01*
X75594318Y-73000000D01*
X75598439Y-73031301D01*
X75599500Y-73047487D01*
X75599500Y-84699902D01*
X75579815Y-84766941D01*
X75563181Y-84787583D01*
X75231286Y-85119478D01*
X75231280Y-85119481D01*
X75231281Y-85119482D01*
X75208953Y-85141808D01*
X75196767Y-85152495D01*
X75171718Y-85171717D01*
X75152496Y-85196767D01*
X75141807Y-85208955D01*
X75119480Y-85231283D01*
X75103691Y-85258629D01*
X75094684Y-85272108D01*
X75075467Y-85297153D01*
X75075464Y-85297158D01*
X75063380Y-85326331D01*
X75056208Y-85340873D01*
X75040424Y-85368212D01*
X75032248Y-85398718D01*
X75027038Y-85414065D01*
X75014956Y-85443235D01*
X75010834Y-85474541D01*
X75007670Y-85490442D01*
X74999500Y-85520935D01*
X74999499Y-85520943D01*
X74999499Y-85552519D01*
X74998438Y-85568704D01*
X74996655Y-85582251D01*
X74994318Y-85600000D01*
X74997670Y-85625464D01*
X74998438Y-85631293D01*
X74999499Y-85647479D01*
X74999499Y-85689046D01*
X74999500Y-85689059D01*
X74999500Y-93423742D01*
X74979815Y-93490781D01*
X74976075Y-93496099D01*
X74975464Y-93497158D01*
X74963380Y-93526331D01*
X74956208Y-93540873D01*
X74940424Y-93568212D01*
X74932248Y-93598718D01*
X74927038Y-93614065D01*
X74914956Y-93643235D01*
X74910834Y-93674541D01*
X74907670Y-93690442D01*
X74899500Y-93720935D01*
X74899499Y-93720943D01*
X74899499Y-93752519D01*
X74898438Y-93768704D01*
X74894803Y-93796319D01*
X74894318Y-93800000D01*
X69537103Y-93800000D01*
X69603992Y-93733111D01*
X70510490Y-92826614D01*
X70569799Y-92723887D01*
X70575339Y-92703212D01*
X70579953Y-92685995D01*
X70594478Y-92631784D01*
X70600500Y-92609309D01*
X70600500Y-90691502D01*
X70620185Y-90624463D01*
X70672989Y-90578708D01*
X70742147Y-90568764D01*
X70799984Y-90593125D01*
X70860461Y-90639530D01*
X71006540Y-90700038D01*
X71084921Y-90710357D01*
X71163301Y-90720676D01*
X71163302Y-90720676D01*
X71163303Y-90720676D01*
X71215556Y-90713796D01*
X71320064Y-90700038D01*
X71466143Y-90639530D01*
X71591584Y-90543276D01*
X71687838Y-90417835D01*
X71748330Y-90271793D01*
X71792171Y-90217390D01*
X71846704Y-90196307D01*
X71932261Y-90185044D01*
X72078340Y-90124536D01*
X72203781Y-90028282D01*
X72300035Y-89902841D01*
X72353249Y-89774370D01*
X72397088Y-89719968D01*
X72451621Y-89698885D01*
X72556762Y-89685044D01*
X72702841Y-89624536D01*
X72828282Y-89528282D01*
X72924536Y-89402841D01*
X72985044Y-89256762D01*
X73004365Y-89110001D01*
X73005682Y-89100001D01*
X73005682Y-89099998D01*
X72991793Y-88994500D01*
X72985044Y-88943238D01*
X72924536Y-88797159D01*
X72828282Y-88671718D01*
X72702841Y-88575464D01*
X72685116Y-88568122D01*
X72556761Y-88514955D01*
X72477915Y-88504575D01*
X72414018Y-88476308D01*
X72406420Y-88469317D01*
X72286819Y-88349716D01*
X72253334Y-88288393D01*
X72250500Y-88262035D01*
X72250500Y-87795811D01*
X72270185Y-87728772D01*
X72322989Y-87683017D01*
X72390685Y-87672872D01*
X72450000Y-87680681D01*
X72450001Y-87680681D01*
X72502254Y-87673801D01*
X72606762Y-87660043D01*
X72752841Y-87599535D01*
X72878282Y-87503281D01*
X72974536Y-87377840D01*
X73035044Y-87231761D01*
X73055682Y-87074999D01*
X73050315Y-87034236D01*
X73035044Y-86918238D01*
X73035044Y-86918237D01*
X72974536Y-86772158D01*
X72878282Y-86646717D01*
X72878280Y-86646716D01*
X72878280Y-86646715D01*
X72799014Y-86585893D01*
X72757811Y-86529465D01*
X72750500Y-86487517D01*
X72750500Y-84905432D01*
X72770185Y-84838393D01*
X72822989Y-84792638D01*
X72890685Y-84782493D01*
X72950000Y-84790302D01*
X72950001Y-84790302D01*
X73002254Y-84783422D01*
X73106762Y-84769664D01*
X73252841Y-84709156D01*
X73378282Y-84612902D01*
X73474536Y-84487461D01*
X73535044Y-84341382D01*
X73555682Y-84184620D01*
X73550793Y-84147487D01*
X73541923Y-84080112D01*
X73535044Y-84027858D01*
X73474536Y-83881779D01*
X73378282Y-83756338D01*
X73378280Y-83756337D01*
X73378280Y-83756336D01*
X73330608Y-83719757D01*
X73299013Y-83695513D01*
X73257811Y-83639086D01*
X73250500Y-83597138D01*
X73250500Y-80607204D01*
X73270185Y-80540165D01*
X73286819Y-80519523D01*
X73365919Y-80440423D01*
X73460489Y-80345853D01*
X73519799Y-80243126D01*
X73529832Y-80205682D01*
X73550500Y-80128548D01*
X73550500Y-79089310D01*
X73570185Y-79022271D01*
X73586819Y-79001629D01*
X74190065Y-78398383D01*
X74840490Y-77747959D01*
X74899281Y-77646130D01*
X74899798Y-77645234D01*
X74899799Y-77645232D01*
X74901928Y-77637287D01*
X74910396Y-77605682D01*
X74930500Y-77530654D01*
X74930500Y-72159730D01*
X74950185Y-72092691D01*
X75002989Y-72046936D01*
X75009681Y-72044113D01*
X75035019Y-72034298D01*
X75216302Y-71922052D01*
X75373872Y-71778407D01*
X75502366Y-71608255D01*
X75515141Y-71582600D01*
X75597403Y-71417394D01*
X75597403Y-71417393D01*
X75597405Y-71417389D01*
X75655756Y-71212310D01*
X75675429Y-71000000D01*
X75655756Y-70787690D01*
X75630805Y-70699999D01*
X76053756Y-70699999D01*
X76053757Y-70700000D01*
X76655856Y-70700000D01*
X76594075Y-70807007D01*
X76560000Y-70934174D01*
X76560000Y-71065826D01*
X76594075Y-71192993D01*
X76655856Y-71300000D01*
X76053757Y-71300000D01*
X76085234Y-71403768D01*
X76182728Y-71586166D01*
X76182732Y-71586173D01*
X76313944Y-71746055D01*
X76473826Y-71877267D01*
X76473833Y-71877271D01*
X76656237Y-71974767D01*
X76656241Y-71974769D01*
X76760000Y-72006243D01*
X76760000Y-71404144D01*
X76867007Y-71465925D01*
X76994174Y-71500000D01*
X77125826Y-71500000D01*
X77252993Y-71465925D01*
X77360000Y-71404144D01*
X77360000Y-72006242D01*
X77463758Y-71974769D01*
X77463762Y-71974767D01*
X77646166Y-71877271D01*
X77646173Y-71877267D01*
X77806055Y-71746055D01*
X77937267Y-71586173D01*
X77937271Y-71586166D01*
X78034765Y-71403768D01*
X78066243Y-71300000D01*
X77464144Y-71300000D01*
X77525925Y-71192993D01*
X77560000Y-71065826D01*
X77560000Y-70934174D01*
X77525925Y-70807007D01*
X77464144Y-70700000D01*
X78066243Y-70700000D01*
X78066243Y-70699999D01*
X78034765Y-70596231D01*
X77937271Y-70413833D01*
X77937267Y-70413826D01*
X77806055Y-70253944D01*
X77646173Y-70122732D01*
X77646166Y-70122728D01*
X77613244Y-70105131D01*
X78449500Y-70105131D01*
X78449500Y-71894856D01*
X78449502Y-71894882D01*
X78452413Y-71919987D01*
X78452415Y-71919991D01*
X78497793Y-72022764D01*
X78497794Y-72022765D01*
X78577235Y-72102206D01*
X78680009Y-72147585D01*
X78705135Y-72150500D01*
X80494864Y-72150499D01*
X80494879Y-72150497D01*
X80494882Y-72150497D01*
X80519987Y-72147586D01*
X80519988Y-72147585D01*
X80519991Y-72147585D01*
X80622765Y-72102206D01*
X80702206Y-72022765D01*
X80747585Y-71919991D01*
X80750500Y-71894865D01*
X80750499Y-71000000D01*
X88804571Y-71000000D01*
X88824244Y-71212310D01*
X88878719Y-71403768D01*
X88882596Y-71417392D01*
X88882596Y-71417394D01*
X88977632Y-71608253D01*
X89082778Y-71747487D01*
X89106128Y-71778407D01*
X89263698Y-71922052D01*
X89444981Y-72034298D01*
X89643802Y-72111321D01*
X89853390Y-72150500D01*
X89853392Y-72150500D01*
X90066608Y-72150500D01*
X90066610Y-72150500D01*
X90276198Y-72111321D01*
X90475019Y-72034298D01*
X90656302Y-71922052D01*
X90813872Y-71778407D01*
X90942366Y-71608255D01*
X90955141Y-71582600D01*
X91037403Y-71417394D01*
X91037403Y-71417393D01*
X91037405Y-71417389D01*
X91095756Y-71212310D01*
X91106529Y-71096047D01*
X91132315Y-71031111D01*
X91174622Y-71000804D01*
X91283130Y-71000804D01*
X91319503Y-71021668D01*
X91351693Y-71083681D01*
X91353470Y-71096047D01*
X91364244Y-71212310D01*
X91418719Y-71403768D01*
X91422596Y-71417392D01*
X91422596Y-71417394D01*
X91517632Y-71608253D01*
X91622778Y-71747487D01*
X91646128Y-71778407D01*
X91803698Y-71922052D01*
X91984981Y-72034298D01*
X92183802Y-72111321D01*
X92393390Y-72150500D01*
X92393392Y-72150500D01*
X92606608Y-72150500D01*
X92606610Y-72150500D01*
X92816198Y-72111321D01*
X93015019Y-72034298D01*
X93196302Y-71922052D01*
X93353872Y-71778407D01*
X93482366Y-71608255D01*
X93495141Y-71582600D01*
X93577403Y-71417394D01*
X93577403Y-71417393D01*
X93577405Y-71417389D01*
X93635756Y-71212310D01*
X93642029Y-71144605D01*
X93667814Y-71079669D01*
X93724614Y-71038981D01*
X93794395Y-71035461D01*
X93855002Y-71070225D01*
X93887193Y-71132238D01*
X93889500Y-71156047D01*
X93889500Y-71894856D01*
X93889502Y-71894882D01*
X93892413Y-71919987D01*
X93892415Y-71919991D01*
X93937793Y-72022764D01*
X93937794Y-72022765D01*
X94017235Y-72102206D01*
X94120009Y-72147585D01*
X94145135Y-72150500D01*
X95934864Y-72150499D01*
X95934879Y-72150497D01*
X95934882Y-72150497D01*
X95959987Y-72147586D01*
X95959988Y-72147585D01*
X95959991Y-72147585D01*
X96062765Y-72102206D01*
X96142206Y-72022765D01*
X96187585Y-71919991D01*
X96190500Y-71894865D01*
X96190499Y-70105136D01*
X96190497Y-70105117D01*
X96187586Y-70080012D01*
X96187585Y-70080010D01*
X96187585Y-70080009D01*
X96142206Y-69977235D01*
X96062765Y-69897794D01*
X96042124Y-69888680D01*
X95959992Y-69852415D01*
X95934865Y-69849500D01*
X94145143Y-69849500D01*
X94145117Y-69849502D01*
X94120012Y-69852413D01*
X94120008Y-69852415D01*
X94017235Y-69897793D01*
X93937794Y-69977234D01*
X93892415Y-70080006D01*
X93892415Y-70080008D01*
X93889500Y-70105131D01*
X93889500Y-70843951D01*
X93869815Y-70910990D01*
X93817011Y-70956745D01*
X93747853Y-70966689D01*
X93684297Y-70937664D01*
X93646523Y-70878886D01*
X93642029Y-70855391D01*
X93635756Y-70787689D01*
X93621273Y-70736789D01*
X93577405Y-70582611D01*
X93577403Y-70582606D01*
X93577403Y-70582605D01*
X93482367Y-70391746D01*
X93353872Y-70221593D01*
X93245427Y-70122732D01*
X93196302Y-70077948D01*
X93015019Y-69965702D01*
X93015017Y-69965701D01*
X92915608Y-69927190D01*
X92816198Y-69888679D01*
X92606610Y-69849500D01*
X92393390Y-69849500D01*
X92183802Y-69888679D01*
X92183799Y-69888679D01*
X92183799Y-69888680D01*
X91984982Y-69965701D01*
X91984980Y-69965702D01*
X91803699Y-70077947D01*
X91646127Y-70221593D01*
X91517632Y-70391746D01*
X91422596Y-70582605D01*
X91422596Y-70582607D01*
X91364244Y-70787689D01*
X91353471Y-70903951D01*
X91327685Y-70968888D01*
X91283130Y-71000804D01*
X91174622Y-71000804D01*
X91176869Y-70999194D01*
X91140497Y-70978331D01*
X91108307Y-70916318D01*
X91106529Y-70903951D01*
X91100969Y-70843951D01*
X91095756Y-70787690D01*
X91037405Y-70582611D01*
X91037403Y-70582606D01*
X91037403Y-70582605D01*
X90942367Y-70391746D01*
X90813872Y-70221593D01*
X90705427Y-70122732D01*
X90656302Y-70077948D01*
X90475019Y-69965702D01*
X90475017Y-69965701D01*
X90375608Y-69927190D01*
X90276198Y-69888679D01*
X90066610Y-69849500D01*
X89853390Y-69849500D01*
X89643802Y-69888679D01*
X89643799Y-69888679D01*
X89643799Y-69888680D01*
X89444982Y-69965701D01*
X89444980Y-69965702D01*
X89263699Y-70077947D01*
X89106127Y-70221593D01*
X88977632Y-70391746D01*
X88882596Y-70582605D01*
X88882596Y-70582607D01*
X88824244Y-70787689D01*
X88810671Y-70934174D01*
X88804571Y-71000000D01*
X80750499Y-71000000D01*
X80750499Y-70105136D01*
X80750497Y-70105117D01*
X80747586Y-70080012D01*
X80747585Y-70080010D01*
X80747585Y-70080009D01*
X80702206Y-69977235D01*
X80622765Y-69897794D01*
X80602124Y-69888680D01*
X80519992Y-69852415D01*
X80494865Y-69849500D01*
X78705143Y-69849500D01*
X78705117Y-69849502D01*
X78680012Y-69852413D01*
X78680008Y-69852415D01*
X78577235Y-69897793D01*
X78497794Y-69977234D01*
X78452415Y-70080006D01*
X78452415Y-70080008D01*
X78449500Y-70105131D01*
X77613244Y-70105131D01*
X77463768Y-70025234D01*
X77360000Y-69993756D01*
X77360000Y-70595855D01*
X77252993Y-70534075D01*
X77125826Y-70500000D01*
X76994174Y-70500000D01*
X76867007Y-70534075D01*
X76760000Y-70595855D01*
X76760000Y-69993756D01*
X76759999Y-69993756D01*
X76656231Y-70025234D01*
X76473833Y-70122728D01*
X76473826Y-70122732D01*
X76313944Y-70253944D01*
X76182732Y-70413826D01*
X76182728Y-70413833D01*
X76085234Y-70596231D01*
X76053756Y-70699999D01*
X75630805Y-70699999D01*
X75597405Y-70582611D01*
X75597403Y-70582606D01*
X75597403Y-70582605D01*
X75502367Y-70391746D01*
X75373872Y-70221593D01*
X75265427Y-70122732D01*
X75216302Y-70077948D01*
X75035019Y-69965702D01*
X75035017Y-69965701D01*
X74935608Y-69927190D01*
X74836198Y-69888679D01*
X74626610Y-69849500D01*
X74413390Y-69849500D01*
X74203802Y-69888679D01*
X74203799Y-69888679D01*
X74203799Y-69888680D01*
X74004982Y-69965701D01*
X74004980Y-69965702D01*
X73823699Y-70077947D01*
X73666127Y-70221593D01*
X73537632Y-70391746D01*
X73442596Y-70582605D01*
X73442596Y-70582607D01*
X73384244Y-70787689D01*
X73373470Y-70903952D01*
X73347683Y-70968889D01*
X73290883Y-71009576D01*
X73221102Y-71013096D01*
X73160495Y-70978330D01*
X73128306Y-70916317D01*
X73126530Y-70903966D01*
X73115756Y-70787690D01*
X73057405Y-70582611D01*
X73057403Y-70582606D01*
X73057403Y-70582605D01*
X72962367Y-70391746D01*
X72833872Y-70221593D01*
X72725427Y-70122732D01*
X72676302Y-70077948D01*
X72495019Y-69965702D01*
X72495017Y-69965701D01*
X72395608Y-69927190D01*
X72296198Y-69888679D01*
X72086610Y-69849500D01*
X71873390Y-69849500D01*
X71663802Y-69888679D01*
X71663799Y-69888679D01*
X71663799Y-69888680D01*
X71464982Y-69965701D01*
X71464980Y-69965702D01*
X71283699Y-70077947D01*
X71126127Y-70221593D01*
X70997632Y-70391746D01*
X70902596Y-70582605D01*
X70902596Y-70582607D01*
X70844244Y-70787689D01*
X70833470Y-70903952D01*
X70807683Y-70968889D01*
X70750883Y-71009576D01*
X70681102Y-71013096D01*
X70620495Y-70978330D01*
X70588306Y-70916317D01*
X70586530Y-70903966D01*
X70575756Y-70787690D01*
X70517405Y-70582611D01*
X70517403Y-70582606D01*
X70517403Y-70582605D01*
X70422367Y-70391746D01*
X70293872Y-70221593D01*
X70185427Y-70122732D01*
X70136302Y-70077948D01*
X69955019Y-69965702D01*
X69955017Y-69965701D01*
X69855608Y-69927190D01*
X69756198Y-69888679D01*
X69546610Y-69849500D01*
X69333390Y-69849500D01*
X69123802Y-69888679D01*
X69123799Y-69888679D01*
X69123799Y-69888680D01*
X68924982Y-69965701D01*
X68924980Y-69965702D01*
X68743699Y-70077947D01*
X68586127Y-70221593D01*
X68457632Y-70391746D01*
X68362596Y-70582605D01*
X68362596Y-70582607D01*
X68304244Y-70787689D01*
X68293471Y-70903951D01*
X68267685Y-70968888D01*
X68223130Y-71000804D01*
X68259503Y-71021668D01*
X68291693Y-71083681D01*
X68293470Y-71096047D01*
X68304244Y-71212310D01*
X68358719Y-71403768D01*
X68362596Y-71417392D01*
X68362596Y-71417394D01*
X68457632Y-71608253D01*
X68562778Y-71747487D01*
X68586128Y-71778407D01*
X68743698Y-71922052D01*
X68924981Y-72034298D01*
X69123802Y-72111321D01*
X69333390Y-72150500D01*
X69333392Y-72150500D01*
X69546608Y-72150500D01*
X69546610Y-72150500D01*
X69756198Y-72111321D01*
X69955019Y-72034298D01*
X70067399Y-71964714D01*
X70134758Y-71946158D01*
X70201458Y-71966966D01*
X70220357Y-71982460D01*
X70898386Y-72660489D01*
X70942566Y-72685996D01*
X71001114Y-72719799D01*
X71115691Y-72750500D01*
X72062035Y-72750500D01*
X72129074Y-72770185D01*
X72149716Y-72786819D01*
X72713181Y-73350284D01*
X72746666Y-73411607D01*
X72749500Y-73437965D01*
X72749500Y-76683580D01*
X72729815Y-76750619D01*
X72723876Y-76759066D01*
X72675464Y-76822157D01*
X72614956Y-76968237D01*
X72614955Y-76968239D01*
X72594318Y-77124998D01*
X72594318Y-77125001D01*
X72614955Y-77281760D01*
X72614956Y-77281762D01*
X72675464Y-77427841D01*
X72771718Y-77553282D01*
X72794617Y-77570853D01*
X72819181Y-77589702D01*
X72860383Y-77646130D01*
X72864538Y-77715876D01*
X72831375Y-77775758D01*
X72085197Y-78521937D01*
X72023874Y-78555422D01*
X71954183Y-78550438D01*
X71898249Y-78508566D01*
X71873832Y-78443102D01*
X71882956Y-78386802D01*
X71885044Y-78381762D01*
X71905682Y-78225000D01*
X71902456Y-78200499D01*
X71885044Y-78068239D01*
X71885044Y-78068238D01*
X71824536Y-77922159D01*
X71728282Y-77796718D01*
X71602841Y-77700464D01*
X71590835Y-77695491D01*
X71456762Y-77639956D01*
X71456760Y-77639955D01*
X71300001Y-77619318D01*
X71299999Y-77619318D01*
X71143239Y-77639955D01*
X71143237Y-77639956D01*
X70997160Y-77700463D01*
X70871714Y-77796721D01*
X70812484Y-77873911D01*
X70801790Y-77886105D01*
X70289513Y-78398383D01*
X70289509Y-78398389D01*
X70230201Y-78501112D01*
X70230200Y-78501117D01*
X70199500Y-78615691D01*
X70199500Y-79353548D01*
X70211503Y-79398345D01*
X70211515Y-79398387D01*
X70230201Y-79468126D01*
X70289511Y-79570853D01*
X70289513Y-79570855D01*
X70313181Y-79594523D01*
X70346666Y-79655846D01*
X70349500Y-79682204D01*
X70349500Y-86629187D01*
X70329815Y-86696226D01*
X70277011Y-86741981D01*
X70209316Y-86752126D01*
X70150003Y-86744318D01*
X70149999Y-86744318D01*
X69993239Y-86764955D01*
X69993237Y-86764956D01*
X69847160Y-86825463D01*
X69721716Y-86921719D01*
X69625464Y-87047158D01*
X69625463Y-87047159D01*
X69584672Y-87145637D01*
X69557792Y-87185864D01*
X69139513Y-87604144D01*
X69139509Y-87604150D01*
X69080200Y-87706875D01*
X69077405Y-87717308D01*
X69077405Y-87717309D01*
X69050610Y-87817310D01*
X69049500Y-87821452D01*
X69049500Y-88478548D01*
X69059256Y-88514956D01*
X69070262Y-88556032D01*
X69080201Y-88593127D01*
X69106858Y-88639297D01*
X69139511Y-88695853D01*
X69139513Y-88695855D01*
X69163181Y-88719523D01*
X69196666Y-88780846D01*
X69199500Y-88807204D01*
X69199500Y-92104928D01*
X69179815Y-92171967D01*
X69163181Y-92192609D01*
X68962181Y-92393609D01*
X68900858Y-92427094D01*
X68831166Y-92422110D01*
X68775233Y-92380238D01*
X68750816Y-92314774D01*
X68750500Y-92305928D01*
X68750500Y-92191419D01*
X68770185Y-92124380D01*
X68776124Y-92115933D01*
X68806193Y-92076746D01*
X68824536Y-92052841D01*
X68885044Y-91906762D01*
X68905682Y-91750000D01*
X68904456Y-91740691D01*
X68885044Y-91593239D01*
X68885044Y-91593238D01*
X68824536Y-91447159D01*
X68728282Y-91321718D01*
X68602841Y-91225464D01*
X68601187Y-91224779D01*
X68456762Y-91164956D01*
X68456760Y-91164955D01*
X68300001Y-91144318D01*
X68299999Y-91144318D01*
X68143239Y-91164955D01*
X68143237Y-91164956D01*
X67997160Y-91225463D01*
X67871718Y-91321718D01*
X67775463Y-91447160D01*
X67714956Y-91593237D01*
X67714955Y-91593239D01*
X67694318Y-91749998D01*
X67694318Y-91750001D01*
X67714955Y-91906760D01*
X67714957Y-91906765D01*
X67775461Y-92052836D01*
X67775464Y-92052841D01*
X67823876Y-92115933D01*
X67849070Y-92181102D01*
X67849500Y-92191419D01*
X67849500Y-92747823D01*
X67829815Y-92814862D01*
X67813181Y-92835504D01*
X66889513Y-93759171D01*
X66889509Y-93759177D01*
X66830201Y-93861900D01*
X66830200Y-93861905D01*
X66799500Y-93976479D01*
X66799500Y-95785638D01*
X66779815Y-95852677D01*
X66727011Y-95898432D01*
X66691687Y-95908577D01*
X66643238Y-95914956D01*
X66497160Y-95975463D01*
X66371718Y-96071718D01*
X66275463Y-96197160D01*
X66214956Y-96343237D01*
X66214955Y-96343239D01*
X66194318Y-96499998D01*
X66194318Y-96500001D01*
X66214955Y-96656760D01*
X66214956Y-96656762D01*
X66251352Y-96744631D01*
X66275464Y-96802841D01*
X66371718Y-96928282D01*
X66497159Y-97024536D01*
X66643238Y-97085044D01*
X66721619Y-97095363D01*
X66799999Y-97105682D01*
X66800000Y-97105682D01*
X66800001Y-97105682D01*
X66852254Y-97098802D01*
X66956762Y-97085044D01*
X67102841Y-97024536D01*
X67228282Y-96928282D01*
X67324536Y-96802841D01*
X67324536Y-96802839D01*
X67328659Y-96797467D01*
X67385087Y-96756264D01*
X67454833Y-96752109D01*
X67514716Y-96785271D01*
X67613179Y-96883734D01*
X67646663Y-96945055D01*
X67649497Y-96971414D01*
X67649497Y-98442799D01*
X67629812Y-98509838D01*
X67613178Y-98530480D01*
X66889513Y-99254144D01*
X66889509Y-99254150D01*
X66830201Y-99356873D01*
X66830200Y-99356878D01*
X66799500Y-99471452D01*
X66799500Y-100128547D01*
X66820168Y-100205683D01*
X66830200Y-100243124D01*
X66830200Y-100243125D01*
X66855267Y-100286542D01*
X66889511Y-100345853D01*
X66889513Y-100345855D01*
X66913181Y-100369523D01*
X66946666Y-100430846D01*
X66949500Y-100457204D01*
X66949500Y-101362518D01*
X66929815Y-101429557D01*
X66900986Y-101460894D01*
X66821719Y-101521716D01*
X66725463Y-101647160D01*
X66664956Y-101793237D01*
X66664955Y-101793239D01*
X66644318Y-101949998D01*
X66644318Y-101950001D01*
X66664955Y-102106760D01*
X66664956Y-102106762D01*
X66725464Y-102252841D01*
X66821718Y-102378282D01*
X66947159Y-102474536D01*
X67093238Y-102535044D01*
X67171619Y-102545363D01*
X67249999Y-102555682D01*
X67250000Y-102555682D01*
X67309314Y-102547873D01*
X67378350Y-102558638D01*
X67430606Y-102605018D01*
X67449500Y-102670812D01*
X67449500Y-102828582D01*
X67429815Y-102895621D01*
X67413181Y-102916263D01*
X67186506Y-103142937D01*
X67186504Y-103142940D01*
X67127194Y-103245666D01*
X67127192Y-103245671D01*
X67126691Y-103247541D01*
X67126691Y-103247544D01*
X67110793Y-103306878D01*
X67096493Y-103360245D01*
X67096493Y-106589506D01*
X67076808Y-106656545D01*
X67037771Y-106694933D01*
X66903699Y-106777947D01*
X66746127Y-106921593D01*
X66617632Y-107091746D01*
X66522596Y-107282605D01*
X66522596Y-107282607D01*
X66464244Y-107487689D01*
X66457970Y-107555394D01*
X66432183Y-107620331D01*
X66375383Y-107661018D01*
X66305602Y-107664538D01*
X66244995Y-107629772D01*
X66212806Y-107567759D01*
X66210499Y-107543952D01*
X66210499Y-106805143D01*
X66210499Y-106805136D01*
X66210497Y-106805117D01*
X66207586Y-106780012D01*
X66207585Y-106780010D01*
X66207585Y-106780009D01*
X66162206Y-106677235D01*
X66082765Y-106597794D01*
X66082763Y-106597793D01*
X65979992Y-106552415D01*
X65954868Y-106549500D01*
X65954865Y-106549500D01*
X64810097Y-106549500D01*
X64743058Y-106529815D01*
X64722416Y-106513181D01*
X64636819Y-106427584D01*
X64603334Y-106366261D01*
X64600500Y-106339903D01*
X64600500Y-93747487D01*
X64601561Y-93731301D01*
X64602925Y-93720945D01*
X64605682Y-93700000D01*
X64605197Y-93696319D01*
X64601561Y-93668697D01*
X64600500Y-93652512D01*
X64600500Y-93400096D01*
X64620185Y-93333057D01*
X64636815Y-93312419D01*
X65258506Y-92690727D01*
X65258511Y-92690724D01*
X65268714Y-92680520D01*
X65268716Y-92680520D01*
X65380520Y-92568716D01*
X65445577Y-92456033D01*
X65459577Y-92431785D01*
X65500500Y-92279058D01*
X65500500Y-92120943D01*
X65500500Y-84747487D01*
X65501561Y-84731301D01*
X65505682Y-84700000D01*
X65505682Y-84699998D01*
X65501561Y-84668697D01*
X65500500Y-84652512D01*
X65500500Y-84147487D01*
X65501561Y-84131301D01*
X65505682Y-84100000D01*
X65505682Y-84099998D01*
X65501561Y-84068697D01*
X65500500Y-84052512D01*
X65500500Y-83547487D01*
X65501561Y-83531301D01*
X65505682Y-83500000D01*
X65505682Y-83499998D01*
X65501561Y-83468697D01*
X65500500Y-83452512D01*
X65500500Y-83420945D01*
X65500500Y-83420943D01*
X65492327Y-83390441D01*
X65489164Y-83374536D01*
X65488800Y-83371774D01*
X65485044Y-83343238D01*
X65472957Y-83314060D01*
X65467745Y-83298703D01*
X65459576Y-83268214D01*
X65443791Y-83240873D01*
X65436617Y-83226326D01*
X65435657Y-83224009D01*
X65424536Y-83197159D01*
X65405311Y-83172104D01*
X65396305Y-83158625D01*
X65380522Y-83131287D01*
X65380518Y-83131282D01*
X65358196Y-83108960D01*
X65347501Y-83096765D01*
X65328281Y-83071717D01*
X65303233Y-83052497D01*
X65291045Y-83041809D01*
X65268716Y-83019480D01*
X65268715Y-83019479D01*
X65264384Y-83015148D01*
X65264374Y-83015139D01*
X65136819Y-82887584D01*
X65103334Y-82826261D01*
X65100500Y-82799903D01*
X65100500Y-79674998D01*
X67494318Y-79674998D01*
X67494318Y-79675001D01*
X67514955Y-79831760D01*
X67514957Y-79831765D01*
X67575461Y-79977836D01*
X67575464Y-79977841D01*
X67623876Y-80040933D01*
X67649070Y-80106102D01*
X67649500Y-80116419D01*
X67649500Y-89808580D01*
X67629815Y-89875619D01*
X67623876Y-89884066D01*
X67575464Y-89947157D01*
X67514956Y-90093237D01*
X67514955Y-90093239D01*
X67494318Y-90249998D01*
X67494318Y-90250001D01*
X67514955Y-90406760D01*
X67514956Y-90406762D01*
X67571501Y-90543275D01*
X67575464Y-90552841D01*
X67671718Y-90678282D01*
X67797159Y-90774536D01*
X67943238Y-90835044D01*
X68021619Y-90845363D01*
X68099999Y-90855682D01*
X68100000Y-90855682D01*
X68100001Y-90855682D01*
X68152254Y-90848802D01*
X68256762Y-90835044D01*
X68402841Y-90774536D01*
X68528282Y-90678282D01*
X68624536Y-90552841D01*
X68685044Y-90406762D01*
X68702818Y-90271756D01*
X68705682Y-90250001D01*
X68705682Y-90249998D01*
X68685044Y-90093239D01*
X68685044Y-90093238D01*
X68624536Y-89947159D01*
X68624535Y-89947158D01*
X68624535Y-89947157D01*
X68576124Y-89884066D01*
X68550930Y-89818896D01*
X68550500Y-89808580D01*
X68550500Y-80116419D01*
X68570185Y-80049380D01*
X68576124Y-80040933D01*
X68592092Y-80020121D01*
X68624536Y-79977841D01*
X68685044Y-79831762D01*
X68705682Y-79675000D01*
X68703160Y-79655846D01*
X68685044Y-79518239D01*
X68685044Y-79518238D01*
X68624536Y-79372159D01*
X68528282Y-79246718D01*
X68402841Y-79150464D01*
X68256762Y-79089956D01*
X68256760Y-79089955D01*
X68100001Y-79069318D01*
X68099999Y-79069318D01*
X67943239Y-79089955D01*
X67943237Y-79089956D01*
X67797160Y-79150463D01*
X67671718Y-79246718D01*
X67575463Y-79372160D01*
X67514956Y-79518237D01*
X67514955Y-79518239D01*
X67494318Y-79674998D01*
X65100500Y-79674998D01*
X65100500Y-77750081D01*
X65120185Y-77683042D01*
X65172989Y-77637287D01*
X65242147Y-77627343D01*
X65289153Y-77647144D01*
X65290119Y-77645472D01*
X65297157Y-77649534D01*
X65297159Y-77649536D01*
X65443238Y-77710044D01*
X65487537Y-77715876D01*
X65599999Y-77730682D01*
X65600000Y-77730682D01*
X65600001Y-77730682D01*
X65652254Y-77723802D01*
X65756762Y-77710044D01*
X65902841Y-77649536D01*
X66028282Y-77553282D01*
X66124536Y-77427841D01*
X66185044Y-77281762D01*
X66195424Y-77202914D01*
X66223688Y-77139020D01*
X66230669Y-77131432D01*
X67220489Y-76141614D01*
X67279799Y-76038887D01*
X67286285Y-76014675D01*
X67286286Y-76014675D01*
X67286286Y-76014671D01*
X67310500Y-75924309D01*
X67310500Y-72159730D01*
X67330185Y-72092691D01*
X67382989Y-72046936D01*
X67389681Y-72044113D01*
X67415019Y-72034298D01*
X67596302Y-71922052D01*
X67753872Y-71778407D01*
X67882366Y-71608255D01*
X67895141Y-71582600D01*
X67977403Y-71417394D01*
X67977403Y-71417393D01*
X67977405Y-71417389D01*
X68035756Y-71212310D01*
X68046529Y-71096047D01*
X68072315Y-71031111D01*
X68116869Y-70999194D01*
X68080497Y-70978331D01*
X68048307Y-70916318D01*
X68046529Y-70903951D01*
X68040969Y-70843951D01*
X68035756Y-70787690D01*
X67977405Y-70582611D01*
X67977403Y-70582606D01*
X67977403Y-70582605D01*
X67882367Y-70391746D01*
X67753872Y-70221593D01*
X67645427Y-70122732D01*
X67596302Y-70077948D01*
X67415019Y-69965702D01*
X67415017Y-69965701D01*
X67315608Y-69927190D01*
X67216198Y-69888679D01*
X67006610Y-69849500D01*
X66793390Y-69849500D01*
X66583802Y-69888679D01*
X66583799Y-69888679D01*
X66583799Y-69888680D01*
X66384982Y-69965701D01*
X66384980Y-69965702D01*
X66203699Y-70077947D01*
X66046127Y-70221593D01*
X65917632Y-70391746D01*
X65822596Y-70582605D01*
X65822596Y-70582607D01*
X65764244Y-70787689D01*
X65753471Y-70903951D01*
X65727685Y-70968888D01*
X65683130Y-71000804D01*
X65719503Y-71021668D01*
X65751693Y-71083681D01*
X65753470Y-71096047D01*
X65764244Y-71212310D01*
X65818719Y-71403768D01*
X65822596Y-71417392D01*
X65822596Y-71417394D01*
X65917632Y-71608253D01*
X66022778Y-71747487D01*
X66046128Y-71778407D01*
X66203698Y-71922052D01*
X66350778Y-72013120D01*
X66397413Y-72065146D01*
X66409500Y-72118546D01*
X66409500Y-75627034D01*
X66389815Y-75694073D01*
X66373181Y-75714715D01*
X65593578Y-76494317D01*
X65532255Y-76527802D01*
X65522084Y-76529575D01*
X65443238Y-76539956D01*
X65297156Y-76600465D01*
X65290119Y-76604528D01*
X65288977Y-76602551D01*
X65234807Y-76623489D01*
X65166363Y-76609445D01*
X65116377Y-76560627D01*
X65100500Y-76499918D01*
X65100500Y-74414360D01*
X65120185Y-74347321D01*
X65172989Y-74301566D01*
X65208312Y-74291422D01*
X65256762Y-74285044D01*
X65402841Y-74224536D01*
X65528282Y-74128282D01*
X65624536Y-74002841D01*
X65685044Y-73856762D01*
X65704486Y-73709077D01*
X65705540Y-73702462D01*
X65705999Y-73700008D01*
X65706000Y-73699999D01*
X65706000Y-73100004D01*
X65705673Y-73085870D01*
X65705673Y-73085868D01*
X65702885Y-73074016D01*
X65700657Y-73061835D01*
X65685044Y-72943238D01*
X65624536Y-72797159D01*
X65528282Y-72671718D01*
X65402841Y-72575464D01*
X65393797Y-72571718D01*
X65309022Y-72536603D01*
X65256762Y-72514956D01*
X65212540Y-72509134D01*
X65109074Y-72495512D01*
X65102486Y-72494464D01*
X65100005Y-72494000D01*
X65100000Y-72494000D01*
X63900000Y-72494000D01*
X63898568Y-72494033D01*
X63885867Y-72494326D01*
X63885865Y-72494327D01*
X63874022Y-72497112D01*
X63861824Y-72499343D01*
X63787454Y-72509134D01*
X63718419Y-72498368D01*
X63666163Y-72451988D01*
X63647278Y-72384719D01*
X63667759Y-72317919D01*
X63683585Y-72298517D01*
X63861961Y-72120140D01*
X63923282Y-72086657D01*
X63992973Y-72091641D01*
X63994433Y-72092196D01*
X64020273Y-72102206D01*
X64043802Y-72111321D01*
X64253390Y-72150500D01*
X64253392Y-72150500D01*
X64466608Y-72150500D01*
X64466610Y-72150500D01*
X64676198Y-72111321D01*
X64875019Y-72034298D01*
X65056302Y-71922052D01*
X65213872Y-71778407D01*
X65342366Y-71608255D01*
X65355141Y-71582600D01*
X65437403Y-71417394D01*
X65437403Y-71417393D01*
X65437405Y-71417389D01*
X65495756Y-71212310D01*
X65506529Y-71096047D01*
X65532315Y-71031111D01*
X65576869Y-70999194D01*
X65540497Y-70978331D01*
X65508307Y-70916318D01*
X65506529Y-70903951D01*
X65500969Y-70843951D01*
X65495756Y-70787690D01*
X65437405Y-70582611D01*
X65437403Y-70582606D01*
X65437403Y-70582605D01*
X65342367Y-70391746D01*
X65213872Y-70221593D01*
X65105427Y-70122732D01*
X65056302Y-70077948D01*
X64875019Y-69965702D01*
X64875017Y-69965701D01*
X64775608Y-69927190D01*
X64676198Y-69888679D01*
X64466610Y-69849500D01*
X64253390Y-69849500D01*
X64043802Y-69888679D01*
X64043799Y-69888679D01*
X64043799Y-69888680D01*
X63844982Y-69965701D01*
X63844980Y-69965702D01*
X63663699Y-70077947D01*
X63506127Y-70221593D01*
X63377632Y-70391746D01*
X63282596Y-70582605D01*
X63282596Y-70582607D01*
X63224244Y-70787689D01*
X63213471Y-70903951D01*
X63187685Y-70968888D01*
X63143130Y-71000804D01*
X63179503Y-71021668D01*
X63211693Y-71083681D01*
X63213471Y-71096048D01*
X63224244Y-71212312D01*
X63264404Y-71353461D01*
X63263817Y-71423328D01*
X63232819Y-71475076D01*
X63137680Y-71570215D01*
X63076357Y-71603700D01*
X63006665Y-71598716D01*
X62962318Y-71570215D01*
X62929459Y-71537356D01*
X62895974Y-71476033D01*
X62897874Y-71415740D01*
X62955756Y-71212310D01*
X62966529Y-71096047D01*
X62992315Y-71031111D01*
X63036869Y-70999194D01*
X63000497Y-70978331D01*
X62968307Y-70916318D01*
X62966529Y-70903951D01*
X62960969Y-70843951D01*
X62955756Y-70787690D01*
X62897405Y-70582611D01*
X62897403Y-70582606D01*
X62897403Y-70582605D01*
X62802367Y-70391746D01*
X62673872Y-70221593D01*
X62565427Y-70122732D01*
X62516302Y-70077948D01*
X62335019Y-69965702D01*
X62335017Y-69965701D01*
X62235608Y-69927190D01*
X62136198Y-69888679D01*
X61926610Y-69849500D01*
X61713390Y-69849500D01*
X61503802Y-69888679D01*
X61503799Y-69888679D01*
X61503799Y-69888680D01*
X61304982Y-69965701D01*
X61304980Y-69965702D01*
X61123699Y-70077947D01*
X60966127Y-70221593D01*
X60837632Y-70391746D01*
X60742596Y-70582605D01*
X60742596Y-70582607D01*
X60684244Y-70787689D01*
X60670671Y-70934174D01*
X60664571Y-71000000D01*
X55800500Y-71000000D01*
X55800500Y-69116697D01*
X55820185Y-69049658D01*
X55872989Y-69003903D01*
X55892394Y-68996926D01*
X55909564Y-68992325D01*
X55925439Y-68989167D01*
X55956762Y-68985044D01*
X55985930Y-68972961D01*
X56001293Y-68967747D01*
X56020858Y-68962504D01*
X56031784Y-68959577D01*
X56059130Y-68943787D01*
X56073666Y-68936619D01*
X56102841Y-68924536D01*
X56127895Y-68905310D01*
X56141368Y-68896308D01*
X56168716Y-68880520D01*
X56191040Y-68858194D01*
X56203234Y-68847501D01*
X56228282Y-68828282D01*
X56247501Y-68803234D01*
X56258196Y-68791039D01*
X56280520Y-68768716D01*
X56296308Y-68741368D01*
X56305310Y-68727895D01*
X56324536Y-68702841D01*
X56336619Y-68673666D01*
X56343787Y-68659130D01*
X56359577Y-68631784D01*
X56362504Y-68620858D01*
X56367747Y-68601293D01*
X56372962Y-68585928D01*
X56385044Y-68556762D01*
X56389167Y-68525439D01*
X56392329Y-68509549D01*
X56394889Y-68499997D01*
X99595006Y-68499997D01*
X99595006Y-68500002D01*
X99614966Y-68868142D01*
X99614967Y-68868159D01*
X99674610Y-69231960D01*
X99674616Y-69231986D01*
X99773243Y-69587209D01*
X99773245Y-69587216D01*
X99909706Y-69929710D01*
X99909715Y-69929728D01*
X100082406Y-70255458D01*
X100289307Y-70560613D01*
X100289314Y-70560623D01*
X100393019Y-70682714D01*
X100393020Y-70682715D01*
X101675992Y-69399743D01*
X101779588Y-69542330D01*
X101957670Y-69720412D01*
X102100256Y-69824007D01*
X100814659Y-71109603D01*
X100814659Y-71109604D01*
X101089158Y-71318274D01*
X101089175Y-71318286D01*
X101405067Y-71508350D01*
X101405080Y-71508357D01*
X101739671Y-71663155D01*
X102089068Y-71780882D01*
X102449134Y-71860138D01*
X102815655Y-71899999D01*
X102815663Y-71900000D01*
X103184337Y-71900000D01*
X103184344Y-71899999D01*
X103550865Y-71860138D01*
X103910931Y-71780882D01*
X104260328Y-71663155D01*
X104594919Y-71508357D01*
X104594923Y-71508355D01*
X104910842Y-71318273D01*
X105185340Y-71109604D01*
X103899743Y-69824007D01*
X104042330Y-69720412D01*
X104220412Y-69542330D01*
X104324007Y-69399743D01*
X105606978Y-70682715D01*
X105606979Y-70682714D01*
X105710692Y-70560614D01*
X105917593Y-70255458D01*
X106090284Y-69929728D01*
X106090293Y-69929710D01*
X106226754Y-69587216D01*
X106226756Y-69587209D01*
X106325383Y-69231986D01*
X106325389Y-69231960D01*
X106385032Y-68868159D01*
X106385033Y-68868142D01*
X106404994Y-68500002D01*
X106404994Y-68499997D01*
X106385033Y-68131857D01*
X106385032Y-68131840D01*
X106325389Y-67768039D01*
X106325383Y-67768013D01*
X106226756Y-67412790D01*
X106226754Y-67412783D01*
X106090293Y-67070289D01*
X106090284Y-67070271D01*
X105917593Y-66744541D01*
X105710692Y-66439386D01*
X105710685Y-66439376D01*
X105606979Y-66317284D01*
X105606978Y-66317283D01*
X104324006Y-67600255D01*
X104220412Y-67457670D01*
X104042330Y-67279588D01*
X103899743Y-67175992D01*
X105185339Y-65890395D01*
X105185339Y-65890394D01*
X104910841Y-65681725D01*
X104910824Y-65681713D01*
X104594932Y-65491649D01*
X104594919Y-65491642D01*
X104260328Y-65336844D01*
X103910931Y-65219117D01*
X103550865Y-65139861D01*
X103184344Y-65100000D01*
X102815655Y-65100000D01*
X102449134Y-65139861D01*
X102089068Y-65219117D01*
X101739671Y-65336844D01*
X101405080Y-65491642D01*
X101405067Y-65491649D01*
X101089181Y-65681710D01*
X101089165Y-65681721D01*
X100814659Y-65890394D01*
X100814659Y-65890395D01*
X102100256Y-67175992D01*
X101957670Y-67279588D01*
X101779588Y-67457670D01*
X101675993Y-67600256D01*
X100393020Y-66317283D01*
X100393019Y-66317283D01*
X100289306Y-66439386D01*
X100082406Y-66744541D01*
X99909715Y-67070271D01*
X99909706Y-67070289D01*
X99773245Y-67412783D01*
X99773243Y-67412790D01*
X99674616Y-67768013D01*
X99674610Y-67768039D01*
X99614967Y-68131840D01*
X99614966Y-68131857D01*
X99595006Y-68499997D01*
X56394889Y-68499997D01*
X56400500Y-68479057D01*
X56400500Y-68447487D01*
X56401561Y-68431301D01*
X56405682Y-68400000D01*
X56405682Y-68399998D01*
X56401561Y-68368697D01*
X56400500Y-68352512D01*
X56400500Y-68320945D01*
X56400500Y-68320943D01*
X56392327Y-68290441D01*
X56389164Y-68274536D01*
X56385044Y-68243239D01*
X56385044Y-68243238D01*
X56372957Y-68214060D01*
X56367745Y-68198703D01*
X56359577Y-68168216D01*
X56359575Y-68168212D01*
X56343791Y-68140873D01*
X56336617Y-68126326D01*
X56324536Y-68097160D01*
X56324536Y-68097159D01*
X56305311Y-68072104D01*
X56296305Y-68058625D01*
X56280522Y-68031287D01*
X56280518Y-68031282D01*
X56258196Y-68008960D01*
X56247501Y-67996765D01*
X56228281Y-67971717D01*
X56203233Y-67952497D01*
X56191039Y-67941803D01*
X56168718Y-67919482D01*
X56168716Y-67919480D01*
X56168713Y-67919478D01*
X56168709Y-67919475D01*
X56141372Y-67903692D01*
X56127887Y-67894682D01*
X56102840Y-67875463D01*
X56102839Y-67875462D01*
X56073668Y-67863379D01*
X56059123Y-67856207D01*
X56031784Y-67840423D01*
X56031781Y-67840422D01*
X56001288Y-67832251D01*
X55985932Y-67827038D01*
X55956764Y-67814956D01*
X55925450Y-67810833D01*
X55909552Y-67807670D01*
X55879057Y-67799500D01*
X55847487Y-67799500D01*
X55831302Y-67798439D01*
X55800000Y-67794318D01*
X55768697Y-67798439D01*
X55752513Y-67799500D01*
X55247487Y-67799500D01*
X55231302Y-67798439D01*
X55200000Y-67794318D01*
X55168697Y-67798439D01*
X55152513Y-67799500D01*
X55120940Y-67799500D01*
X55090441Y-67807671D01*
X55074545Y-67810832D01*
X55043244Y-67814954D01*
X55043235Y-67814956D01*
X55014067Y-67827038D01*
X54998715Y-67832250D01*
X54968219Y-67840422D01*
X54968217Y-67840422D01*
X54968216Y-67840423D01*
X54968214Y-67840424D01*
X54968212Y-67840425D01*
X54940875Y-67856207D01*
X54926336Y-67863377D01*
X54897165Y-67875460D01*
X54897160Y-67875463D01*
X54872107Y-67894686D01*
X54858629Y-67903691D01*
X54831283Y-67919480D01*
X54808955Y-67941807D01*
X54796767Y-67952496D01*
X54771718Y-67971718D01*
X54752496Y-67996767D01*
X54741807Y-68008955D01*
X54719480Y-68031283D01*
X54703691Y-68058629D01*
X54694686Y-68072107D01*
X54675463Y-68097160D01*
X54675460Y-68097165D01*
X54663377Y-68126336D01*
X54656207Y-68140875D01*
X54640425Y-68168212D01*
X54640422Y-68168219D01*
X54632250Y-68198715D01*
X54627038Y-68214067D01*
X54614956Y-68243235D01*
X54614954Y-68243244D01*
X54610832Y-68274545D01*
X54607671Y-68290441D01*
X54599500Y-68320940D01*
X54599500Y-68352512D01*
X54598439Y-68368697D01*
X54594318Y-68399998D01*
X43899572Y-68399998D01*
X43885033Y-68131857D01*
X43885032Y-68131840D01*
X43825389Y-67768039D01*
X43825383Y-67768013D01*
X43726756Y-67412790D01*
X43726754Y-67412783D01*
X43590293Y-67070289D01*
X43590284Y-67070271D01*
X43417593Y-66744541D01*
X43210692Y-66439386D01*
X43210685Y-66439376D01*
X43106979Y-66317284D01*
X43106978Y-66317283D01*
X41824006Y-67600255D01*
X41720412Y-67457670D01*
X41542330Y-67279588D01*
X41399743Y-67175992D01*
X42685339Y-65890395D01*
X42685339Y-65890394D01*
X42410841Y-65681725D01*
X42410824Y-65681713D01*
X42094932Y-65491649D01*
X42094919Y-65491642D01*
X41760328Y-65336844D01*
X41410931Y-65219117D01*
X41050865Y-65139861D01*
X40684344Y-65100000D01*
X40315655Y-65100000D01*
X39949134Y-65139861D01*
X39589068Y-65219117D01*
X39239671Y-65336844D01*
X38905080Y-65491642D01*
X38905067Y-65491649D01*
X38589181Y-65681710D01*
X38589165Y-65681721D01*
X38314659Y-65890394D01*
X38314659Y-65890395D01*
X39600256Y-67175992D01*
X39457670Y-67279588D01*
X39279588Y-67457670D01*
X39175993Y-67600256D01*
X37893020Y-66317283D01*
X37893019Y-66317283D01*
X37789306Y-66439386D01*
X37582406Y-66744541D01*
X37409715Y-67070271D01*
X37409706Y-67070289D01*
X37273245Y-67412783D01*
X37273243Y-67412790D01*
X37174616Y-67768013D01*
X37174610Y-67768039D01*
X37114967Y-68131840D01*
X37114966Y-68131857D01*
X37095006Y-68499997D01*
X36500500Y-68499997D01*
X36500500Y-64624500D01*
X36520185Y-64557461D01*
X36572989Y-64511706D01*
X36624500Y-64500500D01*
X107875500Y-64500500D01*
X107942539Y-64520185D01*
G37*
%TD.AperFunction*%
%TD*%
M02*
