%TF.GenerationSoftware,KiCad,Pcbnew,8.0.4*%
%TF.CreationDate,2024-07-27T17:20:27+08:00*%
%TF.ProjectId,DapLink_STM32F103CBT6,4461704c-696e-46b5-9f53-544d33324631,rev?*%
%TF.SameCoordinates,Original*%
%TF.FileFunction,Paste,Top*%
%TF.FilePolarity,Positive*%
%FSLAX46Y46*%
G04 Gerber Fmt 4.6, Leading zero omitted, Abs format (unit mm)*
G04 Created by KiCad (PCBNEW 8.0.4) date 2024-07-27 17:20:27*
%MOMM*%
%LPD*%
G01*
G04 APERTURE LIST*
G04 Aperture macros list*
%AMRoundRect*
0 Rectangle with rounded corners*
0 $1 Rounding radius*
0 $2 $3 $4 $5 $6 $7 $8 $9 X,Y pos of 4 corners*
0 Add a 4 corners polygon primitive as box body*
4,1,4,$2,$3,$4,$5,$6,$7,$8,$9,$2,$3,0*
0 Add four circle primitives for the rounded corners*
1,1,$1+$1,$2,$3*
1,1,$1+$1,$4,$5*
1,1,$1+$1,$6,$7*
1,1,$1+$1,$8,$9*
0 Add four rect primitives between the rounded corners*
20,1,$1+$1,$2,$3,$4,$5,0*
20,1,$1+$1,$4,$5,$6,$7,0*
20,1,$1+$1,$6,$7,$8,$9,0*
20,1,$1+$1,$8,$9,$2,$3,0*%
%AMRotRect*
0 Rectangle, with rotation*
0 The origin of the aperture is its center*
0 $1 length*
0 $2 width*
0 $3 Rotation angle, in degrees counterclockwise*
0 Add horizontal line*
21,1,$1,$2,0,0,$3*%
%AMFreePoly0*
4,1,9,3.862500,-0.866500,0.737500,-0.866500,0.737500,-0.450000,-0.737500,-0.450000,-0.737500,0.450000,0.737500,0.450000,0.737500,0.866500,3.862500,0.866500,3.862500,-0.866500,3.862500,-0.866500,$1*%
G04 Aperture macros list end*
%ADD10RoundRect,0.250000X0.262500X0.450000X-0.262500X0.450000X-0.262500X-0.450000X0.262500X-0.450000X0*%
%ADD11RoundRect,0.250000X-0.450000X0.262500X-0.450000X-0.262500X0.450000X-0.262500X0.450000X0.262500X0*%
%ADD12RoundRect,0.250000X-0.250000X-0.475000X0.250000X-0.475000X0.250000X0.475000X-0.250000X0.475000X0*%
%ADD13RoundRect,0.250000X0.250000X0.475000X-0.250000X0.475000X-0.250000X-0.475000X0.250000X-0.475000X0*%
%ADD14RoundRect,0.250000X-0.262500X-0.450000X0.262500X-0.450000X0.262500X0.450000X-0.262500X0.450000X0*%
%ADD15RoundRect,0.100000X0.637500X0.100000X-0.637500X0.100000X-0.637500X-0.100000X0.637500X-0.100000X0*%
%ADD16RoundRect,0.150000X0.150000X-0.512500X0.150000X0.512500X-0.150000X0.512500X-0.150000X-0.512500X0*%
%ADD17RoundRect,0.250000X-0.325000X-0.650000X0.325000X-0.650000X0.325000X0.650000X-0.325000X0.650000X0*%
%ADD18RoundRect,0.243750X-0.243750X-0.456250X0.243750X-0.456250X0.243750X0.456250X-0.243750X0.456250X0*%
%ADD19R,1.240000X0.600000*%
%ADD20R,1.240000X0.300000*%
%ADD21RoundRect,0.250000X-0.475000X0.250000X-0.475000X-0.250000X0.475000X-0.250000X0.475000X0.250000X0*%
%ADD22RoundRect,0.250000X0.450000X-0.262500X0.450000X0.262500X-0.450000X0.262500X-0.450000X-0.262500X0*%
%ADD23RoundRect,0.150000X-0.587500X-0.150000X0.587500X-0.150000X0.587500X0.150000X-0.587500X0.150000X0*%
%ADD24R,1.800000X1.100000*%
%ADD25RoundRect,0.150000X0.150000X-0.587500X0.150000X0.587500X-0.150000X0.587500X-0.150000X-0.587500X0*%
%ADD26RoundRect,0.225000X-0.225000X0.425000X-0.225000X-0.425000X0.225000X-0.425000X0.225000X0.425000X0*%
%ADD27FreePoly0,270.000000*%
%ADD28RoundRect,0.243750X-0.456250X0.243750X-0.456250X-0.243750X0.456250X-0.243750X0.456250X0.243750X0*%
%ADD29RoundRect,0.243750X0.456250X-0.243750X0.456250X0.243750X-0.456250X0.243750X-0.456250X-0.243750X0*%
%ADD30RoundRect,0.175000X0.325000X-0.175000X0.325000X0.175000X-0.325000X0.175000X-0.325000X-0.175000X0*%
%ADD31RoundRect,0.150000X0.150000X-0.200000X0.150000X0.200000X-0.150000X0.200000X-0.150000X-0.200000X0*%
%ADD32RoundRect,0.250000X0.475000X-0.250000X0.475000X0.250000X-0.475000X0.250000X-0.475000X-0.250000X0*%
%ADD33RoundRect,0.225000X0.327703X0.075733X-0.040915X0.333843X-0.327703X-0.075733X0.040915X-0.333843X0*%
%ADD34RoundRect,0.150000X0.587500X0.150000X-0.587500X0.150000X-0.587500X-0.150000X0.587500X-0.150000X0*%
%ADD35RoundRect,0.218750X-0.218750X-0.256250X0.218750X-0.256250X0.218750X0.256250X-0.218750X0.256250X0*%
%ADD36RotRect,1.400000X1.200000X55.000000*%
%ADD37RoundRect,0.075000X-0.662500X-0.075000X0.662500X-0.075000X0.662500X0.075000X-0.662500X0.075000X0*%
%ADD38RoundRect,0.075000X-0.075000X-0.662500X0.075000X-0.662500X0.075000X0.662500X-0.075000X0.662500X0*%
%ADD39RoundRect,0.250000X0.325000X0.650000X-0.325000X0.650000X-0.325000X-0.650000X0.325000X-0.650000X0*%
%ADD40RoundRect,0.225000X0.075733X-0.327703X0.333843X0.040915X-0.075733X0.327703X-0.333843X-0.040915X0*%
%ADD41RoundRect,0.375000X-0.625000X-0.375000X0.625000X-0.375000X0.625000X0.375000X-0.625000X0.375000X0*%
%ADD42RoundRect,0.500000X-0.500000X-1.400000X0.500000X-1.400000X0.500000X1.400000X-0.500000X1.400000X0*%
G04 APERTURE END LIST*
D10*
%TO.C,R39*%
X95412500Y-96600000D03*
X93587500Y-96600000D03*
%TD*%
D11*
%TO.C,R22*%
X72200000Y-74212500D03*
X72200000Y-76037500D03*
%TD*%
D12*
%TO.C,C8*%
X75550000Y-84500000D03*
X77450000Y-84500000D03*
%TD*%
D13*
%TO.C,C22*%
X99787500Y-94050000D03*
X97887500Y-94050000D03*
%TD*%
D14*
%TO.C,R12*%
X78062500Y-93550000D03*
X79887500Y-93550000D03*
%TD*%
D15*
%TO.C,U6*%
X99562500Y-92050000D03*
X99562500Y-91400000D03*
X99562500Y-90750000D03*
X99562500Y-90100000D03*
X99562500Y-89450000D03*
X99562500Y-88800000D03*
X99562500Y-88150000D03*
X93837500Y-88150000D03*
X93837500Y-88800000D03*
X93837500Y-89450000D03*
X93837500Y-90100000D03*
X93837500Y-90750000D03*
X93837500Y-91400000D03*
X93837500Y-92050000D03*
%TD*%
D16*
%TO.C,U4*%
X48012500Y-82050000D03*
X48962500Y-82050000D03*
X49912500Y-82050000D03*
X49912500Y-79775000D03*
X48012500Y-79775000D03*
%TD*%
D17*
%TO.C,C18*%
X54325000Y-77300000D03*
X57275000Y-77300000D03*
%TD*%
D14*
%TO.C,R28*%
X43262500Y-97400000D03*
X45087500Y-97400000D03*
%TD*%
D18*
%TO.C,D3*%
X79450000Y-104300000D03*
X81325000Y-104300000D03*
%TD*%
D19*
%TO.C,J4*%
X43725000Y-86800000D03*
X43725000Y-87600000D03*
D20*
X43725000Y-88750000D03*
X43725000Y-89750000D03*
X43725000Y-90250000D03*
X43725000Y-91250000D03*
D19*
X43725000Y-92400000D03*
X43725000Y-93200000D03*
X43725000Y-93200000D03*
X43725000Y-92400000D03*
D20*
X43725000Y-91750000D03*
X43725000Y-90750000D03*
X43725000Y-89250000D03*
X43725000Y-88250000D03*
D19*
X43725000Y-87600000D03*
X43725000Y-86800000D03*
%TD*%
D21*
%TO.C,C1*%
X62000000Y-98350000D03*
X62000000Y-100250000D03*
%TD*%
D22*
%TO.C,R45*%
X102100000Y-103212500D03*
X102100000Y-101387500D03*
%TD*%
D23*
%TO.C,Q3*%
X43250000Y-101650000D03*
X43250000Y-103550000D03*
X45125000Y-102600000D03*
%TD*%
D10*
%TO.C,R7*%
X57312500Y-104700000D03*
X55487500Y-104700000D03*
%TD*%
D11*
%TO.C,R6*%
X82200000Y-83887500D03*
X82200000Y-85712500D03*
%TD*%
D14*
%TO.C,R30*%
X47587500Y-103300000D03*
X49412500Y-103300000D03*
%TD*%
D21*
%TO.C,C5*%
X75800000Y-94750000D03*
X75800000Y-96650000D03*
%TD*%
D22*
%TO.C,R21*%
X62400000Y-76037500D03*
X62400000Y-74212500D03*
%TD*%
%TO.C,R4*%
X62000000Y-96512500D03*
X62000000Y-94687500D03*
%TD*%
D14*
%TO.C,R23*%
X64687500Y-78225000D03*
X66512500Y-78225000D03*
%TD*%
D24*
%TO.C,SW1*%
X59300000Y-100050000D03*
X53100000Y-100050000D03*
X59300000Y-96350000D03*
X53100000Y-96350000D03*
%TD*%
D14*
%TO.C,R40*%
X89887500Y-95500000D03*
X91712500Y-95500000D03*
%TD*%
D22*
%TO.C,R29*%
X40987500Y-103012500D03*
X40987500Y-101187500D03*
%TD*%
D10*
%TO.C,R31*%
X49400000Y-101100000D03*
X47575000Y-101100000D03*
%TD*%
D25*
%TO.C,Q2*%
X68450000Y-76262500D03*
X70350000Y-76262500D03*
X69400000Y-74387500D03*
%TD*%
D23*
%TO.C,Q8*%
X97625000Y-102250000D03*
X97625000Y-104150000D03*
X99500000Y-103200000D03*
%TD*%
D22*
%TO.C,R38*%
X102100000Y-98212500D03*
X102100000Y-96387500D03*
%TD*%
D26*
%TO.C,U5*%
X45200000Y-75650000D03*
D27*
X43700000Y-75737500D03*
D26*
X42200000Y-75650000D03*
%TD*%
D10*
%TO.C,R42*%
X96052500Y-74400000D03*
X94227500Y-74400000D03*
%TD*%
D14*
%TO.C,R10*%
X81887500Y-92200000D03*
X83712500Y-92200000D03*
%TD*%
D28*
%TO.C,D4*%
X80100000Y-80062500D03*
X80100000Y-81937500D03*
%TD*%
D29*
%TO.C,D6*%
X74200000Y-76062500D03*
X74200000Y-74187500D03*
%TD*%
D30*
%TO.C,D8*%
X47950000Y-90900000D03*
D31*
X49650000Y-90900000D03*
X49650000Y-88900000D03*
X47750000Y-88900000D03*
%TD*%
D32*
%TO.C,C11*%
X47800000Y-94850000D03*
X47800000Y-92950000D03*
%TD*%
%TO.C,C12*%
X48000000Y-74550000D03*
X48000000Y-72650000D03*
%TD*%
D14*
%TO.C,R17*%
X51887500Y-91200000D03*
X53712500Y-91200000D03*
%TD*%
D33*
%TO.C,C3*%
X58897343Y-92694522D03*
X57627657Y-91805478D03*
%TD*%
D34*
%TO.C,Q6*%
X95275000Y-100450000D03*
X95275000Y-98550000D03*
X93400000Y-99500000D03*
%TD*%
D28*
%TO.C,D5*%
X82200000Y-80062500D03*
X82200000Y-81937500D03*
%TD*%
D14*
%TO.C,R2*%
X75475000Y-106300000D03*
X77300000Y-106300000D03*
%TD*%
D13*
%TO.C,C7*%
X63912500Y-92050000D03*
X62012500Y-92050000D03*
%TD*%
D22*
%TO.C,R18*%
X64100000Y-96512500D03*
X64100000Y-94687500D03*
%TD*%
D12*
%TO.C,C23*%
X93587500Y-94050000D03*
X95487500Y-94050000D03*
%TD*%
D35*
%TO.C,FB1*%
X47712500Y-86900000D03*
X49287500Y-86900000D03*
%TD*%
D10*
%TO.C,R41*%
X90852500Y-74400000D03*
X89027500Y-74400000D03*
%TD*%
D13*
%TO.C,C9*%
X64650000Y-86300000D03*
X62750000Y-86300000D03*
%TD*%
D11*
%TO.C,R27*%
X40987500Y-97187500D03*
X40987500Y-99012500D03*
%TD*%
D16*
%TO.C,U3*%
X54250000Y-82037500D03*
X55200000Y-82037500D03*
X56150000Y-82037500D03*
X56150000Y-79762500D03*
X54250000Y-79762500D03*
%TD*%
D14*
%TO.C,R32*%
X43262500Y-99600000D03*
X45087500Y-99600000D03*
%TD*%
D11*
%TO.C,R36*%
X90337500Y-86137500D03*
X90337500Y-87962500D03*
%TD*%
D23*
%TO.C,Q7*%
X93425000Y-102250000D03*
X93425000Y-104150000D03*
X95300000Y-103200000D03*
%TD*%
D14*
%TO.C,R1*%
X75475000Y-108300000D03*
X77300000Y-108300000D03*
%TD*%
%TO.C,R33*%
X97925000Y-86150000D03*
X99750000Y-86150000D03*
%TD*%
D21*
%TO.C,C16*%
X58300000Y-79650000D03*
X58300000Y-81550000D03*
%TD*%
D18*
%TO.C,D2*%
X79450000Y-106300000D03*
X81325000Y-106300000D03*
%TD*%
D14*
%TO.C,R3*%
X75475000Y-104300000D03*
X77300000Y-104300000D03*
%TD*%
D10*
%TO.C,R9*%
X73912500Y-99600000D03*
X72087500Y-99600000D03*
%TD*%
D18*
%TO.C,D1*%
X79450000Y-108300000D03*
X81325000Y-108300000D03*
%TD*%
D32*
%TO.C,C15*%
X48000000Y-70750000D03*
X48000000Y-68850000D03*
%TD*%
D12*
%TO.C,C21*%
X42250000Y-73300000D03*
X44150000Y-73300000D03*
%TD*%
D10*
%TO.C,R14*%
X83712500Y-98200000D03*
X81887500Y-98200000D03*
%TD*%
%TO.C,R8*%
X70012500Y-98500000D03*
X68187500Y-98500000D03*
%TD*%
D36*
%TO.C,Y1*%
X60227845Y-90938607D03*
X61489712Y-89136472D03*
X60097155Y-88161393D03*
X58835288Y-89963528D03*
%TD*%
D37*
%TO.C,U1*%
X66837500Y-87250000D03*
X66837500Y-87750000D03*
X66837500Y-88250000D03*
X66837500Y-88750000D03*
X66837500Y-89250000D03*
X66837500Y-89750000D03*
X66837500Y-90250000D03*
X66837500Y-90750000D03*
X66837500Y-91250000D03*
X66837500Y-91750000D03*
X66837500Y-92250000D03*
X66837500Y-92750000D03*
D38*
X68250000Y-94162500D03*
X68750000Y-94162500D03*
X69250000Y-94162500D03*
X69750000Y-94162500D03*
X70250000Y-94162500D03*
X70750000Y-94162500D03*
X71250000Y-94162500D03*
X71750000Y-94162500D03*
X72250000Y-94162500D03*
X72750000Y-94162500D03*
X73250000Y-94162500D03*
X73750000Y-94162500D03*
D37*
X75162500Y-92750000D03*
X75162500Y-92250000D03*
X75162500Y-91750000D03*
X75162500Y-91250000D03*
X75162500Y-90750000D03*
X75162500Y-90250000D03*
X75162500Y-89750000D03*
X75162500Y-89250000D03*
X75162500Y-88750000D03*
X75162500Y-88250000D03*
X75162500Y-87750000D03*
X75162500Y-87250000D03*
D38*
X73750000Y-85837500D03*
X73250000Y-85837500D03*
X72750000Y-85837500D03*
X72250000Y-85837500D03*
X71750000Y-85837500D03*
X71250000Y-85837500D03*
X70750000Y-85837500D03*
X70250000Y-85837500D03*
X69750000Y-85837500D03*
X69250000Y-85837500D03*
X68750000Y-85837500D03*
X68250000Y-85837500D03*
%TD*%
D13*
%TO.C,C10*%
X62600000Y-78225000D03*
X60700000Y-78225000D03*
%TD*%
D22*
%TO.C,R44*%
X91200000Y-100412500D03*
X91200000Y-98587500D03*
%TD*%
%TO.C,R19*%
X64100000Y-100212500D03*
X64100000Y-98387500D03*
%TD*%
D34*
%TO.C,Q5*%
X99475000Y-100450000D03*
X99475000Y-98550000D03*
X97600000Y-99500000D03*
%TD*%
D10*
%TO.C,R15*%
X83712500Y-96200000D03*
X81887500Y-96200000D03*
%TD*%
D14*
%TO.C,R20*%
X72287500Y-78225000D03*
X74112500Y-78225000D03*
%TD*%
D11*
%TO.C,R24*%
X64600000Y-74212500D03*
X64600000Y-76037500D03*
%TD*%
D17*
%TO.C,C19*%
X48037500Y-77350000D03*
X50987500Y-77350000D03*
%TD*%
D14*
%TO.C,R34*%
X93625000Y-86150000D03*
X95450000Y-86150000D03*
%TD*%
D39*
%TO.C,C6*%
X65800000Y-84100000D03*
X62850000Y-84100000D03*
%TD*%
D11*
%TO.C,R43*%
X91200000Y-102287500D03*
X91200000Y-104112500D03*
%TD*%
D25*
%TO.C,Q1*%
X76050000Y-76262500D03*
X77950000Y-76262500D03*
X77000000Y-74387500D03*
%TD*%
D40*
%TO.C,C2*%
X57217978Y-88584843D03*
X58107022Y-87315157D03*
%TD*%
D14*
%TO.C,R11*%
X81887500Y-94200000D03*
X83712500Y-94200000D03*
%TD*%
D11*
%TO.C,R26*%
X43100000Y-80887500D03*
X43100000Y-82712500D03*
%TD*%
D21*
%TO.C,C20*%
X45200000Y-80850000D03*
X45200000Y-82750000D03*
%TD*%
D17*
%TO.C,C14*%
X48037500Y-84450000D03*
X50987500Y-84450000D03*
%TD*%
%TO.C,C13*%
X54325000Y-84500000D03*
X57275000Y-84500000D03*
%TD*%
D34*
%TO.C,Q4*%
X49162500Y-99050000D03*
X49162500Y-97150000D03*
X47287500Y-98100000D03*
%TD*%
D11*
%TO.C,R25*%
X41000000Y-80887500D03*
X41000000Y-82712500D03*
%TD*%
D29*
%TO.C,D7*%
X66600000Y-76062500D03*
X66600000Y-74187500D03*
%TD*%
D14*
%TO.C,R13*%
X81887500Y-90200000D03*
X83712500Y-90200000D03*
%TD*%
D10*
%TO.C,R5*%
X77412500Y-81700000D03*
X75587500Y-81700000D03*
%TD*%
D14*
%TO.C,R37*%
X97887500Y-96600000D03*
X99712500Y-96600000D03*
%TD*%
D21*
%TO.C,C17*%
X52012500Y-79700000D03*
X52012500Y-81600000D03*
%TD*%
D41*
%TO.C,U2*%
X50550000Y-69400000D03*
X50550000Y-71700000D03*
D42*
X56850000Y-71700000D03*
D41*
X50550000Y-74000000D03*
%TD*%
D14*
%TO.C,R16*%
X51887500Y-89100000D03*
X53712500Y-89100000D03*
%TD*%
D11*
%TO.C,R35*%
X90337500Y-90137500D03*
X90337500Y-91962500D03*
%TD*%
M02*
