M48
; DRILL file {KiCad 8.0.4} date 2024-08-18T22:57:52+0800
; FORMAT={-:-/ absolute / inch / decimal}
; #@! TF.CreationDate,2024-08-18T22:57:52+08:00
; #@! TF.GenerationSoftware,Kicad,Pcbnew,8.0.4
; #@! TF.FileFunction,Plated,1,2,PTH
FMAT,2
INCH
; #@! TA.AperFunction,Plated,PTH,ViaDrill
T1C0.0118
; #@! TA.AperFunction,Plated,PTH,ComponentDrill
T2C0.0197
; #@! TA.AperFunction,Plated,PTH,ComponentDrill
T3C0.0236
; #@! TA.AperFunction,Plated,PTH,ComponentDrill
T4C0.0394
; #@! TA.AperFunction,Plated,PTH,ComponentDrill
T5C0.1260
%
G90
G05
T1
X1.4921Y-3.9921
X1.4921Y-4.0748
X1.5315Y-3.8268
X1.5315Y-3.9016
X1.5354Y-3.0118
X1.5354Y-3.185
X1.5394Y-2.8858
X1.5472Y-3.4488
X1.5472Y-3.6102
X1.6142Y-3.7835
X1.6378Y-3.5276
X1.6535Y-3.0709
X1.6535Y-3.1845
X1.6614Y-3.8661
X1.6693Y-3.7717
X1.6732Y-3.5551
X1.6969Y-3.311
X1.7008Y-4.0433
X1.7047Y-2.9252
X1.7598Y-4.0787
X1.7638Y-3.9882
X1.7717Y-4.1811
X1.7756Y-3.689
X1.7795Y-3.4488
X1.7795Y-3.6378
X1.7835Y-2.8819
X1.7835Y-2.9252
X1.7874Y-3.0748
X1.8071Y-3.3307
X1.8071Y-3.3937
X1.811Y-3.7717
X1.8189Y-3.9882
X1.8228Y-2.7717
X1.8228Y-4.0787
X1.8268Y-2.9134
X1.8268Y-3.5866
X1.8346Y-2.8661
X1.8386Y-3.0551
X1.8386Y-3.2362
X1.8465Y-3.1417
X1.874Y-3.9094
X1.8799Y-4.1811
X1.8819Y-2.9843
X1.8819Y-3.6181
X1.8819Y-3.7835
X1.8819Y-4.3386
X1.8858Y-2.626
X1.9173Y-3.4646
X1.9291Y-3.1614
X1.937Y-2.8661
X1.9449Y-3.8543
X1.9488Y-3.6654
X1.9488Y-3.7244
X1.9528Y-3.3248
X1.9567Y-3.0394
X1.9764Y-4.0669
X1.9882Y-4.1811
X1.9961Y-3.437
X1.9961Y-3.5394
X1.9961Y-3.6142
X2.0Y-3.6929
X2.0118Y-3.8858
X2.0118Y-3.9449
X2.0123Y-3.2579
X2.0236Y-3.7992
X2.0276Y-4.122
X2.0354Y-4.0118
X2.0433Y-2.8701
X2.0591Y-2.8228
X2.0591Y-2.9882
X2.0591Y-3.6535
X2.0669Y-3.2835
X2.0709Y-3.0276
X2.0709Y-3.0866
X2.0827Y-2.7008
X2.0827Y-2.7638
X2.0827Y-2.8228
X2.0827Y-2.9882
X2.0827Y-3.3386
X2.0945Y-3.437
X2.0984Y-3.1772
X2.0989Y-2.626
X2.1181Y-4.0118
X2.122Y-3.6378
X2.122Y-3.6929
X2.126Y-4.1181
X2.1299Y-2.8701
X2.1299Y-2.9252
X2.1299Y-2.9803
X2.1535Y-3.5083
X2.1693Y-3.4409
X2.1732Y-2.6929
X2.1732Y-3.0315
X2.1732Y-3.0551
X2.1732Y-3.1614
X2.189Y-3.5354
X2.189Y-3.626
X2.1929Y-3.9843
X2.1929Y-4.0197
X2.1929Y-4.3622
X2.1969Y-2.6929
X2.1969Y-3.3268
X2.2165Y-2.9291
X2.2165Y-2.9764
X2.2244Y-3.6929
X2.2244Y-3.7756
X2.2244Y-3.8504
X2.2244Y-3.937
X2.2244Y-4.1693
X2.2283Y-4.0433
X2.2441Y-3.5512
X2.248Y-3.3976
X2.2598Y-3.6693
X2.2618Y-3.2623
X2.2717Y-3.937
X2.3031Y-2.9055
X2.3119Y-2.626
X2.315Y-3.3307
X2.3189Y-3.0197
X2.3189Y-3.0709
X2.3268Y-2.9646
X2.3307Y-4.0512
X2.3307Y-4.1378
X2.3346Y-2.7362
X2.3346Y-2.7835
X2.3346Y-3.4016
X2.3425Y-3.6929
X2.3504Y-3.2717
X2.378Y-4.1969
X2.3819Y-2.9567
X2.3858Y-3.9764
X2.3898Y-3.1693
X2.3898Y-3.3268
X2.3937Y-3.6339
X2.3937Y-3.8346
X2.3976Y-3.0276
X2.3976Y-3.7638
X2.4016Y-4.0138
X2.4016Y-4.1043
X2.4173Y-3.4134
X2.4173Y-4.1496
X2.4291Y-3.2362
X2.4646Y-3.0325
X2.4646Y-3.5276
X2.4685Y-4.3622
X2.4724Y-3.6811
X2.4724Y-4.1969
X2.4764Y-3.1339
X2.4764Y-4.122
X2.4843Y-3.9803
X2.4882Y-3.248
X2.5Y-3.2008
X2.5118Y-3.4685
X2.5157Y-2.878
X2.5157Y-2.9016
X2.5157Y-3.5669
X2.5197Y-3.6654
X2.5197Y-3.689
X2.5249Y-2.626
X2.5394Y-2.878
X2.5394Y-2.9016
X2.5551Y-3.2874
X2.5551Y-3.311
X2.5551Y-3.3346
X2.563Y-2.878
X2.563Y-2.9016
X2.563Y-4.1142
X2.563Y-4.1732
X2.5709Y-3.6732
X2.5709Y-3.7638
X2.5787Y-3.8386
X2.5787Y-3.9454
X2.5787Y-3.9803
X2.5827Y-2.8386
X2.5827Y-3.0364
X2.5827Y-3.2008
X2.5945Y-3.248
X2.6102Y-3.7638
X2.6102Y-3.874
X2.6142Y-3.685
X2.6142Y-3.9449
X2.6142Y-3.9803
X2.626Y-4.1142
X2.626Y-4.1811
X2.6299Y-3.7992
X2.6417Y-3.8386
X2.6457Y-3.2008
X2.6457Y-3.248
X2.6476Y-4.0138
X2.6732Y-3.9291
X2.6772Y-3.0748
X2.6811Y-3.1368
X2.6811Y-3.5531
X2.6849Y-4.0866
X2.685Y-2.7402
X2.685Y-2.8386
X2.689Y-3.6122
X2.6929Y-4.1417
X2.7087Y-3.5787
X2.7126Y-3.4409
X2.7126Y-3.7598
X2.7126Y-4.1028
X2.7362Y-3.001
X2.7362Y-3.1772
X2.7362Y-3.2441
X2.7362Y-3.311
X2.738Y-2.626
X2.7402Y-3.7756
X2.7402Y-4.0866
X2.7618Y-3.439
X2.7618Y-3.4705
X2.7677Y-4.1024
X2.7717Y-3.7756
X2.7756Y-2.9252
X2.7795Y-3.0551
X2.7953Y-3.5866
X2.7953Y-3.6496
X2.7953Y-3.8622
X2.7953Y-3.9961
X2.7953Y-4.3583
X2.7992Y-3.7598
X2.8017Y-3.5478
X2.8071Y-3.0797
X2.8071Y-3.1112
X2.8228Y-4.1575
X2.8258Y-3.5276
X2.8268Y-3.7756
X2.8504Y-3.5079
X2.8504Y-3.6181
X2.8524Y-3.1417
X2.8524Y-3.4281
X2.8622Y-3.8031
X2.8661Y-3.7638
X2.872Y-3.3144
X2.874Y-3.9961
X2.8819Y-3.0364
X2.8819Y-3.9213
X2.8858Y-3.4764
X2.8976Y-3.5866
X2.8976Y-3.6496
X2.9016Y-3.2008
X2.9055Y-4.2244
X2.9134Y-4.3543
X2.9213Y-3.1457
X2.9252Y-3.315
X2.9291Y-3.7638
X2.9291Y-3.8031
X2.9429Y-3.9961
X2.9449Y-3.2717
X2.951Y-2.626
X2.9606Y-3.1142
X2.9606Y-3.1614
X2.9606Y-3.9134
X2.9724Y-3.6929
X2.9764Y-2.8386
X2.9764Y-3.3701
X2.9961Y-3.6929
X3.0Y-2.874
X3.0118Y-3.9134
X3.0118Y-3.9961
X3.0236Y-3.4488
X3.0315Y-3.3898
X3.0354Y-3.001
X3.0433Y-3.5138
X3.0439Y-4.0335
X3.0472Y-4.3583
X3.0512Y-3.0787
X3.0591Y-3.1457
X3.0669Y-3.2717
X3.0709Y-2.9134
X3.0709Y-3.4941
X3.0709Y-4.0551
X3.0984Y-3.185
X3.1024Y-3.378
X3.1024Y-3.4488
X3.1102Y-3.5315
X3.1102Y-3.7441
X3.1142Y-3.9823
X3.1142Y-4.0433
X3.1181Y-3.7992
X3.1181Y-3.9134
X3.1339Y-3.1024
X3.1378Y-3.3228
X3.1378Y-3.4882
X3.1535Y-2.9213
X3.1535Y-3.7992
X3.164Y-2.626
X3.1654Y-3.7441
X3.1732Y-3.374
X3.1732Y-3.5551
X3.1732Y-3.6063
X3.1772Y-3.9488
X3.1772Y-4.0276
X3.1811Y-3.6831
X3.185Y-3.3346
X3.1929Y-3.2677
X3.2047Y-3.4921
X3.2087Y-2.7874
X3.2126Y-2.9213
X3.2126Y-3.0394
X3.2165Y-3.4291
X3.2559Y-3.4921
X3.2559Y-4.3386
X3.2835Y-3.9488
X3.2835Y-4.0276
X3.2953Y-2.5748
X3.3031Y-3.5
X3.3071Y-3.1024
X3.3071Y-3.2559
X3.3071Y-3.3465
X3.3071Y-3.4173
X3.3317Y-3.8258
X3.3346Y-2.7835
X3.3346Y-3.4685
X3.3504Y-2.9213
X3.3504Y-3.0394
X3.3504Y-3.1457
X3.3771Y-2.626
X3.4055Y-2.874
X3.4055Y-2.8976
X3.4055Y-2.9213
X3.4055Y-4.0276
X3.4134Y-4.3386
X3.4291Y-2.7835
X3.4528Y-2.9252
X3.4528Y-3.0354
X3.4528Y-3.1457
X3.4882Y-3.2913
X3.4882Y-3.3504
X3.4882Y-3.7205
X3.4921Y-3.4291
X3.4961Y-4.0512
X3.5039Y-3.8386
X3.5039Y-3.9016
X3.5039Y-3.9843
X3.5236Y-4.1693
X3.5315Y-3.1496
X3.5433Y-2.878
X3.5551Y-3.249
X3.5551Y-3.2717
X3.5591Y-4.2165
X3.5591Y-4.3386
X3.5709Y-3.0394
X3.5748Y-3.7126
X3.5901Y-2.626
X3.5945Y-4.1693
X3.6024Y-3.8071
X3.6142Y-3.5728
X3.622Y-3.2677
X3.626Y-3.3268
X3.626Y-3.4646
X3.6378Y-3.8819
X3.6378Y-4.2559
X3.6417Y-2.9055
X3.6417Y-2.9291
X3.6457Y-3.7126
X3.6457Y-3.7362
X3.6457Y-3.7598
X3.6772Y-4.1693
X3.6772Y-4.2165
X3.685Y-3.9606
X3.7087Y-3.1535
X3.7205Y-3.752
X3.7205Y-3.8465
X3.7244Y-3.2677
X3.7362Y-3.0394
X3.7362Y-4.3386
X3.752Y-2.9764
X3.7559Y-4.1024
X3.7795Y-3.9134
X3.7835Y-3.5
X3.7835Y-3.563
X3.7835Y-3.626
X3.7874Y-3.0394
X3.7874Y-4.2638
X3.8031Y-2.626
X3.8071Y-3.3425
X3.8071Y-3.4331
X3.8071Y-3.7047
X3.8071Y-3.7953
X3.8228Y-2.9173
X3.8228Y-2.9409
X3.8346Y-3.2677
X3.8386Y-3.9724
X3.8543Y-3.1457
X3.8543Y-3.752
X3.8622Y-3.8543
X3.8701Y-2.9843
X3.878Y-3.3228
X3.9173Y-4.0157
X3.9173Y-4.1063
X3.937Y-3.6535
X3.937Y-3.9173
X3.9528Y-3.2323
X3.9567Y-3.752
X3.9626Y-3.3917
X3.9646Y-3.3307
X3.9724Y-3.8307
X3.9764Y-3.4803
X3.9882Y-3.6378
X4.0039Y-2.9331
X4.0197Y-3.9488
X4.0276Y-3.1339
X4.0472Y-3.4803
X4.0787Y-3.7323
X4.1614Y-2.9331
X4.1614Y-3.1024
X4.189Y-4.0472
X4.2008Y-3.5984
T2
X1.5Y-2.6969
X1.5Y-4.2913
X1.5277Y-2.63
X1.5277Y-2.7637
X1.5277Y-4.2245
X1.5277Y-4.3582
X1.5945Y-2.6024
X1.5945Y-2.7913
X1.5945Y-4.1969
X1.5945Y-4.3858
X1.6613Y-2.63
X1.6613Y-2.7637
X1.6613Y-4.2245
X1.6613Y-4.3582
X1.689Y-2.6969
X1.689Y-4.2913
X3.9606Y-2.6969
X3.9606Y-4.2913
X3.9883Y-2.63
X3.9883Y-2.7637
X3.9883Y-4.2245
X3.9883Y-4.3582
X4.0551Y-2.6024
X4.0551Y-2.7913
X4.0551Y-4.1969
X4.0551Y-4.3858
X4.1219Y-2.63
X4.1219Y-2.7637
X4.1219Y-4.2245
X4.1219Y-4.3582
X4.1496Y-2.6969
X4.1496Y-4.2913
T4
X2.0835Y-4.2402
X2.1835Y-4.2402
X2.2835Y-4.2402
X2.4339Y-2.7953
X2.5339Y-2.7953
X2.5614Y-4.2402
X2.6339Y-2.7953
X2.6614Y-4.2402
X2.7339Y-2.7953
X2.7614Y-4.2402
X2.8339Y-2.7953
X2.9339Y-2.7953
X3.0339Y-2.7953
X3.1339Y-2.7953
X3.4055Y-3.249
X3.4055Y-3.349
X3.4055Y-3.449
X3.4055Y-3.549
X3.4055Y-3.649
X3.4055Y-3.749
X3.4055Y-3.849
X3.4055Y-3.949
X3.5417Y-2.7953
X3.6417Y-2.7953
X3.7417Y-2.7953
X4.1417Y-3.2451
X4.1417Y-3.3451
X4.1417Y-3.4451
X4.1417Y-3.5451
X4.1417Y-3.6451
X4.1417Y-3.7451
X4.1417Y-3.8451
X4.1417Y-3.9451
T5
X1.5945Y-2.6969
X1.5945Y-4.2913
X4.0551Y-2.6969
X4.0551Y-4.2913
T3
G00X1.5482Y-3.3732
M15
G01X1.5167Y-3.3732
M16
G05
G00X1.5482Y-3.7134
M15
G01X1.5167Y-3.7134
M16
G05
G00X1.7195Y-3.3732
M15
G01X1.6762Y-3.3732
M16
G05
G00X1.7195Y-3.7134
M15
G01X1.6762Y-3.7134
M16
G05
M30
