%TF.GenerationSoftware,KiCad,Pcbnew,8.0.4*%
%TF.CreationDate,2024-08-18T22:57:51+08:00*%
%TF.ProjectId,DapLink_STM32F103CBT6,4461704c-696e-46b5-9f53-544d33324631,rev?*%
%TF.SameCoordinates,Original*%
%TF.FileFunction,Drillmap*%
%TF.FilePolarity,Positive*%
%FSLAX45Y45*%
G04 Gerber Fmt 4.5, Leading zero omitted, Abs format (unit mm)*
G04 Created by KiCad (PCBNEW 8.0.4) date 2024-08-18 22:57:51*
%MOMM*%
%LPD*%
G01*
G04 APERTURE LIST*
%ADD10C,0.200000*%
%ADD11C,0.100000*%
G04 APERTURE END LIST*
D10*
X3600000Y-6400000D02*
X10850000Y-6400000D01*
X10850000Y-11350000D01*
X3600000Y-11350000D01*
X3600000Y-6400000D01*
D11*
X4228000Y-8678500D02*
X4293000Y-8743500D01*
X4293000Y-8678500D02*
X4228000Y-8743500D01*
X4228000Y-9256500D02*
X4293000Y-9321500D01*
X4293000Y-9256500D02*
X4228000Y-9321500D01*
D10*
X3850777Y-11671484D02*
X3850777Y-11471484D01*
X3850777Y-11471484D02*
X3898396Y-11471484D01*
X3898396Y-11471484D02*
X3926967Y-11481008D01*
X3926967Y-11481008D02*
X3946015Y-11500055D01*
X3946015Y-11500055D02*
X3955539Y-11519103D01*
X3955539Y-11519103D02*
X3965062Y-11557198D01*
X3965062Y-11557198D02*
X3965062Y-11585769D01*
X3965062Y-11585769D02*
X3955539Y-11623865D01*
X3955539Y-11623865D02*
X3946015Y-11642912D01*
X3946015Y-11642912D02*
X3926967Y-11661960D01*
X3926967Y-11661960D02*
X3898396Y-11671484D01*
X3898396Y-11671484D02*
X3850777Y-11671484D01*
X4050777Y-11671484D02*
X4050777Y-11538150D01*
X4050777Y-11576246D02*
X4060301Y-11557198D01*
X4060301Y-11557198D02*
X4069824Y-11547674D01*
X4069824Y-11547674D02*
X4088872Y-11538150D01*
X4088872Y-11538150D02*
X4107920Y-11538150D01*
X4174586Y-11671484D02*
X4174586Y-11538150D01*
X4174586Y-11471484D02*
X4165062Y-11481008D01*
X4165062Y-11481008D02*
X4174586Y-11490531D01*
X4174586Y-11490531D02*
X4184110Y-11481008D01*
X4184110Y-11481008D02*
X4174586Y-11471484D01*
X4174586Y-11471484D02*
X4174586Y-11490531D01*
X4298396Y-11671484D02*
X4279348Y-11661960D01*
X4279348Y-11661960D02*
X4269824Y-11642912D01*
X4269824Y-11642912D02*
X4269824Y-11471484D01*
X4403158Y-11671484D02*
X4384110Y-11661960D01*
X4384110Y-11661960D02*
X4374586Y-11642912D01*
X4374586Y-11642912D02*
X4374586Y-11471484D01*
X4631729Y-11671484D02*
X4631729Y-11471484D01*
X4631729Y-11471484D02*
X4698396Y-11614341D01*
X4698396Y-11614341D02*
X4765063Y-11471484D01*
X4765063Y-11471484D02*
X4765063Y-11671484D01*
X4946015Y-11671484D02*
X4946015Y-11566722D01*
X4946015Y-11566722D02*
X4936491Y-11547674D01*
X4936491Y-11547674D02*
X4917444Y-11538150D01*
X4917444Y-11538150D02*
X4879348Y-11538150D01*
X4879348Y-11538150D02*
X4860301Y-11547674D01*
X4946015Y-11661960D02*
X4926967Y-11671484D01*
X4926967Y-11671484D02*
X4879348Y-11671484D01*
X4879348Y-11671484D02*
X4860301Y-11661960D01*
X4860301Y-11661960D02*
X4850777Y-11642912D01*
X4850777Y-11642912D02*
X4850777Y-11623865D01*
X4850777Y-11623865D02*
X4860301Y-11604817D01*
X4860301Y-11604817D02*
X4879348Y-11595293D01*
X4879348Y-11595293D02*
X4926967Y-11595293D01*
X4926967Y-11595293D02*
X4946015Y-11585769D01*
X5041253Y-11538150D02*
X5041253Y-11738150D01*
X5041253Y-11547674D02*
X5060301Y-11538150D01*
X5060301Y-11538150D02*
X5098396Y-11538150D01*
X5098396Y-11538150D02*
X5117444Y-11547674D01*
X5117444Y-11547674D02*
X5126967Y-11557198D01*
X5126967Y-11557198D02*
X5136491Y-11576246D01*
X5136491Y-11576246D02*
X5136491Y-11633388D01*
X5136491Y-11633388D02*
X5126967Y-11652436D01*
X5126967Y-11652436D02*
X5117444Y-11661960D01*
X5117444Y-11661960D02*
X5098396Y-11671484D01*
X5098396Y-11671484D02*
X5060301Y-11671484D01*
X5060301Y-11671484D02*
X5041253Y-11661960D01*
X5222205Y-11652436D02*
X5231729Y-11661960D01*
X5231729Y-11661960D02*
X5222205Y-11671484D01*
X5222205Y-11671484D02*
X5212682Y-11661960D01*
X5212682Y-11661960D02*
X5222205Y-11652436D01*
X5222205Y-11652436D02*
X5222205Y-11671484D01*
X5222205Y-11547674D02*
X5231729Y-11557198D01*
X5231729Y-11557198D02*
X5222205Y-11566722D01*
X5222205Y-11566722D02*
X5212682Y-11557198D01*
X5212682Y-11557198D02*
X5222205Y-11547674D01*
X5222205Y-11547674D02*
X5222205Y-11566722D01*
D11*
X3525000Y-11967500D02*
X3590000Y-12032500D01*
X3590000Y-11967500D02*
X3525000Y-12032500D01*
D10*
X3888872Y-11891484D02*
X3907920Y-11891484D01*
X3907920Y-11891484D02*
X3926967Y-11901008D01*
X3926967Y-11901008D02*
X3936491Y-11910531D01*
X3936491Y-11910531D02*
X3946015Y-11929579D01*
X3946015Y-11929579D02*
X3955539Y-11967674D01*
X3955539Y-11967674D02*
X3955539Y-12015293D01*
X3955539Y-12015293D02*
X3946015Y-12053388D01*
X3946015Y-12053388D02*
X3936491Y-12072436D01*
X3936491Y-12072436D02*
X3926967Y-12081960D01*
X3926967Y-12081960D02*
X3907920Y-12091484D01*
X3907920Y-12091484D02*
X3888872Y-12091484D01*
X3888872Y-12091484D02*
X3869824Y-12081960D01*
X3869824Y-12081960D02*
X3860301Y-12072436D01*
X3860301Y-12072436D02*
X3850777Y-12053388D01*
X3850777Y-12053388D02*
X3841253Y-12015293D01*
X3841253Y-12015293D02*
X3841253Y-11967674D01*
X3841253Y-11967674D02*
X3850777Y-11929579D01*
X3850777Y-11929579D02*
X3860301Y-11910531D01*
X3860301Y-11910531D02*
X3869824Y-11901008D01*
X3869824Y-11901008D02*
X3888872Y-11891484D01*
X4041253Y-12072436D02*
X4050777Y-12081960D01*
X4050777Y-12081960D02*
X4041253Y-12091484D01*
X4041253Y-12091484D02*
X4031729Y-12081960D01*
X4031729Y-12081960D02*
X4041253Y-12072436D01*
X4041253Y-12072436D02*
X4041253Y-12091484D01*
X4222205Y-11891484D02*
X4184110Y-11891484D01*
X4184110Y-11891484D02*
X4165062Y-11901008D01*
X4165062Y-11901008D02*
X4155539Y-11910531D01*
X4155539Y-11910531D02*
X4136491Y-11939103D01*
X4136491Y-11939103D02*
X4126967Y-11977198D01*
X4126967Y-11977198D02*
X4126967Y-12053388D01*
X4126967Y-12053388D02*
X4136491Y-12072436D01*
X4136491Y-12072436D02*
X4146015Y-12081960D01*
X4146015Y-12081960D02*
X4165062Y-12091484D01*
X4165062Y-12091484D02*
X4203158Y-12091484D01*
X4203158Y-12091484D02*
X4222205Y-12081960D01*
X4222205Y-12081960D02*
X4231729Y-12072436D01*
X4231729Y-12072436D02*
X4241253Y-12053388D01*
X4241253Y-12053388D02*
X4241253Y-12005769D01*
X4241253Y-12005769D02*
X4231729Y-11986722D01*
X4231729Y-11986722D02*
X4222205Y-11977198D01*
X4222205Y-11977198D02*
X4203158Y-11967674D01*
X4203158Y-11967674D02*
X4165062Y-11967674D01*
X4165062Y-11967674D02*
X4146015Y-11977198D01*
X4146015Y-11977198D02*
X4136491Y-11986722D01*
X4136491Y-11986722D02*
X4126967Y-12005769D01*
X4422205Y-11891484D02*
X4326967Y-11891484D01*
X4326967Y-11891484D02*
X4317444Y-11986722D01*
X4317444Y-11986722D02*
X4326967Y-11977198D01*
X4326967Y-11977198D02*
X4346015Y-11967674D01*
X4346015Y-11967674D02*
X4393634Y-11967674D01*
X4393634Y-11967674D02*
X4412682Y-11977198D01*
X4412682Y-11977198D02*
X4422205Y-11986722D01*
X4422205Y-11986722D02*
X4431729Y-12005769D01*
X4431729Y-12005769D02*
X4431729Y-12053388D01*
X4431729Y-12053388D02*
X4422205Y-12072436D01*
X4422205Y-12072436D02*
X4412682Y-12081960D01*
X4412682Y-12081960D02*
X4393634Y-12091484D01*
X4393634Y-12091484D02*
X4346015Y-12091484D01*
X4346015Y-12091484D02*
X4326967Y-12081960D01*
X4326967Y-12081960D02*
X4317444Y-12072436D01*
X4555539Y-11891484D02*
X4574586Y-11891484D01*
X4574586Y-11891484D02*
X4593634Y-11901008D01*
X4593634Y-11901008D02*
X4603158Y-11910531D01*
X4603158Y-11910531D02*
X4612682Y-11929579D01*
X4612682Y-11929579D02*
X4622205Y-11967674D01*
X4622205Y-11967674D02*
X4622205Y-12015293D01*
X4622205Y-12015293D02*
X4612682Y-12053388D01*
X4612682Y-12053388D02*
X4603158Y-12072436D01*
X4603158Y-12072436D02*
X4593634Y-12081960D01*
X4593634Y-12081960D02*
X4574586Y-12091484D01*
X4574586Y-12091484D02*
X4555539Y-12091484D01*
X4555539Y-12091484D02*
X4536491Y-12081960D01*
X4536491Y-12081960D02*
X4526967Y-12072436D01*
X4526967Y-12072436D02*
X4517444Y-12053388D01*
X4517444Y-12053388D02*
X4507920Y-12015293D01*
X4507920Y-12015293D02*
X4507920Y-11967674D01*
X4507920Y-11967674D02*
X4517444Y-11929579D01*
X4517444Y-11929579D02*
X4526967Y-11910531D01*
X4526967Y-11910531D02*
X4536491Y-11901008D01*
X4536491Y-11901008D02*
X4555539Y-11891484D01*
X4707920Y-12091484D02*
X4707920Y-11958150D01*
X4707920Y-11977198D02*
X4717444Y-11967674D01*
X4717444Y-11967674D02*
X4736491Y-11958150D01*
X4736491Y-11958150D02*
X4765063Y-11958150D01*
X4765063Y-11958150D02*
X4784110Y-11967674D01*
X4784110Y-11967674D02*
X4793634Y-11986722D01*
X4793634Y-11986722D02*
X4793634Y-12091484D01*
X4793634Y-11986722D02*
X4803158Y-11967674D01*
X4803158Y-11967674D02*
X4822205Y-11958150D01*
X4822205Y-11958150D02*
X4850777Y-11958150D01*
X4850777Y-11958150D02*
X4869825Y-11967674D01*
X4869825Y-11967674D02*
X4879348Y-11986722D01*
X4879348Y-11986722D02*
X4879348Y-12091484D01*
X4974586Y-12091484D02*
X4974586Y-11958150D01*
X4974586Y-11977198D02*
X4984110Y-11967674D01*
X4984110Y-11967674D02*
X5003158Y-11958150D01*
X5003158Y-11958150D02*
X5031729Y-11958150D01*
X5031729Y-11958150D02*
X5050777Y-11967674D01*
X5050777Y-11967674D02*
X5060301Y-11986722D01*
X5060301Y-11986722D02*
X5060301Y-12091484D01*
X5060301Y-11986722D02*
X5069825Y-11967674D01*
X5069825Y-11967674D02*
X5088872Y-11958150D01*
X5088872Y-11958150D02*
X5117444Y-11958150D01*
X5117444Y-11958150D02*
X5136491Y-11967674D01*
X5136491Y-11967674D02*
X5146015Y-11986722D01*
X5146015Y-11986722D02*
X5146015Y-12091484D01*
X5536491Y-11881960D02*
X5365063Y-12139103D01*
X5793634Y-11891484D02*
X5812682Y-11891484D01*
X5812682Y-11891484D02*
X5831729Y-11901008D01*
X5831729Y-11901008D02*
X5841253Y-11910531D01*
X5841253Y-11910531D02*
X5850777Y-11929579D01*
X5850777Y-11929579D02*
X5860301Y-11967674D01*
X5860301Y-11967674D02*
X5860301Y-12015293D01*
X5860301Y-12015293D02*
X5850777Y-12053388D01*
X5850777Y-12053388D02*
X5841253Y-12072436D01*
X5841253Y-12072436D02*
X5831729Y-12081960D01*
X5831729Y-12081960D02*
X5812682Y-12091484D01*
X5812682Y-12091484D02*
X5793634Y-12091484D01*
X5793634Y-12091484D02*
X5774586Y-12081960D01*
X5774586Y-12081960D02*
X5765063Y-12072436D01*
X5765063Y-12072436D02*
X5755539Y-12053388D01*
X5755539Y-12053388D02*
X5746015Y-12015293D01*
X5746015Y-12015293D02*
X5746015Y-11967674D01*
X5746015Y-11967674D02*
X5755539Y-11929579D01*
X5755539Y-11929579D02*
X5765063Y-11910531D01*
X5765063Y-11910531D02*
X5774586Y-11901008D01*
X5774586Y-11901008D02*
X5793634Y-11891484D01*
X5946015Y-12072436D02*
X5955539Y-12081960D01*
X5955539Y-12081960D02*
X5946015Y-12091484D01*
X5946015Y-12091484D02*
X5936491Y-12081960D01*
X5936491Y-12081960D02*
X5946015Y-12072436D01*
X5946015Y-12072436D02*
X5946015Y-12091484D01*
X6079348Y-11891484D02*
X6098396Y-11891484D01*
X6098396Y-11891484D02*
X6117444Y-11901008D01*
X6117444Y-11901008D02*
X6126967Y-11910531D01*
X6126967Y-11910531D02*
X6136491Y-11929579D01*
X6136491Y-11929579D02*
X6146015Y-11967674D01*
X6146015Y-11967674D02*
X6146015Y-12015293D01*
X6146015Y-12015293D02*
X6136491Y-12053388D01*
X6136491Y-12053388D02*
X6126967Y-12072436D01*
X6126967Y-12072436D02*
X6117444Y-12081960D01*
X6117444Y-12081960D02*
X6098396Y-12091484D01*
X6098396Y-12091484D02*
X6079348Y-12091484D01*
X6079348Y-12091484D02*
X6060301Y-12081960D01*
X6060301Y-12081960D02*
X6050777Y-12072436D01*
X6050777Y-12072436D02*
X6041253Y-12053388D01*
X6041253Y-12053388D02*
X6031729Y-12015293D01*
X6031729Y-12015293D02*
X6031729Y-11967674D01*
X6031729Y-11967674D02*
X6041253Y-11929579D01*
X6041253Y-11929579D02*
X6050777Y-11910531D01*
X6050777Y-11910531D02*
X6060301Y-11901008D01*
X6060301Y-11901008D02*
X6079348Y-11891484D01*
X6222206Y-11910531D02*
X6231729Y-11901008D01*
X6231729Y-11901008D02*
X6250777Y-11891484D01*
X6250777Y-11891484D02*
X6298396Y-11891484D01*
X6298396Y-11891484D02*
X6317444Y-11901008D01*
X6317444Y-11901008D02*
X6326967Y-11910531D01*
X6326967Y-11910531D02*
X6336491Y-11929579D01*
X6336491Y-11929579D02*
X6336491Y-11948627D01*
X6336491Y-11948627D02*
X6326967Y-11977198D01*
X6326967Y-11977198D02*
X6212682Y-12091484D01*
X6212682Y-12091484D02*
X6336491Y-12091484D01*
X6517444Y-11891484D02*
X6422206Y-11891484D01*
X6422206Y-11891484D02*
X6412682Y-11986722D01*
X6412682Y-11986722D02*
X6422206Y-11977198D01*
X6422206Y-11977198D02*
X6441253Y-11967674D01*
X6441253Y-11967674D02*
X6488872Y-11967674D01*
X6488872Y-11967674D02*
X6507920Y-11977198D01*
X6507920Y-11977198D02*
X6517444Y-11986722D01*
X6517444Y-11986722D02*
X6526967Y-12005769D01*
X6526967Y-12005769D02*
X6526967Y-12053388D01*
X6526967Y-12053388D02*
X6517444Y-12072436D01*
X6517444Y-12072436D02*
X6507920Y-12081960D01*
X6507920Y-12081960D02*
X6488872Y-12091484D01*
X6488872Y-12091484D02*
X6441253Y-12091484D01*
X6441253Y-12091484D02*
X6422206Y-12081960D01*
X6422206Y-12081960D02*
X6412682Y-12072436D01*
X6698396Y-11891484D02*
X6660301Y-11891484D01*
X6660301Y-11891484D02*
X6641253Y-11901008D01*
X6641253Y-11901008D02*
X6631729Y-11910531D01*
X6631729Y-11910531D02*
X6612682Y-11939103D01*
X6612682Y-11939103D02*
X6603158Y-11977198D01*
X6603158Y-11977198D02*
X6603158Y-12053388D01*
X6603158Y-12053388D02*
X6612682Y-12072436D01*
X6612682Y-12072436D02*
X6622206Y-12081960D01*
X6622206Y-12081960D02*
X6641253Y-12091484D01*
X6641253Y-12091484D02*
X6679348Y-12091484D01*
X6679348Y-12091484D02*
X6698396Y-12081960D01*
X6698396Y-12081960D02*
X6707920Y-12072436D01*
X6707920Y-12072436D02*
X6717444Y-12053388D01*
X6717444Y-12053388D02*
X6717444Y-12005769D01*
X6717444Y-12005769D02*
X6707920Y-11986722D01*
X6707920Y-11986722D02*
X6698396Y-11977198D01*
X6698396Y-11977198D02*
X6679348Y-11967674D01*
X6679348Y-11967674D02*
X6641253Y-11967674D01*
X6641253Y-11967674D02*
X6622206Y-11977198D01*
X6622206Y-11977198D02*
X6612682Y-11986722D01*
X6612682Y-11986722D02*
X6603158Y-12005769D01*
X6793634Y-11891484D02*
X6793634Y-11929579D01*
X6869825Y-11891484D02*
X6869825Y-11929579D01*
X7165063Y-12167674D02*
X7155539Y-12158150D01*
X7155539Y-12158150D02*
X7136491Y-12129579D01*
X7136491Y-12129579D02*
X7126968Y-12110531D01*
X7126968Y-12110531D02*
X7117444Y-12081960D01*
X7117444Y-12081960D02*
X7107920Y-12034341D01*
X7107920Y-12034341D02*
X7107920Y-11996246D01*
X7107920Y-11996246D02*
X7117444Y-11948627D01*
X7117444Y-11948627D02*
X7126968Y-11920055D01*
X7126968Y-11920055D02*
X7136491Y-11901008D01*
X7136491Y-11901008D02*
X7155539Y-11872436D01*
X7155539Y-11872436D02*
X7165063Y-11862912D01*
X7231729Y-11910531D02*
X7241253Y-11901008D01*
X7241253Y-11901008D02*
X7260301Y-11891484D01*
X7260301Y-11891484D02*
X7307920Y-11891484D01*
X7307920Y-11891484D02*
X7326968Y-11901008D01*
X7326968Y-11901008D02*
X7336491Y-11910531D01*
X7336491Y-11910531D02*
X7346015Y-11929579D01*
X7346015Y-11929579D02*
X7346015Y-11948627D01*
X7346015Y-11948627D02*
X7336491Y-11977198D01*
X7336491Y-11977198D02*
X7222206Y-12091484D01*
X7222206Y-12091484D02*
X7346015Y-12091484D01*
X7584110Y-12091484D02*
X7584110Y-11891484D01*
X7669825Y-12091484D02*
X7669825Y-11986722D01*
X7669825Y-11986722D02*
X7660301Y-11967674D01*
X7660301Y-11967674D02*
X7641253Y-11958150D01*
X7641253Y-11958150D02*
X7612682Y-11958150D01*
X7612682Y-11958150D02*
X7593634Y-11967674D01*
X7593634Y-11967674D02*
X7584110Y-11977198D01*
X7793634Y-12091484D02*
X7774587Y-12081960D01*
X7774587Y-12081960D02*
X7765063Y-12072436D01*
X7765063Y-12072436D02*
X7755539Y-12053388D01*
X7755539Y-12053388D02*
X7755539Y-11996246D01*
X7755539Y-11996246D02*
X7765063Y-11977198D01*
X7765063Y-11977198D02*
X7774587Y-11967674D01*
X7774587Y-11967674D02*
X7793634Y-11958150D01*
X7793634Y-11958150D02*
X7822206Y-11958150D01*
X7822206Y-11958150D02*
X7841253Y-11967674D01*
X7841253Y-11967674D02*
X7850777Y-11977198D01*
X7850777Y-11977198D02*
X7860301Y-11996246D01*
X7860301Y-11996246D02*
X7860301Y-12053388D01*
X7860301Y-12053388D02*
X7850777Y-12072436D01*
X7850777Y-12072436D02*
X7841253Y-12081960D01*
X7841253Y-12081960D02*
X7822206Y-12091484D01*
X7822206Y-12091484D02*
X7793634Y-12091484D01*
X7974587Y-12091484D02*
X7955539Y-12081960D01*
X7955539Y-12081960D02*
X7946015Y-12062912D01*
X7946015Y-12062912D02*
X7946015Y-11891484D01*
X8126968Y-12081960D02*
X8107920Y-12091484D01*
X8107920Y-12091484D02*
X8069825Y-12091484D01*
X8069825Y-12091484D02*
X8050777Y-12081960D01*
X8050777Y-12081960D02*
X8041253Y-12062912D01*
X8041253Y-12062912D02*
X8041253Y-11986722D01*
X8041253Y-11986722D02*
X8050777Y-11967674D01*
X8050777Y-11967674D02*
X8069825Y-11958150D01*
X8069825Y-11958150D02*
X8107920Y-11958150D01*
X8107920Y-11958150D02*
X8126968Y-11967674D01*
X8126968Y-11967674D02*
X8136491Y-11986722D01*
X8136491Y-11986722D02*
X8136491Y-12005769D01*
X8136491Y-12005769D02*
X8041253Y-12024817D01*
X8212682Y-12081960D02*
X8231730Y-12091484D01*
X8231730Y-12091484D02*
X8269825Y-12091484D01*
X8269825Y-12091484D02*
X8288872Y-12081960D01*
X8288872Y-12081960D02*
X8298396Y-12062912D01*
X8298396Y-12062912D02*
X8298396Y-12053388D01*
X8298396Y-12053388D02*
X8288872Y-12034341D01*
X8288872Y-12034341D02*
X8269825Y-12024817D01*
X8269825Y-12024817D02*
X8241253Y-12024817D01*
X8241253Y-12024817D02*
X8222206Y-12015293D01*
X8222206Y-12015293D02*
X8212682Y-11996246D01*
X8212682Y-11996246D02*
X8212682Y-11986722D01*
X8212682Y-11986722D02*
X8222206Y-11967674D01*
X8222206Y-11967674D02*
X8241253Y-11958150D01*
X8241253Y-11958150D02*
X8269825Y-11958150D01*
X8269825Y-11958150D02*
X8288872Y-11967674D01*
X8365063Y-12167674D02*
X8374587Y-12158150D01*
X8374587Y-12158150D02*
X8393634Y-12129579D01*
X8393634Y-12129579D02*
X8403158Y-12110531D01*
X8403158Y-12110531D02*
X8412682Y-12081960D01*
X8412682Y-12081960D02*
X8422206Y-12034341D01*
X8422206Y-12034341D02*
X8422206Y-11996246D01*
X8422206Y-11996246D02*
X8412682Y-11948627D01*
X8412682Y-11948627D02*
X8403158Y-11920055D01*
X8403158Y-11920055D02*
X8393634Y-11901008D01*
X8393634Y-11901008D02*
X8374587Y-11872436D01*
X8374587Y-11872436D02*
X8365063Y-11862912D01*
X8726968Y-12167674D02*
X8717444Y-12158150D01*
X8717444Y-12158150D02*
X8698396Y-12129579D01*
X8698396Y-12129579D02*
X8688873Y-12110531D01*
X8688873Y-12110531D02*
X8679349Y-12081960D01*
X8679349Y-12081960D02*
X8669825Y-12034341D01*
X8669825Y-12034341D02*
X8669825Y-11996246D01*
X8669825Y-11996246D02*
X8679349Y-11948627D01*
X8679349Y-11948627D02*
X8688873Y-11920055D01*
X8688873Y-11920055D02*
X8698396Y-11901008D01*
X8698396Y-11901008D02*
X8717444Y-11872436D01*
X8717444Y-11872436D02*
X8726968Y-11862912D01*
X8803158Y-11958150D02*
X8803158Y-12091484D01*
X8803158Y-11977198D02*
X8812682Y-11967674D01*
X8812682Y-11967674D02*
X8831730Y-11958150D01*
X8831730Y-11958150D02*
X8860301Y-11958150D01*
X8860301Y-11958150D02*
X8879349Y-11967674D01*
X8879349Y-11967674D02*
X8888873Y-11986722D01*
X8888873Y-11986722D02*
X8888873Y-12091484D01*
X9012682Y-12091484D02*
X8993634Y-12081960D01*
X8993634Y-12081960D02*
X8984111Y-12072436D01*
X8984111Y-12072436D02*
X8974587Y-12053388D01*
X8974587Y-12053388D02*
X8974587Y-11996246D01*
X8974587Y-11996246D02*
X8984111Y-11977198D01*
X8984111Y-11977198D02*
X8993634Y-11967674D01*
X8993634Y-11967674D02*
X9012682Y-11958150D01*
X9012682Y-11958150D02*
X9041254Y-11958150D01*
X9041254Y-11958150D02*
X9060301Y-11967674D01*
X9060301Y-11967674D02*
X9069825Y-11977198D01*
X9069825Y-11977198D02*
X9079349Y-11996246D01*
X9079349Y-11996246D02*
X9079349Y-12053388D01*
X9079349Y-12053388D02*
X9069825Y-12072436D01*
X9069825Y-12072436D02*
X9060301Y-12081960D01*
X9060301Y-12081960D02*
X9041254Y-12091484D01*
X9041254Y-12091484D02*
X9012682Y-12091484D01*
X9136492Y-11958150D02*
X9212682Y-11958150D01*
X9165063Y-11891484D02*
X9165063Y-12062912D01*
X9165063Y-12062912D02*
X9174587Y-12081960D01*
X9174587Y-12081960D02*
X9193634Y-12091484D01*
X9193634Y-12091484D02*
X9212682Y-12091484D01*
X9431730Y-11958150D02*
X9431730Y-12158150D01*
X9431730Y-11967674D02*
X9450777Y-11958150D01*
X9450777Y-11958150D02*
X9488873Y-11958150D01*
X9488873Y-11958150D02*
X9507920Y-11967674D01*
X9507920Y-11967674D02*
X9517444Y-11977198D01*
X9517444Y-11977198D02*
X9526968Y-11996246D01*
X9526968Y-11996246D02*
X9526968Y-12053388D01*
X9526968Y-12053388D02*
X9517444Y-12072436D01*
X9517444Y-12072436D02*
X9507920Y-12081960D01*
X9507920Y-12081960D02*
X9488873Y-12091484D01*
X9488873Y-12091484D02*
X9450777Y-12091484D01*
X9450777Y-12091484D02*
X9431730Y-12081960D01*
X9641254Y-12091484D02*
X9622206Y-12081960D01*
X9622206Y-12081960D02*
X9612682Y-12062912D01*
X9612682Y-12062912D02*
X9612682Y-11891484D01*
X9803158Y-12091484D02*
X9803158Y-11986722D01*
X9803158Y-11986722D02*
X9793635Y-11967674D01*
X9793635Y-11967674D02*
X9774587Y-11958150D01*
X9774587Y-11958150D02*
X9736492Y-11958150D01*
X9736492Y-11958150D02*
X9717444Y-11967674D01*
X9803158Y-12081960D02*
X9784111Y-12091484D01*
X9784111Y-12091484D02*
X9736492Y-12091484D01*
X9736492Y-12091484D02*
X9717444Y-12081960D01*
X9717444Y-12081960D02*
X9707920Y-12062912D01*
X9707920Y-12062912D02*
X9707920Y-12043865D01*
X9707920Y-12043865D02*
X9717444Y-12024817D01*
X9717444Y-12024817D02*
X9736492Y-12015293D01*
X9736492Y-12015293D02*
X9784111Y-12015293D01*
X9784111Y-12015293D02*
X9803158Y-12005769D01*
X9869825Y-11958150D02*
X9946015Y-11958150D01*
X9898396Y-11891484D02*
X9898396Y-12062912D01*
X9898396Y-12062912D02*
X9907920Y-12081960D01*
X9907920Y-12081960D02*
X9926968Y-12091484D01*
X9926968Y-12091484D02*
X9946015Y-12091484D01*
X10088873Y-12081960D02*
X10069825Y-12091484D01*
X10069825Y-12091484D02*
X10031730Y-12091484D01*
X10031730Y-12091484D02*
X10012682Y-12081960D01*
X10012682Y-12081960D02*
X10003158Y-12062912D01*
X10003158Y-12062912D02*
X10003158Y-11986722D01*
X10003158Y-11986722D02*
X10012682Y-11967674D01*
X10012682Y-11967674D02*
X10031730Y-11958150D01*
X10031730Y-11958150D02*
X10069825Y-11958150D01*
X10069825Y-11958150D02*
X10088873Y-11967674D01*
X10088873Y-11967674D02*
X10098396Y-11986722D01*
X10098396Y-11986722D02*
X10098396Y-12005769D01*
X10098396Y-12005769D02*
X10003158Y-12024817D01*
X10269825Y-12091484D02*
X10269825Y-11891484D01*
X10269825Y-12081960D02*
X10250777Y-12091484D01*
X10250777Y-12091484D02*
X10212682Y-12091484D01*
X10212682Y-12091484D02*
X10193635Y-12081960D01*
X10193635Y-12081960D02*
X10184111Y-12072436D01*
X10184111Y-12072436D02*
X10174587Y-12053388D01*
X10174587Y-12053388D02*
X10174587Y-11996246D01*
X10174587Y-11996246D02*
X10184111Y-11977198D01*
X10184111Y-11977198D02*
X10193635Y-11967674D01*
X10193635Y-11967674D02*
X10212682Y-11958150D01*
X10212682Y-11958150D02*
X10250777Y-11958150D01*
X10250777Y-11958150D02*
X10269825Y-11967674D01*
X10346016Y-12167674D02*
X10355539Y-12158150D01*
X10355539Y-12158150D02*
X10374587Y-12129579D01*
X10374587Y-12129579D02*
X10384111Y-12110531D01*
X10384111Y-12110531D02*
X10393635Y-12081960D01*
X10393635Y-12081960D02*
X10403158Y-12034341D01*
X10403158Y-12034341D02*
X10403158Y-11996246D01*
X10403158Y-11996246D02*
X10393635Y-11948627D01*
X10393635Y-11948627D02*
X10384111Y-11920055D01*
X10384111Y-11920055D02*
X10374587Y-11901008D01*
X10374587Y-11901008D02*
X10355539Y-11872436D01*
X10355539Y-11872436D02*
X10346016Y-11862912D01*
M02*
